<?xml version="1.0" encoding="UTF-8"?>
<svg xmlns="http://www.w3.org/2000/svg" xmlns:xlink="http://www.w3.org/1999/xlink" version="1.1" viewBox="0 0 624 128">
  <defs>
    <style>
      .cls-1 {
        fill: url(#linear-gradient-8);
      }

      .cls-2 {
        fill: url(#linear-gradient-7);
      }

      .cls-3 {
        fill: url(#linear-gradient-5);
      }

      .cls-4 {
        fill: url(#linear-gradient-6);
      }

      .cls-5 {
        fill: url(#linear-gradient-9);
      }

      .cls-6 {
        fill: url(#linear-gradient-4);
      }

      .cls-7 {
        fill: url(#linear-gradient-3);
      }

      .cls-8 {
        fill: url(#linear-gradient-2);
      }

      .cls-9 {
        fill: url(#linear-gradient);
      }

      .cls-10 {
        fill: url(#linear-gradient-10);
      }

      .cls-11 {
        fill: url(#linear-gradient-11);
      }

      .cls-12 {
        fill: url(#linear-gradient-12);
      }

      .cls-13 {
        fill: url(#linear-gradient-13);
      }

      .cls-14 {
        fill: url(#linear-gradient-14);
      }
    </style>
    <linearGradient id="linear-gradient" x1="120" y1="91.4" x2="174" y2="91.4" gradientTransform="translate(0 2)" gradientUnits="userSpaceOnUse">
      <stop offset="0" stop-color="#e5c933"/>
      <stop offset=".4" stop-color="#d0cb4c"/>
      <stop offset="1" stop-color="#9bce7a"/>
    </linearGradient>
    <linearGradient id="linear-gradient-2" x1="133.5" y1="77.6" x2="133.9" y2="77.6" gradientTransform="translate(0 2)" gradientUnits="userSpaceOnUse">
      <stop offset="0" stop-color="#e5c933"/>
      <stop offset=".4" stop-color="#d0cb4c"/>
      <stop offset="1" stop-color="#9bce7a"/>
    </linearGradient>
    <linearGradient id="linear-gradient-3" x1="129.8" y1="99.1" x2="154.2" y2="99.1" gradientTransform="translate(0 2)" gradientUnits="userSpaceOnUse">
      <stop offset="0" stop-color="#e5c933"/>
      <stop offset=".4" stop-color="#d0cb4c"/>
      <stop offset="1" stop-color="#9bce7a"/>
    </linearGradient>
    <linearGradient id="linear-gradient-4" x1="120" y1="61.9" x2="120.2" y2="61.9" gradientTransform="translate(0 2)" gradientUnits="userSpaceOnUse">
      <stop offset="0" stop-color="#e5c933"/>
      <stop offset=".4" stop-color="#d0cb4c"/>
      <stop offset="1" stop-color="#9bce7a"/>
    </linearGradient>
    <linearGradient id="linear-gradient-5" x1="109.6" y1="83.8" x2="131.3" y2="83.8" gradientTransform="translate(0 2)" gradientUnits="userSpaceOnUse">
      <stop offset="0" stop-color="#e5c933"/>
      <stop offset=".4" stop-color="#d0cb4c"/>
      <stop offset="1" stop-color="#9bce7a"/>
    </linearGradient>
    <linearGradient id="linear-gradient-6" x1="92.2" y1="61.5" x2="116.7" y2="61.5" gradientTransform="translate(0 2)" gradientUnits="userSpaceOnUse">
      <stop offset="0" stop-color="#e5c933"/>
      <stop offset=".4" stop-color="#d0cb4c"/>
      <stop offset="1" stop-color="#9bce7a"/>
    </linearGradient>
    <linearGradient id="linear-gradient-7" x1="120" y1="61.9" x2="120.2" y2="61.9" gradientTransform="translate(0 2)" gradientUnits="userSpaceOnUse">
      <stop offset="0" stop-color="#e5c933"/>
      <stop offset=".4" stop-color="#d0cb4c"/>
      <stop offset="1" stop-color="#9bce7a"/>
    </linearGradient>
    <linearGradient id="linear-gradient-8" x1="187.1" y1="64.1" x2="510.2" y2="64.1" gradientTransform="translate(0 2)" gradientUnits="userSpaceOnUse">
      <stop offset="0" stop-color="#eec32a"/>
      <stop offset=".2" stop-color="#edb22c"/>
      <stop offset=".5" stop-color="#ed892e"/>
      <stop offset="1" stop-color="#ef382d"/>
    </linearGradient>
    <linearGradient id="linear-gradient-9" x1="118.4" y1="51.7" x2="173.9" y2="51.7" gradientTransform="translate(0 2)" gradientUnits="userSpaceOnUse">
      <stop offset="0" stop-color="#eec32a"/>
      <stop offset=".2" stop-color="#edb22c"/>
      <stop offset=".5" stop-color="#ed892e"/>
      <stop offset="1" stop-color="#ef382d"/>
    </linearGradient>
    <linearGradient id="linear-gradient-10" x1="187.1" y1="51.6" x2="510.2" y2="51.6" gradientTransform="translate(0 2)" gradientUnits="userSpaceOnUse">
      <stop offset="0" stop-color="#eec32a"/>
      <stop offset=".2" stop-color="#edb22c"/>
      <stop offset=".5" stop-color="#ed892e"/>
      <stop offset="1" stop-color="#ef382d"/>
    </linearGradient>
    <linearGradient id="linear-gradient-11" x1="187.1" y1="51.6" x2="510.2" y2="51.6" gradientTransform="translate(0 2)" gradientUnits="userSpaceOnUse">
      <stop offset="0" stop-color="#eec32a"/>
      <stop offset=".2" stop-color="#edb22c"/>
      <stop offset=".5" stop-color="#ed892e"/>
      <stop offset="1" stop-color="#ef382d"/>
    </linearGradient>
    <linearGradient id="linear-gradient-12" x1="187.1" y1="42.1" x2="510.2" y2="42.1" gradientTransform="translate(0 2)" gradientUnits="userSpaceOnUse">
      <stop offset="0" stop-color="#eec32a"/>
      <stop offset=".2" stop-color="#edb22c"/>
      <stop offset=".5" stop-color="#ed892e"/>
      <stop offset="1" stop-color="#ef382d"/>
    </linearGradient>
    <linearGradient id="linear-gradient-13" x1="187.1" y1="41" x2="510.2" y2="41" gradientTransform="translate(0 2)" gradientUnits="userSpaceOnUse">
      <stop offset="0" stop-color="#eec32a"/>
      <stop offset=".2" stop-color="#edb22c"/>
      <stop offset=".5" stop-color="#ed892e"/>
      <stop offset="1" stop-color="#ef382d"/>
    </linearGradient>
    <linearGradient id="linear-gradient-14" x1="187.1" y1="64.4" x2="510.2" y2="64.4" gradientTransform="translate(0 2)" gradientUnits="userSpaceOnUse">
      <stop offset="0" stop-color="#eec32a"/>
      <stop offset=".2" stop-color="#edb22c"/>
      <stop offset=".5" stop-color="#ed892e"/>
      <stop offset="1" stop-color="#ef382d"/>
    </linearGradient>
  </defs>
  <!-- Generator: Adobe Illustrator 28.6.0, SVG Export Plug-In . SVG Version: 1.2.0 Build 709)  -->
  <g>
    <g id="Layer_1">
      <g id="Layer_1-2" data-name="Layer_1">
        <g>
          <path class="cls-9" d="M173.9,85c-4.6,0-8.6-2.3-11-5.8-1.3,1.1-2.7,2.1-4.2,3s-3,1.6-4.6,2.1c-.3,0-.5.2-.8.3l-3,8.5c0,.3.1.5.2.8,0,.2,0,.5.1.7,4.2,22.9,23.3,28.5,23.3,28.5v-37.9h0v-.2ZM133.6,79.4h-.1c.1.2.3.2.4.3h.1c-.1-.2-.3-.2-.4-.3ZM120.1,63.7h0c0,.2,0,.3.2.5h0c0-.2-.2-.3-.2-.5Z"/>
          <path class="cls-8" d="M133.8,79.7c-.1,0-.3,0-.4-.2h.5-.1v.2Z"/>
          <path class="cls-7" d="M154.1,84.3l-3.5,10.1v.2l-8.4,24.7s-16.4-13.3-11.5-35.5h0c0-.3.2-.7.2-1h0c.1,0,.3,0,.4,0,4,1.9,8.3,2.9,12.9,2.9s6.3-.5,9.1-1.4c.3,0,.6-.2.8-.3v.2Z"/>
          <path class="cls-6" d="M120.2,64.1h0c0,0,0-.2-.2-.4h0c0,0,0,.3.2.4Z"/>
          <path class="cls-3" d="M131,82.8c.1,0,.3,0,.4.2l-.7.9h0l-15.9,21.2s-12.9-18.4,1.8-38.4c0,0,0,0,0-.2h0c.5,1.3,1,2.4,1.6,3.6,2.6,5,6.2,8.9,10.8,11.7.7.4,1.4.7,2,1.1h0Z"/>
          <path class="cls-4" d="M116.7,66.5h0l-.2.2-23.4,16.6s-2.8-8.6,1.7-19.6c3.8-9.3,11.5-16.4,20.8-19.9-.8,3-1.2,6.3-1.2,9.7s.8,9,2.3,13.1h0Z"/>
          <path class="cls-2" d="M120.2,64.1h0c0,0,0-.2-.2-.4h0c0,0,0,.3.2.4Z"/>
          <path class="cls-1" d="M206.4,28.5c3.6-2.1,7.7-3.2,12.4-3.2s9.3,1.2,13.2,3.5c4,2.3,7.1,5.6,9.3,9.8s3.4,9.1,3.4,14.7-1.2,10.4-3.4,14.8c-2.3,4.3-5.4,7.7-9.3,10.1s-8.4,3.6-13.2,3.6-8.8-1.1-12.3-3.2c-3.6-2.1-6.3-4.7-8.1-7.8v36.1h0c-5,0-9.1-4.1-9.1-9.1V26.2h9.1v10.1c1.8-3.1,4.5-5.7,8-7.8h0ZM233,42.6c-1.7-3.1-3.9-5.4-6.7-7s-5.9-2.4-9.3-2.4-6.4.8-9.2,2.5c-2.8,1.6-5.1,4-6.8,7.1s-2.6,6.7-2.6,10.8.9,7.7,2.6,10.9c1.7,3.1,4,5.5,6.8,7.1s5.9,2.5,9.2,2.5,6.5-.8,9.3-2.5c2.8-1.6,5.1-4,6.7-7.1,1.7-3.1,2.5-6.7,2.5-11s-.9-7.7-2.5-10.8h0Z"/>
          <path class="cls-5" d="M121.8,38.7c2.3-4.2,5.4-7.5,9.3-9.8,4-2.3,8.4-3.5,13.2-3.5s8.9,1.1,12.5,3.1c3.5,2.1,6.2,4.7,7.9,7.8v-10h9.2v54.7h0c-5.1,0-9.2-4.1-9.2-9.2v-1c-1.8,3.2-4.5,5.8-8,7.9s-7.7,3.2-12.4,3.2-9.2-1.2-13.2-3.6c-3.9-2.4-7-5.8-9.3-10.1s-3.4-9.2-3.4-14.8,1.1-10.4,3.4-14.7ZM162.3,42.7c-1.7-3.1-3.9-5.4-6.7-7s-5.9-2.5-9.3-2.5-6.5.8-9.3,2.4c-2.8,1.6-5,3.9-6.7,7s-2.5,6.7-2.5,10.8.9,7.8,2.5,11c1.6,3.2,3.9,5.5,6.7,7.1s5.9,2.5,9.3,2.5,6.5-.8,9.3-2.5c2.8-1.6,5.1-4,6.7-7.1,1.7-3.1,2.5-6.7,2.5-10.9s-.9-7.7-2.5-10.8Z"/>
          <path class="cls-10" d="M258.2,38.6c2.3-4.2,5.4-7.5,9.3-9.8,4-2.3,8.4-3.5,13.2-3.5s8.9,1.1,12.5,3.1c3.5,2.1,6.2,4.7,7.9,7.8v-10h9.2v54.7h0c-5.1,0-9.2-4.1-9.2-9.2v-1c-1.8,3.2-4.5,5.8-8,7.9s-7.7,3.2-12.4,3.2-9.2-1.2-13.2-3.6c-3.9-2.4-7-5.8-9.3-10.1-2.3-4.3-3.4-9.2-3.4-14.8s1.2-10.4,3.4-14.7ZM298.6,42.6c-1.7-3.1-3.9-5.4-6.7-7s-5.9-2.5-9.3-2.5-6.5.8-9.3,2.4c-2.8,1.6-5,3.9-6.7,7s-2.5,6.7-2.5,10.8.9,7.8,2.5,11c1.7,3.1,3.9,5.5,6.7,7.1,2.8,1.6,5.9,2.5,9.3,2.5s6.5-.8,9.3-2.5c2.8-1.6,5.1-4,6.7-7.1,1.7-3.1,2.5-6.7,2.5-10.9s-.9-7.7-2.5-10.8Z"/>
          <path class="cls-11" d="M324.2,38.7c2.3-4.2,5.4-7.5,9.4-9.8s8.6-3.5,13.8-3.5,12.3,1.6,16.6,4.9c4.4,3.3,7.2,7.8,8.6,13.6h-.7c-4.7,0-9.1-2.2-12.2-5.7-.7-.8-1.5-1.5-2.4-2.2-2.7-1.9-6-2.9-10-2.9s-9.4,1.8-12.6,5.3c-3.2,3.6-4.8,8.6-4.8,15.1s1.6,11.7,4.8,15.3c3.2,3.6,7.4,5.4,12.6,5.4s7.3-1,10-2.8c.9-.6,1.7-1.3,2.4-2.1,3.2-3.6,7.6-5.9,12.5-5.9h.5c-1.5,5.6-4.4,10-8.8,13.4s-9.9,5-16.5,5-9.8-1.2-13.8-3.5-7.2-5.6-9.4-9.9-3.4-9.2-3.4-15,1.2-10.4,3.4-14.6h0Z"/>
          <path class="cls-12" d="M423.2,27.9c3.3,1.8,5.9,4.4,7.8,7.9s2.9,7.8,2.9,12.9v32.3h-9v-30.9c0-5.5-1.4-9.6-4.1-12.5s-6.5-4.3-11.2-4.3-8.6,1.5-11.5,4.5c-2.8,3-4.2,7.3-4.2,13.1v30.2h-9.1V7.1h9.1v27c1.8-2.8,4.3-5,7.4-6.5s6.7-2.3,10.6-2.3,7.9.9,11.2,2.6h.1Z"/>
          <path class="cls-13" d="M449.1,15.6c-1.2-1.2-1.8-2.7-1.8-4.4s.6-3.2,1.8-4.4c1.2-1.2,2.7-1.8,4.4-1.8s3.1.6,4.2,1.8c1.2,1.2,1.8,2.7,1.8,4.4s-.6,3.2-1.8,4.4c-1.2,1.2-2.6,1.8-4.2,1.8s-3.2-.6-4.4-1.8ZM457.8,26.2v54.7h-9.1v-45.6c0-5,4.1-9.1,9.1-9.1h0Z"/>
          <path class="cls-14" d="M520.4,26.2l-33,80.5h-9.4l10.8-26.4-22.1-54.1h0c6.1,0,11.6,3.7,13.7,9.4l13.5,34.9,13.6-35.6c2.1-5.2,7.1-8.7,12.8-8.7h0Z"/>
        </g>
      </g>
    </g>
  </g>
</svg>