<?xml version="1.0" encoding="UTF-8"?>
<svg xmlns="http://www.w3.org/2000/svg" version="1.1" width="208" height="43" viewBox="0 0 624 128">
  <defs>
    <style>
      .cls-1 {
        fill: #ed1c24;
      }
    </style>
  </defs>
  <!-- Generator: Adobe Illustrator 28.6.0, SVG Export Plug-In . SVG Version: 1.2.0 Build 709)  -->
  <g>
    <g id="Layer_1">
      <g id="Layer_1-2" data-name="Layer_1">
        <path class="cls-1" d="M404,47c.8.3,1.7.6,2.5.8,1.7.5,3.3,1.3,4.8,2.4,1.9,1.3,3.5,2.9,5,4.6.4.4.7.8,1,1.3,3.6,5.8,7.2,11.6,10.8,17.5,7.9,12.8,15.8,25.6,23.7,38.4.3.4.5.7,1.1.6h6.3v-9.6c0-.6-.1-1.1-.5-1.6-6.9-10.8-13.7-21.6-20.5-32.5-5.1-8-10.2-16.1-15.2-24.1-.2-.4-.4-.6-.9-.6h-18.1v2.8Z"/>
        <path class="cls-1" d="M402.7,112.1v-2.7c0,0-.2-.3-.3-.4-.6-.2-1.1-.5-1.7-.7s-1.2-.4-1.7-.6c-1.4-.5-2.4-1.5-3.1-2.8-.3-.6-.6-1.2-.8-1.8-3.1-8.5-6.2-17-9.3-25.5-3.8-10.5-7.6-21-11.4-31.5-.4-1-.8-2-1.4-2.9-.3-.5-.7-.7-1.3-.5-.2,0-.5,0-.8,0-2.2.4-4.4.8-6.5,1.2-.8.2-1.7.4-2.6.6-.3,1.5-.5,3-.8,4.4-.1.6,0,.9.6,1.1.8.4,1.6.8,2.4,1.1.3,0,.5.2.6.5,1,2.6,2.2,5.3,3.1,7.9,3,8.4,5.9,16.8,8.8,25.2,1.9,5.3,3.8,10.6,5.7,16,.5,1.4.9,2.9,1.3,4.4.3,1-.2,1.8-1.2,2.3-.3,0-.6.2-.9.3-.7.2-1.3.3-2,.4-.9.2-1.7.4-2.5.8v2.9h25.8v.2Z"/>
        <path class="cls-1" d="M220,44.3v1.7c0,1.2,0,1.3,1.2,1.7.8.3,1.7.6,2.6.9,1.6.5,2.5,1.6,2.7,3.2.2,1.4.3,2.7.3,4.1v46c0,1.2-.1,2.5-.5,3.7s-1.1,2-2.3,2.3c-.5,0-1,.3-1.5.4-.8.2-1.6.6-2.4,1.1v2.7c.7.2,18,0,18.5,0V44.3h-18.6Z"/>
        <path class="cls-1" d="M157.9,47.3c.9.4,1.8.7,2.7,1.1,1.8.7,3,1.9,3.6,3.7,6.6,20.1,13.3,40.3,20,60.4,0,.2.2.5.2.7h5.9c0-.2.2-.4.2-.6.8-2.4,1.7-4.9,2.5-7.3.2-.4.1-.8,0-1.3-3.6-11.2-7.3-22.4-10.9-33.6-1.9-5.7-3.8-11.4-5.6-17.1-.2-.7-.3-1.5-.4-2.2-.1-.8.2-1.5.9-2,.3-.2.6-.4.9-.5.9-.3,1.7-.6,2.6-.9.6-.2,1.3-.4,1.9-.6v-3h-24.6v3.2Z"/>
        <path class="cls-1" d="M307,42.8c-.4,0-.7,0-1.1,0-4.6.5-8.7,2.1-12.4,4.9-4,3-7,6.9-9.3,11.4-2.5,4.9-3.7,10.2-4,15.6-.3,5.3,0,10.6,1.2,15.7,1.1,4.5,2.8,8.7,5.5,12.5,4.8,6.6,11.2,10,19.4,10.2h.7v-3.8h-.2c-4.3-.8-7.4-3.3-9.3-7.1-.9-1.8-1.6-3.6-2.1-5.6-1.2-4.7-1.7-9.4-1.8-14.2-.1-4.6,0-9.1.4-13.7.3-3.1.8-6.2,1.7-9.3.8-2.6,1.8-5.1,3.4-7.3,1.9-2.6,4.4-4.4,7.6-5.2.1,0,.2,0,.3,0v-4.2h0Z"/>
        <path class="cls-1" d="M334.3,108.4v-.2c-1.1-2.5-1.5-5.1-1.5-7.9v-10.2c0-2.5.8-4.7,2.5-6.6.5-.6,1-1.2,1.5-1.8.6-.8.9-1.7,1-2.6-1,0-24.5,0-25,0v3.2c.8.2,1.7.4,2.5.6,1.1.2,2.1.5,3.1,1,1.2.6,1.9,1.5,2.1,2.8,0,.4.2.8.2,1.2.3,3.7.3,7.3-.1,11-.2,1.8-.6,3.6-1.3,5.3-1.2,2.8-3.3,4.5-6.3,5.1-.6,0-1.2.2-1.8.3v3.4h.5c1.8-.5,3.6-1,5.4-1.6.9-.3,1.7-.5,2.6-.5,3.5,0,7-.2,10.4-.8,1.6-.3,3.1-.6,4.3-1.7h-.1Z"/>
        <path class="cls-1" d="M424.7,109.3c-1-.3-2-.7-2.9-1-1-.4-2-.8-2.9-1.3-.9-.4-1.5-1.2-1.9-2.1-.2-.6-.3-1.2-.3-1.9v-40.9c0-.4,0-.8-.3-1.1-1.6-2.1-3.2-4.2-4.8-6.3,0,0-.2-.2-.4-.4v48.7c0,1.9-.8,3.2-2.4,4.1-.8.4-1.6.8-2.5,1.1-.9.4-1.7.7-2.6,1v2.8h21v-2.8h0Z"/>
        <path class="cls-1" d="M360.1,109.3c-.8-.4-1.5-.7-2.3-.8-.8-.2-1.6-.3-2.4-.5-1.7-.4-2.3-1.2-2.4-2.9v-.2c-.1-1.4,0-2.8.5-4.1.9-2.9,1.8-5.7,2.8-8.6,3-9.1,6.1-18.2,9.1-27.3.1-.4.2-.7,0-1.1-.8-2.2-1.7-4.4-2.5-6.6,0-.2-.1-.3-.3-.5-.1.3-.2.6-.3.8-5.2,15.6-10.5,31.1-15.7,46.7-.6,1.7-1.7,2.9-3.3,3.6-.7.3-1.5.5-2.2.8-.6.2-1.2.5-1.8.7v2.9c.7.2,20.2,0,20.7,0v-2.8h0Z"/>
        <path class="cls-1" d="M199.3,44.3v2.7c0,.2.2.4.3.5.5.3,1,.5,1.5.7.7.2,1.4.4,2,.6,1.3.4,2,1.2,2.1,2.6,0,.9,0,1.8-.3,2.7-.7,2.7-1.4,5.4-2.3,8-2.3,7-4.7,14.1-7.1,21.1-.9,2.6-1.8,5.2-2.7,7.7-.2.5-.2,1,0,1.6.7,2.2,1.3,4.4,1.9,6.6,0,.2.1.4.2.8.1-.4.2-.6.3-.8,4.4-12.7,8.8-25.4,13.2-38.2.9-2.7,1.9-5.3,2.8-8,.7-2.1,2-3.5,4.1-4.4.4,0,.7-.3,1.1-.4.4-.2.8-.4,1.2-.6.1,0,.3-.3.3-.4v-2.8h-18.8.2Z"/>
        <path class="cls-1" d="M446.3,44.1v2.3c0,.4.2.5.5.7.7.3,1.5.6,2.2.9.8.3,1.6.6,2.3,1,1.1.6,1.9,1.4,2.2,2.7.1.6.2,1.2.2,1.7v32.8c0,.3,0,.6.2.8,1.6,2.6,3.3,5.1,4.9,7.7,0,0,.2.2.4.4v-42.3c0-1.6.7-2.8,2-3.7.7-.5,1.5-.8,2.2-1.2.6-.3,1.3-.5,1.9-.8q1-.4,1-1.5v-1.7h-20v.2Z"/>
        <path class="cls-1" d="M271.9,88.3h-2.6c-.4,0-.6,0-.8.4-.7.8-1.2,1.7-1.5,2.7-.6,1.9-1.1,3.8-1.7,5.6-.6,2-1.4,4-2.7,5.7-1.4,1.9-3.1,3.2-5.3,4-1.5.5-3.1.9-4.7,1.1-3.2.4-6.4.6-9.7.5h-.3v3.8c.9,0,28.8,0,29.3,0v-23.8Z"/>
        <path class="cls-1" d="M269.7,66.9v-23.4c-.8,0-1.5.2-2.3.2-2.5.2-5.1.4-7.6.5h-17.3v4.5c1.4-.2,2.8-.4,4.2-.5,2.2,0,4.3-.2,6.5.2,3.3.6,5.8,2.3,7.3,5.3.4.7.7,1.5,1,2.2.8,2,1.5,4.1,2.2,6.1.6,1.6,1.3,3.1,2.3,4.4.2.2.3.4.7.4h3Z"/>
        <path class="cls-1" d="M331.3,68.6c.1-.8.1-23.3,0-23.8h-3.9c-.3.6-.6,1.1-.9,1.6-.6.8-1.4,1.1-2.3.8-.3,0-.7-.3-1-.4-1.4-.7-2.8-1.4-4.2-2-1.8-.9-3.8-1.4-5.8-1.7-.7,0-1.4,0-2.1-.2v4c.6,0,1.2,0,1.7.2,3.4.5,6.2,2.1,8,5.1.6,1,1.1,2,1.6,3,.5,1.1.9,2.3,1.3,3.4.7,2,1.5,4.1,2.2,6.1.5,1.3,1.2,2.5,2,3.6.2.2.3.4.6.4h2.8,0Z"/>
        <path class="cls-1" d="M242.6,80.6c1.1,0,13.4,0,13.9,0,.1-1.1,0-8.4,0-8.8h-13.8v8.9h0Z"/>
        <path class="cls-1" d="M424.2,18.6c0,.1.1.2.2.3.8,1.4,1.5,2.8,2.3,4.2,1.4,2.3,2.8,4.6,4.3,6.8.6.9,1.1,1.8,1.7,2.7.1.2.3.4.5.4h2V15.7h-2.1c0,4.7,0,9.4.1,14.2-.1-.2-.2-.3-.2-.5-.9-1.6-1.8-3.3-2.8-4.9-1.5-2.4-3-4.8-4.5-7.2-.3-.4-.5-.9-.8-1.3,0-.1-.3-.3-.4-.3h-2.2c-.1,1-.1,16.9,0,17.4h2v-14.4h-.1Z"/>
        <path class="cls-1" d="M280.2,24c-.2-.1-.5-.2-.7-.3.5-.3.9-.5,1.3-.8,2.1-1.6,2-4.9-.2-6.3-.8-.5-1.7-.8-2.6-.9-1.7-.2-3.4-.1-5.1,0-.3,0-.6.1-.9.2v17.1h.5c1.8.2,3.5.2,5.2,0,1,0,1.9-.3,2.8-.8,1.7-.9,2.5-2.4,2.5-4.3s-1.1-3.2-2.8-3.9h0ZM274.2,17.4c1.3-.1,2.6-.2,3.9.1,1.1.3,1.8,1,1.9,2.2s-.3,2.1-1.3,2.7c-.4.2-.8.4-1.2.5-1,.2-2.1.1-3.2.1v-5.6h0ZM278.9,30.9c-1.5.7-3.1.7-4.7.5v-6.7c1.2,0,2.3,0,3.4.2.5.1,1,.3,1.4.5,1.1.6,1.6,1.6,1.6,2.8s-.5,2.2-1.6,2.7h0Z"/>
        <path class="cls-1" d="M386.8,21.4c-.6-2.7-2.3-4.5-4.9-5.3-.8-.3-1.6-.4-2.4-.5-1.7-.2-3.4-.1-5.1,0-.5,0-1.1.1-1.6.2v17.2c1.4,0,2.8.2,4.2,0,1.1,0,2.2,0,3.3-.4,2.9-.6,5.1-2.2,6.1-5.1.8-2.1.9-4.2.4-6.3h0ZM384.4,26.7c-.6,2.3-2.1,3.8-4.4,4.4-1.6.5-3.3.4-5,.2v-13.7c.3,0,.6-.1.9-.2,1.3-.1,2.7-.2,4,.2,2.6.6,4.2,2.3,4.6,4.9.2,1.4.1,2.8-.2,4.2h.1Z"/>
        <path class="cls-1" d="M229.4,20.3c-1-2.7-3.1-4-5.9-4.6-2.1-.4-4.3-.3-6.4,0-.4,0-.9.1-1.3.2v17.2c1.3,0,2.6,0,3.9,0s2.4,0,3.6-.3c2.4-.5,4.3-1.6,5.5-3.8,1.5-2.8,1.7-5.8.6-8.7h0ZM227.4,26.6c-.6,2.3-2.1,3.8-4.4,4.4-1.6.5-3.3.4-5,.2v-13.8c.3,0,.6-.1.9-.1,1.3-.1,2.7-.2,4,.1,2.8.7,4.5,2.5,4.7,5.4.1,1.2,0,2.5-.3,3.7h.1Z"/>
        <path class="cls-1" d="M166.2,24c-.2-.1-.5-.2-.7-.3.4-.2.7-.4,1.1-.6,2.5-1.6,2.4-5.2-.2-6.6-.5-.3-1.1-.5-1.7-.7-1.9-.4-3.8-.3-5.6,0-.3,0-.7.1-1,.2v17.1c2,.2,3.9.3,5.8,0,.9,0,1.8-.3,2.7-.8,1.8-1,2.5-2.5,2.4-4.5,0-1.8-1.1-3.1-2.8-3.8ZM160.3,17.5h.2c1.2-.1,2.3-.2,3.5,0,1.2.3,1.9,1.1,2,2.2.1,1.3-.4,2.3-1.5,2.9-.3.1-.6.2-.8.3-1.1.3-2.2.2-3.4.2v-5.5h0ZM164.5,31.1c-1.4.5-2.8.5-4.2.3v-6.6h.5c1,0,2,0,2.9.2.3,0,.6.1.9.3,1.4.5,2.1,1.5,2.1,3s-.7,2.4-2.1,2.9h0Z"/>
        <path class="cls-1" d="M199.7,21.8c-.3-1.6-1-3-2.1-4.3-3.1-3.3-9.5-3.1-12.2,1.6-.9,1.6-1.3,3.4-1.3,5.5v1.4c0,.5.2.9.3,1.4.9,3.6,3.7,5.8,7.2,5.9,3.6,0,6.6-1.9,7.7-5.3.7-2,.8-4.1.4-6.2h0ZM196.6,28.4c-.7,1.4-1.7,2.5-3.2,2.9-2.2.6-4.3-.1-5.6-2-1.1-1.5-1.4-3.2-1.4-4.7s.4-3.7,1.3-5.1c1.3-2,3.6-2.8,5.9-2.1,1.2.4,2,1.1,2.7,2.1.7,1.1,1.1,2.2,1.2,3.5.2,1.8,0,3.6-.8,5.3h0Z"/>
        <path class="cls-1" d="M464.8,16.2c-.4-.1-.7-.3-1-.3-1.8-.5-3.7-.6-5.6-.3-3.3.6-5.7,2.5-6.8,5.8-.6,1.7-.6,3.5-.3,5.3.7,3.4,3,5.7,6.4,6.4,1.8.4,3.6.3,5.4,0,.8-.2,1.5-.4,2.2-.6.2-1.8,0-7.9,0-8.4h-5.6v1.8h3.4v5.2c-.3,0-.6.2-.8.2-1.1.2-2.2.2-3.3.1-2.6-.3-4.5-2-5.3-4.5-.3-1.2-.4-2.4-.3-3.6.3-2.8,2.1-4.9,4.8-5.6,1.8-.4,3.6-.4,5.3.2.2,0,.4.1.7.2.2-.6.3-1.2.5-1.8h.3Z"/>
        <path class="cls-1" d="M298.9,15.7v10.7c0,1.3.2,2.6.8,3.8.7,1.5,1.8,2.5,3.4,2.9,1.1.3,2.2.4,3.3.2,2.3-.3,3.9-1.5,4.8-3.7.4-1.1.6-2.3.6-3.5v-10.4h-2.2v10.2c0,1,0,2-.4,2.9-.8,2.4-2.8,3-4.8,2.6-1.3-.3-2.1-1.2-2.6-2.4-.4-1-.5-2.1-.5-3.2v-10.2h-2.4Z"/>
        <path class="cls-1" d="M250.3,24c-1.4-2.8-2.8-5.5-4.2-8.3h-2.5c.1.3.2.5.4.7,1.6,2.9,3.2,5.8,4.8,8.6.2.4.3.8.3,1.3v6.7h2.3v-6.9c0-.4.1-.8.3-1.2,1.7-2.9,3.4-5.8,5.1-8.7.1-.2.2-.4.4-.7h-2.5c-1.4,2.8-2.8,5.5-4.3,8.3v.2Z"/>
        <path class="cls-1" d="M373.6,86.2h-11.9c-.4,1.4-.8,2.9-1.2,4.4h14.5c-.5-1.5-1-2.9-1.4-4.4Z"/>
        <path class="cls-1" d="M347.7,33h9.6v-1.8h-7.4v-15.5h-2.2v17.3Z"/>
        <path class="cls-1" d="M403,15.6v17.4h2.2c.1-1.4,0-16.8,0-17.4h-2.2Z"/>
        <path class="cls-1" d="M328.6,15.6v17.4h2.1c.1-1.3,0-16.8,0-17.4h-2.1Z"/>
        <path class="cls-1" d="M404,47v-2.8h18.1c.5,0,.7.2.9.6,5.1,8,10.2,16.1,15.2,24.1,6.8,10.8,13.7,21.6,20.5,32.5.3.5.5,1,.5,1.6v8.8c0,3,0,.5,0,.8h-6.3c-.6,0-.8-.2-1.1-.6-7.9-12.8-15.8-25.6-23.7-38.4-3.6-5.8-7.2-11.6-10.8-17.5-.3-.5-.6-.9-1-1.3-1.5-1.7-3.1-3.3-5-4.6-1.5-1-3-1.8-4.8-2.4-.8-.3-1.7-.6-2.5-.8Z"/>
        <path class="cls-1" d="M402.7,112.1h-25.8v-2.9c.8-.4,1.6-.6,2.5-.8.7,0,1.3-.3,2-.4.3,0,.6-.2.9-.3,1-.5,1.4-1.2,1.2-2.3-.4-1.5-.7-3-1.3-4.4-1.9-5.3-3.8-10.6-5.7-16-3-8.4-5.8-16.8-8.8-25.2-1-2.7-2.1-5.3-3.1-7.9-.1-.3-.4-.4-.6-.5-.8-.4-1.6-.8-2.4-1.1-.5-.2-.7-.6-.6-1.1.3-1.5.5-2.9.8-4.4.9-.2,1.7-.4,2.6-.6,2.2-.4,4.4-.8,6.5-1.2.3,0,.5,0,.8,0,.6-.2,1,0,1.3.5.6.9,1.1,1.9,1.4,2.9,3.8,10.5,7.6,21,11.4,31.5,3.1,8.5,6.2,17,9.3,25.5.2.6.5,1.2.8,1.8.7,1.3,1.7,2.3,3.1,2.8.6.2,1.1.4,1.7.6s1.1.4,1.7.7c.1,0,.3.3.3.4v2.7-.2Z"/>
        <path class="cls-1" d="M220,44.3h18.6v67.8c-.5.2-17.9.2-18.5,0v-2.7c.8-.5,1.6-.8,2.4-1.1.5,0,1-.3,1.5-.4,1.2-.3,1.9-1.2,2.3-2.3.4-1.2.5-2.4.5-3.7v-46c0-1.4,0-2.8-.3-4.1-.2-1.6-1.1-2.7-2.7-3.2-.9-.3-1.7-.6-2.6-.9q-1.2-.5-1.2-1.7v-1.7h0Z"/>
        <path class="cls-1" d="M157.9,47.3v-3h24.6v3c-.6.2-1.2.4-1.9.6-.9.3-1.7.5-2.6.9-.3,0-.6.3-.9.5-.7.5-1,1.1-.9,2,.1.7.2,1.5.4,2.2,1.9,5.7,3.8,11.4,5.6,17.1,3.6,11.2,7.3,22.4,10.9,33.6.1.4.2.8,0,1.3-.9,2.4-1.7,4.8-2.5,7.3,0,.2-.1.4-.2.6h-5.9c0-.2-.2-.5-.2-.7-6.7-20.1-13.4-40.3-20-60.4-.6-1.9-1.8-3-3.6-3.7-.9-.4-1.8-.7-2.7-1.1v-.2Z"/>
        <path class="cls-1" d="M307,42.8v4.2s-.2,0-.3,0c-3.2.7-5.7,2.5-7.6,5.2-1.6,2.2-2.6,4.7-3.4,7.3-.9,3-1.4,6.1-1.7,9.3-.5,4.5-.5,9.1-.4,13.7.1,4.8.6,9.6,1.8,14.2.5,1.9,1.2,3.8,2.1,5.6,2,3.9,5,6.3,9.3,7.1h.2v3.8h-.7c-8.2-.2-14.6-3.6-19.4-10.2-2.7-3.8-4.4-8-5.5-12.5-1.2-5.2-1.5-10.4-1.2-15.7.3-5.5,1.5-10.7,4-15.6,2.3-4.5,5.3-8.4,9.3-11.4,3.7-2.8,7.8-4.4,12.4-4.9.3,0,.7,0,1.1,0h0Z"/>
        <path class="cls-1" d="M334.3,108.4c-1.3,1.1-2.8,1.5-4.3,1.7-3.4.6-6.9.8-10.4.8s-1.7.2-2.6.5c-1.8.6-3.6,1.1-5.4,1.6h-.5v-3.4c.6,0,1.2-.2,1.8-.3,3-.6,5.1-2.3,6.3-5.1.7-1.7,1.1-3.5,1.3-5.3.4-3.7.4-7.3.1-11,0-.4-.1-.8-.2-1.2-.2-1.3-1-2.2-2.1-2.8-1-.5-2.1-.7-3.1-1-.8-.2-1.7-.4-2.5-.6v-3.2c.5,0,24-.2,25,0,0,1-.4,1.9-1,2.6-.5.6-1,1.2-1.5,1.8-1.7,1.9-2.5,4-2.5,6.6v10.2c0,2.7.4,5.3,1.5,7.9v.2h.1Z"/>
        <path class="cls-1" d="M424.7,109.3v2.8h-21v-2.8c.9-.3,1.8-.7,2.6-1,.8-.4,1.7-.7,2.5-1.1,1.6-.9,2.4-2.2,2.4-4.1v-47.7c0-9,0-.5,0-1,.2.2.3.3.4.4,1.6,2.1,3.2,4.2,4.8,6.3.3.4.3.7.3,1.1v40.9c0,.6,0,1.3.3,1.9.4.9,1,1.6,1.9,2.1,1,.5,1.9.9,2.9,1.3s1.9.7,2.9,1h0Z"/>
        <path class="cls-1" d="M360.1,109.3v2.8c-.5.2-20,.2-20.7,0v-2.9c.6-.2,1.2-.5,1.8-.7.7-.3,1.5-.5,2.2-.8,1.7-.7,2.7-1.8,3.3-3.6,5.2-15.6,10.5-31.1,15.7-46.7,0-.2.2-.5.3-.8.1.2.2.4.3.5.8,2.2,1.6,4.4,2.5,6.6.1.4,0,.7,0,1.1-3,9.1-6.1,18.2-9.1,27.3-1,2.9-1.9,5.7-2.8,8.6-.4,1.3-.6,2.7-.5,4.1v.2c.1,1.7.8,2.5,2.4,2.9s1.6.3,2.4.5,1.6.4,2.3.8h0Z"/>
        <path class="cls-1" d="M199.3,44.3h18.8v2.8c0,0-.2.3-.3.4-.4.2-.8.4-1.2.6-.4.2-.7.3-1.1.4-2.1.8-3.4,2.3-4.1,4.4-.9,2.7-1.9,5.3-2.8,8-4.4,12.7-8.8,25.4-13.2,38.2,0,.2-.2.5-.3.8-.1-.3-.2-.6-.2-.8-.6-2.2-1.3-4.4-1.9-6.6-.2-.5-.2-1,0-1.6.9-2.6,1.8-5.2,2.7-7.7,2.4-7,4.8-14,7.1-21.1.9-2.6,1.5-5.3,2.3-8,.2-.9.3-1.8.3-2.7,0-1.4-.8-2.2-2.1-2.6-.7-.2-1.4-.3-2-.6-.5-.2-1-.4-1.5-.7-.2,0-.3-.3-.3-.5v-2.7h-.2Z"/>
        <path class="cls-1" d="M446.3,44.1h20v1.7q0,1.1-1,1.5c-.6.3-1.3.5-1.9.8-.8.4-1.5.7-2.2,1.2-1.3.8-2,2.1-2,3.7v42.3c-.2-.2-.3-.3-.4-.4-1.6-2.6-3.3-5.1-4.9-7.7-.2-.2-.2-.6-.2-.8v-32.8c0-.6,0-1.2-.2-1.7-.3-1.2-1.1-2.1-2.2-2.7-.7-.4-1.5-.7-2.3-1-.7-.3-1.5-.6-2.2-.9-.3,0-.5-.3-.5-.7v-2.5Z"/>
        <path class="cls-1" d="M271.9,88.3v23.8c-.5,0-28.5.2-29.3,0v-3.8h.3c3.2,0,6.5,0,9.7-.5,1.6-.2,3.2-.6,4.7-1.1,2.2-.8,3.9-2.1,5.3-4,1.3-1.7,2.1-3.6,2.7-5.7.6-1.9,1.1-3.8,1.7-5.6.3-1,.9-1.9,1.5-2.7.2-.3.5-.4.8-.4.9,0,1.7,0,2.6,0Z"/>
        <path class="cls-1" d="M269.7,66.9h-2.9c-.3,0-.5-.2-.7-.4-1-1.4-1.7-2.8-2.3-4.4-.7-2-1.5-4.1-2.2-6.1-.3-.8-.6-1.5-1-2.2-1.5-3-4-4.7-7.3-5.3-2.2-.4-4.3-.3-6.5-.2-1.4,0-2.8.3-4.2.5v-4.5h17.3c2.5,0,5.1-.3,7.6-.5.7,0,1.5,0,2.3-.2v23.4h0Z"/>
        <path class="cls-1" d="M331.3,68.6h-2.8c-.3,0-.5-.2-.6-.4-.8-1.1-1.5-2.3-2-3.6-.8-2-1.5-4.1-2.2-6.1-.4-1.1-.8-2.3-1.3-3.4-.5-1-1-2.1-1.6-3-1.9-2.9-4.6-4.5-8-5.1-.5,0-1.1,0-1.7-.2v-4c.7,0,1.4,0,2.1.2,2,.3,4,.8,5.8,1.7,1.4.7,2.8,1.4,4.2,2,.3.2.6.3,1,.4,1,.3,1.8,0,2.3-.8.3-.5.6-1,.9-1.6h3.9c.1.5.2,23,0,23.8h0Z"/>
        <path class="cls-1" d="M242.6,80.6v-8.9h13.8c.2.5.2,7.7,0,8.8-.5,0-12.8.2-13.9,0h.1Z"/>
        <path class="cls-1" d="M424.2,18.6c.1,4.8,0,9.6,0,14.4h-2c-.2-.6-.2-16.4,0-17.4h2.2c.1,0,.3.2.4.3.3.4.6.9.8,1.3,1.5,2.4,3.1,4.8,4.5,7.2,1,1.6,1.9,3.3,2.8,4.9,0,.1.1.3.2.5,0-4.8,0-9.4-.1-14.2h2.1v17.4h-2c-.2,0-.3-.2-.5-.4-.6-.9-1.1-1.8-1.7-2.7-1.4-2.3-2.9-4.5-4.3-6.8-.8-1.4-1.5-2.8-2.3-4.2,0-.1-.1-.2-.2-.3h.1Z"/>
        <path class="cls-1" d="M280.2,24c-.2-.1-.5-.2-.7-.3.5-.3.9-.5,1.3-.8,2.1-1.6,2-4.9-.2-6.3-.8-.5-1.7-.8-2.6-.9-1.7-.2-3.4-.1-5.1,0-.3,0-.6.1-.9.2v17.1h.5c1.8.2,3.5.2,5.2,0,1,0,1.9-.3,2.8-.8,1.7-.9,2.5-2.4,2.5-4.3s-1.1-3.2-2.8-3.9h0ZM274.2,17.4c1.3-.1,2.6-.2,3.9.1,1.1.3,1.8,1,1.9,2.2s-.3,2.1-1.3,2.7c-.4.2-.8.4-1.2.5-1,.2-2.1.1-3.2.1v-5.6h0ZM278.9,30.9c-1.5.7-3.1.7-4.7.5v-6.7c1.2,0,2.3,0,3.4.2.5.1,1,.3,1.4.5,1.1.6,1.6,1.6,1.6,2.8s-.5,2.2-1.6,2.7h0Z"/>
        <path class="cls-1" d="M386.8,21.4c-.6-2.7-2.3-4.5-4.9-5.3-.8-.3-1.6-.4-2.4-.5-1.7-.2-3.4-.1-5.1,0-.5,0-1.1.1-1.6.2v17.2c1.4,0,2.8.2,4.2,0,1.1,0,2.2,0,3.3-.4,2.9-.6,5.1-2.2,6.1-5.1.8-2.1.9-4.2.4-6.3h0ZM384.4,26.7c-.6,2.3-2.1,3.8-4.4,4.4-1.6.5-3.3.4-5,.2v-13.7c.3,0,.6-.1.9-.2,1.3-.1,2.7-.2,4,.2,2.6.6,4.2,2.3,4.6,4.9.2,1.4.1,2.8-.2,4.2h.1Z"/>
        <path class="cls-1" d="M229.4,20.3c-1-2.7-3.1-4-5.9-4.6-2.1-.4-4.3-.3-6.4,0-.4,0-.9.1-1.3.2v17.2c1.3,0,2.6,0,3.9,0s2.4,0,3.6-.3c2.4-.5,4.3-1.6,5.5-3.8,1.5-2.8,1.7-5.8.6-8.7h0ZM227.4,26.6c-.6,2.3-2.1,3.8-4.4,4.4-1.6.5-3.3.4-5,.2v-13.8c.3,0,.6-.1.9-.1,1.3-.1,2.7-.2,4,.1,2.8.7,4.5,2.5,4.7,5.4.1,1.2,0,2.5-.3,3.7h.1Z"/>
        <path class="cls-1" d="M166.2,24c-.2-.1-.5-.2-.7-.3.4-.2.7-.4,1.1-.6,2.5-1.6,2.4-5.2-.2-6.6-.5-.3-1.1-.5-1.7-.7-1.9-.4-3.8-.3-5.6,0-.3,0-.7.1-1,.2v17.1c2,.2,3.9.3,5.8,0,.9,0,1.8-.3,2.7-.8,1.8-1,2.5-2.5,2.4-4.5,0-1.8-1.1-3.1-2.8-3.8ZM160.3,17.5h.2c1.2-.1,2.3-.2,3.5,0,1.2.3,1.9,1.1,2,2.2.1,1.3-.4,2.3-1.5,2.9-.3.1-.6.2-.8.3-1.1.3-2.2.2-3.4.2v-5.5h0ZM164.5,31.1c-1.4.5-2.8.5-4.2.3v-6.6h.5c1,0,2,0,2.9.2.3,0,.6.1.9.3,1.4.5,2.1,1.5,2.1,3s-.7,2.4-2.1,2.9h0Z"/>
        <path class="cls-1" d="M199.7,21.8c-.3-1.6-1-3-2.1-4.3-3.1-3.3-9.5-3.1-12.2,1.6-.9,1.6-1.3,3.4-1.3,5.5v1.4c0,.5.2.9.3,1.4.9,3.6,3.7,5.8,7.2,5.9,3.6,0,6.6-1.9,7.7-5.3.7-2,.8-4.1.4-6.2h0ZM196.6,28.4c-.7,1.4-1.7,2.5-3.2,2.9-2.2.6-4.3-.1-5.6-2-1.1-1.5-1.4-3.2-1.4-4.7s.4-3.7,1.3-5.1c1.3-2,3.6-2.8,5.9-2.1,1.2.4,2,1.1,2.7,2.1.7,1.1,1.1,2.2,1.2,3.5.2,1.8,0,3.6-.8,5.3h0Z"/>
        <path class="cls-1" d="M464.8,16.2c-.2.6-.3,1.2-.5,1.8-.3,0-.5-.2-.7-.2-1.8-.6-3.5-.7-5.3-.2-2.7.7-4.5,2.8-4.8,5.6-.1,1.2,0,2.4.3,3.6.7,2.5,2.6,4.2,5.3,4.5,1.1.1,2.2.1,3.3-.1.3,0,.5-.2.8-.2v-5.2h-3.4v-1.8h5.6c.2.5.2,6.6,0,8.4-.7.2-1.5.4-2.2.6-1.8.4-3.6.5-5.4,0-3.4-.7-5.7-2.9-6.4-6.4-.3-1.8-.3-3.5.3-5.3,1.1-3.3,3.5-5.1,6.8-5.8,1.9-.4,3.7-.3,5.6.3.3,0,.6.2,1,.3h-.3Z"/>
        <path class="cls-1" d="M298.9,15.7h2.2v10.2c0,1.1,0,2.1.5,3.2.5,1.2,1.3,2.1,2.6,2.4,2.1.4,4-.3,4.8-2.6.3-.9.4-1.9.4-2.9v-10.2h2.2v10.4c0,1.2-.2,2.4-.6,3.5-.8,2.2-2.5,3.4-4.8,3.7-1.1.2-2.2,0-3.3-.2-1.6-.5-2.7-1.5-3.4-2.9-.6-1.2-.8-2.5-.8-3.8v-10.7h.2Z"/>
        <path class="cls-1" d="M250.3,24c1.4-2.8,2.8-5.5,4.3-8.3h2.5c-.1.3-.3.5-.4.7-1.7,2.9-3.4,5.8-5.1,8.7-.2.4-.3.7-.3,1.2v6.9h-2.3v-6.7c0-.5-.1-.9-.3-1.3-1.6-2.9-3.2-5.8-4.8-8.6-.1-.2-.2-.4-.4-.7h2.5c1.4,2.8,2.8,5.5,4.2,8.3v-.2Z"/>
        <path class="cls-1" d="M373.6,86.2c.5,1.4.9,2.9,1.4,4.4h-14.5c.4-1.5.8-2.9,1.2-4.4h11.9Z"/>
        <path class="cls-1" d="M347.7,33V15.7h2.2v15.5h7.4v1.8h-9.6Z"/>
        <path class="cls-1" d="M403,15.6h2.1c.1.5.2,15.9,0,17.4h-2.2V15.6h.1Z"/>
        <path class="cls-1" d="M328.6,15.6h2.1c.1.5.2,16.1,0,17.4h-2.1V15.6Z"/>
      </g>
    </g>
  </g>
</svg>