<?xml version="1.0" encoding="utf-8"?>
<!-- Generator: Adobe Illustrator 26.0.1, SVG Export Plug-In . SVG Version: 6.00 Build 0)  -->
<svg version="1.1" id="Layer_1" xmlns="http://www.w3.org/2000/svg" xmlns:xlink="http://www.w3.org/1999/xlink" x="0px" y="0px"
	 viewBox="0 0 595.3 595.3" style="enable-background:new 0 0 595.3 595.3;" xml:space="preserve">
<style type="text/css">
	.st0{clip-path:url(#SVGID_00000111172238331504440840000001024446828026946726_);}
	.st1{clip-path:url(#SVGID_00000023267549813681002720000005117902111673248921_);fill:#E64A2F;}
	.st2{clip-path:url(#SVGID_00000023267549813681002720000005117902111673248921_);fill:#FFFFFF;}
	.st3{clip-path:url(#SVGID_00000023267549813681002720000005117902111673248921_);fill:#F3972D;}
</style>
<g>
	<defs>
		<rect id="SVGID_1_" x="0" y="0" width="595.3" height="595.3"/>
	</defs>
	<clipPath id="SVGID_00000003820444240855404270000007103131407836525242_">
		<use xlink:href="#SVGID_1_"  style="overflow:visible;"/>
	</clipPath>
	<g style="clip-path:url(#SVGID_00000003820444240855404270000007103131407836525242_);">
		<defs>
			<path id="SVGID_00000067198476254314494180000009049829950586169259_" d="M155.3,249.6c8.5,32.6,19.3,64.5,33.4,94.5
				c27.3,57.9,66.8,107.7,118.4,134.2c24.3,12.5,50.3,19.3,76.2,19.1c27.3-0.2,53-9.8,75.8-26.3c23.5-17,44-40.2,61.6-65.3
				c16.7-24,30.7-50.8,41.7-79.3c11.7-30.5,18.9-62.9,23.7-96.3c5.2-36.2,9.2-72.4,18.5-107.3c4.5-17,9.9-33.6,16.2-49.7
				c3.1-8,6.6-15.7,9.8-23.6c3.4-8.4,3.7-18.2-1.5-26.2c-4.7-7.1-12.1-10.8-18.6-14.8c-7.6-4.6-15.2-9.3-22.8-13.9
				c-15.2-9.3-30.5-18.5-45.7-27.6c-12.6-7.5-25.3-14.3-38.2-20.8c-15.3-8.7-30.8-17.1-46.4-25.1c-27.9-14.2-56.1-27.2-84.7-39
				c-28.3-11.7-57-21.3-85.6-31.5c-14.5-5.1-29.1-10.9-43.9-14.5c-8.1-2-15.9-0.8-22.7,4.3c-5.8,4.4-10.7,10.7-15.4,16.7
				c-18.1,22.8-31.7,50.4-42,79.5C152.8-34.1,146-3,141.1,28.5c-5.7,36.8-8.9,74.5-5.7,112.4C138.4,177.6,146.1,214.2,155.3,249.6z"
				/>
		</defs>
		<clipPath id="SVGID_00000119100509815105045240000009218639723734664839_">
			<use xlink:href="#SVGID_00000067198476254314494180000009049829950586169259_"  style="overflow:visible;"/>
		</clipPath>
		<path style="clip-path:url(#SVGID_00000119100509815105045240000009218639723734664839_);fill:#E64A2F;" d="M155.3,249.6
			c8.5,32.6,19.3,64.5,33.4,94.5c27.3,57.9,66.8,107.7,118.4,134.2c24.3,12.5,50.3,19.3,76.2,19.1c27.3-0.2,53-9.8,75.8-26.3
			c23.5-17,44-40.2,61.6-65.3c16.7-24,30.7-50.8,41.7-79.3c11.7-30.5,18.9-62.9,23.7-96.3c5.2-36.2,9.2-72.4,18.5-107.3
			c4.5-17,9.9-33.6,16.2-49.7c3.1-8,6.6-15.7,9.8-23.6c3.4-8.4,3.7-18.2-1.5-26.2c-4.7-7.1-12.1-10.8-18.6-14.8
			c-7.6-4.6-15.2-9.3-22.8-13.9c-15.2-9.3-30.5-18.5-45.7-27.6c-12.6-7.5-25.3-14.3-38.2-20.8c-15.3-8.7-30.8-17.1-46.4-25.1
			c-27.9-14.2-56.1-27.2-84.7-39c-28.3-11.7-57-21.3-85.6-31.5c-14.5-5.1-29.1-10.9-43.9-14.5c-8.1-2-15.9-0.8-22.7,4.3
			c-5.8,4.4-10.7,10.7-15.4,16.7c-18.1,22.8-31.7,50.4-42,79.5C152.8-34.1,146-3,141.1,28.5c-5.7,36.8-8.9,74.5-5.7,112.4
			C138.4,177.6,146.1,214.2,155.3,249.6z"/>
		<path style="clip-path:url(#SVGID_00000119100509815105045240000009218639723734664839_);fill:#FFFFFF;" d="M282.4,506.4
			c0.8,2.6,4.9,1.3,4.5-1.3c-2.6-21.1-1.8-43.6,8.7-62.7c9.4-17.1,26.8-30.5,46.4-32.8c9.3-1.1,18.8,0.6,27.3,4.6
			c-4.5,10-6.4,21.2-4.4,31.7c1.7,9,7.4,19.7,17.6,20.5c10,0.8,16.2-7.4,17.7-16.5c2.5-15.8-7.7-29.7-20.7-38.3
			c0.9-1.5,1.8-3.1,2.8-4.5c11.1-15.6,29.5-23.7,48.5-21.8c4.4,0.5,9.1,1.5,13.6,3.2c-5.7,5.1-9.9,11.8-11.4,19.6
			c-2,10.3,1.6,21.4,10.8,26.9c8.1,4.9,19.2,5.8,27-0.2c8.6-6.7,9.2-18.3,5.4-27.8c-3.2-8-9-14.4-16-19.1c4.6-1.7,9.5-2.6,14.2-2.8
			c20.2-1.2,43.2,7.5,51,27.6c1.8,4.7,2.7,9.6,2.3,14.7c-0.3,3,4.1,3.6,4.7,0.6c2.2-12-2.1-24.2-10.4-33c-8.4-8.9-19.9-14-31.8-16.2
			c-12-2.2-25.3-1.7-36.5,3.6c-0.6,0.3-1.1,0.6-1.6,0.9c-19.8-9.4-44.4-7.6-62.2,5.3c-6.8,4.9-12.7,11.6-17.1,19.2
			c-2.5-1.2-5-2.2-7.5-3c-22.4-7.1-46.4,0.2-63,16.4c-17.6,17.1-26.6,43.1-23.7,67.5C279.2,494.8,280.5,500.7,282.4,506.4z
			 M470.6,416c1,7.5-3.2,14.4-11,15.3c-7.1,0.8-14.7-3.1-17.6-9.7c-3.6-8.2-0.6-17.8,4.8-24.5c1.6-1.9,3.4-3.6,5.4-5
			C461.6,397.3,469.2,405.2,470.6,416z M389.1,431.3c4,6.3,5.7,14.4,2.9,21.6c-1.1,2.7-2.9,5.3-5.8,6.1c-3.1,0.8-6.3-0.5-8.4-2.7
			c-5.7-6-6.3-15.4-5.4-23.2c0.6-5.1,2-10,4-14.7C381.4,421.8,385.8,426.1,389.1,431.3z"/>
		<path style="clip-path:url(#SVGID_00000119100509815105045240000009218639723734664839_);fill:#FFFFFF;" d="M140.4,330.3
			c0.7-3.9,3.1-7.8,4.4-11.6c1.3-4.1,2.9-8,4.8-11.8c3.6-7.3,7.5-14.4,12.5-20.9c9.6-12.6,22.7-23,38.1-27.5
			c12-3.5,25.8-2.8,38.1,1.5c-7.9,15.2-11.3,34.2-2.8,49.8c3.6,6.7,9.2,13.3,16.7,15.7c7.8,2.5,16.1,0.1,21.6-6
			c5.6-6.3,7.1-15.6,6.1-23.8c-0.9-8.4-4.7-16.4-9.8-23c-5.4-7-12.3-12.4-20.1-16.5c11.7-17.2,30.9-29.9,50.6-35.3
			c16.4-4.6,35.3-4.9,50.8,3.1c-5.3,7.3-9.1,15.7-10.6,24.6c-1.4,8.2-0.7,17,2.8,24.6c3.8,8.4,11.4,16.9,21.4,16.2
			c10-0.7,16.1-10.8,18-19.6c1.9-8.8,0.4-18.2-3.2-26.4c-3.8-8.7-9.7-15.8-17-21.2c22.5-22.8,62.7-22.4,86.7-2
			c2,1.7,3.9,3.6,5.7,5.5c-12.8,9.7-20.9,25.7-18.3,42.1c1.3,8.5,5.6,16.5,13.1,21.1c6.8,4.2,15.8,6,22.9,1.4
			c8.5-5.6,8.4-17.4,7.5-26.4c-1-9.4-3.9-18.7-8.3-27.1c-1.8-3.3-3.8-6.5-6.1-9.5c10.4-5.2,22.9-6.6,34.4-5.4
			c32.6,3.6,60.7,27.8,72.3,58c2.8,7.3,4.8,15.1,5.8,22.9c0.4,2.8,4.2,2.1,4.2-0.6c-0.5-36.7-28.3-70.6-62.2-82.7
			c-18.7-6.7-41.2-7.6-59.1,2.1c0,0,0,0,0,0c-8.7-9.8-19.9-17.3-32.7-21c-19-5.6-40.3-3.8-57.6,5.9c-5.5,3-10.4,7-14.7,11.5
			c-6.5-3.7-13.8-6.2-21.3-7.3c-19.5-3-40.4,1.7-57.7,11c-13.9,7.5-26.3,18.1-35,31.3c-4.9-1.9-10-3.2-15.2-4
			c-17.7-2.6-35.1,1.7-50,11.4c-15.4,10.1-28.2,26-34.7,43.3c-1.5,4.1-3,8.3-4.2,12.5c-0.6,2.3-1.1,4.5-1.4,6.9
			c-0.2,2.2-0.1,4.7-0.5,6.9C136,332.3,139.9,332.8,140.4,330.3z M473,263.3c0.8,6.5,2.1,17.5-4.8,21.3c-5.7,3.1-13.4-0.4-17.7-4.5
			c-11.4-10.8-7.1-30.5,1.5-41.5c2.3-2.9,4.9-5.4,7.8-7.5C466.8,240.5,471.5,251.6,473,263.3z M375.9,263.2
			c-0.4,6.6-3.1,16.4-10.6,18.2c-7.7,1.8-13.4-7.9-15.6-13.8c-4.9-13.4,0-28.6,8.2-39.6C368.7,236.1,376.7,249.5,375.9,263.2z
			 M270.5,290.9c2,6.4,2.1,14-0.9,20.1c-2.6,5.2-8.5,8.6-14.3,7c-5.6-1.6-9.9-6.7-12.6-11.7c-3.3-6.2-4.7-12.8-4.1-19.8
			c0.8-8.3,3.2-16.2,7-23.3C257.1,269,266.5,278.3,270.5,290.9z"/>
		<path style="clip-path:url(#SVGID_00000119100509815105045240000009218639723734664839_);fill:#FFFFFF;" d="M137.4,7.2
			c6.1-7.3,16.2-11.6,25.6-12.4c6.5-0.5,12.8,0.8,18.4,3.7c-0.5,0.6-1.1,1.1-1.6,1.6c-6.8,7.7-12.5,17-14.4,27.2
			c-1.6,8.9-0.8,19.8,5.4,27c7.1,8.1,19.1,8.4,27.3,1.6c9.2-7.8,12.4-20.4,10.5-32c-1.7-10-6.8-19.4-14.3-26.2
			c7.1-5.8,15.3-10.2,23.8-13.1c18.2-6.1,38.5-4.2,55,5.7c6.5,3.9,12.5,9,17.6,14.7c-6.3,5.2-12.1,11.2-16.7,17.9
			c-6.6,9.6-11.3,22.1-8.2,33.8c2.8,10.6,11.8,19.6,22.6,21.9c11.3,2.5,21.5-4.6,25.4-15.1c4-10.7,2.7-22.8-0.4-33.5
			c-2.4-8.4-6.4-16.5-11.5-23.7c13.5-9.7,29.3-16.4,45.7-18.4c20.4-2.5,40.9,3.1,56.8,16.3c0.7,0.6,1.4,1.2,2.1,1.9
			c-0.7,0.5-1.4,0.9-2,1.5c-9.1,7.4-17.3,17.1-20.8,28.5c-3.5,11.3-2.1,23.6,6.2,32.6c7.3,7.9,18.8,12.2,29,7.2
			c9.5-4.6,14.2-15,15.2-25.1c1-10.7-1.9-21.5-7-30.9c-2.4-4.5-5.4-8.6-8.7-12.4c0.3-0.2,0.6-0.4,1-0.6c18-10.7,39.9-14.6,60.5-10.8
			C500-0.3,518,11.6,530.4,27.8c6.7,8.7,12.2,19.3,15.2,30.3c-16.6,1.3-32.5,9.3-40.3,24.8c-4.9,9.8-2.7,21,6.9,26.8
			c7.9,4.7,18.6,5.3,26.7,0.7c9.8-5.5,14.8-16.7,16.1-27.5c0.8-5.9,0.6-11.9-0.3-17.8c11.8,0.7,23.6,4.9,32.9,12
			c17,13,26.2,34.1,31,54.4c2.4,10.3,3.9,20.7,4.8,31.3c0.2,2.7,4.3,2.1,4.1-0.6c-1.1-24.4-5.4-49.2-18.4-70.3
			c-6-9.6-13.9-18.5-23.7-24.3c-8.7-5.2-18.6-8.5-28.7-9.5c-1.1-0.1-2.3-0.2-3.4-0.2c-0.7-2.8-1.5-5.6-2.4-8.3
			c-7.5-22-23.6-40.8-43.8-52c-21.3-11.8-46.9-13.7-70.2-6.9c-8.5,2.5-16.6,6.2-24.1,10.9c-10.7-10.2-24.3-17.4-38.9-20.4
			c-25.1-5.3-51.5,2.2-72.7,16c-1.5,1-2.9,2-4.3,3c-14.8-17.1-36.1-27.5-58.8-27.2c-18.5,0.3-36.6,7.6-50.6,19.6
			c-8.3-5-18.3-6.9-27.9-5.6c-11.3,1.5-20.8,7.1-28.1,15.8C128.4,6.4,134.3,10.8,137.4,7.2z M547.2,83.4c-1.3,8.2-5.3,17.6-13.5,21
			c-6.4,2.8-15.2,1.7-20.4-3.3c-6.8-6.6-1.6-16.4,3.5-22.4c5.3-6.1,12.7-10.2,20.5-12.2c3.2-0.8,6.4-1.2,9.6-1.4
			C548,71.3,548.2,77.4,547.2,83.4z M425.9,53.1c-1.4,7.7-6.1,15.8-14.6,17c-8.9,1.2-17-6.2-20.1-13.9c-3.7-9.1-0.4-19.7,4.8-27.6
			c4.2-6.5,9.8-12.1,16-16.8C422,23.1,428.7,38.2,425.9,53.1z M306.8,36.1c1.9,8.9,2.8,19.4-1.8,27.7c-4.5,7.9-13.5,9.2-20.9,4.8
			c-8.5-5.1-12.4-14.3-10.8-24c1.6-10.3,8.1-19.4,15.3-26.6c2.3-2.3,4.7-4.5,7.2-6.6C300.9,18.7,304.8,27.1,306.8,36.1z M188.8,3.5
			c6.9,6.2,11.3,15.2,12.1,24.4c0.8,9-2.8,20.3-11.8,24c-7.2,2.9-13.2-2.4-15.2-9c-2.1-7.3-0.9-15.8,2.3-22.6
			c3-6.4,7.1-12.2,12.1-17.2C188.4,3.2,188.6,3.3,188.8,3.5z"/>
		<path style="clip-path:url(#SVGID_00000119100509815105045240000009218639723734664839_);fill:#F3972D;" d="M490.8,353
			c0.4,1,1.1,1.9,2,2.6c1.1,1.2,2.4,2.2,4,2.8c2.8,1.1,5.5,1.7,8.5,1.3c2.1-0.3,3.8-1.1,5.7-1.8c0.8-0.3,1.6-0.5,2.4-0.8
			c1.8-0.7,3.5-2,5.2-3.1c0.2-0.1,0.5-0.3,0.7-0.4c0.6-0.4,1.1-0.9,1.6-1.5c0.1-0.1,0.2-0.2,0.3-0.3c0.1-0.1,0.2-0.2,0.3-0.3
			c0.4-0.4,0.9-0.9,1.3-1.3c0.9-0.7,1.6-1.6,2-2.7c0.5-0.7,0.9-1.5,1.1-2.3c0-0.1,0.1-0.1,0.1-0.2c0.7-1.4,0.9-3,0.8-4.5
			c0.1-1.6-0.1-3.1-0.8-4.6c-0.5-0.9-1-1.7-1.6-2.6c-0.7-0.9-1.6-1.7-2.6-2.3c-0.1-0.1-0.2-0.2-0.4-0.4c-1-0.6-1.9-1.1-2.9-1.7
			c-1.4-0.6-2.5-0.8-3.9-0.9c-0.6-0.1-1.2-0.1-1.8-0.2c-2-0.1-3.6-0.2-5.5,0.3c-1.6,0.4-3.9,0.9-5.6,1.6c-2.1,0.9-4.4,2.6-6.3,4.1
			c-3.6,2.8-6.3,6.7-6.5,11.3c0,1.1,0,2.3,0,3.4C489.2,350.1,489.8,351.6,490.8,353z"/>
		<path style="clip-path:url(#SVGID_00000119100509815105045240000009218639723734664839_);fill:#F3972D;" d="M354.6,335.6
			c0.2,2.6,2.1,5.7,4.2,7.2c2.4,1.7,5.1,2.5,8.1,2.1c0.4-0.1,0.8-0.1,1.2-0.2c1.2,0,2.4-0.2,3.5-0.6c0.6-0.1,1.3-0.3,1.9-0.5
			c0.4-0.2,0.8-0.4,1.2-0.6c1.9-0.9,3.7-1.9,5.3-3.4c0.7-0.6,1.4-1.2,2.1-1.8c1.1-0.9,2.1-2,3.1-3.1c0.4-0.4,0.8-0.8,1.2-1.3
			c0.1-0.1,0.2-0.2,0.3-0.4c-0.1,0.1-0.1,0.1-0.2,0.2c0.2-0.2,0.4-0.4,0.5-0.6c0.8-1.1,1.4-2.4,2-3.6c0.2-0.4,0.5-0.8,0.7-1.2
			c-0.2,0.3-0.4,0.7-0.6,1c1-1.7,1.7-3.4,1.9-5.6c0.2-2.5,0.1-4.3-0.9-6.7c-0.9-2.2-1.9-3.2-3.7-4.7c-3.1-2.7-8.1-3.4-12-2.4
			c-1.5,0.4-3.3,0.7-4.5,1.2c-1.4,0.6-2.6,1.4-3.8,2.2c-0.7,0.4-1.4,0.9-2,1.4c-0.6,0.5-1.2,1.1-1.8,1.7c-1.3,1.3-2.8,2.7-4,4.1
			c-1.1,1.3-1.9,3.3-2.6,4.9c-1,2.5-1.5,5.1-1.2,7.6C354.4,333.6,354.5,334.6,354.6,335.6z"/>
		<path style="clip-path:url(#SVGID_00000119100509815105045240000009218639723734664839_);fill:#F3972D;" d="M266.5,394.9
			c0.8,1.9,1.4,2.5,2.7,3.8c0.6,0.8,1.4,1.4,2.4,1.8c0.5,0.3,0.9,0.5,1.4,0.8c1,0.3,2,0.5,3,0.8c1.1,0.2,2.2,0.2,3.3,0
			c0.3-0.1,0.7-0.1,1-0.2c1.4-0.3,3.2-0.6,4.4-1.2c1-0.6,2-1.2,3-1.8c0.1-0.1,0.2-0.2,0.3-0.3c0.2-0.1,0.3-0.3,0.5-0.4
			c1.5-1.3,3-2.5,4.2-4.1c1.3-1.7,1.9-3.4,2.5-5.3c0.3-1,0.6-2.1,0.8-3.1c0-1.1,0-2.2,0-3.4c-0.3-1.1-0.6-2.2-0.9-3.2
			c-0.6-1.6-1.5-2.9-2.8-3.9c-0.7-0.9-1.5-1.5-2.5-1.9c-0.9-0.7-1.9-1.1-3-1.2c-1-0.4-2.1-0.6-3.2-0.4c-1.7-0.1-3.3,0.2-4.9,0.9
			c-0.4,0.1-0.8,0.3-1.2,0.4l-0.7,0.2c-0.8,0.3-1.1,0.5-2,1.1c-0.6,0.3-1.2,0.7-1.7,1.1l-2.5,2.5c-0.1,0.2-0.3,0.3-0.4,0.5
			c-0.3,0.4-0.6,0.7-0.9,1.1c-1,1.2-1.8,2.1-2.4,3.8c-0.5,1.3-0.8,2.8-1.1,4.2c-0.1,0.3-0.2,0.7-0.2,1c-0.1,0.6-0.2,1.2,0,1.8
			C265.5,391.8,265.8,393.4,266.5,394.9z"/>
		<path style="clip-path:url(#SVGID_00000119100509815105045240000009218639723734664839_);fill:#F3972D;" d="M535.2,169.2
			c1.1,1.3,2.5,2.3,4.2,2.9c2.2,0.9,4.5,1.2,6.9,0.9c0.8,0,1.7-0.3,2.5-0.5c1.6-0.3,3.2-0.6,4.7-1.3c0.9-0.4,1.8-1,2.7-1.6
			c2.5-1.4,5.1-2.7,7.4-4.5c0.8-0.7,1.6-1.5,2.4-2.2c1.2-1,2.5-2.2,3.3-3.5c0.1-0.1,0.1-0.2,0.2-0.3c1.1-1.4,1.8-2.9,2.1-4.6
			c0.4-1.1,0.6-2.2,0.4-3.4c0-0.1,0-0.1,0-0.2c0.1-0.4,0.1-0.8,0-1.2c-0.1-0.8-0.2-1.6-0.5-2.4c-0.5-1.7-1.3-3.3-2.5-4.7
			c0.6,0.5-0.1-0.2-2.2-2.2c-1.4-1.1-2.9-1.8-4.6-2.1c-0.9-0.2-1.8-0.5-2.7-0.7c-1.6-0.3-3.9,0-5.6,0.2c-2.9,0.4-5.8,1.2-8.4,2.5
			c-2.5,1.3-5,3-7.2,4.8c-3.8,3.1-6.1,7.9-7.2,12.6C530.4,162.2,532.3,166.5,535.2,169.2z"/>
		<path style="clip-path:url(#SVGID_00000119100509815105045240000009218639723734664839_);fill:#F3972D;" d="M393.3,167
			c0.3,1.7,1.1,3.3,2.2,4.6c0.8,0.8,1.6,1.6,2.4,2.4c1.9,1.4,3.9,2.3,6.2,2.6c2.1,0.5,4.3,0.4,6.4-0.1c2.4-0.5,3.3-0.8,5-1.7
			c0.3-0.2,0.6-0.3,0.9-0.5c1.1-0.7,2.2-1.3,3.3-2c0.6-0.4,1.2-0.9,1.6-1.5c0.7-0.7,1.7-1.6,2.3-2.4c0.7-0.8,1.2-1.9,1.7-2.7
			c0.5-0.9,1-1.7,1.5-2.7c0.5-1,0.9-2.2,0.9-3.4c0-1.2,0-2.3,0-3.5c-0.3-1.1-0.6-2.2-0.9-3.4c-0.5-1-1.1-1.9-1.7-2.9
			c-0.3-0.5-0.7-0.9-1.2-1.2c-0.7-0.9-1.6-1.6-2.6-2c-1.4-1-3-1.5-4.7-1.7c-1.2,0-2.3,0-3.5,0c-0.5,0-1.1,0-1.6,0
			c-0.5,0-1,0.1-1.6,0.2c-1.5,0.3-3,0.8-4.4,1.3c-0.9,0.3-1.3,0.6-2.3,1.2c-2.6,1.5-4.7,2.9-6.6,5.4c-0.7,0.9-1.2,1.7-1.8,2.7
			c-1.1,1.5-1.7,3.2-1.9,5.1l-0.1,0.2c-0.1,0.2-0.1,0.4-0.2,0.6C392.5,163.5,392.7,165.3,393.3,167z"/>
		<path style="clip-path:url(#SVGID_00000119100509815105045240000009218639723734664839_);fill:#F3972D;" d="M267,130.3
			c0.3,1.8,1.1,3.4,2.3,4.9c0.8,0.8,1.7,1.7,2.5,2.5c1.9,1.5,4.1,2.4,6.6,2.7c1.5,0,3.1,0.2,4.6,0c1.9-0.2,3.2-0.7,4.8-1.5
			c2-1,3.9-2,5.7-3.3c1.8-1.3,3.3-2.2,4.8-4.3c0.5-0.7,1-1.5,1.6-2.2c0.6-1,1.2-2.1,1.8-3.1c0.3-1.2,0.6-2.3,0.9-3.5
			c0-1.3,0-2.5,0-3.8c-0.2-1.9-0.8-3.7-1.9-5.2c-0.5-1.1-1.2-2.1-2.2-2.8c-0.8-1-1.7-1.7-2.8-2.2c-1-0.7-2.1-1.2-3.3-1.4
			c-1.8-0.6-3.6-0.8-5.5-0.5c-0.9,0-1.8,0.1-2.8,0.2c-3.6,0.4-6.6,2.3-9.4,4.4c-0.2,0.1-0.4,0.3-0.6,0.4c-0.1,0.1-0.2,0.2-0.3,0.3
			c-0.9,0.9-1.8,1.9-2.8,2.8c-0.3,0.4-0.6,0.7-0.8,1.1c-1,1.3-2,2.8-2.6,4.3c-0.3,0.6-0.5,1.3-0.5,2c-0.3,0.7-0.5,1.3-0.5,2.1
			c0,0.2,0,0.4,0,0.7C266.2,126.7,266.4,128.5,267,130.3z"/>
		<path style="clip-path:url(#SVGID_00000119100509815105045240000009218639723734664839_);fill:#F3972D;" d="M183,202.8
			c0.7,1.7,1.7,3.1,3,4.2c0.7,0.9,1.7,1.6,2.7,2.1c1,0.7,2,1.2,3.2,1.3c1.1,0.5,2.3,0.6,3.5,0.5c1.8,0.2,3.6-0.2,5.3-1
			c4-1.5,7.5-4.3,10.3-7.4c1.3-1.4,2.3-3.1,3.5-4.7c0.5-0.9,1.1-1.9,1.6-2.8c0.3-1.1,0.6-2.1,0.9-3.2c0-1.1,0-2.3,0-3.4
			c-0.2-1.8-0.8-3.3-1.8-4.7c-0.4-1-1.1-1.9-2-2.6c-0.7-0.9-1.6-1.5-2.6-2c-0.9-0.7-1.9-1.1-3-1.2c-1.6-0.6-3.3-0.7-5-0.4
			c-2.1,0.5-4.1,1.1-6.2,1.7c-2.1,0.7-3.8,1.8-5.8,3c-0.9,0.5-1.6,1.4-2.3,2.2c-0.8,0.8-1.6,1.6-2.3,2.4c-1.4,1.5-2.5,3.6-3.2,5.6
			c-0.3,1.1-0.6,2.3-0.9,3.4c0,1.2,0,2.4,0,3.6C182.3,200.4,182.6,201.6,183,202.8z"/>
		<path style="clip-path:url(#SVGID_00000119100509815105045240000009218639723734664839_);fill:#F3972D;" d="M235.8-106.2
			c0.6,1,1.2,2,1.8,3c0.8,0.8,1.6,1.6,2.5,2.4c1.4,1.1,3,1.9,4.7,2.2c1.4,0.5,2.8,0.6,4.2,0.5c0.7,0.1,1.4,0.1,2.1,0
			c1.3,0.2,2.6,0,3.9-0.5c1.9-0.4,3.7-1.2,5.2-2.5c0.1-0.1,0.2-0.1,0.2-0.2c0.2-0.1,0.4-0.3,0.6-0.4c1.6-1.2,3.1-2.5,4.4-4.1
			c3.1-3.7,3.6-9.4,1.7-13.8c-1.8-4.3-6.1-7.8-10.8-8.2c-2.2-0.2-4.1,0-6.2,0.3c-0.2,0-0.4,0.1-0.6,0.1l-0.4,0.1
			c-1.3,0.4-2.5,0.7-3.8,1.1c-1.1,0.7-2.2,1.3-3.3,2c-0.9,0.9-1.8,1.8-2.6,2.7c0,0-0.1,0.2-0.2,0.3c-0.5,0.6-1.1,1.1-1.6,1.7
			c-1.1,1.4-1.9,3-2.2,4.7c-0.5,1.1-0.6,2.3-0.4,3.5C234.7-109.7,235-107.9,235.8-106.2z"/>
		<path style="clip-path:url(#SVGID_00000119100509815105045240000009218639723734664839_);fill:#F3972D;" d="M379.8-46
			c1,1.3,2.3,2.3,3.9,2.9c1.6,0.7,3.3,0.9,5,0.6c0.6,0,1.2,0,1.8,0c1.4-0.1,2.8-0.6,4-1.2c0.6-0.3,1.2-0.6,1.8-0.9
			c2.1-1,3.2-1.9,4.7-3.4c1.2-1.2,2.2-2.5,3.2-3.8c0.8-1,1.6-2.3,1.9-3.5c0.5-1.7,1.1-3.4,0.7-5.3c-0.1-0.4-0.2-1-0.4-1.6
			c-0.1-0.4-0.2-0.9-0.4-1.3c-0.4-0.8-0.9-1.4-1.4-2l0.3,0.2c-0.1-0.1-0.3-0.3-0.5-0.5c-0.1-0.1-0.2-0.2-0.3-0.3
			c-0.4-0.4-0.8-0.7-1-0.9c-1.2-1-3.2-1.8-4.8-1.9c-2.6-0.1-4,0-6.4,0.9c-1.2,0.4-2.5,0.8-3.6,1.4c-1.1,0.5-2.1,1.2-3.2,1.9
			c-1,0.6-1.7,1.6-2.5,2.4c-0.4,0.4-0.8,0.9-1.3,1.3c-1,1.1-1.9,2.3-2.4,3.7c-0.2,0.5-0.4,1.1-0.6,1.7
			C377.4-52.3,377.6-48.8,379.8-46z"/>
		<path style="clip-path:url(#SVGID_00000119100509815105045240000009218639723734664839_);fill:#F3972D;" d="M552.7,21.1
			c0.1,0.2,0.1,0.4,0.2,0.6c0.1,0.1,0.1,0.3,0.2,0.4c0.4,1,1,1.9,1.8,2.7c0.4,0.4,0.9,0.7,1.3,1c0.6,0.4,1.2,0.8,1.8,1
			c1.1,0.5,2.3,0.6,3.5,0.6c0.2,0,0.3,0.1,0.5,0.1c1.6,0.2,2.8,0,4.2-0.4c-0.3,0.1-0.5,0.1-0.8,0.2c1.6-0.4,3.2-0.7,4.7-1.4
			c0.6-0.3,1.3-0.5,1.9-0.7c1.4-0.5,2.8-1.5,4-2.3c1.2-0.8,2-2.1,3-3.1c1.1-1.4,1.7-3,1.9-4.7c0.2-1.4,0.1-2.7-0.4-3.9
			c-0.2-1.3-0.8-2.5-1.7-3.5c-1.1-1.4-2.4-2.4-4-3c-4-2.1-8.7-1.8-12.8,0c-0.4,0.2-0.8,0.4-1.2,0.6c-1.1,0.6-2.4,1.2-3.3,2.1
			c-0.9,0.9-1.9,1.8-2.7,2.8c-1,1-1.6,2.5-1.9,4c-0.2,0.4-0.2,0.7-0.4,1.3C552.1,17.3,552.1,19.3,552.7,21.1z"/>
	</g>
</g>
</svg>
