<?xml version="1.0" encoding="utf-8"?>
<!-- Generator: Adobe Illustrator 26.0.1, SVG Export Plug-In . SVG Version: 6.00 Build 0)  -->
<svg version="1.1" id="Layer_1" xmlns="http://www.w3.org/2000/svg" xmlns:xlink="http://www.w3.org/1999/xlink" x="0px" y="0px"
	 viewBox="0 0 595.3 595.3" style="enable-background:new 0 0 595.3 595.3;" xml:space="preserve">
<style type="text/css">
	.st0{clip-path:url(#SVGID_00000132080577089785418050000013519499520446921393_);}
	.st1{fill:#9133FF;}
	.st2{fill:#FFFFFF;}
</style>
<g>
	<defs>
		<rect id="SVGID_1_" x="0" y="0" width="595.3" height="595.3"/>
	</defs>
	<clipPath id="SVGID_00000123415912890494671410000007055573294369040529_">
		<use xlink:href="#SVGID_1_"  style="overflow:visible;"/>
	</clipPath>
	<g style="clip-path:url(#SVGID_00000123415912890494671410000007055573294369040529_);">
		<path class="st1" d="M617.8,192c-11.6-23.8-31.2-43.3-53.1-57.8c-50-33.1-113.9-37.8-172.2-37.9c-59.5-0.1-121.9,7.7-176,34
			c-43.8,21.3-89.1,64.6-82.9,117.7c10,86.1,93,180.3,166.5,220.9c86.2,47.6,206.7,40.8,274.8-35.4c36.8-41.2,55.5-96.5,58.4-151.1
			C634.9,251.6,631.4,220,617.8,192z"/>
		<path class="st2" d="M611.3,291.2c-3-10.3-12.7-17.3-20.4-24.3c-3.6-3.3-7.2-6.5-10.8-9.7c3-2.2,5.9-4.4,8.5-6.9
			c2.9-2.7-0.1-8.5-4-6.9c-4.5,1.7-8.7,3.9-13,6.3c-1.5-1.3-3-2.7-4.5-4c-15.3-13.7-31.3-26.8-47.1-40c-15.3-12.9-30.7-25.9-46-38.9
			c0.7-0.5,1.4-0.9,2.1-1.4l16.9-10.9c5.6-3.6,11.8-6.8,15.2-12.7c1.1-2-0.3-5.1-2.8-4.9c-5.9,0.5-10.3,3.4-15.2,6.6
			c-5.4,3.4-10.7,6.9-16.1,10.3c-2.9,1.9-5.9,3.8-8.8,5.6c-13.7-11.7-27.4-23.5-40.9-35.5c-0.5-0.4-1.2,0.2-0.7,0.7
			c12.4,12.5,24.6,25.1,36.9,37.8c-5.9,3.8-11.8,7.6-17.7,11.3c-20.8,13.3-41.7,26.6-62.3,40.3c-8.9,5.9-17.8,11.7-26.7,17.6
			c-13.3-12.8-26.7-25.6-39.9-38.5c-10.1-9.8-20.2-19.6-30.5-29.3c5.5-4.3,11-8.6,16.5-12.9c8.2-6.3,16.4-12.6,24.6-18.9
			c4.3-3.3,8.6-6.5,13-9.8c3.8-2.9,8.8-5.5,10.8-10c1.2-2.8-0.1-7.3-3.9-6.9c-5.2,0.6-8.6,3.8-12.7,6.8c-4.3,3.2-8.7,6.5-13,9.8
			c-8.1,6.1-16.2,12.3-24.2,18.5c-6.6,5.1-13.1,10.2-19.6,15.3c-8.6-8-17.2-16-26-23.9c-0.5-0.4-1.1,0.2-0.7,0.7
			c7.7,8.7,15.5,17.3,23.4,25.8c-8.8,6.9-17.5,13.8-26.2,20.8c-16.3,13.1-32.3,26.8-48.2,40.5c-5.7,4.9-11.4,9.9-16.9,15
			c-8.4-7.5-17-14.6-26.1-21.1c-0.2-0.2-0.5,0.2-0.3,0.4c6.8,8.7,14.3,16.8,22.1,24.8c-8.3,7.9-16.2,16.2-23.2,25.2
			c-0.4,0.6,0.1,1.5,0.8,1c10-5.8,19.5-12.7,28.7-19.8c8,8,16.1,15.9,24,23.9c11.6,11.8,23.2,23.7,34.8,35.5
			c-7.1,4.7-14.3,9.4-21.4,14.1c-11.3,7.4-23.4,14.5-32.9,24.1c-0.9,0.9,0,2.7,1.3,2.2c11.4-4.1,21.6-11,31.9-17.4
			c9-5.6,18.1-11.3,27.1-16.9c3.9,4,7.8,8,11.7,12c22.5,23.1,45,46.1,67.5,69.1c-7,3.8-14,7.7-21,11.6c-5.9,3.4-12,6.6-17.9,10.1
			c-2.9,1.7-6,3.6-8.6,5.6c-2.3,1.8-4.1,4.1-6.3,6c-1,0.8,0.1,2.4,1.2,2.1c2.6-0.7,5.3-0.8,7.9-1.5c2.7-0.8,5.4-2.2,8-3.3
			c5.5-2.3,10.9-5.2,16.2-7.9c9.5-4.7,18.9-9.6,28.3-14.6c10.1,10.3,20.1,20.6,30.2,30.9c9.7,9.9,19.5,19.8,29.1,29.9
			c5,5.3,9.9,10.7,14.9,16.1c0.4,0.5,0.9,1,1.3,1.4c0,0,0,0,0,0c-0.7,0.9,0,2,1,1.8c0.2,0,0.4-0.1,0.5-0.1c3.7,4.1,7.7,7.9,13.8,7.3
			c2.9-0.3,4.6-2.1,5-5c0.4-3.1-0.4-5.6-1.8-7.9c8.7-3.9,17.1-9.1,25.4-13.6c14.5-7.9,29-15.9,43.5-23.9c14.2-7.8,28.2-15.9,42.2-24
			c7-4,14.1-7.9,21-12.1c7-4.3,13.1-8.5,17-15.8c1.2-2.2-0.3-4.8-2.8-4.9c-15.3-0.4-29.5,11.4-42.2,18.8c0,0-0.1,0.1-0.1,0.1
			c-1.1-1-2.3-2.1-3.5-3.2c-5.1-4.7-10.2-9.4-15.3-14c-9.7-8.9-19.4-17.8-29-26.8c-8.6-8-17.2-16-25.7-24
			c21.3-12.2,42.4-24.6,63.3-37.4c11.1-6.8,22.2-13.6,33.3-20.4c2.4-1.5,4.8-2.9,7.2-4.4c4.5,4.4,8.9,8.9,13.4,13.3
			c7.3,7.2,15,16.9,25.4,19.3C607.2,302.4,613.1,297.3,611.3,291.2z M249.8,298.9c-10.8-10.1-21.7-20.2-32.6-30.3
			c-9.8-9.1-19.5-18.5-29.5-27.7c5.3-4.2,10.5-8.5,15.7-12.7c16-13,32.2-26,48.3-39c9.4-7.6,18.8-15.1,28.2-22.5
			c22.2,23.4,45.1,46.2,68,68.9c-30.7,20-61.6,39.7-92.4,59.6C253.5,296.5,251.6,297.7,249.8,298.9z M339.1,384.7
			c-3.8-3.8-7.6-7.6-11.5-11.4c-23.5-23.1-47.4-45.8-71.5-68.3c19.4-12.2,38.7-24.7,58.1-37c13.4-8.6,26.9-17.1,40.4-25.6
			c1.2,1.2,2.4,2.4,3.6,3.6c27.5,27.2,55.2,54.1,83,80.9c-33.6,19.5-67.4,38.7-101.5,57.4C339.6,384.4,339.4,384.6,339.1,384.7z
			 M470,354.6c10.5,10,21.1,20,31.7,30c5.5,5.2,11.1,10.4,16.6,15.7c1.5,1.4,2.9,2.8,4.3,4.2c-10.9,6.5-21.9,12.9-32.7,19.6
			c-13.8,8.5-27.6,17-41.3,25.5c-8.9,5.5-18.4,10.7-26.8,17.1c-4.6-4.4-9.1-8.9-13.7-13.3c-9-8.7-17.7-17.7-26.5-26.5
			c-11.4-11.5-22.9-22.8-34.4-34.2c17.4-9.4,34.9-18.9,52.2-28.5c17-9.5,33.9-19,50.8-28.7C456.9,341.9,463.4,348.3,470,354.6z
			 M553.9,260.2c-9.9,6-19.9,12-29.9,18c-20.3,12.1-40.6,24.2-60.9,36.1c-4.5,2.6-9,5.2-13.4,7.8c-7.6-7.1-15.2-14.2-22.8-21.3
			c-22-20.7-43.9-41.6-65.7-62.5c26.5-16.7,53-33.3,79.4-50.2c9.3-6,18.6-11.9,27.9-17.9c14.2,14.8,28.3,29.7,42.4,44.6
			c14.1,14.9,28,30,42.6,44.5c0.2,0.2,0.5,0.5,0.7,0.7C554,260.1,554,260.2,553.9,260.2z"/>
		<path class="st2" d="M272.1,228.5l-1.3-3.2l-2.1-2.7c0,0-0.1-0.1-0.1-0.1c-0.1-0.1-0.2-0.2-0.3-0.3c-1.6-1.6-3.6-2.7-5.8-3.4
			c-2.3-0.6-4.6-0.6-6.9,0c-2.2,0.6-4.1,1.7-5.8,3.4c-1.6,1.6-2.7,3.6-3.4,5.8c0,0.1,0,0.2-0.1,0.3c0,0.1,0,0.1,0,0.2
			c-0.1,0.6-0.2,1.2-0.2,1.8c-0.4,1.8-0.3,3.6,0.2,5.3c0.4,1.1,0.9,2.1,1.3,3.2c0,0,0,0,0,0.1c0.8,1.5,1.3,2,2.2,2.8
			c0.1,0.1,0.2,0.2,0.3,0.3c1.6,1.6,3.6,2.7,5.8,3.4c2.3,0.6,4.6,0.6,6.9,0c2.2-0.6,4.1-1.7,5.8-3.4c1.6-1.6,2.7-3.6,3.4-5.8
			c0-0.1,0-0.2,0.1-0.3c0.1-0.6,0.2-1.2,0.3-1.9C272.6,231.8,272.9,230.8,272.1,228.5z"/>
		<path class="st2" d="M353.4,317.9c-0.1-0.1-0.2-0.3-0.2-0.5c-0.8-1-1.6-2.1-2.4-3.1c-1-0.8-2.1-1.6-3.1-2.4
			c-1.2-0.5-2.4-1-3.7-1.5c-1.4-0.2-2.7-0.4-4.1-0.5c-1.4,0.2-2.7,0.4-4.1,0.5c-1.2,0.5-2.4,1-3.7,1.5c-1,0.8-2.1,1.6-3.1,2.4
			c-1.5,1.4-2.6,3-3.2,4.9c-0.7,1.2-1,2.5-1,3.9c-0.4,1.4-0.4,2.7,0,4.1c0,1.4,0.4,2.7,1,3.9c0.4,1.3,1,2.4,2,3.4
			c0.7,1.2,1.6,2.1,2.8,2.8c1,1,2.1,1.6,3.4,2c1.2,0.7,2.5,1,3.9,1c2,0.5,4.1,0.4,6.1-0.3c0.2,0,0.3-0.1,0.5-0.1
			c2.5-0.7,4.7-2,6.6-3.9c1.5-1.4,2.5-3,3.1-4.8c0.9-1.8,1.4-3.7,1.3-5.8C355.4,322.7,354.7,320.2,353.4,317.9z"/>
		<path class="st2" d="M368.7,157.8c-0.1-1.2-0.4-2.3-1.1-3.3c-0.8-1.3-1.9-2.4-3.2-3.2c-0.7-0.3-1.4-0.6-2.1-0.9
			c-1.6-0.4-3.2-0.4-4.8,0c-1.2,0.3-2.2,0.8-3,1.6c-1,0.6-1.7,1.5-2.3,2.5c-0.8,1.4-1.2,2.9-1.2,4.5c0.1,0.8,0.2,1.6,0.3,2.4
			c0.4,1.5,1.2,2.8,2.3,4c0.6,0.5,1.2,0.9,1.8,1.4c0.7,0.3,1.4,0.6,2.2,0.9c1.6,0.4,3.2,0.4,4.7,0c0.7-0.3,1.4-0.6,2.2-0.9
			c1-0.6,1.9-1.3,2.5-2.3c0.8-0.9,1.3-1.9,1.6-3C368.9,160.1,368.9,158.9,368.7,157.8z"/>
		<path class="st2" d="M460.3,244.2c-0.5-1.8-1.4-3.4-2.8-4.8l-2.2-1.7c-1.7-1-3.5-1.5-5.5-1.5c-1.5-0.1-2.9,0.3-4.2,0.9
			c-1.3,0.4-2.5,1.2-3.5,2.2c-1.1,1-1.8,2.1-2.2,3.5c-0.7,1.3-1,2.7-0.9,4.2c0.1,1,0.3,1.9,0.4,2.9c0.5,1.8,1.4,3.4,2.8,4.8
			c0.7,0.6,1.5,1.1,2.2,1.7c1.7,1,3.5,1.5,5.5,1.5c1.5,0.1,2.9-0.3,4.2-0.9c1.3-0.4,2.5-1.2,3.5-2.2c1.1-1,1.8-2.1,2.2-3.5
			c0.7-1.3,1-2.7,0.9-4.2C460.6,246.1,460.5,245.2,460.3,244.2z"/>
		<path class="st2" d="M434.7,393.9c-0.1-1.4-0.5-2.7-1.2-3.8c-0.5-0.7-1.1-1.4-1.6-2.1c-0.7-0.5-1.4-1.1-2.1-1.6
			c-1.6-0.9-3.4-1.4-5.2-1.4c0,0,0,0,0,0c-1.9,0-3.6,0.5-5.2,1.4c-1.5,0.9-2.8,2.1-3.7,3.7c0,0,0,0,0,0c-0.8,1.2-1.2,2.5-1.2,3.8
			c-0.2,0.9-0.2,1.8,0,2.8c0.1,1.4,0.5,2.7,1.2,3.8c0.5,0.7,1.1,1.4,1.6,2.1c0.7,0.5,1.4,1.1,2.1,1.6c1.2,0.8,2.5,1.2,3.8,1.2
			c0.9,0.2,1.8,0.2,2.8,0c1.4-0.1,2.7-0.5,3.8-1.2c0.7-0.5,1.4-1.1,2.1-1.6c0.5-0.7,1.1-1.4,1.6-2.1c0.8-1.2,1.2-2.5,1.2-3.8
			C434.9,395.7,434.9,394.8,434.7,393.9z"/>
		<path class="st2" d="M246.5,377.7c-0.4-1.3-1-2.4-1.9-3.3c-0.5-0.4-1-0.8-1.5-1.2c-1.2-0.7-2.4-1-3.8-1c-1,0-2,0.2-2.9,0.6
			c-0.9,0.3-1.7,0.8-2.4,1.6c-0.7,0.7-1.3,1.5-1.6,2.4c-0.5,0.9-0.7,1.9-0.6,2.9l0.3,2c0.4,1.3,1,2.4,1.9,3.3c0.5,0.4,1,0.8,1.5,1.2
			c1.2,0.7,2.4,1,3.8,1c1,0,2-0.2,2.9-0.6c0.9-0.3,1.7-0.8,2.4-1.6c0.7-0.7,1.3-1.5,1.6-2.4c0.5-0.9,0.7-1.9,0.6-2.9
			C246.6,379.1,246.5,378.4,246.5,377.7z"/>
		<path class="st2" d="M338.8,444.9c0-0.9-0.3-1.7-0.8-2.4c0,0,0,0,0,0c-0.6-1-1.4-1.8-2.3-2.3c-1-0.6-2.1-0.9-3.3-0.9
			c-0.6,0.1-1.2,0.2-1.7,0.2c-1.1,0.3-2.1,0.9-2.9,1.7c-0.6,0.6-1.1,1.3-1.4,2.1c-0.4,0.8-0.6,1.6-0.6,2.5c0,1.2,0.3,2.3,0.9,3.3
			c0.6,1,1.4,1.8,2.3,2.3c0,0,0,0,0,0l1.6,0.7c0.9,0.3,1.7,0.3,2.6,0.1c0.6,0,1.1-0.2,1.7-0.4c0.8-0.3,1.5-0.7,2.1-1.4
			c0.3-0.4,0.7-0.9,1-1.3c0.2-0.5,0.4-1,0.7-1.6C339,446.7,339,445.8,338.8,444.9z"/>
		<path class="st2" d="M555.6,337.8c-8.8,0-8.8,13.6,0,13.6C564.4,351.4,564.4,337.8,555.6,337.8z"/>
		<path class="st2" d="M185.8,275.1c-0.2-0.7-0.5-1.3-0.8-1.9c-0.1-0.1-0.1-0.2-0.2-0.4c-0.4-0.5-0.8-1.1-1.2-1.6
			c-0.7-0.8-1.6-1.3-2.5-1.6c-0.6-0.4-1.3-0.5-2-0.5c-0.7-0.2-1.4-0.2-2.1,0c-0.7,0-1.4,0.2-2,0.5c-1,0.3-1.8,0.9-2.5,1.6
			c-0.1,0.1-0.1,0.1-0.2,0.2c0,0-0.1,0.1-0.1,0.1c-0.4,0.5-0.8,0.9-1.1,1.4c-0.6,1.1-1,2.3-1,3.5l0,0.3c0.1,0.7,0.2,1.4,0.3,2.1
			c0.2,1,0.7,1.9,1.4,2.7c0.3,0.6,0.8,1.1,1.4,1.4c0.8,0.7,1.7,1.2,2.7,1.4c0.7,0.1,1.4,0.2,2.1,0.3c0.7-0.1,1.4-0.2,2.1-0.3
			c0.6-0.2,1.2-0.4,1.7-0.7c0.7-0.4,1.4-0.8,2-1.4c0.9-0.9,1.5-2,1.9-3.3C186.2,277.7,186.2,276.4,185.8,275.1z"/>
		<path class="st2" d="M206.3,174c-0.3-1.1-0.9-2-1.6-2.8c-0.4-0.3-0.9-0.7-1.3-1c-1-0.6-2.1-0.9-3.2-0.9c-0.9,0-1.7,0.2-2.5,0.6
			c-0.8,0.3-1.5,0.7-2.1,1.3c-0.6,0.6-1.1,1.3-1.3,2.1c-0.4,0.8-0.6,1.6-0.6,2.5c0.1,0.6,0.2,1.1,0.2,1.7c0.3,1.1,0.9,2,1.6,2.8
			c0.4,0.3,0.9,0.7,1.3,1c1,0.6,2.1,0.9,3.2,0.9c0.9,0,1.7-0.2,2.5-0.6c0.8-0.3,1.5-0.7,2.1-1.3c0.6-0.6,1.1-1.3,1.3-2.1
			c0.4-0.8,0.6-1.6,0.6-2.5C206.5,175.1,206.4,174.6,206.3,174z"/>
		<path class="st2" d="M559.5,183.3c-0.5-0.8-1.1-1.5-2-2l-0.2-0.2c0,0-0.1-0.1-0.1-0.1c0,0,0,0-0.1,0c-0.9-0.5-1.9-0.8-2.9-0.8
			c-0.6-0.1-1.1,0-1.6,0.2c-0.5,0.2-0.9,0.4-1.4,0.6c-0.7,0.4-1.2,0.9-1.6,1.5c-0.4,0.4-0.6,0.8-0.7,1.3c-0.4,0.7-0.5,1.4-0.5,2.2
			c0.1,0.5,0.1,1,0.2,1.5c0.2,0.5,0.4,0.9,0.6,1.4c0.4,0.7,0.9,1.2,1.5,1.6c0.6,0.5,1.2,0.9,2,1c0.5,0.2,1,0.3,1.6,0.2
			c1,0,2-0.3,2.9-0.8c0,0,0,0,0.1,0c0,0,0.1-0.1,0.1-0.1l0.2-0.2c0.8-0.5,1.5-1.1,2-2c0.5-0.9,0.7-1.8,0.7-2.8
			C560.3,185.1,560,184.2,559.5,183.3z"/>
	</g>
</g>
</svg>
