<?xml version="1.0" encoding="utf-8"?>
<!-- Generator: Adobe Illustrator 26.0.1, SVG Export Plug-In . SVG Version: 6.00 Build 0)  -->
<svg version="1.1" id="Layer_1" xmlns="http://www.w3.org/2000/svg" xmlns:xlink="http://www.w3.org/1999/xlink" x="0px" y="0px"
	 viewBox="0 0 595.3 595.3" style="enable-background:new 0 0 595.3 595.3;" xml:space="preserve">
<style type="text/css">
	.st0{clip-path:url(#SVGID_00000073708391848077670780000006130402132496259989_);}
	.st1{fill:#2CAAFF;}
	.st2{fill:#17213A;}
</style>
<g>
	<defs>
		<rect id="SVGID_1_" x="0" y="0" width="595.3" height="595.3"/>
	</defs>
	<clipPath id="SVGID_00000075150067628977293610000012879605371333808286_">
		<use xlink:href="#SVGID_1_"  style="overflow:visible;"/>
	</clipPath>
	<g style="clip-path:url(#SVGID_00000075150067628977293610000012879605371333808286_);">
		<path class="st1" d="M551.8,410.2c25.5-11.5,49-27.3,68.4-45.9c18.4-17.7,31.6-41.8,26-66.9c-5.6-25.4-28.8-42.4-57-45.3
			c-95.8-10-174.1,70.8-267.5,14.2c-21.6-13.1-38.4-30-52.5-49.5c-14.7-20.1-26.7-41.6-41.8-61.5c-15.2-20-34.3-39.6-60.1-48.6
			c-13-4.6-26.8-6-40.1-2.7c-12.5,3.1-23.2,11-30.1,20.6c-14.6,20.8-16,47.5-9.9,71.6c6.5,25.2,20,48.5,36.3,70
			c29.8,39.3,68.9,73.3,113.2,99.3c44.9,26.4,94.7,45.3,146.9,55C439,430.8,501.1,433,551.8,410.2z"/>
		<path class="st2" d="M666.2,304.7c-16.5,12.8-32.9,24-51.8,32.9c-9.5,4.5-19.4,8.2-29.4,11.2c-2.4-35.7-6.3-71.1-10.3-106.7
			c-0.2-1.5-2.3-1.5-2.3,0c-0.8,36.6-3.3,73.2-6,109.7c0,0.6-0.1,1.1-0.1,1.7c-3.7,0.8-7.4,1.6-11.1,2.2
			c-31.2,5.3-63.5,5.3-95.3,2.4c0.2-4,0.3-8.1,0.5-12.1c1.2-31.3,0.8-62.4-0.5-93.6c-0.1-1.5-2.4-2-2.7-0.4
			c-7,30.7-13,61.4-17.5,92.6c-0.5,3.7-1.1,7.5-1.6,11.2c-7.5-1-14.9-2-22.3-3.2c-30.5-5-60.9-12.6-89.5-24.4c0.5-1.5,1-2.9,1.6-4.4
			c5.1-14.6,9.9-29.3,13.6-44.3c1.8-7.5,4-15,5.2-22.7c0.9-5.6,2.8-12.7,0.3-18c-0.2-0.4-0.8-0.5-1.2-0.3c-4.8,3-7.4,10.2-9.8,15.1
			c-3.1,6.5-5.6,13.3-8.5,19.9c-6.1,14.1-11.8,28.4-17.8,42.5c-0.5,1.3-1.1,2.5-1.7,3.8c-3.1-1.5-6.3-3.1-9.4-4.7
			c-28.9-15.6-52.5-36.8-73.8-60.7c16.9-27.7,35.2-55.6,46.4-86.1c0.3-0.7-0.8-1.2-1.2-0.7c-21.5,22.3-38,49.5-54.8,75.7
			c-4-4.8-7.9-9.6-11.8-14.5c-16-20.2-31.7-40.7-47.8-60.9c4.4-7.7,8.7-15.5,12.9-23.3c4.4-8.2,9-16.5,13-24.9
			c3.3-7,7.1-14.7,7.9-22.4c0.1-0.7-0.8-0.9-1.3-0.5c-6.2,5.1-10.6,12.9-14.8,19.6c-4.8,7.6-9.2,15.3-13.9,22.9
			c-3.9,6.2-7.8,12.3-11.7,18.5c-15.2-19.4-29.9-39.5-46.7-57.5c-1.2-1.3-3.5,0.4-2.5,1.9c13.6,21.4,30.2,41.2,45.4,61.5
			c-4.4,6.9-8.7,13.9-13.2,20.8c-9.4,14.7-19.1,29.2-29.1,43.5c-9.9,14.2-23,28.5-27.6,45.4c-0.8,3.1,2.8,6.2,5.6,4.3
			c14.5-9.4,23.5-26.2,32.9-40.4c10.1-15.2,19.9-30.7,29.4-46.3c3.4-5.6,6.7-11.2,9.9-16.8c12.8,16.9,25.6,33.7,38.5,50.5
			c6.6,8.7,13.3,17.2,20.2,25.6c-0.5,0.8-1,1.5-1.5,2.3c-9.6,14.7-19.5,29.3-28.8,44.2c-9.4,15-19,29.6-24.3,46.5
			c-1.3,4.1,4,6.8,7,4.1c13-12.2,21.9-27.3,31.3-42.4c8.9-14.3,17.4-28.8,26-43.3c18.7,21.3,39.1,40.7,63.6,56.1
			c6.5,4.1,13.1,7.7,19.9,11.2c-4.2,9.4-8.4,18.7-12.5,28.1c-5.7,12.9-15.6,28.6-13.8,43.3c0.6,4.5,5,8.2,9.5,5.4
			c12.6-7.7,18.2-24.4,23.7-37.3c4.3-10,8.2-20.2,11.9-30.4c25.5,11.1,52.4,19.1,79.6,24.7c11.2,2.3,22.5,4.4,33.9,6.1
			c-1,7.2-2,14.5-2.8,21.7c-0.9,7.9-2.6,16.4-2.1,24.4c0.5,8.1,2.2,14.5,6,21.7c2,3.9,7,2.9,9.2,0c4.8-6.2,7.6-12.1,9.2-19.8
			c1.6-7.7,1.8-15.8,2.4-23.6c0.5-7.2,0.9-14.4,1.2-21.5c28.2,2.9,56.7,3.4,84.8-0.1c7.1-0.9,14.2-2.1,21.2-3.5
			c-0.9,12.6-1.8,25.2-2.8,37.8c-0.7,9-1.7,18-1.7,27.1c0,4.9,0.1,9.3,0.9,14.1c0.9,5.3,3,7.8,5.6,12.2c2.7,4.6,8.6,3.9,11.4,0
			c2.8-3.9,5.1-6.1,6.5-11c1.3-4.6,1.7-9.3,2.1-14c0.7-9,0.5-18,0.4-27.1c-0.3-14.7-0.8-29.5-1.6-44.2c10-2.9,19.9-6.4,29.5-10.7
			c21.1-9.3,42.8-23.3,57.1-41.6C675.9,306.4,670.6,301.3,666.2,304.7z"/>
	</g>
</g>
</svg>
