<?xml version="1.0" encoding="utf-8"?>
<!-- Generator: Adobe Illustrator 26.0.1, SVG Export Plug-In . SVG Version: 6.00 Build 0)  -->
<svg version="1.1" id="Layer_1" xmlns="http://www.w3.org/2000/svg" xmlns:xlink="http://www.w3.org/1999/xlink" x="0px" y="0px"
	 viewBox="0 0 595.3 595.3" style="enable-background:new 0 0 595.3 595.3;" xml:space="preserve">
<style type="text/css">
	.st0{clip-path:url(#SVGID_00000107579705408992135930000006487865785136857476_);}
	.st1{fill:#5814EF;}
	.st2{fill:#FFFFFF;}
	.st3{fill:#FF2E12;}
</style>
<g>
	<defs>
		<rect id="SVGID_1_" x="0" y="0" width="595.3" height="595.3"/>
	</defs>
	<clipPath id="SVGID_00000072275060225026918430000004343971972009978025_">
		<use xlink:href="#SVGID_1_"  style="overflow:visible;"/>
	</clipPath>
	<g style="clip-path:url(#SVGID_00000072275060225026918430000004343971972009978025_);">
		<path class="st1" d="M548.1,95.4c-9.9-15-25.7-23.4-41.9-25.4c-5.7-0.7-11.3-0.6-16.8,0.2c5.9-17.9,5.8-38.3-2.2-57.9
			c-7-17-20-31-35.7-38.7c-14.8-7.2-32-7.6-46.8-3.8c-9.3,2.5-17.9,6.5-26,11.3c0.7-28.5-11.3-58-36-75.5
			c-16.2-11.5-36.4-17.2-54.4-13.3c-21.2,4.6-38,20.5-50.3,38.3c-6.8,9.9-12.2,21.4-15.3,33.7c-7.3-8-15.3-15.2-24.3-20.4
			c-9.2-5.4-19.2-9.1-29.4-9.2c-13,0-24.2,4.5-34.3,12.2C103.6-29.4,96,19.6,108,59.8c4,13.3,9.8,25.6,17.4,36.8
			c-29.6,5.2-56.9,18.9-79.2,39.5c-12.3,11.4-25.1,30.8-12.5,49.5c6.3,9.3,16.4,13.2,26.2,15.1c9.9,1.9,20.2,2.3,30.1,2.5
			c16.5,0.3,32.7-0.8,49-2.2c-22,32.5-42.6,67.5-48.7,108.7c-1.9,12.7-3.5,26.4,0.1,39.5c3.8,14.1,13.5,25.1,27.2,27.5
			c12.3,2.2,24.6-3.3,35.3-7.8c12.8-5.5,24.9-12.2,36.6-19.8c20.7-13.5,39.5-29.4,58-45.8c1.2,16.9,5.1,33.8,11.4,49.9
			c7.8,20,20,40,37.6,51.9c8.6,5.8,18.1,9.2,27.9,8.9c12.3-0.4,22.3-7.7,30.4-16.4c14.9-16,26.1-35.5,34.8-56.3
			c4.9-11.8,9.2-24,13.1-36.3c1.5-4.6,3-9.3,4.5-14c9.3,14.6,20.1,27.9,34.6,37.2c19.1,12.2,41.7,17.5,62.4,13.5
			c21.9-4.3,41.7-18.3,52.9-38.4c11.9-21.4,13.8-48.8-0.4-72.3c-9.7-15.9-23.2-27.3-38.3-35.2c18.4-11.9,34.3-27.7,38.4-51.7
			C559.6,127.8,557.8,110.1,548.1,95.4z"/>
		<path class="st2" d="M379.5,88c-3.4-4.9-11.3-8.2-16.9-4.5c-1,0.7-2,1.4-3,2l0,0c0,0,0,0,0,0c-8.5,5.7-16.9,11.6-25.2,17.6
			c-5.3,3.5-10.6,6.8-16,10c3.1-20.5,4.1-41.2,2.8-62c-0.4-6.8-3.8-12.8-11-14.1c-6.5-1.2-13.3,2.4-15.4,8.9
			c-5.4,16.7-10.1,33.6-14.4,50.6c-2.7-5.2-5.5-10.3-8.4-15.4c-1.8-3.2-3.5-6.7-5.8-9.5c-2-2.4-4.3-4.5-6.5-6.8
			c-6.7-6.9-19.1-1.2-17.1,8.6c1.4,6.9,3.2,12.9,6.1,19.4c0.8,1.9,1.7,3.7,2.5,5.6c-9.3-4-18.7-8.1-28.1-11.8
			c-7.7-3.1-17.7,2.2-19.9,10c-2.6,9.1,2,16.1,10,19.9c10.6,5.1,21.1,10.1,31.7,15.2c1,0.5,2,0.9,3,1.4c-1.2,1.6-2.4,3.2-3.7,4.7
			c-3.2,4-6.4,8.1-9.6,12.1c-6.6,8.3-13.2,16.7-19.7,25c-8.8,11.2,6.7,28.7,18.9,21.1c16.7-10.5,33-21.7,49-33.2
			c3.7,16.2,7.5,32.4,11.2,48.6c1.7,7.3,8.9,12.5,16.4,11c7.8-1.6,12-8.9,11-16.4c-1.7-11.8-4.6-23.5-6.7-35.2c-0.9-5-1.7-10-2.4-15
			c6.1,2.1,12.2,4.1,18.5,5.9c12.5,3.5,25.3,5.6,37.8,9.1c15.6,4.4,24.8-15.5,12.1-25.1c-11.1-8.4-24.1-13-37.6-15.6
			c1.9-1.4,3.7-2.9,5.6-4.3c9.9-6.5,19.6-13.4,29.1-20.6C382.8,101.5,383.1,93,379.5,88z"/>
		<path class="st3" d="M136.9-21.3c-0.4-0.8-0.9-1.6-1.5-2.4c-0.8-0.9-1.8-1.5-2.8-1.9c-0.3-0.1-0.5-0.3-0.8-0.4
			c-0.7-0.3-1.4-0.3-2.2-0.2c-1.3,0.1-2.5,0.6-3.4,1.4c-1.6,1.1-2.5,2.8-2.9,4.7c-0.3,1.3-0.7,2.7-0.9,4c-0.2,2.2,0.4,4.7,0.8,6.9
			c0.3,1.7,1.2,3.2,2.5,4.3c0.4,0.8,0.9,1.5,1.4,2.1c1.4,1.4,3.1,2.2,5.1,2c1.9-0.1,3.9-1.1,4.9-2.8c0.5-0.9,0.8-1.7,1-2.6
			c0.4-0.6,0.8-1.3,1-2c0.5-1.4,0.5-2.8,0.3-4.2c-0.3-2.3-0.3-4.7-1.4-6.8C137.7-19.9,137.3-20.6,136.9-21.3z"/>
		<path class="st3" d="M144.9,35.4c-0.5-0.7-0.9-1.4-1.4-2c-0.2-0.3-0.4-0.6-0.6-0.9c-0.2-0.5-0.5-0.8-0.9-1.2
			c-0.3-0.3-0.6-0.5-0.7-0.6c-0.2-0.2-0.4-0.5-0.5-0.6c-0.3-0.3-0.6-0.7-0.8-1c-0.4-0.5-0.9-0.9-1.4-1.1c-0.3-0.3-0.6-0.5-0.9-0.8
			c-0.8-0.7-1.8-0.3-2,0.7c-0.1,0.4-0.1,0.8-0.2,1.2c-0.3,0.5-0.4,1.1-0.4,1.7c0,0.4,0,0.9,0,1.3c0,0.2,0,0.6,0,0.8
			c0,0.2-0.1,0.4-0.2,0.8c-0.1,0.5-0.1,0.9,0,1.4c0,0.3,0.1,0.7,0.1,1l0.2,2.4c0.1,1.3,0.3,2.2,0.8,3.5c0.3,0.8,0.6,1.5,1.1,2.2
			c0.6,0.9,1.1,1.9,1.8,2.7c1.3,1.5,3.3,2.1,5.2,1.4c1.8-0.6,3-2.3,3.2-4.2c0.1-1-0.2-2.3-0.3-3.3c-0.1-0.8-0.3-1.6-0.5-2.4
			c-0.3-0.8-0.4-1.5-0.9-2.2C145.4,36,145.1,35.7,144.9,35.4z"/>
		<path class="st3" d="M186.6,3.7c-0.8-1-1.6-2-2.7-2.6c-1.4-0.8-2.9-1.5-4.4-2.1c-0.4-0.2-0.9-0.3-1.3-0.4
			c-1.5-0.4-3.1-0.5-4.5-0.2l0.1,0c-0.1,0-0.2,0-0.3,0c-0.3,0.1-0.5,0.2-0.7,0.3c-0.3,0.1-0.6,0.2-0.9,0.4c-0.5,0.3-1,0.6-1.4,0.9
			c-0.1,0.1-0.1,0.1-0.2,0.1l0.1-0.1c-0.3,0.2-0.6,0.4-0.9,0.7c-0.5,0.5-0.7,0.9-1,1.4c-0.1,0.2-0.2,0.5-0.4,0.7
			c-0.4,0.8-0.7,1.4-0.9,2.2c-0.1,0.6-0.1,1.1-0.1,1.7C167.1,7,167,7,167,7.1c-0.9,1.2,0.1,2.8,1.5,2.9c0.1,0,0.1,0,0.2,0
			c0.1,0.2,0.3,0.3,0.4,0.5c0.2,0.5,0.4,1,0.6,1.5c0.2,0.5,0.3,0.9,0.5,1.4c0.2,0.3,0.4,0.5,0.5,0.8c0.6,0.9,1.2,1.9,1.9,2.7
			c0.2,0.3,0.5,0.6,0.7,0.9c0.1,0.1,0.2,0.3,0.3,0.4c0.8,1,1.8,1.7,2.9,2.1c0.4,0.3,0.8,0.5,1.2,0.6c0.3,0.1,0.6,0.2,0.9,0.3
			c1.9,0.6,4.5,0.6,6.3-0.5c0.6-0.4,1.2-0.8,1.8-1.3c1.1-1,1.8-2.2,2.3-3.5c0.1-0.3,0.3-0.7,0.4-1c0.5-1.6,0.6-3.2,0.3-4.8
			c-0.3-0.9-0.6-1.7-0.9-2.6c-0.1-0.2-0.2-0.4-0.3-0.6C188.1,5.7,187.4,4.7,186.6,3.7z"/>
		<path class="st3" d="M182.2-40.5c-0.5-0.7-1-1.3-1.6-2c-0.7-0.8-1.5-1.6-2.5-2.2c-0.4-0.3-0.9-0.5-1.3-0.7c-0.9-0.5-1.7-1-2.6-1.4
			c-1.6-0.9-2.4-1.1-4.2-1.4c-0.7-0.1-1.5-0.1-2.2,0c-0.5,0-0.9,0-1.4,0.1c-0.3,0.1-0.7,0.2-1,0.3c-1.1,0.3-2.3,1-2.5,2.2
			c-0.1,0.3-0.1,0.5-0.2,0.8c-0.2,0.8-0.2,1.4-0.2,2.2c0,0.1-0.1,0.2-0.1,0.3c0,0.7,0,1.4,0.2,2c0.2,1,0.5,2,1,2.8
			c0.5,0.8,1,1.6,1.6,2.3l0.7,1.1c0.5,0.7,0.9,1.6,1.5,2.2c0.6,0.7,1.4,1.2,2.1,1.8c0.4,0.3,0.7,0.6,1.1,0.8c1.8,1.2,4.5,2,6.7,1.3
			c1.4-0.3,2.7-0.9,3.7-1.9c1-0.9,1.8-2.1,2.2-3.4c0.3-1.5,0.6-2.7,0.3-4.3C183.4-38.6,182.9-39.5,182.2-40.5z"/>
		<path class="st3" d="M232.5-1.4c-2-4-5.7-6.4-9.4-8.7c-1.6-1-3.5-1.8-5.4-2.4c-1.8-0.5-3.6-1-5.4-0.7c-0.5,0-1.1-0.1-1.6-0.2
			c-0.4-0.1-0.7-0.2-1-0.2c0,0-0.1,0-0.1-0.1c-2.4-1.4-4.5,1.4-3,3.5c0.1,0.4,0.2,0.8,0.3,1.1c0.2,0.4,0.2,0.9,0.3,1.3
			c-0.1,1.9,0.6,3.8,1.4,5.6c0.8,2,1.8,3.7,3.2,5.4c0.9,1.1,1.7,2.4,2.7,3.5c1.8,2,4.4,3.8,6.9,4.8c1.7,0.7,3.6,0.6,5.3,0.1
			c3.6-0.2,6.5-3.6,6.5-7.1C233.6,2.4,233.4,0.3,232.5-1.4z"/>
		<path class="st3" d="M79,141c-0.1-0.1-0.3-0.2-0.4-0.4c-1.2-1-1.5-1.3-3-1.9c-0.3-0.1-0.7-0.3-1-0.4c-1.7-0.5-3.6-1-5.3-0.5
			c-0.9,0.3-1.7,0.5-2.5,0.9c-0.7,0.4-1.4,0.9-2,1.5c-0.2,0.2-0.4,0.5-0.7,0.7c-0.9,1.1-1.6,2-1.7,3.5c-0.1,0.9,0.1,2.2,0.7,2.9
			c0.8,0.9,1.6,1.7,2.7,2.1c0.1,0.1,0.3,0.1,0.4,0.2c0.1,0,0.2,0.1,0.4,0.2c0.5,0.2,1,0.5,1.5,0.6c0.2,0.1,0.4,0.1,0.6,0.2
			c1,0.3,1.7,0.4,2.6,0.3c-0.2,0-0.3,0-0.5,0c0.5,0,1.1,0,1.6,0c0.3,0,0.5,0.1,0.8,0.1c0.7,0.1,1.5-0.1,2.3-0.1
			c-0.5,0-1,0.1-1.6,0.1c1.1-0.1,2.2-0.1,3.2-0.6c0.4-0.2,0.8-0.5,1.2-0.8c0.7-0.5,1.3-1.1,1.7-1.9c0.3-0.5,0.5-1.1,0.5-1.8
			c0-0.4,0-0.9-0.1-1.3C80.4,143.3,79.9,141.9,79,141z"/>
		<path class="st3" d="M84.2,177.6c-0.7-1.6-1.8-3-3.6-3.5c-0.3-0.1-0.6-0.2-1-0.2c-1.1-0.3-2.3-0.9-3.5-0.9c-0.7,0-1.4,0-2.1-0.1
			c-0.8-0.1-1.6-0.1-2.4-0.1c-0.2,0-0.5,0-0.7,0c-0.2,0-0.4,0-0.5,0c-0.9,0-1.7,0.2-2.4,0.6c-0.4,0-0.8,0.1-1.2,0.4
			c-0.5,0-1,0.2-1.2,0.6c-0.3,0.4-0.2,0.8-0.1,1.2c-0.1,0.6,0,1.2,0.2,1.7c0,1,0.4,2,1.1,2.9c0.1,0.1,0.2,0.3,0.3,0.4
			c0.2,0.3,0.5,0.6,0.8,0.9c-0.3-0.4-0.5-0.8-0.8-1.1c0.6,1.1,1.3,2,2.4,2.6c0.3,0.2,0.7,0.4,1,0.6c1,0.6,2.1,1.1,3.2,1.6
			c1.1,0.4,2.5,0.4,3.7,0.3c0.8,0,1.7-0.1,2.5-0.2c1-0.1,2.1-0.7,2.9-1.4c0.5-0.5,0.9-1.1,1.2-1.7c0,0,0,0,0,0
			c0.2-0.3,0.3-0.7,0.5-1c0.2-0.6,0.3-1.1,0.2-1.7c0-0.3-0.1-0.5-0.2-0.7l0.1,0.1c0-0.1-0.1-0.2-0.1-0.2
			C84.4,178.1,84.4,177.8,84.2,177.6z"/>
		<path class="st3" d="M125.5,153.1c-0.6-0.6-1.3-1.1-1.9-1.6c-1.5-1.1-3.2-1.5-5.1-1.4c-1.2,0.1-2.5,0.2-3.7,0.4
			c-0.6,0.2-1.3,0.4-1.9,0.7c-0.1,0.1-0.3,0.1-0.4,0.2c-0.2,0.1-0.3,0.2-0.5,0.3c-0.4,0.2-0.7,0.4-1.1,0.7c-0.4,0.2-0.8,0.5-1.2,0.7
			c-1,0.6-1.9,1.3-2.5,2.3c-0.3,0.5-0.5,1-0.7,1.6c-0.4,0.9-0.6,2-0.3,2.9c0.2,0.7,0.5,1.4,1,2c0.2,0.4,0.5,0.7,0.7,1
			c0.5,0.6,1.2,1.1,2,1.4c0.7,0.4,1.5,0.6,2.3,0.7c0.4,0.1,0.9,0.2,1.3,0.2c1.5,0.3,2.9,0.6,4.5,0.3c0.9-0.2,1.8-0.4,2.6-0.6
			c2.2-0.6,3.9-1.8,5.2-3.7c0.5-0.7,0.8-1.3,1.1-2.1c0.3-1,0.4-2.1,0.2-3.1C126.7,155,126.2,154,125.5,153.1z"/>
		<path class="st3" d="M132.8,121.8c-0.4-0.8-0.9-1.4-1.7-1.9c-0.5-0.3-1-0.4-1.6-0.5c0,0-0.1-0.1-0.1-0.1c-1.1-0.7-2.3-1.1-3.5-1.2
			c-1.3-0.1-2.6,0.2-3.8,0.8c-0.3,0.2-0.6,0.3-0.9,0.5c-0.7,0.4-1.3,0.8-1.9,1.3c-0.6,0.5-1,1.1-1.5,1.7c-0.2,0.2-0.4,0.5-0.6,0.7
			c-0.3,0.4-0.4,0.5-0.6,1c-0.5,1-0.8,2.3-0.7,3.5c0,0.1,0,0.3,0,0.4c0,0.7,0.2,1.4,0.5,2c0.3,0.4,0.5,0.8,0.8,1.1
			c0.3,0.4,0.7,0.6,1.1,0.9c0.6,0.5,1.4,0.9,2.1,1.2c0.9,0.3,1.3,0.3,1.9,0.3c0.3,0,0.7,0,1,0c0.7,0,1.5,0,2.2-0.2
			c0.8-0.2,1.5-0.5,2.2-0.8c0.3-0.2,0.7-0.3,1-0.5c1.2-0.6,2.1-1.5,2.9-2.6c0.7-1.1,1.1-2.3,1.2-3.5c0,0,0-0.1,0-0.1
			c0.2-0.5,0.5-1,0.5-1.6C133.3,123.4,133.1,122.6,132.8,121.8z"/>
		<path class="st3" d="M134,318.7c-0.4-0.9-1-1.6-1.8-2.1c-0.4-0.5-0.9-0.8-1.5-1c-0.8-0.5-1.6-0.7-2.6-0.7c-0.4-0.1-0.7-0.1-1.1,0
			c-0.2,0-0.5,0-0.7,0.1c-0.5,0-1,0-1.5,0.1c-0.3,0-0.5,0.1-0.8,0.1c-0.4,0.1-0.8,0.2-1.2,0.4c-0.4,0.1-0.9,0.3-1.3,0.5
			c-0.7,0.4-1.5,1-2.1,1.5c-0.3,0.2-0.6,0.4-0.8,0.7c-1,0.8-1.9,1.9-2.6,3c-0.3,0.4-0.5,0.7-0.6,1.2c-0.2,0.3-0.4,0.7-0.5,1.1
			c-0.2,0.7-0.4,1.7-0.5,2.4c0,0.3-0.1,0.5-0.1,0.8c-0.1,1.4,0.2,2.7,0.8,4c0.4,1,1.1,1.8,1.9,2.4c0.7,0.7,1.6,1.2,2.6,1.5
			c1.3,0.4,2.6,0.5,4,0.2c0.3,0,0.5,0,0.8-0.1c0.2,0,0.3,0,0.4-0.1c0.7-0.3,1.5-0.5,2.2-0.8c0.1,0,0.1-0.1,0.2-0.1
			c1.2-0.7,2.4-1.4,3.4-2.4c1.3-1.5,2.8-2.9,3.4-4.9c0.1-0.3,0.1-0.5,0.2-0.8l0.4-2c0,0,0-0.1,0-0.1c0.2-1,0.1-1.8,0-3L134,318.7z"
			/>
		<path class="st3" d="M163.5,333c-0.5-0.3-0.9-0.6-1.5-0.8c-1-0.4-2-0.3-3-0.1c-0.5,0.1-1,0.2-1.4,0.3c-0.9,0.2-1.7,0.5-2.5,1.1
			c-1.3,0.9-1.3,0.8-2.3,2c-0.1,0.2-0.2,0.3-0.4,0.5c-0.2,0.3-0.5,0.6-0.7,0.9c-0.1,0.2-0.2,0.3-0.4,0.5c0,0.1-0.1,0.1-0.1,0.2
			c-0.2,0.3-0.2,0.2,0.2-0.2c0,0-0.8,0.8-0.9,0.9c-0.3,0.2-0.4,0.5-0.6,0.7c-0.1,0.1-0.3,0.1-0.4,0.2c-1.9,0.9-0.8,3.8,1.2,3.4
			c0.1,0,0.3-0.1,0.4-0.1c0.3,0.1,0.6,0.2,0.9,0.2c0.4,0,0.8,0.2,1.2,0.2c0,0,0.1,0,0.1,0c0.2,0,0.4,0.1,0.6,0.1
			c0.4,0.1,0.8,0.2,1.2,0.3c0.8,0.2,1.6,0.4,2.4,0.4c1.5-0.1,2.4-0.2,3.8-0.8c0.4-0.2,0.8-0.4,1.2-0.6c0.8-0.4,1.4-0.8,2-1.5
			c0.5-0.6,0.8-1.2,1-1.8C166.7,336.9,165.6,333.9,163.5,333z"/>
		<path class="st3" d="M167.2,288.9c-0.6-0.7-1.4-0.9-2.2-1.1c-1.5-0.7-3.1-0.8-4.7-0.3c-0.7,0.2-1.3,0.6-1.9,1
			c-0.8,0.5-1.6,0.9-2.3,1.6c-0.7,0.7-1.2,1.5-1.8,2.3c-0.7,1.1-1.2,2.3-1.7,3.5c-0.4,1-0.6,2.1-0.7,3.2c-0.2,1.8,1.4,3.6,3.2,3.6
			c1.1,0,2.2,0,3.3-0.3c1.3-0.3,2.6-0.7,3.8-1.3c0.6-0.3,1.2-0.6,1.8-1c0.3-0.2,0.6-0.4,0.9-0.6c0.4-0.4,0.7-0.8,1.1-1.3
			c0.2-0.2,0.3-0.4,0.5-0.6c0.3-0.4,0.6-0.7,0.9-1.1c1-1.5,1.2-3.4,0.7-5.1C168,290.4,167.8,289.6,167.2,288.9z"/>
		<path class="st3" d="M150.2,262.9c-0.1-0.1-0.3-0.2-0.4-0.2c-1.2-1.2-2.9-1.6-4.6-1.5c-0.6,0-1.4,0.1-2,0.2
			c-0.6,0.1-1.4,0.4-2.1,0.8c-1.3,0.7-2.5,1.6-3.2,2.9c-0.6,1.1-1.1,2.2-1.4,3.5c-0.2,0.8-0.4,1.6-0.5,2.4c-0.2,1,0.1,2.1,0.5,3.1
			c0.3,0.6,0.7,1.1,1.2,1.5c0.5,0.8,1.4,1.4,2.3,1.5c0.6,0.1,1.2,0,1.8-0.2c0.9-0.1,1.8-0.3,2.6-0.9c0.4-0.3,0.7-0.5,1.1-0.9
			c0.2-0.2,0.4-0.3,0.6-0.5c0,0,0,0,0.1,0c0.2-0.1,0.3-0.2,0.5-0.2c1.2-0.6,2-1.4,2.8-2.5c0.5-0.7,0.9-1.5,1.2-2.4c0,0,0,0,0,0
			c0.4-0.8,0.8-1.6,0.9-2.6c0-0.1,0-0.2,0-0.4C151.8,265.1,151.4,263.7,150.2,262.9z"/>
		<path class="st3" d="M295.6,345.3c-0.5-0.9-0.9-1.8-1.5-2.6c-0.3-0.4-0.7-0.8-1.2-1.1c-0.1-0.1-0.3-0.1-0.4-0.2c0,0,0,0,0,0
			c-0.3-0.3-1.6-0.8-2.1-0.5c-0.5,0.3-1,0.5-1.3,1c-0.1,0.1-0.1,0.1-0.2,0.2c-1,1-1.4,2.4-1.7,3.8c-0.1,0.2-0.1,0.3,0,0.3
			c-0.1,0.2-0.2,0.4-0.3,0.5c-0.4,1-0.3,2-0.2,3c0,0.7,0.1,1.4,0.1,2.1c0,0.6,0,1.3,0.1,1.9c0.3,1.4,0.9,2.9,1.7,3.9
			c0.7,0.9,1.5,1.7,2.3,2.6c1.1,1.2,3.6,1.3,4.4-0.4c0.4-0.7,0.7-1.5,1.1-2.2c0.4-0.8,0.8-1.6,1-2.5c0.1-0.7,0.2-1.4,0.2-2
			c0-1.4-0.3-2.7-0.6-4c-0.1-0.5-0.2-1-0.3-1.6c-0.1-0.5-0.3-1.1-0.6-1.6C296,345.7,295.8,345.5,295.6,345.3z"/>
		<path class="st3" d="M321.9,381.2c-0.4-0.4-0.7-0.8-1.1-1.3c-0.4-0.6-0.8-1-1.3-1.3c-0.3-0.3-0.6-0.6-0.9-0.8
			c-0.1-0.1-0.1-0.2-0.2-0.3c-0.8-1.2-2.7-1-2.9,0.6c0,0.2,0,0.3-0.1,0.5c-0.1,0.3-0.2,0.5-0.3,0.8c-0.2,0.3-0.3,0.5-0.5,0.8
			c-0.2,0.4-0.2,1.1-0.3,1.6c-0.1,0.3-0.1,0.6-0.2,0.9c-0.1,0.3,0,0.2,0-0.3c-0.1,0.2-0.1,0.3-0.2,0.5c-0.4,1.5-0.3,3-0.2,4.5
			c0,1,0.1,2,0.4,3c0.2,0.7,0.4,1.3,0.7,2c0.5,1.6,1.3,3.3,2.8,4.2c0.4,0.2,0.8,0.4,1.1,0.5c1.3,0.3,1.6,0.4,0.8,0.1
			c0.4,0.3,1.3,0.2,1.7,0.1c0.1,0,1.2-0.4,1.5-0.7c0.1-0.1,0.1-0.1,0.2-0.2c0.6-0.3,1-0.8,1.4-1.3c0.9-1.4,1-3.1,0.9-4.6
			c-0.2-1.8-0.4-3.5-1.2-5.1C323.5,383.9,323,382.3,321.9,381.2z"/>
		<path class="st3" d="M364.4,338.1c-0.3-0.4-0.5-0.7-0.8-1c-0.3-0.3-0.6-0.7-1-1c-0.7-0.6-1.3-1.2-2.2-1.5
			c-0.5-0.2-0.9-0.2-1.4-0.2c-1-0.2-2-0.2-2.9,0.3c0,0-0.1,0-0.1,0c-1.2-0.1-2,1.1-1.6,2.2c-0.2,0.4-0.2,0.9-0.2,1.4
			c-0.1,0.2-0.1,0.4-0.2,0.7c-0.1,1.1,0.3,1.9,0.6,2.9c-0.1-0.4-0.3-0.8-0.4-1.3c0.2,0.7,0.4,1.3,0.5,2c0.1,0.9,0.5,1.6,0.8,2.4
			c0.1,0.3,0.2,0.6,0.2,0.9c0.1,0.6,0.4,1.2,0.6,1.9c0.1,0.4,0.3,0.9,0.5,1.2c0.3,0.5,0.7,1,1,1.5c1.5,1.9,4.5,1.8,6.2,0.3
			c1.2-1.1,1.8-2.4,2.1-3.9c0.3-1.3,0.3-1.8,0.1-3.1c0-0.2,0-0.4-0.1-0.6c-0.1-0.5-0.1-0.9-0.2-1.4c0-0.2-0.1-0.4-0.2-0.6
			C365.5,339.7,365.3,339.2,364.4,338.1z"/>
		<path class="st3" d="M325.8,321c-0.2-0.2-0.4-0.3-0.6-0.4c-0.1-0.2-0.3-0.4-0.5-0.6c-0.1-0.1-0.3-0.1-0.4-0.2
			c-0.2-0.3-0.3-0.7-0.5-1c-0.4-0.8-1.7-0.7-2,0.1c-0.1,0.4-0.2,0.7-0.3,1.1c-0.3,0.3-0.6,0.6-0.8,1c-0.8,0.9-1,2.1-1.2,3.3
			c-0.1,0.6-0.1,1.2-0.2,1.8c-0.1,1.3,0.4,2.3,1,3.4c0.4,0.8,0.9,1.4,1.8,1.9c0.6,0.3,1.3,0.5,2.1,0.3c0.6-0.2,1.2-0.4,1.7-0.9
			c0.6-0.5,0.9-1.2,1.1-1.9c0.4-1.1,0.8-2.2,0.4-3.4c-0.2-0.6-0.3-1.2-0.5-1.8c-0.1-0.3-0.2-0.6-0.2-0.9
			C326.5,322.2,326.3,321.5,325.8,321z"/>
		<path class="st3" d="M486.9,309.4c-0.1-0.6-0.3-1.2-0.6-1.9c-0.4-0.8-0.9-1.4-1.4-2.1c-0.4-0.5-0.8-1-1.2-1.5
			c-0.8-0.9-1.6-1.4-2.7-1.9c-0.6-0.3-1.2-0.6-1.7-0.8l-1.3-0.6c-0.7-0.3-1.4-0.3-2.1-0.2c-1.2,0.1-2.4,0.5-3.3,1.4
			c-0.7,0.7-1.2,1.5-1.5,2.3c-0.5,1.4-0.2,2.8,0.3,4.2c0.2,0.6,0.4,1.2,0.7,1.8c0.4,1.1,0.8,2,1.7,2.9c0.4,0.5,0.9,0.9,1.3,1.3
			c1.1,1.1,2.1,1.8,3.4,2.3c0.5,0.3,0.9,0.5,1.4,0.7c1.1,0.3,2.2,0.3,3.4,0.1c-0.4,0-0.9,0.1-1.3,0.1c1.4,0.1,2.8,0,3.9-1
			c1.1-1,1.4-2.2,1.4-3.6c0.1-0.7,0.2-1.4,0-2.2C487.2,310.3,487.1,309.9,486.9,309.4z"/>
		<path class="st3" d="M518.5,308.1c-0.7-0.7-1.5-1.4-2.3-2c-0.8-0.5-1.8-0.8-2.7-1.1c-0.3-0.1-0.7-0.2-1-0.2
			c-0.7-0.1-1.2-0.2-1.9-0.1c-0.2,0-0.4,0.1-0.5,0.2c-0.4,0-0.8,0-1.2,0.1c-0.8,0.1-1.4,0.2-2,0.7c-0.4,0.1-0.8,0.2-1.2,0.4
			c-1,0.4-0.7,1.8,0.2,2.1c0.4,0.1,0.5,0.2,0.8,0.4c0.2,0.3,0.4,0.5,0.7,0.7c0.2,0.1,0.4,0.3,0.6,0.4c0.2,0.1,0.3,0.3,0.5,0.4
			c0.5,0.6,1.1,1.1,1.7,1.6c0.4,0.4,0.8,0.8,1.3,1.2c0.5,0.4,1,0.8,1.5,1.1c0.6,0.5,1,0.9,1.8,1.2c0.8,0.3,1.7,0.4,2.6,0.2
			c1.2,0,2.4-0.8,2.4-2.2c0,0,0-0.1,0-0.1C520.4,311.3,519.7,309.3,518.5,308.1z"/>
		<path class="st3" d="M504.3,264c-0.7-0.9-1.7-1.7-2.8-2c-0.4-0.1-0.8-0.2-1.3-0.2c-0.4,0-0.8,0-1.2,0.1c-0.5,0.1-1,0.3-1.4,0.5
			c-0.2,0.1-0.4,0.1-0.5,0.2c-0.1,0.1-0.2,0.1-0.3,0.2c-0.4,0.3-0.8,0.5-1,0.9c-0.3,0.4-0.3,0.8-0.4,1.3c-0.1,0.1-0.2,0.1-0.3,0.2
			c-0.5,0.4-0.1,1.3,0.6,1.2c0.1,0.1,0.1,0.2,0.2,0.3c0.2,0.3,0.4,0.5,0.7,0.7c-0.1-0.1-0.2-0.2-0.3-0.3c0.3,0.2,0.5,0.5,0.7,0.8
			c0.1,0.2,0.3,0.4,0.4,0.5c0.2,0.3,0.6,0.5,0.9,0.8c-0.3-0.2-0.5-0.4-0.8-0.7c0.1,0.1,0.2,0.2,0.3,0.3c0.3,0.2,0.6,0.6,0.9,0.8
			c0.1,0,0.1,0.1,0.2,0.1c0.4,0.2,0.8,0.4,1.2,0.7c-0.2-0.1-0.3-0.3-0.5-0.4c0,0,0,0,0,0c0.5,0.4,0.9,0.8,1.6,1
			c0.6,0.2,1.2,0.2,1.8,0.1c0.8,0.1,1.7-0.3,2.1-1c0,0,0-0.1,0.1-0.1c0.8-0.8,1.2-2.2,1-3.3c-0.1-0.4-0.2-0.9-0.4-1.2
			C504.9,264.9,504.6,264.4,504.3,264z"/>
		<path class="st3" d="M541.5,273.9c-0.1-0.1-0.1-0.2-0.2-0.3c-0.1-0.2-0.3-0.5-0.5-0.7c-0.2-0.5-0.6-0.8-1-1.1
			c-0.5-0.4-1-0.8-1.6-1.2c-0.7-0.4-1.5-0.9-2.2-1.1c-0.7-0.2-1.6-0.3-2.4-0.3c-1.6,0-3.3,0.6-4.1,2.1c-0.1,0.2-0.3,0.4-0.4,0.7
			c-0.5,1.3-0.4,2.6,0.1,3.9c0.1,0.2,0.2,0.4,0.3,0.6c0.2,0.5,0.5,1,0.9,1.4c0.1,0.2,0.3,0.4,0.4,0.6c0.5,0.8,1,1.5,1.6,2.1
			c0.3,0.3,0.8,0.8,1.2,1.1c0.7,0.4,1.4,0.6,2.1,0.8c0.7,0.1,1.4,0.2,2.2,0c0.4-0.1,1.1-0.3,1.4-0.5c1.1-0.6,1.9-1.5,2.4-2.6
			c0.3-0.7,0.5-1.3,0.6-2.1c0.1-1-0.2-2.1-0.6-2.9C541.7,274.3,541.6,274.1,541.5,273.9z"/>
		<path class="st3" d="M502,87.5c-1.1-1-2.4-1.7-3.7-2.1c-2.1-0.6-3.5-0.7-5.7-0.4c-0.9,0.1-1.8,0.4-2.7,0.7
			c-0.2,0.1-0.4,0.1-0.6,0.2c-0.9,0.3-1.7,0.6-2.6,0.9c-0.7,0.5-1.4,1-2.2,1.5c-0.3,0.3-0.6,0.6-0.9,0.9c-0.3,0.3-0.6,0.7-1,1
			c-0.6,0.6-1.3,1.4-1.7,2c-0.8,1.4-1.1,2.6-1.4,4.2c-0.4,2.9,1.4,5.9,3.7,7.4c1.6,1.1,3.3,1.4,5.1,1.4c0.5,0,1.1,0,1.6,0.1
			c2.1,0.1,3.4-0.2,5.4-1c0.3-0.1,0.5-0.2,0.8-0.3c0.6-0.2,1.2-0.4,1.8-0.6c-0.2,0.1-0.4,0.2-0.7,0.2c1.4-0.5,2.8-1.1,3.9-2.3
			c1.3-1.3,2.5-2.7,3-4.4C505.8,93.8,504.9,89.5,502,87.5z"/>
		<path class="st3" d="M525.9,119.6c-0.4-0.3-0.7-0.6-1.1-0.9c-0.6-0.4-1.3-0.7-2-0.7c-0.4-0.1-0.8-0.1-1.2-0.1c-0.2,0-0.5,0-0.7,0
			c-0.1,0-0.1,0-0.2,0c-0.5,0-1,0.1-1.6,0.1c-0.1,0-0.2,0-0.3,0c-0.1,0-0.2,0-0.3,0c-0.3,0-0.6,0.1-0.8,0.3
			c-0.3,0.1-0.6,0.3-0.9,0.5c-0.1,0-0.2,0.1-0.3,0.1c0.1,0,0.1,0,0.2,0c-0.1,0-0.2,0.1-0.2,0.1c-0.2,0-0.4,0-0.6,0.1
			c0,0-0.1,0-0.1,0.1c0,0,0-0.1,0-0.1c0-0.4-0.5-0.8-1-0.7c-0.5,0-0.8,0.4-0.8,0.8c0,0.3,0,0.7,0.1,1.1c-0.1,0.1-0.2,0.3-0.3,0.4
			c0,0,0,0.1-0.1,0.1c-0.4,0.6-0.6,1.3-0.7,2c0,0.8,0.1,1.5,0.4,2.2c0.2,0.5,0.5,0.9,0.9,1.3c0.2,0.5,0.5,1,0.9,1.4
			c0.7,0.8,1.5,1.3,2.5,1.6c0.6,0.2,1.4,0.3,2,0.4c0.3,0,0.6,0,0.8,0c0.3,0,0.6,0,0.8-0.1c0.6-0.2,1.1-0.4,1.7-0.6
			c0.8-0.3,1.5-0.9,2.2-1.4c0.3-0.4,0.6-0.7,0.9-1.1c0.4-0.6,0.7-1.3,0.7-2c0.2-0.5,0.2-0.9,0.1-1.4c0-0.7-0.2-1.5-0.5-2.1
			C526.4,120.4,526.1,120,525.9,119.6z"/>
		<path class="st3" d="M479.2,149.5c-0.4-0.1-0.8-0.2-1.2-0.2c-0.8-0.2-1.5-0.3-2.3-0.3c-0.5,0-0.9,0.1-1.4,0.1
			c-1.6,0.1-3.4,0-4.8,0.9c-0.8,0.5-1.5,1-2.3,1.4c-1.3,0.8-2.1,2-2,3.6c0.1,1.4,1.1,2.9,2.5,3.3c0.8,0.2,1.6,0.4,2.4,0.7
			c1.2,0.3,2.3,0.5,3.6,0.2l1.2-0.3c2.9-0.7,7.5-1.9,7.3-5.7C482,151.4,480.8,149.8,479.2,149.5z"/>
		<path class="st3" d="M527.8,153.8c-0.3-0.5-0.7-1-1.2-1.3c-0.6-0.6-1.4-1.1-2.2-1.3c-0.1,0-0.2-0.1-0.3-0.1
			c-1.9-0.7-3.8-0.3-5.6,0.4c-0.1,0.1-0.3,0.1-0.4,0.2c-1.4,0.4-2.7,0.9-3.8,2c-0.2,0.2-0.4,0.4-0.6,0.6c-0.9,0.8-1.6,1.9-2,3
			c-0.1,0.6-0.2,1.2-0.3,1.8c0,0.1,0,0.2,0,0.3c0,0.2-0.2,0.3-0.2,0.5c0,0.6,0.2,1.1,0.5,1.6c0.1,0.3,0.2,0.6,0.4,0.9
			c0.1,0.4,0.3,0.7,0.6,1c0.3,0.6,0.7,1,1.2,1.4c0.6,0.6,1.4,1.1,2.3,1.4c0.6,0.1,1.2,0.2,1.8,0.3c0.1,0,0.2,0,0.3,0.1
			c1.8,0.2,3.6-0.1,5.1-1c1-0.6,2-1.2,2.9-1.9c1.8-1.3,2.7-3.4,2.9-5.6c0-0.6-0.1-1.2-0.1-1.7C528.8,155.3,528.4,154.5,527.8,153.8z
			"/>
		<path class="st3" d="M397.7,17c-0.8-0.1-1.6,0.1-2.3,0.2c-0.6,0.1-1.2,0.3-1.8,0.5c-0.8,0.2-1.6,0.6-2.2,1.2
			c-0.1,0-0.1,0.1-0.2,0.1c-0.1,0.1-0.3,0.2-0.4,0.3c-0.8,0.6-1.5,1.7-2.1,2.5c-0.2,0.2-0.4,0.5-0.6,0.7c-0.4,0.6-0.7,1.3-0.9,2.1
			c0,0,0,0.1-0.1,0.1c-0.1,0.3-0.2,0.7-0.2,1c0,1,0,1.2,0.1,0.7c-0.1,0.8,0.3,1.6,1,2c-0.4-0.2-0.3,0,0.5,0.5c0.3,0.2,0.6,0.4,1,0.4
			c0,0,0.1,0,0.1,0c0.7,0.4,1.5,0.6,2.2,0.6c0.3,0,0.6,0,0.9,0c0.3,0,0.7,0,1,0c0.8,0,1.6,0,2.3-0.1c0.8-0.2,1.7-0.5,2.4-0.8
			c0.7-0.3,1.5-1,2.1-1.5c0.6-0.5,1.1-1,1.6-1.7c0.6-0.9,0.9-1.8,1-2.9c0.1-0.8-0.1-2.3-0.5-3C401.5,18.4,399.7,17.1,397.7,17z"/>
		<path class="st3" d="M416.9-13.5c-1.3-0.6-1.8-0.8-3-1.1c-1.2-0.2-2.3-0.1-3.4,0.1c-1.6,0.4-3.2,0.8-4.5,1.7
			c-2,1.4-4.1,2.9-4.9,5.2c-0.7,1.3-0.8,2.5-0.4,3.9c-0.1,0.5,0.2,1,0.7,1.3c0.8,0.8,1.6,1.3,2.6,1.6c1.4,0.7,3,0.6,4.6,0.5
			c-0.5,0-1,0.1-1.6,0.1c1.6-0.1,3.3,0.1,4.8-0.4c2.1-0.6,4.4-0.9,6-2.6c0.8-0.8,1.5-1.7,1.8-2.8c0.3-0.8,0.4-1.6,0.3-2.5
			c0-0.9-0.2-1.7-0.6-2.5C418.7-12,417.9-12.8,416.9-13.5z"/>
		<path class="st3" d="M438.4,25.5c-0.7-0.4-1.4-0.7-2.2-1c-0.1-0.1-0.2-0.1-0.3-0.2c-0.3-0.1-0.6-0.1-0.9-0.2
			c-0.8-0.2-1.6-0.2-2.4,0c-0.8,0.2-1.6,0.5-2.3,0.9c-0.3,0.1-0.6,0.2-0.9,0.4c-0.2,0.1-0.3,0.1-0.5,0.2c-0.4,0.2-0.6,0.3-1.1,0.6
			c-0.3,0.2-0.6,0.4-0.9,0.6c-0.4,0.4-0.7,0.9-1.1,1.3c-0.3,0.5-0.6,1.2-0.8,1.7c-0.1,0.2-0.2,0.5-0.3,0.7c-0.3,0.7-0.3,1.4-0.2,2.1
			c0,0.8,0.2,1.5,0.5,2.2c0.7,1.3,1.8,2.4,3.3,2.8l0.7,0.2c1.3,0.3,2.4,0.5,3.7,0.2c1.3-0.3,2.2-0.9,3.2-1.5
			c0.7-0.4,1.6-0.9,2.1-1.4c0.9-0.9,1.6-1.9,1.9-3.1c0.2-0.8,0.4-1.6,0.5-2.4C440.6,28,439.7,26.3,438.4,25.5z"/>
		<path class="st3" d="M471.3,39.3c-0.1,0-0.2-0.1-0.3-0.1c-0.6-0.4-1.2-0.7-1.9-0.7c-0.9-0.1-1.6,0.2-2.5,0.5
			c-0.4,0.2-0.9,0.3-1.3,0.5c-0.7,0.3-1.3,0.9-1.9,1.4c-0.4,0.3-0.7,0.6-1,1.1c-0.1,0.2-0.2,0.4-0.3,0.6c-0.1,0.1-0.2,0.3-0.3,0.4
			c-0.3,0.5-0.5,1-0.6,1.6c0,0.1-0.1,0.1-0.1,0.2c-0.8,1,0.1,2.7,1.4,2.7c0.1,0,0.1,0,0.2,0c0.5,0.3,1,0.4,1.6,0.5
			c0.2,0,0.3,0,0.5,0c0.2,0.1,0.4,0.1,0.7,0.1c0.6,0,1-0.1,1.5-0.2c0.8-0.2,1.5-0.3,2.2-0.7c0.4-0.2,0.8-0.5,1.2-0.7
			c0.8-0.5,1.4-0.9,1.9-1.7c0.4-0.6,0.5-1.3,0.6-2c0-0.1,0.1-0.2,0.1-0.3C473.5,41.3,472.6,39.6,471.3,39.3z"/>
		<path class="st3" d="M462.5,2.3c-0.7-0.6-1.3-0.8-2.2-0.9c-0.2,0-0.4-0.1-0.5-0.1c-0.8-0.1-1.5,0-2.2,0.3
			c-0.4,0.1-0.8,0.3-1.2,0.6c-0.2,0.2-0.5,0.3-0.7,0.5c-0.1,0.1-0.2,0.2-0.3,0.2c-0.2,0.2-0.5,0.4-0.7,0.6c-1.1,1-1.7,2.5-2.4,3.8
			c-0.2,0.3-0.3,0.7-0.5,1c-0.2,0.6-0.3,1.1-0.2,1.7c0,0.1,0.1,0.3,0.1,0.4c0,0.7,0.1,1.2,0.4,1.8c0,0.5,0.1,1,0.5,1.4
			c0.4,0.4,0.9,0.4,1.4,0.3c0.5,0.2,1,0.2,1.5,0.2c0.1,0,0.2,0.1,0.2,0.1c0.8,0,1.6-0.1,2.3-0.5c0.5-0.3,0.9-0.6,1.4-0.9
			c0.2-0.1,0.4-0.3,0.6-0.4c1-0.7,1.7-1.1,2.4-2.1c0.5-0.7,1.1-1.5,1.4-2.4c0.4-1.1,0.2-2.3-0.1-3.4C463.6,3.5,463.2,2.9,462.5,2.3z
			"/>
		<path class="st3" d="M278.8-56.9c-0.8-1.2-1.5-2.3-2.4-3.4c-1.3-1.5-3.2-2.4-5.2-2.7c-0.1,0-0.3-0.1-0.4-0.1c-0.1,0-0.2,0-0.3,0
			c-2.8-0.4-5.8,0.8-7.3,3.3c-0.2,0.3-0.3,0.6-0.4,1c-0.7,1.1-1.1,2.4-1.2,3.8c-0.1,1.1,0.1,1.8,0.2,2.7c0.1,0.4,0.1,0.9,0.2,1.3
			c0,0.3,0,0.6,0.1,0.8c0.2,0.7,0.4,1.4,0.7,2.1c0.1,0.2,0.1,0.4,0.2,0.6c0.5,1.8,1,3,2.2,4.4c0.9,1,1.9,1.6,3.1,2.1
			c0,0,0,0,0.1,0.1c0.4,0.3,0.8,0.3,1.3,0.5c0,0,0,0,0.1,0c0,0,0,0,0,0c0.3,0.1,0.5,0.3,0.8,0.3c1.2,0.2,2.4,0.1,3.5-0.4
			c2.1-0.6,3.9-1.9,5.1-3.7c0.9-1.4,1.4-3.1,1.5-4.7c0.1-1.3-0.1-2.7-0.2-4.1c-0.1-0.7-0.2-1.2-0.5-2
			C279.4-55.8,279.2-56.3,278.8-56.9z"/>
		<path class="st3" d="M292.1-94.1c-0.7-0.4-1.4-0.8-2.2-1c-1.2-0.4-2.6-0.6-3.9-0.3c-1.3,0.3-2.7,1-3.6,1.9c-0.9,0.8-1.4,1.8-1.6,3
			c-0.1,0.5-0.2,0.9-0.1,1.4c0,0.3,0,0.6,0.1,0.8c0,0,0-0.1,0-0.1c0,0.1,0,0.1,0,0.2c0,0.1,0,0.2,0.1,0.3c0,0,0,0.1,0,0.1
			c0,0,0,0,0-0.1c0.1,0.3,0.2,0.6,0.3,1c0.1,0.3,0.2,0.7,0.4,0.9c0.1,0.2,0.2,0.3,0.3,0.5c0.1,0.3,0.2,0.6,0.4,0.9c0,0,0,0.1,0,0.1
			c0.1,0.3,0.1,0.5,0.2,0.7c0.3,1.3,0.8,2.4,1.7,3.4c0.2,0.2,0.4,0.3,0.5,0.5c0.2,0.4,0.5,0.7,0.8,0.9c0.3,0.3,0.7,0.5,1.1,0.8
			c0.4,0.3,0.8,0.5,1.2,0.6c0.7,0.2,1.6,0.3,2.3,0.1c0.1,0,0.2-0.1,0.3-0.1c0.1,0,0.1,0,0.2,0c0.8-0.1,1.6-0.5,2.2-1
			c0.5-0.2,0.9-0.6,1.2-1.1c0,0,0.1-0.1,0.1-0.1c0.5-0.4,0.9-0.9,1.3-1.5c0.7-1,1.1-2.2,1.1-3.4c-0.1-0.9-0.1-1.9-0.2-2.8
			c-0.2-0.9-0.5-1.9-0.9-2.7C294.8-91.7,293.7-93.2,292.1-94.1z"/>
		<path class="st3" d="M314.5-60.9c-0.5-0.4-1-0.9-1.5-1.3c-0.5-0.3-1-0.5-1.5-0.7c-0.2-0.1-0.2,0,0.2,0.1c0.6,0.5-0.1,0-0.2-0.1
			c-1.2-0.7-3-1.3-4.4-0.9c0,0-0.1,0-0.1,0c-0.9-0.7-2.2,0.1-1.8,1.2c-0.7,0.9-1,2.3-1.1,3.5c0,0,0,0,0,0c-0.2,0.5-0.3,1.1-0.3,1.6
			c0,0.4,0,0.9,0,1.3c-0.1,1.5-0.2,2.9,0.2,4.4c0.5,1.5,0.8,3.2,1.5,4.6c0.4,0.8,1.1,1.6,1.9,2.3c0.7,0.9,1.3,1.8,2.4,2.5
			c2.9,1.8,6.3,0.9,8.3-1.8c0.9-1.2,1.2-2.5,1.4-4c0.5-1.3,0.5-2.5,0.4-4c-0.1-1.1-0.7-2.2-1-3.2c-0.2-0.5-0.4-1-0.6-1.5
			C317.2-58.6,315.9-59.7,314.5-60.9z"/>
		<path class="st3" d="M333.4-91.2c-0.5-0.4-1.2-1.1-1.9-1.6c-0.5-0.3-1.1-0.5-1.6-0.8c-0.3-0.1-0.6-0.2-1-0.2
			c-0.9-0.2-1.7-0.3-2.6,0c-0.4,0.1-0.7,0.3-1.1,0.4c-0.8,0.2-1.6,0.6-2.2,1.2c-0.5,0.4-0.8,0.9-1.1,1.5c-1.1,1.5-1.3,3.7-0.9,5.5
			c0.2,1,0.2,1.7,0.8,2.7c0.3,0.6,0.7,1.1,0.9,1.8c0,0.1,0.1,0.3,0.1,0.4c0.3,0.5,0.7,1.1,1.1,1.6c0.1,0.1,0.2,0.3,0.4,0.4
			c0.8,0.9,1.7,1.5,2.8,1.8c0.8,0.3,1.6,0.4,2.5,0.3c0.9,0,1.7-0.2,2.5-0.6c1.1-0.5,1.9-1.3,2.5-2.3c0.4-0.6,0.8-1.4,1-2
			c0.2-0.7,0.4-1.6,0.4-2.4c0-1-0.1-2.1-0.3-3.2C335.4-88.4,334.7-90.1,333.4-91.2z"/>
	</g>
</g>
</svg>
