<?xml version="1.0" encoding="utf-8"?>
<!-- Generator: Adobe Illustrator 26.0.1, SVG Export Plug-In . SVG Version: 6.00 Build 0)  -->
<svg version="1.1" id="Layer_1" xmlns="http://www.w3.org/2000/svg" xmlns:xlink="http://www.w3.org/1999/xlink" x="0px" y="0px"
	 viewBox="0 0 595.3 595.3" style="enable-background:new 0 0 595.3 595.3;" xml:space="preserve">
<style type="text/css">
	.st0{clip-path:url(#SVGID_00000102503198323103532230000003481631861376984455_);}
	.st1{fill:#33ADFF;}
	.st2{fill:#17213A;}
	.st3{fill:#E64A2F;}
</style>
<g>
	<defs>
		<rect id="SVGID_1_" x="0" y="0" width="595.3" height="595.3"/>
	</defs>
	<clipPath id="SVGID_00000179635577209056720760000010818356777355574965_">
		<use xlink:href="#SVGID_1_"  style="overflow:visible;"/>
	</clipPath>
	<g style="clip-path:url(#SVGID_00000179635577209056720760000010818356777355574965_);">
		<path class="st1" d="M570.1,353c-2-17-11.8-30.8-24.7-39.4c-4.6-3-9.4-5.3-14.3-7c12.7-12.7,21.3-30,22.8-50.1
			c1.3-17.4-3.7-34.9-13.8-48.1c-9.5-12.4-23.9-20.1-38.1-23.1c-9-1.9-17.9-2.1-26.9-1.5c12.8-23.8,15.1-54.1,1.7-79.4
			c-8.8-16.7-23.5-30.1-40.5-34.5c-20-5.2-41,1.2-59,11.1c-10,5.5-19.5,13-27.4,22.1c-2.8-9.9-6.5-19.4-11.9-27.7
			c-5.5-8.5-12.4-16-21-20.3c-11-5.6-22.5-6.5-34.3-4.3c-36.5,6.9-63.8,45.2-70.8,84.4c-2.3,12.9-2.6,25.9-1,38.6
			c-27.3-8.2-56.3-8.3-84-0.3c-15.3,4.4-34.4,15.4-31.7,36.7c1.3,10.6,8.3,18.2,15.8,24c7.6,5.9,16.1,10.5,24.5,14.9
			c13.8,7.3,28.1,13.3,42.5,19c-32.5,18.2-64.9,39.2-87.6,71.5c-7,9.9-14.2,20.9-16.8,33.5c-2.8,13.6,0.8,27,11.4,34.9
			c9.5,7.1,22.3,7.7,33.3,8.4c13.2,0.8,26.4,0.3,39.5-1.2c23.3-2.7,46.1-8.1,68.8-14.1c-6.2,14.9-10.1,30.8-11.6,47.3
			c-1.9,20.3-0.1,42.5,9.8,60.1c4.9,8.6,11.5,15.6,19.9,19.5c10.6,4.9,22.2,3,32.8-1c19.4-7.3,37.3-19,53.5-32.9
			c9.2-7.9,18-16.5,26.6-25.2c3.2-3.3,6.5-6.6,9.8-9.9c1.7,16.4,5.2,32.3,13.5,46.3c11,18.5,27.9,32.7,47.2,38.1
			c20.4,5.7,43.2,2.2,61.2-10c19.2-13.1,32.5-35.5,30.5-61.5c-1.4-17.7-8-33-17.5-46.2c20.7-2.2,40.9-8.9,54.7-27.5
			C566.1,385.3,572.1,369.5,570.1,353z"/>
		<path class="st2" d="M430.2,274.8c-0.8-5.6-6.1-11.8-12.5-11c-1.1,0.1-2.3,0.3-3.4,0.5v0c0,0,0,0,0,0c-9.7,1.2-19.3,2.6-28.9,4.2
			c-6,0.7-11.9,1.2-17.9,1.7c11.3-16.1,21.1-33.2,28.8-51.4c2.5-5.9,2.3-12.5-3.3-16.6c-5.1-3.8-12.3-3.7-16.9,1
			c-11.7,11.9-22.9,24.2-33.8,36.8c0-5.6-0.3-11.1-0.6-16.6c-0.2-3.4-0.1-7.2-0.8-10.5c-0.6-2.9-1.7-5.7-2.6-8.5
			c-2.7-8.8-15.7-9.2-18.2,0c-1.8,6.5-2.8,12.3-3.1,19c-0.1,1.9-0.2,3.9-0.2,5.8c-6.2-7.4-12.4-14.8-18.8-22
			c-5.2-5.9-15.9-5.7-21.2,0c-6.1,6.6-5.1,14.5,0,21.2c6.8,8.8,13.6,17.6,20.4,26.4c0.6,0.8,1.3,1.6,1.9,2.4
			c-1.7,0.8-3.4,1.6-5.1,2.4c-4.4,2.1-8.9,4.1-13.3,6.2c-9.1,4.3-18.3,8.6-27.4,12.8c-12.3,5.8-6.5,27.2,7,26
			c18.7-1.7,37.2-4.3,55.7-7.3c-3.7,15.3-7.5,30.7-11.2,46c-1.7,6.9,2.2,14.4,9.3,16.3c7.2,2,14-2.5,16.3-9.3
			c3.6-10.7,6.1-21.9,9.3-32.7c1.4-4.6,2.9-9.2,4.4-13.8c4.3,4.4,8.6,8.7,13.2,12.8c9.1,8.3,19.1,15.5,28.2,23.8
			c11.4,10.4,27.6-2.6,20.9-16.2c-5.9-11.9-14.9-21.3-25.2-29.3c2.2-0.4,4.4-0.8,6.6-1.2c11.2-1.3,22.3-3,33.4-5.1
			C427.3,287.6,431.1,280.5,430.2,274.8z"/>
		<path class="st3" d="M271,78.6c0-0.9,0-1.8-0.3-2.6c-0.3-1.1-0.9-2-1.6-2.8c-0.2-0.2-0.3-0.5-0.5-0.7c-0.5-0.5-1.1-0.9-1.7-1.1
			c-1.2-0.5-2.4-0.6-3.5-0.2c-1.8,0.2-3.3,1.3-4.5,2.7c-0.8,1-1.8,2-2.4,3.1c-1.1,1.8-1.6,4.2-2.3,6.2c-0.5,1.6-0.3,3.2,0.3,4.7
			c0,0.8,0.1,1.6,0.3,2.4c0.6,1.8,1.7,3.1,3.5,3.9c1.7,0.7,3.8,0.7,5.3-0.3c0.8-0.5,1.4-1.1,2-1.8c0.6-0.3,1.2-0.8,1.7-1.3
			c1-1,1.6-2.1,2-3.5c0.8-2.1,1.7-4.1,1.8-6.4C271.1,80.1,271.1,79.3,271,78.6z"/>
		<path class="st3" d="M253.6,130c-0.1-0.8-0.2-1.5-0.3-2.3c0-0.3-0.1-0.7-0.1-1c0-0.5-0.1-0.9-0.2-1.4c-0.2-0.4-0.3-0.6-0.3-0.8
			c-0.1-0.2-0.1-0.6-0.1-0.7c-0.1-0.4-0.2-0.8-0.3-1.2c-0.2-0.6-0.4-1.1-0.7-1.5c-0.1-0.3-0.3-0.7-0.4-1c-0.4-0.9-1.4-1-2-0.3
			c-0.2,0.3-0.4,0.6-0.7,0.9c-0.4,0.3-0.8,0.8-1.1,1.3c-0.2,0.4-0.4,0.7-0.6,1.1c-0.1,0.2-0.2,0.5-0.4,0.7c-0.1,0.1-0.2,0.3-0.5,0.6
			c-0.3,0.4-0.5,0.8-0.6,1.2c-0.1,0.3-0.2,0.6-0.4,0.9l-0.9,2.2c-0.4,1.1-0.7,2-0.8,3.3c-0.1,0.8-0.1,1.5,0,2.3c0.1,1,0.1,2.1,0.3,3
			c0.5,1.8,1.9,3.2,3.8,3.4c1.8,0.2,3.5-0.7,4.5-2.2c0.5-0.8,0.8-2,1.2-2.9c0.3-0.7,0.4-1.5,0.6-2.2c0.1-0.8,0.3-1.4,0.2-2.2
			C253.7,130.8,253.7,130.4,253.6,130z"/>
		<path class="st3" d="M302.5,120.9c-0.2-1.2-0.5-2.4-1.2-3.4c-0.8-1.3-1.8-2.5-2.9-3.7c-0.3-0.3-0.6-0.6-0.9-0.9
			c-1.1-1-2.4-1.7-3.8-2.1h0.1c-0.1,0-0.2-0.1-0.3-0.1c-0.3-0.1-0.5,0-0.8-0.1c-0.3,0-0.6-0.1-0.9-0.1c-0.5,0-1.1,0.1-1.6,0.2
			c-0.1,0-0.2,0-0.2,0h0.1c-0.3,0.1-0.7,0.1-1,0.3c-0.6,0.3-0.9,0.4-1.4,0.8c-0.2,0.2-0.4,0.3-0.6,0.5c-0.6,0.5-1.2,0.9-1.7,1.5
			c-0.3,0.4-0.6,0.9-0.8,1.4c-0.1,0-0.2,0.1-0.2,0.1c-1.3,0.6-1.1,2.4,0,3.1c0,0,0.1,0.1,0.1,0.1c0.1,0.2,0.1,0.4,0.2,0.6
			c0,0.5-0.1,1-0.1,1.5c-0.1,0.5-0.1,0.9-0.2,1.4c0,0.3,0.1,0.6,0.1,0.9c0.1,1,0.2,2.1,0.4,3.1c0.1,0.4,0.2,0.7,0.2,1.1
			c0,0.2,0.1,0.3,0.1,0.5c0.3,1.2,0.8,2.2,1.6,3c0.2,0.4,0.5,0.7,0.8,1c0.2,0.2,0.4,0.4,0.6,0.6c1.4,1.4,3.6,2.4,5.6,2.3
			c0.7-0.1,1.4-0.2,2.1-0.3c1.3-0.4,2.5-1,3.5-2c0.3-0.2,0.5-0.4,0.7-0.7c1.1-1.1,1.9-2.4,2.3-3.9c0.2-0.9,0.3-1.7,0.3-2.6
			c0-0.2,0-0.4,0-0.6C302.9,123.3,302.8,122.2,302.5,120.9z"/>
		<path class="st3" d="M317.7,81.6c-0.1-0.8-0.3-1.5-0.5-2.3c-0.3-1-0.6-2-1.2-2.9c-0.3-0.4-0.5-0.8-0.8-1.2c-0.5-0.8-1-1.5-1.6-2.3
			c-1-1.4-1.6-1.9-3-3c-0.6-0.4-1.2-0.7-1.9-1c-0.4-0.2-0.8-0.4-1.2-0.5c-0.3-0.1-0.7-0.1-1-0.2c-1-0.2-2.4-0.1-3.1,0.8
			c-0.2,0.2-0.3,0.4-0.5,0.6c-0.5,0.6-0.8,1.1-1.1,1.8c-0.1,0.1-0.1,0.1-0.2,0.2c-0.3,0.5-0.6,1.2-0.7,1.8c-0.2,0.9-0.4,1.9-0.4,2.8
			c0.1,0.9,0.2,1.8,0.3,2.6l0.2,1.3c0.1,0.8,0.1,1.7,0.3,2.5c0.2,0.8,0.7,1.7,1,2.4c0.2,0.4,0.4,0.8,0.6,1.2c1,1.8,3,3.6,5.1,4
			c1.3,0.4,2.7,0.4,4,0c1.3-0.4,2.4-1,3.3-1.9c0.9-1.1,1.6-2,2.1-3.5C317.8,83.7,317.8,82.7,317.7,81.6z"/>
		<path class="st3" d="M343.6,136.2c0-4.3-2.2-7.9-4.3-11.4c-1-1.6-2.2-3-3.5-4.3c-1.3-1.2-2.7-2.4-4.3-2.9
			c-0.4-0.3-0.9-0.5-1.3-0.9c-0.3-0.2-0.5-0.4-0.8-0.6c0,0-0.1-0.1-0.1-0.1c-1.5-2.2-4.4-0.7-4.1,1.7c-0.1,0.4-0.2,0.8-0.2,1.1
			c0,0.4-0.2,0.8-0.3,1.3c-0.9,1.6-1.1,3.5-1.2,5.3c-0.2,2,0,3.9,0.4,5.9c0.3,1.4,0.5,2.8,0.8,4.1c0.7,2.5,2.1,5.1,3.8,7
			c1.2,1.3,2.8,2,4.5,2.3c3.1,1.3,7-0.3,8.6-3.3C342.9,139.9,343.6,138,343.6,136.2z"/>
		<path class="st3" d="M152.7,191.6c-0.1-0.2-0.1-0.3-0.2-0.5c-0.6-1.4-0.7-1.7-1.7-2.9c-0.2-0.3-0.5-0.5-0.7-0.8
			c-1.2-1.1-2.6-2.4-4.3-2.6c-0.8-0.1-1.7-0.3-2.5-0.3c-0.7,0-1.6,0.2-2.3,0.4c-0.3,0.1-0.6,0.2-0.9,0.3c-1.2,0.5-2.2,1-3,2.2
			c-0.4,0.7-0.9,1.9-0.7,2.8c0.3,1.1,0.6,2.1,1.4,3c0.1,0.1,0.2,0.2,0.3,0.3c0.1,0.1,0.2,0.2,0.2,0.3c0.3,0.4,0.6,0.8,1,1.2
			c0.1,0.1,0.3,0.3,0.4,0.4c0.7,0.6,1.3,1,2.1,1.4c-0.1-0.1-0.3-0.1-0.4-0.2c0.5,0.2,0.9,0.4,1.4,0.7c0.2,0.1,0.4,0.3,0.6,0.4
			c0.6,0.4,1.3,0.6,2,0.9c-0.5-0.2-0.9-0.4-1.4-0.6c1,0.4,1.9,0.9,3,0.8c0.4,0,0.9-0.1,1.4-0.2c0.8-0.1,1.5-0.4,2.2-0.9
			c0.5-0.3,0.9-0.7,1.2-1.3c0.2-0.4,0.4-0.7,0.5-1.1C152.9,194.1,153.1,192.7,152.7,191.6z"/>
		<path class="st3" d="M141.5,224.8c0.1-1.7-0.3-3.3-1.6-4.5c-0.2-0.2-0.5-0.4-0.7-0.6c-0.8-0.8-1.5-1.7-2.5-2.3
			c-0.6-0.3-1.2-0.6-1.8-1c-0.7-0.4-1.3-0.8-2-1.1c-0.2-0.1-0.4-0.2-0.6-0.3c-0.2-0.1-0.3-0.2-0.4-0.3c-0.8-0.4-1.5-0.5-2.2-0.5
			c-0.4-0.1-0.7-0.2-1.1-0.2c-0.4-0.2-0.9-0.2-1.3,0c-0.4,0.2-0.5,0.6-0.6,1c-0.4,0.5-0.5,1-0.6,1.6c-0.4,0.9-0.5,1.8-0.3,2.9
			c0,0.2,0.1,0.3,0.1,0.5c0.1,0.4,0.2,0.7,0.3,1.1c-0.1-0.4-0.1-0.9-0.2-1.3c0,1.2,0.3,2.2,0.9,3.3c0.2,0.3,0.4,0.6,0.6,0.9
			c0.6,0.9,1.3,1.9,2.1,2.7c0.8,0.8,1.9,1.4,3,1.8c0.7,0.3,1.4,0.7,2.2,0.9c0.9,0.3,2.1,0.3,3,0.1c0.7-0.2,1.2-0.5,1.8-0.9
			c0,0,0,0,0,0c0.3-0.2,0.6-0.4,0.9-0.7c0.4-0.4,0.7-0.8,0.9-1.4c0.1-0.2,0.1-0.5,0.2-0.7v0.1c0-0.1,0-0.2,0-0.2
			C141.4,225.4,141.5,225.1,141.5,224.8z"/>
		<path class="st3" d="M186.9,221.7c-0.2-0.7-0.6-1.5-1-2.2c-0.8-1.6-2.1-2.7-3.7-3.3c-1.1-0.4-2.2-0.9-3.3-1.2
			c-0.6-0.1-1.3-0.2-1.9-0.3c-0.1,0-0.3,0-0.4,0c-0.2,0-0.4,0-0.6,0c-0.4,0-0.8,0.1-1.2,0.1c-0.4,0-0.9,0.1-1.3,0.1
			c-1.1,0.1-2.2,0.3-3.1,0.9c-0.5,0.3-0.9,0.7-1.3,1.1c-0.7,0.6-1.3,1.5-1.5,2.3c-0.2,0.7-0.1,1.4,0,2.1c0,0.4,0.1,0.8,0.2,1.2
			c0.2,0.8,0.5,1.5,1.1,2c0.4,0.7,1,1.2,1.7,1.5c0.3,0.3,0.7,0.5,1,0.8c1.2,0.9,2.2,1.7,3.6,2.2c0.8,0.2,1.7,0.4,2.5,0.6
			c2.1,0.5,4,0.1,5.9-0.9c0.7-0.4,1.2-0.8,1.9-1.3c0.7-0.7,1.2-1.6,1.5-2.6C187.2,223.8,187.2,222.7,186.9,221.7z"/>
		<path class="st3" d="M206.4,198.2c0-0.8-0.2-1.6-0.6-2.3c-0.3-0.5-0.7-0.8-1.1-1.1c0,0,0-0.1,0-0.1c-0.6-1-1.5-1.9-2.5-2.5
			c-1.1-0.6-2.3-0.9-3.5-1c-0.3,0-0.7,0-1,0.1c-0.7,0-1.5,0.1-2.2,0.3c-0.7,0.2-1.3,0.5-2,0.8c-0.3,0.1-0.5,0.2-0.8,0.3
			c-0.4,0.2-0.5,0.3-1,0.6c-0.9,0.7-1.7,1.6-2,2.7c-0.1,0.1-0.1,0.2-0.2,0.3c-0.3,0.6-0.4,1.2-0.4,1.9c0.1,0.4,0.1,0.9,0.2,1.3
			c0.1,0.4,0.3,0.8,0.5,1.2c0.3,0.7,0.8,1.3,1.3,1.9c0.6,0.6,0.9,0.8,1.5,1.1c0.3,0.1,0.6,0.3,0.9,0.4c0.6,0.3,1.3,0.6,1.9,0.8
			c0.7,0.2,1.4,0.2,2.2,0.3c0.4,0,0.7,0,1.1,0.1c1.3,0,2.4-0.3,3.5-1c1.1-0.6,1.9-1.5,2.5-2.5c0,0,0-0.1,0-0.1
			c0.4-0.3,0.9-0.7,1.1-1.1C206.2,199.8,206.4,199,206.4,198.2z"/>
		<path class="st3" d="M123.5,365.8c0-0.9-0.2-1.8-0.6-2.6c-0.2-0.6-0.4-1.1-0.9-1.5c-0.5-0.7-1.1-1.3-1.9-1.7
			c-0.3-0.2-0.6-0.4-0.9-0.4c-0.2-0.1-0.4-0.2-0.6-0.2c-0.4-0.2-0.8-0.4-1.3-0.6c-0.2-0.1-0.5-0.2-0.7-0.2c-0.4-0.1-0.8-0.2-1.2-0.2
			c-0.4-0.1-0.9-0.1-1.3-0.2c-0.8,0-1.7,0.2-2.4,0.3c-0.3,0.1-0.7,0.1-1,0.2c-1.2,0.3-2.4,0.8-3.5,1.5c-0.4,0.2-0.7,0.4-1,0.7
			c-0.3,0.2-0.6,0.4-0.9,0.7c-0.5,0.5-1,1.3-1.4,1.8c-0.1,0.2-0.3,0.4-0.4,0.6c-0.7,1.2-1,2.4-1,3.7c0,1,0.2,2,0.6,2.8
			c0.3,0.9,0.8,1.7,1.5,2.4c0.9,0.9,2,1.5,3.3,1.9c0.2,0.1,0.5,0.2,0.7,0.3c0.1,0.1,0.3,0.1,0.4,0.1c0.7,0.1,1.5,0.2,2.2,0.3
			c0.1,0,0.1,0,0.2,0c1.3-0.1,2.7-0.2,3.9-0.6c1.8-0.7,3.6-1.2,4.9-2.7c0.2-0.2,0.3-0.4,0.5-0.6l1.2-1.6c0,0,0,0,0-0.1
			c0.6-0.7,0.9-1.5,1.3-2.5L123.5,365.8z"/>
		<path class="st3" d="M142.5,390.5c-0.2-0.5-0.5-0.9-0.9-1.3c-0.7-0.7-1.6-1.1-2.5-1.4c-0.4-0.1-0.9-0.2-1.4-0.3
			c-0.9-0.2-1.7-0.3-2.6-0.2c-1.5,0.2-1.4,0.1-2.8,0.7c-0.2,0.1-0.3,0.2-0.5,0.2c-0.3,0.2-0.7,0.3-1,0.5c-0.2,0.1-0.3,0.2-0.5,0.2
			c-0.1,0-0.1,0.1-0.2,0.1c-0.3,0.1-0.2,0.1,0.2-0.1c0,0-1,0.3-1.1,0.4c-0.3,0.1-0.6,0.2-0.8,0.4c-0.2,0-0.3,0-0.5,0
			c-2,0-2.3,2.9-0.5,3.4c0.1,0,0.3,0.1,0.4,0.1c0.2,0.2,0.4,0.4,0.7,0.6c0.3,0.2,0.6,0.5,1,0.7c0,0,0.1,0.1,0.1,0.1
			c0.1,0.1,0.3,0.2,0.4,0.4c0.3,0.2,0.6,0.5,0.9,0.7c0.6,0.5,1.1,1,1.8,1.3c1.3,0.6,2.1,0.9,3.5,1c0.4,0,0.9,0,1.3,0.1
			c0.8,0,1.6-0.1,2.3-0.4c0.7-0.3,1.2-0.7,1.6-1.1C143.5,395.2,143.9,392.2,142.5,390.5z"/>
		<path class="st3" d="M164.4,354.6c-0.2-0.8-0.8-1.4-1.4-1.8c-0.9-1.2-2.3-2-3.9-2.2c-0.7-0.1-1.3-0.1-2.1,0
			c-0.9,0.1-1.8,0.1-2.7,0.4c-0.9,0.3-1.7,0.7-2.5,1.2c-1.1,0.6-2,1.4-2.9,2.2c-0.8,0.7-1.4,1.5-2,2.4c-1,1.4-0.3,3.7,1.2,4.4
			c1,0.5,1.9,1,3,1.2c1.2,0.3,2.5,0.5,3.7,0.5c0.7,0,1.3,0,2-0.1c0.4,0,0.7-0.1,1.1-0.1c0.5-0.2,1-0.4,1.5-0.6
			c0.2-0.1,0.5-0.2,0.7-0.3c0.4-0.2,0.8-0.3,1.2-0.5c1.5-0.8,2.5-2.4,2.8-4.1C164.5,356.3,164.7,355.5,164.4,354.6z"/>
		<path class="st3" d="M161.1,325.3c-0.1-0.1-0.2-0.3-0.3-0.4c-0.5-1.5-1.8-2.6-3.3-3.3c-0.5-0.2-1.2-0.5-1.8-0.7
			c-0.6-0.2-1.4-0.2-2.1-0.2c-1.4,0-2.8,0.3-3.9,1.1c-1,0.7-1.9,1.4-2.7,2.3c-0.5,0.6-1,1.2-1.4,1.8c-0.6,0.8-0.9,1.8-0.9,2.8
			c0,0.7,0.1,1.2,0.3,1.8c0.1,0.9,0.6,1.7,1.3,2.3c0.5,0.4,1,0.6,1.6,0.6c0.8,0.3,1.7,0.5,2.6,0.4c0.5-0.1,0.8-0.2,1.3-0.3
			c0.2-0.1,0.5-0.1,0.7-0.1c0,0,0.1,0,0.1,0c0.2,0,0.3,0,0.5,0c1.3,0,2.3-0.3,3.4-0.9c0.8-0.4,1.4-0.9,2-1.5c0,0,0,0,0,0
			c0.7-0.5,1.4-1.1,1.8-1.8c0.1-0.1,0.1-0.2,0.2-0.3C161.5,327.9,161.8,326.5,161.1,325.3z"/>
		<path class="st3" d="M249.3,457.3c0-0.9,0-1.9-0.2-2.8c-0.1-0.5-0.2-1-0.5-1.4c-0.1-0.1-0.2-0.2-0.3-0.4c0,0,0,0,0,0
			c-0.1-0.4-1-1.4-1.6-1.4c-0.5,0-1,0.1-1.5,0.3c-0.1,0-0.2,0.1-0.2,0.1c-1.3,0.4-2.2,1.5-3,2.5c-0.2,0.2-0.2,0.2-0.1,0.2
			c-0.1,0.1-0.3,0.2-0.4,0.3c-0.8,0.7-1.1,1.6-1.5,2.5c-0.3,0.6-0.5,1.2-0.8,1.8c-0.2,0.5-0.5,1.1-0.7,1.7c-0.4,1.3-0.5,2.9-0.2,4.1
			c0.2,1.1,0.5,2.1,0.8,3.1c0.4,1.5,2.5,2.7,3.9,1.6c0.6-0.5,1.2-0.9,1.8-1.4c0.7-0.5,1.4-1,1.9-1.7c0.4-0.5,0.7-1.1,1-1.7
			c0.6-1.2,0.9-2.4,1.2-3.7c0.1-0.5,0.3-1,0.4-1.5c0.1-0.5,0.2-1.1,0.2-1.6C249.5,457.8,249.4,457.6,249.3,457.3z"/>
		<path class="st3" d="M256.3,499c-0.1-0.5-0.3-1-0.4-1.5c-0.1-0.7-0.3-1.2-0.6-1.7c-0.1-0.4-0.2-0.8-0.4-1.1c0-0.1,0-0.2,0-0.3
			c-0.1-1.4-1.9-2-2.7-0.7c-0.1,0.1-0.2,0.3-0.3,0.4c-0.2,0.2-0.4,0.3-0.6,0.5c-0.3,0.1-0.5,0.3-0.7,0.5c-0.3,0.3-0.6,0.8-0.9,1.2
			c-0.2,0.2-0.3,0.5-0.5,0.7c-0.2,0.2-0.1,0.2,0.2-0.3c-0.1,0.1-0.2,0.2-0.4,0.4c-1,1.1-1.5,2.4-2.1,3.7c-0.4,0.9-0.8,1.7-0.9,2.7
			c-0.1,0.6-0.2,1.3-0.3,1.9c-0.2,1.6-0.3,3.3,0.6,4.7c0.2,0.3,0.5,0.6,0.7,0.9c1,0.9,1.2,1,0.7,0.4c0.2,0.4,1,0.7,1.4,0.9
			c0.1,0,1.2,0.2,1.6,0c0.1,0,0.2,0,0.3,0c0.6,0,1.2-0.2,1.7-0.6c1.3-0.8,2.2-2.1,2.7-3.6c0.6-1.6,1.1-3.1,1.1-4.8
			C256.5,501.9,256.7,500.4,256.3,499z"/>
		<path class="st3" d="M310.8,480.5c-0.1-0.4-0.2-0.8-0.3-1.2c-0.1-0.4-0.3-0.8-0.4-1.2c-0.3-0.9-0.6-1.5-1.3-2.2
			c-0.3-0.3-0.7-0.6-1.1-0.8c-0.8-0.6-1.6-1-2.5-1c0,0-0.1-0.1-0.1-0.1c-1-0.6-2.1,0.1-2.3,1.1c-0.3,0.3-0.6,0.7-0.8,1.1
			c-0.1,0.2-0.3,0.3-0.4,0.5c-0.5,0.9-0.6,1.7-0.7,2.7c0.1-0.4,0.1-0.8,0.2-1.3c-0.1,0.7-0.2,1.3-0.4,1.9c-0.2,0.8-0.3,1.6-0.4,2.4
			c-0.1,0.3-0.1,0.6-0.2,0.8c-0.2,0.6-0.2,1.2-0.3,1.8c-0.1,0.4-0.2,0.8-0.1,1.2c0,0.6,0.1,1.1,0.2,1.7c0.5,2.2,3,3.5,5.1,2.9
			c1.5-0.4,2.6-1.3,3.5-2.4c0.8-1,1-1.4,1.5-2.6c0.1-0.2,0.1-0.4,0.2-0.5c0.1-0.4,0.3-0.8,0.4-1.3c0-0.2,0.1-0.4,0.1-0.5
			C311,482.4,311,481.8,310.8,480.5z"/>
		<path class="st3" d="M285.2,449.6c-0.1-0.2-0.2-0.4-0.3-0.6c0-0.2-0.1-0.5-0.2-0.7c-0.1-0.1-0.2-0.2-0.3-0.4c0-0.4,0-0.7,0-1.1
			c0-0.9-1.1-1.4-1.7-0.7c-0.2,0.3-0.5,0.5-0.7,0.8c-0.4,0.1-0.7,0.3-1.1,0.5c-1.1,0.4-1.8,1.3-2.4,2.3c-0.3,0.5-0.6,1-0.9,1.5
			c-0.6,1.1-0.6,2.1-0.6,3.3c0,0.9,0.2,1.6,0.7,2.3c0.4,0.5,0.9,1,1.6,1.2c0.6,0.1,1.2,0.1,1.8,0c0.7-0.2,1.3-0.7,1.8-1.1
			c0.8-0.8,1.6-1.6,1.8-2.7c0.1-0.6,0.2-1.2,0.3-1.7c0.1-0.3,0.1-0.5,0.2-0.8C285.4,450.8,285.4,450.2,285.2,449.6z"/>
		<path class="st3" d="M426.9,508.4c0.2-0.6,0.3-1.2,0.3-1.8c0-0.8-0.2-1.6-0.3-2.4c-0.1-0.6-0.2-1.2-0.4-1.7
			c-0.3-1.1-0.8-1.9-1.4-2.8c-0.4-0.5-0.7-1-1.1-1.5l-0.8-1.1c-0.5-0.5-1-0.9-1.7-1.1c-1-0.4-2.3-0.6-3.4-0.3
			c-0.9,0.3-1.6,0.7-2.3,1.3c-1.1,1-1.4,2.3-1.5,3.7c-0.1,0.6-0.2,1.2-0.2,1.8c-0.1,1.1-0.1,2.1,0.2,3.2c0.2,0.6,0.4,1.1,0.6,1.7
			c0.4,1.4,1,2.5,1.9,3.4c0.3,0.4,0.6,0.9,0.9,1.2c0.8,0.8,1.7,1.2,2.8,1.6c-0.4-0.2-0.8-0.3-1.1-0.5c1.2,0.7,2.4,1.2,3.8,0.8
			c1.3-0.4,2.1-1.3,2.7-2.5c0.4-0.6,0.8-1.1,0.9-1.8C426.8,509.3,426.9,508.9,426.9,508.4z"/>
		<path class="st3" d="M454.3,520.7c-0.3-0.9-0.6-1.8-1.1-2.6c-0.5-0.8-1.2-1.5-1.8-2c-0.2-0.2-0.5-0.4-0.7-0.6
			c-0.5-0.4-0.9-0.7-1.6-0.9c-0.2-0.1-0.4-0.1-0.5-0.1c-0.3-0.1-0.7-0.3-1-0.4c-0.7-0.3-1.3-0.4-2-0.3c-0.4-0.1-0.8-0.1-1.2-0.2
			c-1-0.1-1.3,1.2-0.8,1.8c0.2,0.3,0.4,0.4,0.5,0.6c0,0.3,0.1,0.6,0.3,0.9c0.1,0.2,0.2,0.4,0.4,0.6c0.1,0.2,0.2,0.4,0.3,0.5
			c0.1,0.7,0.5,1.4,0.8,2.1c0.2,0.5,0.4,1,0.6,1.5c0.2,0.5,0.5,1.1,0.8,1.6c0.3,0.7,0.5,1.2,1,1.8c0.6,0.6,1.3,1.1,2.1,1.3
			c1,0.5,2.4,0.3,3-0.8c0,0,0-0.1,0.1-0.1C454.5,524.3,454.8,522.3,454.3,520.7z"/>
		<path class="st3" d="M461,477.3c-0.2-1.1-0.7-2.2-1.6-2.9c-0.3-0.3-0.6-0.6-1-0.7c-0.3-0.2-0.7-0.3-1.1-0.4
			c-0.5-0.1-1-0.2-1.4-0.2c-0.2,0-0.4,0-0.6,0c-0.1,0-0.2,0-0.3,0c-0.5,0-0.9,0.1-1.3,0.3c-0.4,0.2-0.6,0.5-0.9,0.9
			c-0.1,0-0.2,0-0.3,0c-0.6,0.1-0.6,1.1,0,1.2c0,0.1,0,0.2,0,0.3c0,0.3,0.1,0.6,0.3,0.9c-0.1-0.1-0.1-0.2-0.2-0.4
			c0.1,0.3,0.2,0.6,0.3,1c0,0.2,0.1,0.4,0.1,0.6c0.1,0.3,0.3,0.7,0.4,1c-0.1-0.3-0.3-0.6-0.4-0.9c0.1,0.1,0.1,0.3,0.1,0.4
			c0.1,0.3,0.3,0.7,0.5,1c0,0.1,0.1,0.1,0.1,0.1c0.3,0.4,0.5,0.7,0.7,1.1c-0.1-0.2-0.2-0.4-0.2-0.6c0,0,0,0,0,0
			c0.2,0.6,0.4,1.1,0.9,1.5c0.4,0.4,0.9,0.7,1.5,0.9c0.7,0.4,1.5,0.4,2.2,0c0,0,0.1,0,0.1-0.1c1.1-0.4,2-1.3,2.2-2.4
			c0.1-0.4,0.2-0.8,0.1-1.2C461.2,478.4,461.1,477.8,461,477.3z"/>
		<path class="st3" d="M488.4,501.6c0-0.1,0-0.2,0-0.3c0-0.3-0.1-0.5-0.1-0.8c0-0.5-0.1-1-0.4-1.4c-0.2-0.6-0.5-1.1-0.8-1.7
			c-0.4-0.7-0.9-1.4-1.4-1.9c-0.5-0.5-1.2-0.9-1.9-1.3c-1.3-0.7-3.1-0.9-4.4,0c-0.2,0.1-0.4,0.3-0.6,0.4c-1,0.9-1.5,2-1.6,3.4
			c0,0.2,0,0.4,0,0.6c-0.1,0.5,0,1.1,0.1,1.6c0,0.2,0,0.4,0.1,0.7c0,0.9,0.2,1.7,0.5,2.5c0.1,0.4,0.3,1,0.6,1.4
			c0.4,0.6,0.9,1.1,1.4,1.6c0.5,0.4,1.1,0.8,1.8,0.9c0.3,0.1,1.1,0.2,1.4,0.2c1.2,0,2.2-0.4,3.1-1.1c0.5-0.4,1-0.9,1.4-1.5
			c0.5-0.8,0.8-1.8,0.8-2.7C488.4,502,488.4,501.8,488.4,501.6z"/>
		<path class="st3" d="M534.4,326.6c-0.5-1.3-1.3-2.5-2.3-3.4c-1.5-1.4-2.7-2.1-4.6-2.8c-0.8-0.3-1.7-0.4-2.6-0.6
			c-0.2,0-0.4-0.1-0.6-0.1c-0.9-0.1-1.7-0.2-2.6-0.3c-0.8,0.1-1.6,0.2-2.5,0.3c-0.4,0.1-0.8,0.3-1.1,0.4c-0.4,0.2-0.8,0.3-1.3,0.5
			c-0.7,0.3-1.7,0.6-2.3,0.9c-1.3,0.8-2.1,1.7-2.9,3c-1.6,2.2-1.3,5.6,0,7.9c0.9,1.6,2.2,2.6,3.7,3.4c0.4,0.2,0.9,0.5,1.3,0.7
			c1.7,1,3,1.3,5,1.5c0.3,0,0.5,0,0.8,0.1c0.6,0.1,1.2,0.1,1.8,0.2c-0.2,0-0.4-0.1-0.7-0.1c1.4,0.2,2.8,0.2,4.3-0.3
			c1.6-0.5,3.2-1.2,4.4-2.4C534.9,333.5,536,329.5,534.4,326.6z"/>
		<path class="st3" d="M541,363.9c-0.2-0.4-0.4-0.8-0.5-1.3c-0.3-0.6-0.8-1.1-1.4-1.5c-0.3-0.3-0.6-0.5-1-0.6
			c-0.2-0.1-0.4-0.2-0.6-0.3c0,0-0.1-0.1-0.1-0.1c-0.5-0.2-0.9-0.4-1.4-0.6c-0.1,0-0.2-0.1-0.2-0.1c-0.1,0-0.2-0.1-0.2-0.1
			c-0.3-0.1-0.5-0.1-0.8-0.1c-0.3-0.1-0.6,0-1,0c-0.1,0-0.2,0-0.3-0.1c0.1,0,0.1,0,0.2,0.1c-0.1,0-0.2,0-0.2,0
			c-0.2,0-0.3-0.2-0.5-0.2c0,0-0.1,0-0.1,0c0,0,0-0.1,0-0.1c0.2-0.4-0.1-0.9-0.5-1c-0.4-0.2-0.8,0-1.1,0.4c-0.2,0.3-0.3,0.6-0.4,0.9
			c-0.1,0.1-0.3,0.2-0.4,0.3c0,0-0.1,0-0.1,0c-0.6,0.4-1.1,0.8-1.4,1.4c-0.4,0.6-0.5,1.3-0.6,2c0,0.5,0.1,1,0.2,1.5
			c0,0.5,0,1.1,0.2,1.6c0.3,0.9,0.7,1.8,1.4,2.4c0.4,0.5,1,0.9,1.6,1.2c0.2,0.1,0.5,0.2,0.7,0.3c0.2,0.2,0.5,0.3,0.7,0.3
			c0.6,0.1,1.1,0.2,1.7,0.2c0.8,0.1,1.7-0.1,2.5-0.2c0.4-0.2,0.8-0.4,1.3-0.5c0.6-0.3,1.1-0.8,1.5-1.4c0.3-0.3,0.6-0.7,0.7-1.2
			c0.3-0.6,0.5-1.3,0.5-2C541.1,364.9,541,364.4,541,363.9z"/>
		<path class="st3" d="M488.6,369.4c-0.3-0.3-0.6-0.5-0.9-0.7c-0.6-0.5-1.1-0.9-1.8-1.2c-0.4-0.2-0.8-0.3-1.2-0.5
			c-1.4-0.6-2.9-1.4-4.5-1.3c-0.9,0.1-1.7,0.2-2.6,0.2c-1.4,0.1-2.6,0.8-3.2,2.2c-0.5,1.3-0.3,2.9,0.7,3.9c0.6,0.5,1.2,1.1,1.7,1.6
			c0.9,0.8,1.8,1.4,2.9,1.7l1.2,0.3c2.8,0.7,7.2,1.6,8.6-1.8C490.2,372.3,489.8,370.4,488.6,369.4z"/>
		<path class="st3" d="M528,393.8c0-0.6-0.1-1.1-0.4-1.6c-0.3-0.8-0.7-1.5-1.3-2.1c-0.1-0.1-0.2-0.2-0.2-0.2c-1.3-1.4-3.1-1.9-4.9-2
			c-0.1,0-0.3,0-0.4,0c-1.4-0.3-2.7-0.4-4.1,0c-0.3,0.1-0.5,0.2-0.8,0.2c-1.1,0.3-2.2,0.9-3,1.7c-0.3,0.4-0.7,0.9-1,1.3
			c0,0.1-0.1,0.2-0.1,0.3c-0.1,0.1-0.3,0.2-0.4,0.4c-0.3,0.5-0.3,1-0.3,1.6c-0.1,0.3-0.1,0.6-0.1,0.9c0,0.4,0,0.7,0.1,1.1
			c0,0.6,0.2,1.2,0.5,1.7c0.3,0.8,0.7,1.5,1.4,2.1c0.4,0.3,0.9,0.7,1.3,1c0.1,0.1,0.2,0.1,0.3,0.2c1.4,1,3.1,1.4,4.7,1.4
			c1.1,0,2.2-0.2,3.3-0.4c2.1-0.3,3.8-1.8,4.9-3.5c0.2-0.5,0.4-1,0.6-1.5C528.2,395.5,528.2,394.7,528,393.8z"/>
		<path class="st3" d="M475.9,222.2c-0.6-0.4-1.3-0.6-2-0.8c-0.6-0.2-1.1-0.3-1.7-0.3c-0.8-0.2-1.6-0.1-2.4,0.1c-0.1,0-0.1,0-0.2,0
			c-0.2,0-0.3,0.1-0.5,0.1c-0.9,0.2-2,0.8-2.9,1.2c-0.3,0.1-0.5,0.2-0.8,0.4c-0.6,0.3-1.2,0.8-1.6,1.4c0,0-0.1,0.1-0.1,0.1
			c-0.3,0.2-0.5,0.5-0.6,0.8c-0.4,0.8-0.5,1.1-0.2,0.7c-0.4,0.6-0.4,1.5,0,2.1c-0.3-0.4-0.2-0.2,0.2,0.7c0.2,0.3,0.4,0.6,0.6,0.8
			c0,0,0.1,0,0.1,0.1c0.4,0.6,1,1.1,1.6,1.4c0.3,0.1,0.5,0.2,0.8,0.4c0.3,0.1,0.6,0.3,0.9,0.4c0.7,0.3,1.3,0.7,2,0.9
			c0.7,0.2,1.6,0.3,2.3,0.4c0.8,0,1.7-0.2,2.4-0.4c0.7-0.2,1.4-0.4,2.1-0.8c0.9-0.5,1.5-1.2,2-2c0.4-0.6,0.8-2,0.8-2.8
			C478.6,225.1,477.6,223.2,475.9,222.2z"/>
		<path class="st3" d="M505.3,204.6c-0.8-1.1-1.1-1.5-2.1-2.2c-0.9-0.7-1.9-1.1-3-1.4c-1.5-0.3-3.1-0.7-4.6-0.5
			c-2.3,0.3-4.7,0.7-6.4,2.3c-1.2,0.8-1.7,1.8-2,3.2c-0.3,0.4-0.3,1,0,1.4c0.3,1,0.8,1.8,1.5,2.5c0.9,1.2,2.3,1.8,3.7,2.3
			c-0.5-0.2-0.9-0.4-1.4-0.6c1.4,0.6,2.8,1.5,4.3,1.8c2,0.4,4.1,1.1,6.2,0.3c1-0.3,2-0.8,2.7-1.6c0.6-0.6,1-1.2,1.3-2
			c0.4-0.7,0.6-1.5,0.5-2.4C506.1,206.6,505.8,205.6,505.3,204.6z"/>
		<path class="st3" d="M506.8,246.8c-0.4-0.6-0.9-1.2-1.4-1.8c-0.1-0.1-0.1-0.2-0.2-0.3c-0.2-0.2-0.5-0.4-0.7-0.6
			c-0.6-0.5-1.3-0.9-2.1-1.1c-0.8-0.2-1.6-0.2-2.4-0.3c-0.3,0-0.6-0.1-0.9-0.1c-0.2,0-0.3,0-0.5,0c-0.4,0-0.7,0-1.2,0.1
			c-0.3,0-0.7,0.1-1,0.1c-0.5,0.2-1,0.4-1.5,0.6c-0.5,0.3-1,0.7-1.4,1.1c-0.2,0.2-0.4,0.3-0.5,0.5c-0.5,0.5-0.9,1.1-1.1,1.7
			c-0.3,0.6-0.5,1.3-0.5,2.1c0.1,1.4,0.5,2.8,1.6,3.8l0.5,0.5c0.9,0.8,1.8,1.5,3.1,1.8c1.2,0.3,2.2,0.2,3.4,0.1
			c0.8-0.1,1.7-0.1,2.4-0.3c1.1-0.4,2.2-0.9,2.9-1.9c0.5-0.6,1-1.2,1.4-1.8C507.6,249.9,507.6,248,506.8,246.8z"/>
		<path class="st3" d="M528.9,272.6c-0.1-0.1-0.2-0.1-0.2-0.2c-0.3-0.6-0.7-1.1-1.3-1.4c-0.8-0.4-1.4-0.5-2.3-0.6
			c-0.4,0-0.9-0.1-1.3-0.1c-0.7,0-1.5,0.2-2.2,0.4c-0.5,0.1-0.9,0.2-1.4,0.5c-0.2,0.1-0.4,0.3-0.5,0.4c-0.1,0.1-0.3,0.2-0.4,0.2
			c-0.5,0.3-0.9,0.6-1.1,1.1c-0.1,0-0.1,0.1-0.2,0.1c-1.1,0.5-1.1,2.4,0,2.9c0.1,0,0.1,0.1,0.2,0.1c0.3,0.4,0.7,0.8,1.1,1.1
			c0.1,0.1,0.3,0.2,0.4,0.2c0.2,0.1,0.3,0.3,0.5,0.4c0.5,0.3,0.9,0.4,1.4,0.5c0.7,0.2,1.4,0.4,2.2,0.4c0.4,0,0.9-0.1,1.3-0.1
			c0.9-0.1,1.5-0.2,2.3-0.6c0.6-0.4,1-0.9,1.3-1.4c0.1-0.1,0.2-0.1,0.2-0.2C529.9,275.2,529.9,273.4,528.9,272.6z"/>
		<path class="st3" d="M537.3,237.4c-0.3-0.8-0.8-1.2-1.5-1.7c-0.1-0.1-0.3-0.2-0.4-0.3c-0.6-0.4-1.3-0.6-2-0.7
			c-0.4-0.1-0.8-0.1-1.3,0c-0.3,0-0.5,0.1-0.8,0.1c-0.1,0-0.2,0.1-0.3,0.1c-0.3,0.1-0.5,0.1-0.8,0.2c-1.4,0.4-2.5,1.4-3.7,2.2
			c-0.3,0.2-0.6,0.4-0.9,0.7c-0.4,0.4-0.7,0.8-0.9,1.4c-0.1,0.1-0.1,0.3-0.1,0.4c-0.3,0.6-0.4,1.1-0.4,1.7c-0.3,0.4-0.4,0.9-0.2,1.4
			c0.2,0.5,0.6,0.7,1.1,0.9c0.3,0.3,0.7,0.6,1.2,0.8c0.1,0,0.1,0.1,0.2,0.2c0.7,0.4,1.4,0.6,2.1,0.6c0.5-0.1,1-0.1,1.6-0.2
			c0.2,0,0.5-0.1,0.7-0.1c1.1-0.1,1.9-0.2,3-0.8c0.8-0.4,1.6-0.8,2.2-1.5c0.8-0.8,1.2-1.8,1.4-2.9
			C537.6,239,537.6,238.2,537.3,237.4z"/>
		<path class="st3" d="M406.6,108.9c-0.2-1.3-0.3-2.6-0.6-3.9c-0.5-1.8-1.7-3.4-3.3-4.5c-0.1-0.1-0.2-0.2-0.3-0.2
			c-0.1-0.1-0.2-0.1-0.3-0.2c-2.2-1.5-5.3-1.8-7.6-0.3c-0.3,0.2-0.5,0.4-0.8,0.6c-1.1,0.7-2,1.5-2.7,2.7c-0.5,0.9-0.7,1.5-1,2.4
			c-0.1,0.4-0.3,0.8-0.4,1.1c-0.1,0.2-0.2,0.5-0.3,0.7c-0.1,0.7-0.2,1.4-0.3,2c0,0.2-0.1,0.4-0.1,0.6c-0.4,1.8-0.5,3,0,4.7
			c0.3,1.2,0.9,2.2,1.7,3.1c0,0,0,0.1,0,0.1c0.2,0.4,0.6,0.7,0.9,1c0,0,0,0,0,0.1c0,0,0,0,0,0c0.2,0.2,0.3,0.4,0.5,0.6
			c0.9,0.7,2,1.1,3.1,1.2c2,0.4,4.1,0.1,5.9-1c1.3-0.8,2.5-2,3.3-3.3c0.6-1.1,1.1-2.3,1.5-3.5c0.3-0.7,0.3-1.1,0.4-1.9
			C406.6,110,406.7,109.6,406.6,108.9z"/>
		<path class="st3" d="M433.7,83c-0.4-0.6-0.9-1.3-1.4-1.8c-0.9-0.8-1.9-1.6-3.1-1.9c-1.2-0.3-2.7-0.3-3.9,0.1
			c-1.1,0.3-2,0.9-2.7,1.8c-0.3,0.3-0.5,0.7-0.7,1.1c-0.1,0.2-0.2,0.5-0.3,0.7c0,0,0-0.1,0-0.1c0,0.1,0,0.1-0.1,0.2
			c0,0.1-0.1,0.2-0.1,0.3c0,0,0,0.1,0,0.1c0,0,0,0,0-0.1c-0.1,0.3-0.1,0.6-0.2,1c-0.1,0.3-0.1,0.6-0.1,1c0,0.2,0,0.4,0,0.5
			c0,0.3-0.1,0.6-0.1,0.9c0,0,0,0.1,0,0.1c-0.1,0.2-0.1,0.5-0.2,0.7c-0.3,1.2-0.3,2.4,0,3.6c0.1,0.2,0.2,0.4,0.3,0.6
			c0,0.4,0.1,0.8,0.3,1.2c0.2,0.4,0.4,0.8,0.6,1.1c0.2,0.4,0.4,0.7,0.8,1c0.5,0.5,1.2,0.9,1.9,1.1c0.1,0,0.2,0,0.3,0
			c0.1,0,0.1,0,0.2,0.1c0.8,0.2,1.5,0.3,2.3,0.1c0.5,0,1-0.1,1.5-0.4c0.1,0,0.1,0,0.1-0.1c0.6-0.2,1.2-0.4,1.8-0.7
			c1-0.6,1.8-1.4,2.4-2.4c0.3-0.8,0.7-1.6,1-2.5c0.3-0.9,0.3-1.8,0.4-2.7C435,86.2,434.7,84.4,433.7,83z"/>
		<path class="st3" d="M438.6,120.7c-0.2-0.6-0.5-1.2-0.7-1.7c-0.3-0.5-0.6-0.9-1-1.2c-0.1-0.2-0.1-0.1,0.1,0.2c0.3,0.7,0,0-0.1-0.2
			c-0.8-1.1-1.9-2.4-3.4-2.7c0,0-0.1,0-0.1,0c-0.5-1-1.9-0.9-2,0.3c-1,0.5-1.9,1.5-2.4,2.4c0,0,0,0,0,0c-0.4,0.4-0.7,0.8-1,1.2
			c-0.2,0.4-0.4,0.7-0.6,1.1c-0.7,1.2-1.4,2.4-1.7,3.8c-0.3,1.5-0.7,3-0.7,4.5c0,0.9,0.2,1.8,0.6,2.8c0.2,1.1,0.4,2.1,1,3.1
			c1.6,2.8,5,3.4,7.8,2c1.2-0.6,2.1-1.7,2.9-2.8c0.9-0.9,1.5-1.9,2-3.2c0.4-1,0.4-2.2,0.5-3.2c0.1-0.5,0.1-1,0.2-1.5
			C439.9,123.8,439.2,122.3,438.6,120.7z"/>
		<path class="st3" d="M467.6,103.1c-0.2-0.6-0.6-1.5-0.9-2.1c-0.3-0.4-0.7-0.9-1-1.3c-0.2-0.2-0.5-0.4-0.7-0.6
			c-0.6-0.6-1.4-1-2.2-1.2c-0.4-0.1-0.7-0.1-1.1-0.1c-0.8-0.1-1.6-0.2-2.4,0.1c-0.6,0.2-1.1,0.4-1.6,0.8c-1.6,0.8-2.7,2.6-3.1,4.3
			c-0.2,0.9-0.6,1.6-0.5,2.6c0.1,0.6,0.1,1.2,0,1.9c0,0.1,0,0.3-0.1,0.4c0.1,0.6,0.1,1.2,0.2,1.8c0,0.2,0.1,0.3,0.1,0.5
			c0.3,1.1,0.8,2,1.6,2.7c0.6,0.6,1.2,1,2,1.3c0.7,0.4,1.5,0.6,2.4,0.5c1.1,0,2.2-0.3,3.1-0.8c0.6-0.3,1.3-0.8,1.7-1.3
			c0.5-0.5,1-1.2,1.3-1.8c0.4-0.9,0.8-1.8,1.1-2.8C468,106.3,468.2,104.6,467.6,103.1z"/>
		<path class="st3" d="M124.2,446.5c-0.7-2.4-1.9-4.4-3.6-6.2c-0.9-0.7-1.9-1.5-2.8-2.2c-2.2-1.3-4.6-1.9-7.1-1.9
			c-1.9-0.1-3.7,0.3-5.4,1.2c-1.7,0.6-3.2,1.5-4.5,2.9c-1.4,1.3-2.3,2.8-2.9,4.5c-0.9,1.7-1.3,3.5-1.2,5.4c0.2,1.2,0.3,2.5,0.5,3.7
			c0.7,2.4,1.9,4.4,3.6,6.2c0.9,0.7,1.9,1.5,2.8,2.2c2.2,1.3,4.6,1.9,7.1,1.9c1.9,0.1,3.7-0.3,5.4-1.2c1.7-0.6,3.2-1.5,4.5-2.9
			c1.4-1.3,2.3-2.8,2.9-4.5c0.9-1.7,1.3-3.5,1.2-5.4C124.5,449,124.4,447.8,124.2,446.5z"/>
		<g>
			<path class="st3" d="M53.8,518.2c-0.2-0.6-0.5-1.2-0.8-1.8c-0.6-1.8-1.6-3.4-3-4.7c-0.3-0.2-0.6-0.4-0.8-0.7
				c-0.1-0.1-0.2-0.2-0.3-0.3c-1-0.7-1.9-1.5-2.9-2.2c-1.1-0.5-2.2-0.9-3.4-1.4c-1.3-0.2-2.5-0.3-3.8-0.5c-1.9-0.1-3.8,0.3-5.4,1.2
				c-1.2,0.3-2.2,0.9-3.1,1.8c-1.1,0.6-1.9,1.5-2.5,2.5c-0.9,0.9-1.5,1.9-1.8,3.1c-0.9,1.7-1.3,3.5-1.2,5.4c0.1,1.4,0.3,2.8,0.6,4.1
				c0,0.2,0.1,0.3,0.1,0.5c0,0.1,0.1,0.3,0.1,0.4c0.3,1,1.8,3.9,1.7,3.9c0.7,0.9,1.4,1.8,2.1,2.7c0.9,1,1.9,1.8,3,2.3
				c1.2,0.5,2.3,1,3.5,1.5c1.3,0.2,2.6,0.3,3.9,0.5l3.9-0.5c1.9-0.5,3.5-1.3,5-2.6c1.1-0.6,2-1.5,2.6-2.6c0.9-0.9,1.5-2,1.9-3.2
				c0.7-1.1,1-2.4,1-3.7C54.5,522.1,54.4,520.2,53.8,518.2z"/>
			<path class="st3" d="M27.3,529.7c-0.1-0.1-0.1-0.2-0.2-0.3C27.2,529.6,27.3,529.7,27.3,529.7z"/>
		</g>
		<path class="st3" d="M182.4,520.7c0.1-2.3-0.4-4.5-1.4-6.5c-0.4-1.4-1.1-2.7-2.2-3.7c-0.4-0.7-0.8-1.3-1.4-1.8
			c-1.2-0.9-2.3-1.8-3.5-2.7c-2-1.2-4.1-1.9-6.3-2c-1.5-0.4-3-0.4-4.5,0c-2.3,0.1-4.4,0.8-6.3,2c-1,0.5-1.7,1.1-2.7,1.9
			c-0.9,0.6-1.7,1.3-2.3,2.1c-0.4,0.5-0.8,1-1.2,1.4c-2,2.1-3.5,4.2-4.3,7.1c-0.4,1.4-0.6,2.7-0.5,4.1c0,2.7,0.7,5.2,2,7.5
			c0.6,1.2,1.4,2.2,2.4,3.1c1,0.8,2.1,1.6,3.1,2.4c1.2,0.8,2.7,1.3,4.1,1.6c0.5,0.1,0.9,0.2,1.4,0.3c1.8,0.3,3.8,0.6,5.6,0.7
			c1.5-0.2,3-0.4,4.5-0.6c0.8-0.2,1.6-0.5,2.3-0.9c1-0.4,1.9-0.8,2.8-1.2c2.6-1.5,4.6-3.6,6.1-6.1c1.5-2.7,2.3-5.5,2.3-8.6
			L182.4,520.7z"/>
		<path class="st3" d="M197.9,443.6c0-1.3-0.3-2.5-1-3.6c-0.6-1.8-1.6-3.3-2.9-4.6c-1-0.7-1.9-1.5-2.9-2.2l-3.4-1.4
			c-1.9-0.6-3.8-0.7-5.7-0.3c-1.3,0-2.5,0.3-3.6,1c-1.2,0.3-2.3,1-3.1,1.8c-1.6,1-2.8,2.3-3.7,4c-0.5,1.1-1,2.3-1.4,3.4
			c-0.2,1.3-0.3,2.5-0.5,3.8c0.2,1.3,0.3,2.5,0.5,3.8c0.4,1.9,1.3,3.5,2.6,4.9c0.4,0.6,0.9,1.1,1.4,1.6c-0.1,0-0.1-0.1-0.2-0.1
			c0.1,0.1,0.2,0.1,0.2,0.2c0.4,0.4,0.8,0.7,1.2,1c0.6,0.5,1.1,1,1.8,1.4c1.5,1,3.2,1.5,5,1.6c1.8,0.4,3.6,0.3,5.3-0.2
			c2.3-0.6,4.2-1.8,5.9-3.4c0.2-0.2,0.4-0.4,0.6-0.6c0.7-1,1.5-1.9,2.2-2.9c1-1.6,1.6-3.4,1.7-5.3
			C198.2,446.1,198.2,444.9,197.9,443.6z"/>
		<path class="st3" d="M55.2,394.3c-0.1-0.3-0.3-0.6-0.4-0.9c-1.2-2-2.8-3.6-4.7-4.7c-2.1-1.2-4.3-1.8-6.7-1.8
			c-2.4,0-4.6,0.6-6.7,1.8c-2,1.2-3.6,2.8-4.7,4.7c-0.1,0.3-0.3,0.6-0.4,0.9c-1,1.6-1.5,3.3-1.6,5.1c-0.4,1.8-0.3,3.6,0.2,5.4
			c0.5,1.1,0.9,2.2,1.4,3.3c1.2,2.1,2.8,3.7,4.9,4.9c0,0,0,0,0,0c1.6,1,3.2,1.5,5,1.6c1.2,0.3,2.4,0.3,3.6,0c1.8-0.1,3.5-0.6,5-1.6
			c0,0,0,0,0,0c1.6-0.9,2.9-2,3.8-3.5c1.2-1.3,2-2.9,2.4-4.6c0.2-1.2,0.3-2.4,0.5-3.6C57.1,398.8,56.5,396.5,55.2,394.3z"/>
	</g>
</g>
</svg>
