<?xml version="1.0" encoding="UTF-8"?>
<svg xmlns="http://www.w3.org/2000/svg" xmlns:xlink="http://www.w3.org/1999/xlink" version="1.1" width="208" height="43" viewBox="0 0 624 128">
  <defs>
    <style>
      .cls-1 {
        fill: url(#linear-gradient);
      }

      .cls-2 {
        fill: #fff;
      }
    </style>
    <linearGradient id="linear-gradient" x1="81.1" y1="63.3" x2="195.9" y2="63.3" gradientTransform="translate(0 130) scale(1 -1)" gradientUnits="userSpaceOnUse">
      <stop offset="0" stop-color="#d59529"/>
      <stop offset="0" stop-color="#b26b28"/>
      <stop offset=".3" stop-color="#d38c29"/>
      <stop offset=".7" stop-color="#e5ac23"/>
      <stop offset="1" stop-color="#f7c63c"/>
    </linearGradient>
  </defs>
  <!-- Generator: Adobe Illustrator 28.6.0, SVG Export Plug-In . SVG Version: 1.2.0 Build 709)  -->
  <g>
    <g id="Layer_1">
      <g id="Layer_1-2" data-name="Layer_1">
        <g>
          <path class="cls-1" d="M195.9,50.7c-6.2,3.2-16.5,3.8-16.5,3.8,13.8-12.5,14.1-36.3,14.1-36.3-.8,2.4-2.2,3.2-15.2,9.7-13.3,6.8-15.4,11.9-15.4,11.9,4.9-13.3,3-26.5,3-26.5l-7.6,7.6c-5.1,5.4-7,14.1-7,24.1s-.8,8.1-1.9,11.4-2.2,3.2-4.1,4.1h0c-2.4.5-4.3,0-4.3-2.2,2.2-1.9,3-4.1,2.7-6.2-.5-2.4-1.9-3.8-4.1-3.8s-3.8,1.6-4.3,3.8c0,2.2,0,3.8,2.7,6.2,0,2.2-1.9,3-4.3,2.2h0c-2.7-1.1-4.6-3.5-5.4-6.2s-.5-3.5-.5-5.7c.5-26.3-14.6-35.2-14.6-35.2-2.7,12.2,3.8,27.3,3.8,27.3,0,0-5.4-9.2-11.9-10.8-6.5-1.6-19.8-11.6-19.8-11.6,1.4,21.1,13.8,35.7,13.8,35.7-7.9,3.5-17.3-3.8-17.3-3.8,2.4,17.1,21.4,21.9,21.4,21.9-5.7,1.4-11.9,13.5-11.9,13.5,2.7-4.3,17.6-3,17.6-3-3.2,10.3,0,16.8,0,16.8.5-5.4,6.8-8.1,6.8-8.1-1.4,1.1,0,5.4,0,5.4,9.2,1.4,16.2-10,16.2-12.5s.8-3,1.9-5.1c-.5,3,0,6.5,1.1,9.7,1.1,3.8,1.9,7.3,2.4,10-.8,7.3.3,14.3,2.4,21.1,2.4-6.2,3.2-13,2.4-19.8,0-3.2.8-6.8,2.4-10.6.8-2.4,1.4-4.6,1.4-6.5,8.4,15.2,17.6,13.5,17.6,13.5.8-3.2,0-5.7,0-5.7,4.1.8,7.6,6.8,7.6,6.8,2.7-6-.5-14.6-.5-14.6,10.8-2.4,16.5,1.6,16.5,1.6-1.9-6-10.3-13-10.3-13,19.8-6,20-21.7,20-21.7l-.8.5Z"/>
          <g>
            <path class="cls-2" d="M224.1,86.2h-8.7v-37.4h28.2v7h-19.5s0,30.3,0,30.3ZM223.5,65.9h17.9v7h-17.9s0-7,0-7Z"/>
            <path class="cls-2" d="M243,86.2l16.5-37.4h8.4l16.8,37.4h-8.9l-13.5-33h3.5l-13.8,33s-8.9,0-8.9,0ZM251.4,78.3l2.2-6.5h19.2l2.4,6.5h-23.8Z"/>
            <path class="cls-2" d="M288.8,86.2v-37.4h8.7v37.4h-8.7Z"/>
            <path class="cls-2" d="M306.4,86.2v-37.4h16.2c3.2,0,6.2.5,8.7,1.6,2.4,1.1,4.3,2.7,5.7,4.6s1.9,4.3,1.9,7.3-.5,5.1-1.9,7-3.2,3.5-5.7,4.6c-2.4,1.1-5.4,1.6-8.7,1.6h-11.4l3.8-3.8v14.1h-8.7v.3ZM315,73.2l-3.8-4.1h10.8c2.7,0,4.6-.5,6-1.6s1.9-2.7,1.9-4.9-.5-3.8-1.9-4.9-3.2-1.6-6-1.6h-10.8l3.8-4.1v21.1ZM329.9,86.2l-9.2-13.5h9.2l9.5,13.5h-9.5Z"/>
            <path class="cls-2" d="M378.6,87c-3,0-5.7-.5-8.1-1.4-2.4-1.1-4.6-2.4-6.5-4.1s-3.2-3.8-4.3-6.2-1.6-4.9-1.6-7.6.5-5.4,1.6-7.6c1.1-2.4,2.4-4.3,4.3-6.2,1.9-1.6,4.1-3,6.5-4.1s5.1-1.4,8.1-1.4,5.7.5,8.1,1.4c2.4,1.1,4.6,2.4,6.5,4.1,1.9,1.6,3.2,3.8,4.3,6.2s1.6,4.9,1.6,7.6-.5,5.4-1.6,7.6c-1.1,2.4-2.4,4.3-4.3,6.2-1.9,1.6-4.1,3-6.5,4.1s-5.1,1.4-8.1,1.4ZM378.6,79.7c1.6,0,3.2-.3,4.6-.8,1.4-.5,2.7-1.4,3.8-2.4s1.9-2.4,2.4-3.8c.5-1.4.8-3,.8-4.9s-.3-3.5-.8-4.9c-.5-1.4-1.4-2.7-2.4-3.8s-2.2-1.9-3.8-2.4-3-.8-4.6-.8-3.2.3-4.6.8-2.7,1.4-3.8,2.4-1.9,2.4-2.4,3.8c-.5,1.4-.8,3-.8,4.9s.3,3.2.8,4.9c.5,1.4,1.4,2.7,2.4,3.8s2.2,1.9,3.8,2.4c1.4.5,3,.8,4.6.8Z"/>
            <path class="cls-2" d="M414.1,86.2h-8.7v-37.4h28.2v7h-19.5v30.3ZM413.6,65.9h17.9v7h-17.9v-7Z"/>
            <path class="cls-2" d="M454.7,86.2v-37.4h16.2c3.2,0,6.2.5,8.7,1.6s4.3,2.7,5.7,4.6,1.9,4.3,1.9,7.3-.5,5.1-1.9,7.3-3.2,3.5-5.7,4.6c-2.4,1.1-5.4,1.6-8.7,1.6h-11.4l3.8-3.8v14.1s-8.7,0-8.7,0ZM463.4,73.2l-3.8-4.1h10.8c2.7,0,4.6-.5,6-1.6s1.9-2.7,1.9-4.9-.5-3.8-1.9-4.9-3.2-1.6-6-1.6h-10.8l3.8-4.1v21.1Z"/>
            <path class="cls-2" d="M493.2,86.2v-37.4h16.2c3.2,0,6.2.5,8.7,1.6s4.3,2.7,5.7,4.6,1.9,4.3,1.9,7.3-.5,5.1-1.9,7-3.2,3.5-5.7,4.6c-2.4,1.1-5.4,1.6-8.7,1.6h-11.4l3.8-3.8v14.1h-8.7v.3ZM501.8,73.2l-3.8-4.1h10.8c2.7,0,4.6-.5,6-1.6s1.9-2.7,1.9-4.9-.5-3.8-1.9-4.9-3.2-1.6-6-1.6h-10.8l3.8-4.1v21.1ZM517,86.2l-9.2-13.5h9.2l9.5,13.5h-9.5Z"/>
            <path class="cls-2" d="M532.4,86.2v-37.4h8.7v37.4h-8.7Z"/>
          </g>
        </g>
      </g>
    </g>
  </g>
</svg>