<?xml version="1.0" encoding="UTF-8"?>
<svg xmlns="http://www.w3.org/2000/svg" version="1.1"  width="208" height="43"  viewBox="0 0 624 128">
  <defs>
    <style>
      .cls-1 {
        fill: #fafdfd;
      }

      .cls-2 {
        fill: #e1f3f3;
      }

      .cls-3 {
        fill: #f1f9f9;
      }

      .cls-4 {
        fill: #e8f6f6;
      }

      .cls-5 {
        fill: #f8fcfc;
      }

      .cls-6 {
        fill: #b8e4e4;
      }

      .cls-7 {
        fill: #f4fafa;
      }

      .cls-8 {
        fill: #fafcfc;
      }

      .cls-9 {
        fill: #e9f6f6;
      }

      .cls-10 {
        fill: #70c8c9;
      }

      .cls-11 {
        fill: #f6fbfb;
      }

      .cls-12 {
        fill: #6ec8c9;
      }

      .cls-13 {
        fill: #f9fcfc;
      }

      .cls-14 {
        fill: #fbfdfd;
      }

      .cls-15 {
        fill: #e4f4f5;
      }

      .cls-16 {
        fill: #6dc8c9;
      }

      .cls-17 {
        fill: #6dc7c8;
      }

      .cls-18 {
        fill: #f5fbfb;
      }

      .cls-19 {
        fill: #fafcfd;
      }

      .cls-20 {
        fill: #fdfefe;
      }

      .cls-21 {
        fill: #f2f9fa;
      }
    </style>
  </defs>
  <!-- Generator: Adobe Illustrator 28.6.0, SVG Export Plug-In . SVG Version: 1.2.0 Build 709)  -->
  <g>
    <g id="Layer_1">
      <path class="cls-17" d="M533.1,88.9c-.5.8-1.1,1.5-1.6,2.4-5,8-14.5,8.4-20.1.8-2.1-2.9-4.1-5.9-6.4-9.2-2.4,3.3-4.3,6.1-6.3,8.8-3,3.8-6.7,6.6-11.9,5.6-5.4-1-8.1-4.5-9.9-9.7-2.9-8.7-1.4-16,4.7-22.6,3-3.2,3.2-6.1.1-9.3-4.3-4.5-5.3-10.4-6.3-16.2-1-5.7,2-11.1,7.1-13.2,5.3-2.2,10.6-.6,14.4,4.4,2.1,2.7,3.3,7.5,6.3,7.7,3.2.2,4.2-4.8,6.4-7.4,3.2-3.6,6.8-6.6,12-5.5,5.5,1.2,8.8,4.7,9.9,10.3.4,2,0,4.3,1.6,6v6.9c-1.1,3.8-3.5,6.9-5.7,10.1-1.4,2-2.3,4.2-.5,6.2,4.6,5.2,5.6,11.5,6.2,17.9v5.9Z"/>
      <path class="cls-16" d="M286.9,99.7c-9.3-3.5-10.7-11.6-10.9-19.6-.1-6.4-1.9-11.6-5.8-16.5-4.8-6-9-12.4-10.1-20.4-1-6.9,1.1-12.6,6.6-14.8,5.8-2.4,11.1-.6,15.4,5.4,5.7,8,5.8,8.1,11.3.2,3.2-4.5,7.2-7.6,12.9-6.4,5.7,1.2,8.3,5.3,9.9,10.9,2.3,7.9.9,14.4-4.4,20.4-1.2,1.3-2,3-3.1,4.4-5.4,6.2-8,13.1-7.1,21.5.7,7-3,12.1-9.6,14.9h-5Z"/>
      <path class="cls-20" d="M533.1,83c-1.6-6.8-3.7-13.4-8.5-18.8-1.1-1.3-.6-2.7.3-4,2.8-3.8,5.4-7.7,8.2-11.5v34.3Z"/>
      <path class="cls-17" d="M393.3,31.8c2.2-1.9,4-4.3,6.9-5.4,7.1-2.7,14.4.8,16.4,8,1.5,5.5,2.2,11.2,1.9,16.9-.4,8.9.7,17.9-.7,26.8-2.7,17.2-19.2,21.8-30.9,18.2-2.7-.8-4.9-.7-7.6,0-14.5,3.6-27.7-1.3-31.1-17.7-2.9-14-2.3-27.9-2.1-41.8,0-5.4,3.5-9.5,9.2-10.8,6.2-1.5,10.9.9,14.6,5.8,8.8-8.5,16.1-8.5,23.5,0Z"/>
      <path class="cls-12" d="M127.4,35c1.8-6.4,5.3-9.5,12-9.6,8.3-.2,16.6-.2,24.9,0,5.9.1,10.1,3.4,11.3,9.1,1.1,5.3,4.5,12,0,15.9-6.3,5.5-4,11.5-3.1,17.2.7,4.8,3.7,9.1,4.5,14.2,1.5,9.4-3.3,15.7-13.1,15.8-6.8,0-13.6,0-20.4,0-9.4,0-13.3-3.1-15-12.2-.3-1.8-.7-3.5-1.1-5.3-2.1-15.1-1.7-30.1,0-45.2Z"/>
      <path class="cls-12" d="M474.2,71.9c0,4.7.2,9.5,0,14.2-.3,6.1-5,10.8-10.9,11.4-5.2.5-10.6-3.9-11.9-9.8-.2-1-.5-1.9-.6-2.9-.3-2.3-1.7-2.8-3.8-2.7-2.4,0-2.4,1.4-2.6,3.2-.7,7.2-5,11.8-11.2,12.2-5.5.4-10.2-4-11.9-11-3.2-12.7-2.2-25.7-1.4-38.4.9-13.2,12.6-22.9,25.4-23,14.6-.1,24.3,8,27.2,22,1.8,8.2,1.9,16.5,1.8,24.8Z"/>
      <path class="cls-12" d="M250.5,97.6c-3.5,0-7,.1-10.5,0-5.3-.3-9.3-2.8-11-7.7-1.5-4.6-2.8-9.4-2.8-14.3,0-11.9,0-23.8,0-35.7,0-2.1.2-4.2.9-6.3,1.8-5,6.5-8.4,11.2-8.1,5.1.3,9.5,4.3,10.7,9.4,1.9,7.7,2,15.5,1.9,23.3-.1,8.1,0,8.2,8,8.1,4,0,7.8.5,10.2,3.9,3.8,5.4,4.8,11.8,4,18.1-.8,5.9-5.3,9-11.7,9.3-3.6.2-7.3,0-11,0Z"/>
      <path class="cls-12" d="M178.3,57.3c0-6.4,0-12.7,0-19.1,0-7,4.9-12.5,11-12.9,5.7-.3,10.5,4.4,11.9,10.9,1.8,8.5,1.8,17.1,1.6,25.8,0,3.1.9,4.4,4.2,4.3,3-.2,6.1-.2,8.9.5,4.8,1.2,7.4,4.9,8.1,9.6,1,6.5,3.4,13.3-3,18.6-2.4,1.9-5.3,2.6-8.4,2.6-6.6,0-13.3,0-19.9,0-6.8-.1-11-3.6-12.6-10.2-.6-2.7-1.7-5.4-1.8-8.1-.3-7.3,0-14.7,0-22,0,0,0,0,0,0Z"/>
      <path class="cls-12" d="M125.7,75.4c-2.6,12.1-10.3,19.9-21.7,22-7.3,1.3-12.7-1.9-14.7-9-.9-3.1-1.8-6.3-2.2-9.5-.7-5.4,3.5-11.1,9.4-12.1,3.8-.7,4.5-2.4,4.4-5.6-.1-7-.1-14,0-21.1,0-4.5.8-8.8,4.5-12,6.8-5.6,16.8-1.9,18.9,7,.5,2.2.8,4.5,1.3,6.7,1,1.2.9,2.7.9,4.2,0,8.4,0,16.8,0,25.2,0,1.4,0,2.9-.8,4.2Z"/>
      <path class="cls-6" d="M125.7,75.4c0-11.2,0-22.4,0-33.6,2.2-1.9-.2-4.9,1.8-6.8,0,15.1,0,30.1,0,45.2-1.6-1.2,0-3.6-1.7-4.8Z"/>
      <path class="cls-19" d="M529.3,77.4c0,5.4-2.3,8.4-6.4,9.9-4.2,1.5-7.9.2-10.7-3.1-2.2-2.6-4.2-5.5-5.9-8.4-2.3-4-4-3-5.9.2-1.5,2.5-3.2,5-5,7.3-3.9,5-9.3,6-14,2.9-4.2-2.8-5.4-8.7-2.5-13.6,2.4-4.1,5.2-8,8.2-11.7,1.9-2.4,1.7-4.1,0-6.4-2.7-3.5-5.1-7.2-7.5-10.9-3.6-5.6-2.6-11.3,2.5-14.6,4.8-3.1,9.7-1.8,13.7,3.5,2,2.6,3.9,5.3,5.7,8,1.4,2.2,2.5,2.8,4.1,0,1.8-2.9,3.8-5.7,5.9-8.5,3.7-5,9-6.1,13.9-3,4.2,2.7,5.6,8.6,2.6,13.5-2.5,4.2-5.4,8.2-8.3,12.2-1.4,2-1.6,3.6,0,5.7,2.8,3.7,5.2,7.6,7.8,11.3,1.3,1.9,2.2,4,2,5.5Z"/>
      <path class="cls-1" d="M277.9,73c1.3-4.9-1.3-9.7-5.1-14.4-3.3-4.1-6.1-8.5-8.9-13-3.6-5.6-2.5-11.6,2.4-14.6,5.1-3.1,10-1.8,14,3.8,1.6,2.3,3.3,4.5,4.7,6.9,1.8,3.1,3.2,3.7,5.3.2,1.7-2.8,3.6-5.4,5.6-8.1,3.6-4.7,8.8-5.7,13.6-2.7,4.3,2.7,5.7,8.8,2.8,13.4-3.5,5.5-7.2,11-11.1,16.2-2.5,3.3-3.7,6.7-3.4,10.9.3,3.1.2,6.2,0,9.3-.4,5-5.3,9.1-10.2,9-5.2-.1-9.4-4.1-9.7-9.3-.1-2.1,0-4.2,0-7.7Z"/>
      <path class="cls-1" d="M393.2,67.8c2.1-1.2,1.3-3.2,1.3-4.9,0-8,0-16,0-24,0-6.7,4.4-11.5,10.3-11.5,5.7,0,10.3,4.5,10.3,11,0,10.3.6,20.5-.6,30.8-1.7,14-16.1,22.8-29.5,17.7-2.7-1-4.7-.9-7.4,0-13.5,4.8-27.1-3.6-29.1-17.5-1.5-10.4-.7-20.9-.6-31.3,0-6.4,5.1-10.9,10.7-10.6,5.7.3,9.8,4.9,9.9,11.4,0,8,0,16,0,24,0,1.7-.7,3.6,1.2,5,2.1-1.3,1.6-3.4,1.6-5.2,0-8,0-16,0-24,0-6.4,4.4-11.1,10-11.2,5.6,0,10,4.7,10.1,11.1,0,8,0,16,0,24,0,1.9-.4,4,1.5,5.4Z"/>
      <path class="cls-8" d="M148.5,48c3.4,1.1,6.7.5,9.8.6,6.7.2,10.1,3,10.3,8.7.2,6.1-3.5,9.7-10.3,9.9-3.1.1-6.2,0-9.4,0,.2,2.3,1.7,1.8,2.7,1.8,4.1,0,8.3,0,12.4,0,6,.2,9.9,3.8,10.1,9.3.2,5.3-3.9,9.4-9.8,9.5-8.5.1-16.9.1-25.4,0-5.6,0-9.4-3.7-9.4-9.3-.1-14-.1-28,0-42.1,0-5.2,3.7-9,9.1-9.2,8.6-.3,17.3-.3,25.9,0,5.5.2,9.7,4.5,9.7,9.3,0,5.5-4.3,9.7-10.2,10-4.8.2-9.6.2-14.4.3-.2,0-.4.4-1,1.1Z"/>
      <path class="cls-5" d="M470.5,63.5c0,4.7,0,9.5,0,14.2-.1,6-3.9,10.1-9.1,10.2-5,.1-9.3-4-10-9.7-.2-1.7.9-4.2-1.1-4.8-2.6-.8-5.6-.5-8.4-.5-.9,0-1.2,1-1.3,1.8,0,1.1,0,2.3,0,3.4-.3,5.6-4.1,9.6-9.1,9.7-5,.1-9.7-3.8-9.9-9.1-.3-9.9-.6-19.9,0-29.8.9-13.3,12.3-22.2,26.4-21.8,12.2.4,21.9,10.3,22.3,23.1.1,4.4,0,8.8,0,13.2,0,0,0,0,0,0Z"/>
      <path class="cls-13" d="M228.3,58.1c0-6.7-.3-13.4,0-20.1.4-8.6,7.7-13.1,14.2-9.1,3.2,2,4.6,4.9,4.6,8.6,0,8.8.2,17.6,0,26.4,0,3.5,1.1,4.6,4.5,4.4,3.1-.2,6.3-.2,9.5,0,5.4.3,8.9,4.2,8.9,9.8,0,5.5-3.6,9.6-8.9,9.8-7.8.2-15.6.2-23.4,0-5.5-.2-9.2-4.6-9.3-10.7-.2-6.4,0-12.7,0-19.1Z"/>
      <path class="cls-14" d="M180.3,57.6c0-6.4,0-12.7,0-19.1.1-6.5,4.6-11.4,10-11.2,4.9.2,8.9,5.1,8.9,11.1,0,8.6.1,17.3,0,25.9,0,3,.9,4.1,3.9,3.9,3-.2,6,0,8.9,0,6,.2,10.1,4.1,10.1,9.8,0,5.6-4.1,9.7-10.2,9.8-7,.1-13.9,0-20.9,0-6.6,0-10.6-3.8-10.7-10.3-.2-6.7,0-13.4,0-20Z"/>
      <path class="cls-5" d="M122.4,53.2c-.4,5.6.9,12.6-1.8,19.5-3.5,8.8-12.2,15.3-21.1,15.3-5.5,0-9.4-3.2-9.9-8.2-.6-5.5,2.2-10.5,7.3-11.1,5.7-.7,6.6-3.9,6.5-8.4,0-7.5,0-15,0-22.5,0-6,3.9-10.2,9.1-10.3,5-.1,9.5,4.2,9.8,9.8.3,4.9,0,9.8,0,16Z"/>
      <path class="cls-17" d="M503.3,68.3c-3.3,4.7-6.2,8.9-9.2,13-3.5,4.8-7.1,5.8-11.4,3.1-4-2.5-4.6-6.8-1.5-11.5,2.5-3.8,5-7.7,7.9-11.2,2.4-2.9,1.9-5-.1-7.7-2.9-3.8-5.5-7.8-8.1-11.8-2.8-4.3-2-8.7,1.9-11.1,3.5-2.2,8.1-1.1,10.9,2.7,2.4,3.3,4.8,6.7,7,10.1,1.7,2.8,3,3.5,5,.1,2.1-3.5,4.5-6.8,7-10.1,2.9-4,7.5-5.1,11.2-2.7,3.5,2.2,4.3,6.6,1.7,10.8-2.8,4.4-5.7,8.8-8.8,13-1.5,2-1.6,3.6,0,5.6,2.9,3.9,5.7,8.1,8.4,12.2,3.1,4.6,2.6,9.1-1.2,11.7-3.8,2.7-8,1.5-11.4-3.1-3-4.1-5.9-8.3-9.2-13Z"/>
      <path class="cls-17" d="M280,72.3c1.3-5-1.2-9.8-4.9-14.6-3.4-4.4-6.5-9.1-9.5-13.7-2.7-4.3-2-8.6,1.4-10.9,3.7-2.5,8.5-1.4,11.6,2.8,2.4,3.3,4.9,6.6,7,10.1,1.9,3.1,3.1,2.3,4.7-.2,2.3-3.6,4.8-7,7.4-10.5,2.7-3.6,7.1-4.6,10.4-2.6,3.7,2.3,4.9,6.6,2.4,10.7-3.5,5.5-7.2,11-11.1,16.2-2.6,3.5-3.9,7-3.5,11.3.3,2.9.2,5.9,0,8.8-.3,4.4-4,8-8,7.9-4.4,0-7.7-3.5-7.9-8.4,0-2,0-3.9,0-7.1Z"/>
      <path class="cls-17" d="M412.5,52.5c0,4.9.2,9.8,0,14.7-.7,14.1-14.7,22.7-27.9,17.1-2.1-.9-3.6-1.2-6-.2-12.3,5.8-27-2.4-27.8-15.8-.6-10.4-.3-20.9-.2-31.3,0-3.7,2.4-6.1,5.9-6.9,4-.8,7.2.6,9,4.4.9,1.8.9,3.8.9,5.7,0,8.3,0,16.7,0,25,0,2.3,0,5,3.4,4.9,3,0,3.6-2.6,3.7-5,.1-8.7,0-17.3,0-26,0-6.1,2.7-9.2,7.8-9.3,5.2,0,8.1,3.2,8.1,9.5,0,8.3,0,16.7,0,25,0,2.7.2,5.8,3.8,5.7,3.3-.1,3.3-3.1,3.3-5.6,0-8.7,0-17.3,0-26,0-3.9,1.7-7.1,5.7-8.3,3.5-1,6.5,0,8.8,3,1.2,1.6,1.3,3.3,1.3,5.1,0,4.7,0,9.5,0,14.2,0,0,0,0-.1,0Z"/>
      <path class="cls-17" d="M131.4,57.5c0-6.5,0-13.1,0-19.6,0-5.5,2.6-8,8.3-8,8,0,15.9,0,23.9,0,5.4,0,7.9,2.2,7.9,6.6,0,4.5-2.6,7.6-7.6,7.9-4.5.3-9,.1-13.4.1-2.2,0-4.3-.2-4.3,3.1,0,3.4,2.2,3,4.3,3,3.2,0,6.3-.2,9.5,0,4.3.4,6.5,2.8,6.5,7.1,0,4.2-2.5,6.3-6.5,6.6-3.5.3-7,.2-10.4,0-2.7,0-3.4,1.1-3.4,3.5,0,2.4,1,3.2,3.3,3.1,4.8,0,9.6-.1,14.4,0,4.9.1,7.5,2.7,7.6,7.1,0,4.2-2.8,7.4-7.4,7.5-8.3.2-16.6.2-24.9,0-4.7,0-7.7-3.1-7.8-7.7-.1-6.8,0-13.7,0-20.6Z"/>
      <path class="cls-17" d="M468.4,63.6c0,4.7,0,9.5,0,14.2-.1,4.5-3.2,7.9-7.1,8-3.7,0-7.2-3.4-7.8-7.6-1-7.8-1-7.4-8.9-7.9-5.2-.3-6.5,1.4-6.2,6.3.4,5.6-2.9,9.3-7.2,9.3-4.2,0-7.7-4.1-7.6-9.2.2-9.9-1-19.9.7-29.8,1.9-10.8,12.1-18.4,23.4-17.6,11.2.8,20.1,9.5,20.5,20.2.2,4.7,0,9.5,0,14.2,0,0,0,0,0,0Z"/>
      <path class="cls-17" d="M230.4,57.6c0-6.2,0-12.4,0-18.6.1-5.7,3-9.1,7.5-9.1,4.9,0,7.2,2.9,7.3,9,0,8.8.3,17.6,0,26.4-.2,4.2,1.3,5.4,5.4,5,3.3-.3,6.6-.2,9.9,0,4.5.2,7.5,3.2,7.6,7.4.2,4.4-2.8,7.9-7.5,8-7.3.2-14.6.2-21.9,0-5.1-.1-8.1-3.5-8.2-9.1-.2-6.3,0-12.7,0-19.1Z"/>
      <path class="cls-17" d="M182.4,57.3c0-5.9,0-11.7,0-17.6,0-6.2,2.7-9.6,7.3-9.7,4.8,0,7.5,3.3,7.5,9.5,0,8.6.3,17.3,0,25.9-.2,4.3,1.3,5.4,5.3,5,3.1-.3,6.3-.1,9.5,0,4.6.1,8,3.3,8.1,7.6.1,4.1-3.3,7.8-7.9,7.9-7.3.2-14.6.2-21.9,0-4.8-.2-7.8-3.8-7.9-9-.1-6.5,0-13.1,0-19.6Z"/>
      <path class="cls-17" d="M120.4,51.9c-.3,4.4.3,9.9-.6,15.4-1.7,9.6-8.4,16.7-18,18.4-5,.9-9.1-1.5-10.1-5.7-1-4.6,1.7-8.8,6.9-9.5,5.2-.8,6.9-4,6.9-8.5,0-7.8,0-15.7,0-23.5,0-5.4,2.4-8.2,6.8-8.5,4.6-.2,7.7,2.7,8,8,.2,4.2,0,8.5,0,13.9Z"/>
      <path class="cls-7" d="M485.7,32.4c-2.6,4.1-.4,7.9.3,11.9-5.6-5.1-5.8-9.5-.3-11.9Z"/>
      <path class="cls-9" d="M522.3,32.5c-4.3,1.4-7,3.6-9.7,5.7,1.9-3.3,3.3-7.3,9.7-5.7Z"/>
      <path class="cls-21" d="M270.8,34.1c-3.2,4.5-1.2,8.5.3,12.9-6.3-5.6-6.6-10.8-.3-12.9Z"/>
      <path class="cls-15" d="M296.7,41.4c3.3-7.1,4.2-7.7,9.3-6.6-3.6.8-6,3.5-9.3,6.6Z"/>
      <path class="cls-11" d="M357,32.5c-1.7,5-3.1,10.1-4,15.2.5-5.3-3-11.6,4-15.2Z"/>
      <path class="cls-4" d="M403.6,32.4c-2.3,3.2-2.7,7.1-4.6,11.6-.5-5.5-.3-9.5,4.6-11.6Z"/>
      <path class="cls-2" d="M380.6,32.4c-2.4,3.5-3.8,7.3-4.5,11.4-.6-4.6-1.6-9.4,4.5-11.4Z"/>
      <path class="cls-18" d="M148.9,32.8c-9.7-.7-14.1,4.4-14.8,13.3-1.1-13.5.9-15.2,14.8-13.3Z"/>
      <path class="cls-5" d="M445.9,56c-2.3-1.6-7.4,2.6-7.3-3.7,0-4.2,3.2-7.4,7.5-7.5,4.5-.1,7.4,2.7,7.5,7.3.1,6.6-5.1,2.3-7.6,3.9Z"/>
      <path class="cls-3" d="M443.7,32.4c-8.5,3.7-13,9.3-17,16.4.6-9.4,7.2-16,17-16.4Z"/>
      <path class="cls-11" d="M238.4,32c-2.9,5.5-3.9,10.5-4.7,16.1-2-9.9-1.1-13.3,4.7-16.1Z"/>
      <path class="cls-11" d="M190.4,31.9c-3.2,5.5-3.6,10.9-5.1,16.9-1.8-9.4-.5-14.2,5.1-16.9Z"/>
      <path class="cls-3" d="M112.5,32.4c-2.7,5.1-2.8,10.9-4.7,16.3.8-5.6-3.1-12.6,4.7-16.3Z"/>
      <path class="cls-10" d="M445.8,53.9c-1.7-1-5.1,1.5-4.9-2.3.1-2.9,2.2-4.8,5.3-4.6,2.6.2,5.1,1.1,5.1,4.2,0,4.5-3.8,1.5-5.5,2.7Z"/>
    </g>
  </g>
</svg>