<?xml version="1.0" encoding="utf-8"?>
<!-- Generator: Adobe Illustrator 28.2.0, SVG Export Plug-In . SVG Version: 6.00 Build 0)  -->
<svg version="1.1" id="Layer_1" xmlns="http://www.w3.org/2000/svg" xmlns:xlink="http://www.w3.org/1999/xlink" x="0px" y="0px"
	 viewBox="0 0 245 67.1" style="enable-background:new 0 0 245 67.1;" xml:space="preserve">
<style type="text/css">
	.st0{fill:#E5E5E5;}
</style>
<path class="st0" d="M58.1,41.6c0-13.2-10.7-23.9-23.9-23.9h-2.7H7.8v51.5h23.6v-3.7V41.6H58.1z"/>
<path class="st0" d="M39.9,45.2c-3,0-5.5,2.5-5.5,5.5v5.6h11v-5.6C45.4,47.7,43,45.2,39.9,45.2z"/>
<path class="st0" d="M52.6,45.2c-3,0-5.5,2.5-5.5,5.5v5.6h11v-5.6C58.1,47.7,55.7,45.2,52.6,45.2z"/>
<path class="st0" d="M45.4,58.1h-11v11.1h11V58.1z"/>
<path class="st0" d="M58.1,58.1h-11v11.1h11V58.1z"/>
<path class="st0" d="M31.4,41.6c-13.1,0-23.7,10.6-23.7,23.7v3.9h23.7V41.6z"/>
<path class="st0" d="M75,42.8c3.6,0,5.4,1.7,5.4,4.4c0,3.1-2.2,4.5-5.7,4.5h-4.5v4h-3.7v-13L75,42.8L75,42.8z M74.4,49.2
	c1.7,0,2.1-1,2.1-1.9c0-1-0.4-1.8-2.1-1.8h-4.3v3.7H74.4z M86.8,45.7c2.8,0,5.6,0.6,5.6,3.9v6.3H89v-1.3c-0.4,0.6-1.6,1.6-3.8,1.6
	c-2.3,0-4.1-0.9-4.1-2.9c0-2.1,1-3.9,7.9-3.4v-0.2c0-1-0.2-1.8-2.2-1.8c-1.6,0-2.1,0.5-2.2,1.2h-3C81.9,46.5,83.9,45.7,86.8,45.7z
	 M89,52.9v-1.2c-3.1-0.1-4.7,0-4.7,1.4c0,0.7,0.6,1.2,1.8,1.2C87.4,54.2,88.5,53.6,89,52.9z M100,53.8c1.6,0,2.5-0.9,2.8-2h3
	c-0.5,3.1-3.2,4.3-5.9,4.3c-2.9,0-6.1-1.4-6.1-5.2s3.2-5.2,6.1-5.2c2.6,0,5.3,1.2,5.9,4.3h-3c-0.3-1.2-1.2-2-2.8-2
	c-2,0-2.9,1.3-2.9,2.9C97,52.5,97.9,53.8,100,53.8z M107.3,55.8v-9.9h3.3v9.9C110.6,55.8,107.3,55.8,107.3,55.8z M109,45
	c-1,0-1.7-0.6-1.7-1.6s0.7-1.6,1.7-1.6s1.7,0.6,1.7,1.6S110,45,109,45z M119.7,44.6c-1.7-0.2-2.7,0-2.7,1.3h2.6V48H117v7.8h-3.3V48
	h-1.6v-2.1h1.6c0-2,0.5-3.8,4.1-3.8c0.8,0,1.3,0.1,2,0.1L119.7,44.6L119.7,44.6z M121,55.8v-9.9h3.3v9.9
	C124.3,55.8,121,55.8,121,55.8z M122.6,45c-1,0-1.7-0.6-1.7-1.6s0.7-1.6,1.7-1.6s1.7,0.6,1.7,1.6S123.7,45,122.6,45z M131.9,53.8
	c1.6,0,2.5-0.9,2.8-2h3c-0.5,3.1-3.2,4.3-5.9,4.3c-2.9,0-6.1-1.4-6.1-5.2s3.2-5.2,6.1-5.2c2.6,0,5.3,1.2,5.9,4.3h-3
	c-0.3-1.2-1.2-2-2.8-2c-2,0-2.9,1.3-2.9,2.9S129.9,53.8,131.9,53.8z M150,53.8c1.6,0,2.5-0.9,2.8-2h3c-0.5,3.1-3.2,4.3-5.9,4.3
	c-2.9,0-6.1-1.4-6.1-5.2s3.2-5.2,6.1-5.2c2.6,0,5.3,1.2,5.9,4.3h-3c-0.3-1.2-1.2-2-2.8-2c-2,0-2.9,1.3-2.9,2.9S148,53.8,150,53.8z
	 M162.9,45.7c2.9,0,6.1,1.4,6.1,5.2s-3.2,5.2-6.1,5.2s-6.1-1.4-6.1-5.2C156.8,47.1,160,45.7,162.9,45.7z M162.9,53.8
	c2,0,2.9-1.3,2.9-2.9c0-1.6-0.9-2.9-2.9-2.9s-2.9,1.3-2.9,2.9S160.9,53.8,162.9,53.8z M175.6,45.7c2.8,0,5.6,0.6,5.6,3.9v6.3h-3.3
	v-1.3c-0.4,0.6-1.6,1.6-3.8,1.6c-2.3,0-4.1-0.9-4.1-2.9c0-2.1,1-3.9,7.9-3.4v-0.2c0-1-0.2-1.8-2.2-1.8c-1.6,0-2.1,0.5-2.2,1.2h-3
	C170.7,46.5,172.8,45.7,175.6,45.7z M177.9,52.9v-1.2c-3.1-0.1-4.7,0-4.7,1.4c0,0.7,0.6,1.2,1.8,1.2
	C176.3,54.2,177.3,53.6,177.9,52.9z M189.1,49.7c2.5,0.3,5.1,0.4,5.1,3c0,2.4-2.2,3.4-6,3.4c-4,0-5.9-1.2-5.9-3.5h3.5
	c0,1.1,1.2,1.4,2.6,1.4c1.5,0,2.2-0.3,2.2-1c0-0.9-1.7-0.9-3.8-1.3c-2.5-0.4-4.2-0.9-4.2-2.9s1.8-3.3,5.5-3.3c4,0,5.6,1.4,5.6,3.3
	h-3.4c0-0.6-0.8-1.2-2.3-1.2s-2.1,0.4-2.1,1C185.9,49.4,187.4,49.5,189.1,49.7z M202.4,48h-2.9v3.9c0,1.4,0.7,1.6,2.9,1.3v2.5
	c-0.7,0.1-1.2,0.1-2,0.1c-3.7,0-4.2-1.5-4.2-4V48h-1.8v-2.1h1.8v-2.6h3.3v2.6h2.9V48z"/>
<path class="st0" d="M65.8,67.1v-3.8h1.1v3.8H65.8z M66.3,62.9c-0.3,0-0.6-0.2-0.6-0.5s0.2-0.5,0.6-0.5c0.3,0,0.6,0.2,0.6,0.5
	S66.6,62.9,66.3,62.9z M70.3,63.2c1,0,1.6,0.5,1.6,1.4v2.5h-1.1v-2.3c0-0.5-0.3-0.9-0.9-0.9c-0.7,0-1,0.4-1,0.9v2.3h-1.1v-3.8h1.1
	v0.5C69,63.6,69.4,63.2,70.3,63.2z M75.6,63.3h1.1L75,67.1h-1.1l-1.7-3.8h1.1l1.1,2.7L75.6,63.3z M81.2,65.5h-3.4
	c0.1,0.5,0.5,1,1.3,1c0.6,0,1-0.3,1.1-0.6h1c-0.3,1-1.1,1.3-2.1,1.3c-1.1,0-2.2-0.6-2.2-2s1.1-2,2.2-2
	C80.2,63.2,81.3,63.9,81.2,65.5z M79.1,63.9c-0.7,0-1.1,0.4-1.2,0.8h2.4C80.1,64.3,79.8,63.9,79.1,63.9z M84.4,63.2
	c1,0,1.6,0.5,1.6,1.4v2.5h-1.1v-2.3c0-0.5-0.3-0.9-0.9-0.9s-1,0.4-1,0.9v2.3h-1.1v-3.8H83v0.5C83.1,63.6,83.6,63.2,84.4,63.2z
	 M89.3,64h-1.1v1.6c0,0.6,0.2,0.7,1.1,0.7v0.8c-0.1,0-0.3,0.1-0.6,0.1c-1.4,0-1.6-0.6-1.6-1.6V64h-0.7v-0.7h0.7v-1h1.1v1h1.1V64z
	 M92.1,63.2c1.1,0,2.3,0.6,2.3,2c0,1.4-1.2,2-2.3,2c-1.1,0-2.3-0.6-2.3-2C89.8,63.8,90.9,63.2,92.1,63.2z M92.1,66.5
	c0.9,0,1.3-0.6,1.3-1.3c0-0.7-0.3-1.3-1.3-1.3c-0.9,0-1.3,0.6-1.3,1.3C90.8,65.9,91.1,66.5,92.1,66.5z M97.5,63.2
	c0.3,0,0.4,0,0.6,0.1v1l0,0c-0.1-0.1-0.4-0.1-0.7-0.1c-0.9,0-1.2,0.6-1.2,1.2v1.8H95v-3.8h1.1V64C96.2,63.7,96.7,63.2,97.5,63.2z
	 M101.7,63.3h1.1l-2.3,5h-1.1L100,67l-1.8-3.7h1.1l1.2,2.6L101.7,63.3z M110.5,63.2c1,0,1.5,0.5,1.5,1.4v2.5h-1.1v-2.3
	c0-0.5-0.2-0.9-0.8-0.9c-0.6,0-0.8,0.4-0.8,0.9v2.3h-1.1v-2.3c0-0.5-0.2-0.9-0.8-0.9c-0.6,0-0.8,0.4-0.8,0.9v2.3h-1.1v-3.8h1.1v0.5
	c0.1-0.2,0.5-0.6,1.2-0.6s1.1,0.2,1.3,0.7C109.2,63.7,109.6,63.2,110.5,63.2z M114.7,63.2c1.1,0,2.1,0.3,2.1,1.4v2.5h-1.1v-0.5
	c-0.2,0.3-0.7,0.6-1.6,0.6s-1.5-0.4-1.5-1.1c0-0.8,0.4-1.5,3.1-1.3v-0.2c0-0.4-0.2-0.7-1-0.7c-0.7,0-0.9,0.2-0.9,0.5h-1
	C112.9,63.6,113.7,63.2,114.7,63.2z M115.7,66v-0.5c-1.5-0.1-2,0.1-2,0.6c0,0.4,0.3,0.5,0.7,0.5C115,66.6,115.5,66.3,115.7,66z
	 M120.2,63.2c1,0,1.6,0.5,1.6,1.4v2.5h-1.1v-2.3c0-0.5-0.3-0.9-0.9-0.9c-0.7,0-1,0.4-1,0.9v2.3h-1.1v-3.8h1.1v0.5
	C118.9,63.6,119.4,63.2,120.2,63.2z M124.5,63.2c1.1,0,2.1,0.3,2.1,1.4v2.5h-1.1v-0.5c-0.2,0.3-0.7,0.6-1.6,0.6s-1.5-0.4-1.5-1.1
	c0-0.8,0.4-1.5,3.1-1.3v-0.2c0-0.4-0.2-0.7-1-0.7c-0.7,0-0.9,0.2-0.9,0.5h-1C122.7,63.6,123.5,63.2,124.5,63.2z M125.5,66v-0.5
	c-1.5-0.1-2,0.1-2,0.6c0,0.4,0.3,0.5,0.7,0.5C124.8,66.6,125.3,66.3,125.5,66z M130.6,63.3h1.1v3.5c0,1.5-1.2,1.7-2.3,1.7
	c-1.3,0-2-0.4-2.1-1.2h1c0.1,0.2,0.5,0.4,1.1,0.4c0.9,0,1.3-0.3,1.3-0.9v-0.4c-0.3,0.3-0.7,0.5-1.4,0.5c-1.1,0-2-0.5-2-1.8
	c0-1.3,0.9-1.9,2-1.9c0.6,0,1.1,0.2,1.4,0.6v-0.5H130.6z M129.5,66.2c0.8,0,1.3-0.4,1.3-1.1s-0.5-1.1-1.3-1.1s-1.2,0.4-1.2,1.1
	C128.3,65.8,128.7,66.2,129.5,66.2z M136.7,65.5h-3.4c0.1,0.5,0.5,1,1.2,1c0.6,0,1-0.3,1.1-0.6h1c-0.3,1-1.1,1.3-2.1,1.3
	c-1.1,0-2.2-0.6-2.2-2s1.1-2,2.2-2C135.7,63.2,136.9,63.9,136.7,65.5z M134.6,63.9c-0.7,0-1.1,0.4-1.2,0.8h2.4
	C135.6,64.3,135.3,63.9,134.6,63.9z M142.5,63.2c1,0,1.5,0.5,1.5,1.4v2.5h-1.1v-2.3c0-0.5-0.2-0.9-0.8-0.9s-0.8,0.4-0.8,0.9v2.3
	h-1.1v-2.3c0-0.5-0.2-0.9-0.8-0.9s-0.8,0.4-0.8,0.9v2.3h-1.1v-3.8h1.1v0.5c0.1-0.2,0.5-0.6,1.2-0.6s1.1,0.2,1.3,0.7
	C141.2,63.7,141.6,63.2,142.5,63.2z M149,65.5h-3.4c0.1,0.5,0.5,1,1.3,1c0.6,0,1-0.3,1.1-0.6h1c-0.3,1-1.1,1.3-2.1,1.3
	c-1.1,0-2.2-0.6-2.2-2s1.1-2,2.2-2C148,63.2,149.1,63.9,149,65.5z M146.8,63.9c-0.7,0-1.1,0.4-1.2,0.8h2.4
	C147.9,64.3,147.6,63.9,146.8,63.9z M152.2,63.2c1,0,1.6,0.5,1.6,1.4v2.5h-1.1v-2.3c0-0.5-0.3-0.9-0.9-0.9c-0.7,0-1,0.4-1,0.9v2.3
	h-1.1v-3.8h1.1v0.5C150.9,63.6,151.4,63.2,152.2,63.2z M157.1,64H156v1.6c0,0.6,0.2,0.7,1.1,0.7v0.8c-0.1,0-0.3,0.1-0.6,0.1
	c-1.4,0-1.6-0.6-1.6-1.6V64h-0.7v-0.7h0.7v-1h1.1v1h1.1V64z"/>
</svg>
