<?xml version="1.0" encoding="utf-8"?>
<!-- Generator: Adobe Illustrator 26.0.1, SVG Export Plug-In . SVG Version: 6.00 Build 0)  -->
<svg version="1.1" id="Layer_1" xmlns="http://www.w3.org/2000/svg" xmlns:xlink="http://www.w3.org/1999/xlink" x="0px" y="0px"
	 viewBox="0 0 183 52" style="enable-background:new 0 0 183 52;" xml:space="preserve">
<style type="text/css">
	.st0{fill:#E5E5E5;}
</style>
<g>
	<path class="st0" d="M21.3,26.4l-15,2.7L21.3,25c0-0.2,0.1-0.4,0.1-0.7L6,20.1l16,2.8c0.1-0.1,0.2-0.3,0.3-0.4L7,10.4l16.2,11.1
		c0.2-0.1,0.3-0.2,0.5-0.3L15.7,3.9l9.4,16.7c0.2,0,0.4-0.1,0.6-0.1l1.1-18.8l0.3,18.8l0.3,0.1l9.2-15.8l-8,16.2
		c0.3,0.1,0.5,0.3,0.7,0.5l12.4-7.7l-11.4,8.7l0.1,0.1c7.7-3.1,14.9-5.3,19.2-6.6c-1.4-3.1-3.3-6-5.8-8.3c-2.5-2.4-5.4-4.2-8.7-5.4
		c-3.2-1.2-6.7-1.7-10.1-1.6c-3.4,0.1-6.8,1-9.9,2.5C12,4.8,9.3,6.9,7,9.4C4.7,12,3,15,1.9,18.2s-1.5,6.7-1.2,10.1
		C1,31.7,2,35,3.6,38c4.5-4.3,11-8.1,17.8-11.3C21.4,26.6,21.3,26.5,21.3,26.4z"/>
	<path class="st0" d="M41.2,26.9c0.8,0.7,1.5,1.4,2.2,2.1c3.8-2.6,6.7-4.5,8.3-5.4c-0.2-1.9-0.6-3.8-1.2-5.6
		c-4.8,0.9-9.5,2.5-13.9,4.8C37.7,23.8,39.4,25.2,41.2,26.9z"/>
	<path class="st0" d="M49.7,36.3c1.4-3.2,2.1-6.6,2.1-10c0-0.1,0-0.2,0-0.2c-1.6,1-4,2.5-6.9,4.5C46.6,32.3,48.2,34.3,49.7,36.3z"/>
	<path class="st0" d="M20.9,33.7c1.9,1.2,4.2,2.7,6.7,4.5c0.8,0.6,1.5,1.1,2.2,1.7c3.7-3.4,7.7-6.7,11.8-9.7
		c-2.9-2.8-5.6-5.1-7.1-6.4C29.6,26.7,25,30,20.9,33.7z"/>
	<path class="st0" d="M28.2,41.4c-0.6-0.5-1.3-0.9-1.9-1.4c-2.6-1.9-5.1-3.5-7-4.7c-3.4,3.2-6.5,6.8-9.4,10.5c2.8,2.3,6.1,4,9.6,5
		C22.2,47.5,25.1,44.3,28.2,41.4z"/>
	<path class="st0" d="M43.1,31.8c-4,2.9-7.9,6.1-11.6,9.5c2.7,2.1,5.1,4.5,7.1,7.2c4.2-2.3,7.7-5.8,10-10
		C47,36.1,45.1,33.9,43.1,31.8z"/>
	<path class="st0" d="M29.9,42.8c-2.8,2.7-5.5,5.5-8,8.5c5,0.8,10.1,0.2,14.7-1.8C34.7,47,32.4,44.7,29.9,42.8z"/>
	<path class="st0" d="M61.8,24.3h8.4v-4.5h2.8v11.5h-2.8v-4.9h-8.4v4.9H59V19.8h2.8V24.3z"/>
	<path class="st0" d="M85.8,31.3l-1.3-2.9h-3.2v-2.1h2.3l-1.9-4.5l-4.1,9.4h-3l5.1-11.5h4.2l5.1,11.5L85.8,31.3z"/>
	<path class="st0" d="M90.3,29.4v-9.6h2.8v9.1h11.3v2.4H92.3c-0.3,0-0.5,0-0.8-0.1c-0.2-0.1-0.5-0.2-0.6-0.4
		c-0.2-0.2-0.3-0.4-0.4-0.6C90.4,29.9,90.3,29.7,90.3,29.4z"/>
	<path class="st0" d="M105.9,29.4v-9.6h2.8v9.1H120v2.4h-12.1c-0.3,0-0.5,0-0.8-0.1c-0.2-0.1-0.5-0.2-0.6-0.4
		c-0.2-0.2-0.3-0.4-0.4-0.6C106,29.9,105.9,29.7,105.9,29.4z"/>
	<path class="st0" d="M137.4,31.3l-2.8,0l-0.1-8.6l-3.5,5.3l-0.9,1.4h-1.3l-4.3-6.6v8.4l-2.8,0l-0.1-11.5h4l3.9,5.9l3.9-5.9h4
		L137.4,31.3z"/>
	<path class="st0" d="M150.1,31.3l-1.2-2.9h-3.2v-2.1h2.3l-1.9-4.5l-4.1,9.4h-3l5-11.5h4.2l5.1,11.5L150.1,31.3z"/>
	<path class="st0" d="M166.7,26.4h-2.4l4.4,4.9h-3.7l-6.3-7h7.2v-2.4h-8.4v9.4h-2.8V19.8h12.1c0.3,0,0.5,0.1,0.8,0.1
		c0.2,0.1,0.5,0.2,0.6,0.4c0.2,0.2,0.3,0.4,0.4,0.6c0.1,0.2,0.1,0.5,0.1,0.7v2.7c0,0.3-0.1,0.5-0.2,0.7c-0.1,0.2-0.3,0.4-0.4,0.6
		c-0.2,0.2-0.4,0.3-0.6,0.4C167.2,26.4,166.9,26.4,166.7,26.4z"/>
	<path class="st0" d="M178.6,19.8h3.1l-4.6,4.8l5.9,6.7h-3.2l-4.3-5l-4.8,5V19.8h2.8v5.3L178.6,19.8z"/>
	<path class="st0" d="M82.4,37.3v1.5H88c0.2,0,0.3,0,0.5,0.1s0.3,0.1,0.4,0.3c0.1,0.1,0.2,0.2,0.3,0.4c0.1,0.1,0.1,0.3,0.1,0.4v1.9
		c0,0.2,0,0.3-0.1,0.5c-0.1,0.1-0.1,0.3-0.3,0.4c-0.1,0.1-0.2,0.2-0.4,0.3C88.3,43,88.1,43,88,43h-6c-0.3,0-0.6-0.1-0.8-0.3
		c-0.2-0.2-0.3-0.5-0.3-0.8v-0.3l1.7-0.6v0.9h5.1V40h-5.6c-0.3,0-0.6-0.1-0.8-0.3c-0.2-0.2-0.3-0.5-0.3-0.8v-1.6
		c0-0.3,0.1-0.6,0.3-0.8c0.2-0.2,0.5-0.3,0.8-0.3h6c0.2,0,0.3,0,0.5,0.1s0.3,0.1,0.4,0.3c0.1,0.1,0.2,0.2,0.3,0.4
		c0.1,0.1,0.1,0.3,0.1,0.4v0.9h-1.6v-0.8L82.4,37.3z"/>
	<path class="st0" d="M107.6,37.2v4.6c0,0.2,0,0.3-0.1,0.5c-0.1,0.1-0.1,0.3-0.3,0.4c-0.1,0.1-0.2,0.2-0.4,0.3
		c-0.1,0.1-0.3,0.1-0.5,0.1h-6.1c-0.3,0-0.6-0.1-0.8-0.3c-0.2-0.2-0.3-0.5-0.3-0.8v-4.6c0-0.3,0.1-0.6,0.3-0.8
		c0.2-0.2,0.5-0.3,0.8-0.3h6.1c0.3,0,0.6,0.1,0.8,0.3C107.5,36.6,107.6,36.9,107.6,37.2z M106,41.7v-4.4h-5.1v4.4H106z"/>
	<path class="st0" d="M117.7,41.8V36h1.7v5.5h6.8V43h-7.3c-0.2,0-0.3,0-0.5-0.1c-0.1-0.1-0.3-0.2-0.4-0.3c-0.1-0.1-0.2-0.2-0.2-0.4
		C117.7,42.1,117.7,42,117.7,41.8z"/>
	<path class="st0" d="M141.6,43l-0.7-1.7h-1.9V40h1.4l-1.2-2.7l-2.5,5.6h-1.8l3-6.9h2.6l3,6.9H141.6z"/>
	<path class="st0" d="M160.1,40h-1.4l2.6,3H159l-3.8-4.2h4.3v-1.5h-5.1V43h-1.7v-7h7.3c0.3,0,0.6,0.1,0.8,0.3
		c0.2,0.2,0.3,0.5,0.3,0.8v1.6c0,0.2,0,0.3-0.1,0.5c-0.1,0.1-0.1,0.3-0.3,0.4c-0.1,0.1-0.2,0.2-0.4,0.3C160.4,40,160.2,40,160.1,40z
		"/>
	<path class="st0" d="M74.9,39H59v1h15.9V39z"/>
	<path class="st0" d="M183,39h-15.9v1H183V39z"/>
</g>
</svg>
