<?xml version="1.0" encoding="UTF-8"?>
<svg xmlns="http://www.w3.org/2000/svg" version="1.1" viewBox="0 0 148 32">
  <!-- Generator: Adobe Illustrator 28.6.0, SVG Export Plug-In . SVG Version: 1.2.0 Build 709)  -->
  <g>
    <g id="Layer_13">
      <g>
        <path d="M118.6,31l3-7.1-6.5-15.7h4.3l4.3,11.4,4.1-11.4h4.4l-9.3,22.8h-4.5Z"/>
        <path d="M106.9,24.3c-4.8,0-8.5-3.4-8.5-8.2s3.7-8.2,8.5-8.2,8.5,3.3,8.5,8.2-3.7,8.2-8.5,8.2ZM102.3,16.1c0,2.7,2,4.6,4.6,4.6s4.6-2,4.6-4.6-2-4.6-4.6-4.6-4.6,2-4.6,4.6Z"/>
        <path d="M90,31.1v-4.3l3.1-1.8V8.1h3.8v19.3l-7,3.6ZM92.5,3.2c0-1.5,1.1-2.5,2.5-2.5s2.5,1,2.5,2.5-1.1,2.5-2.5,2.5-2.5-1-2.5-2.5Z"/>
        <path d="M76.5,24v-15.9h3.8v2c.8-1.3,2.3-2.2,4.4-2.2,3.5,0,5.8,2.6,5.8,5.7v10.4h-3.8v-9.2c0-2-1.4-3.3-3.2-3.3s-3.2,1.4-3.2,3.3v9.2h-3.8Z"/>
        <path d="M65.3,27.6c3,0,4.5-1.9,4.5-4.1v-1.5c-.9,1.2-2.7,2-5,2-4.2,0-7.7-3.1-7.7-8.1s3.6-8.1,7.7-8.1,4,1,5,2.2v-2h3.8v15c0,4.2-2.8,8.1-8.4,8.1s-6.6-2.2-7.6-4.8l3.2-1.7c.7,1.7,2.3,2.8,4.4,2.8ZM61,16c0,2.6,1.8,4.5,4.4,4.5s4.4-2,4.4-4.5-1.7-4.5-4.4-4.5-4.4,2-4.4,4.5Z"/>
        <path d="M51.8,24v-15.9h3.8v15.9h-3.8ZM51.1,3.2c0-1.5,1.1-2.5,2.5-2.5s2.5,1,2.5,2.5-1.1,2.5-2.5,2.5-2.5-1-2.5-2.5Z"/>
        <path d="M43.2,24.3c-4,0-6.3-2.2-7-4.3l3.1-1.5c.5,1.2,1.8,2.5,4,2.5s2.8-.6,2.8-1.5-.5-1.2-1.6-1.4l-3.1-.6c-2.4-.5-4.4-1.8-4.4-4.6s2.7-4.9,6.3-4.9,5.8,2,6.5,4l-3.1,1.5c-.3-1.1-1.5-2.2-3.4-2.2s-2.5.6-2.5,1.5.7,1.2,1.6,1.4l3.2.6c2.9.5,4.4,2.4,4.4,4.6s-2.5,5.1-6.9,5.1Z"/>
        <path d="M27.9,24.3c-5.2,0-8.3-3.6-8.3-8.2s3.3-8.2,8.2-8.2,7.9,3.9,7.9,8.1v1.5h-12.3c.5,2.4,2.3,3.4,4.4,3.4s3.9-1.4,4.3-2.5l2.9,1.7c-.6,1.5-2.9,4.2-7.2,4.2ZM23.6,14.4h8.2c0-1.4-1.4-3.2-4-3.2s-3.7,1.1-4.3,3.2Z"/>
        <path d="M.8,24V2.6h7.4c6.5,0,11,4.3,11,10.7s-4.5,10.7-11,10.7H.8ZM4.7,20.5h3.4c4.1,0,7-2.8,7-7.1s-3-7.1-7-7.1h-3.4v14.3Z"/>
        <path d="M134.9,24c-.5,0-1,0-1.4-.2s-.8-.4-1.1-.7c-.3-.3-.6-.7-.7-1.1-.2-.4-.3-.8-.3-1.3s0-.9.3-1.3c.2-.4.4-.8.7-1.1.3-.3.7-.5,1.1-.7s.9-.2,1.4-.2,1.1,0,1.5.3.8.5,1.1.8l-1,.9c-.2-.3-.5-.4-.7-.6-.3-.1-.6-.2-.9-.2s-.6,0-.8.1-.5.2-.7.4-.3.4-.4.7-.2.5-.2.8,0,.6.2.8.2.5.4.7.4.3.7.4.5.1.8.1.6,0,.9-.2c.3-.1.5-.3.7-.6l1,.9c-.3.4-.7.7-1.1.9s-1,.3-1.5.3Z"/>
        <path d="M140,23.9h-1.5v-6.4h1.5v6.4ZM143,21.3h-3.1v-1.3h3.1v1.3ZM142.9,17.5h1.5v6.4h-1.5v-6.4Z"/>
      </g>
    </g>
  </g>
</svg>