<?xml version="1.0" encoding="utf-8"?>
<!-- Generator: Adobe Illustrator 26.0.1, SVG Export Plug-In . SVG Version: 6.00 Build 0)  -->
<svg version="1.1" id="Layer_1" xmlns="http://www.w3.org/2000/svg" xmlns:xlink="http://www.w3.org/1999/xlink" x="0px" y="0px"
	 viewBox="0 0 201 76" style="enable-background:new 0 0 201 76;" xml:space="preserve">
<style type="text/css">
	.st0{fill:#E5E5E5;}
</style>
<g>
	<path class="st0" d="M17.5,6.7l7.1,2.9V14c2.7-0.9,5.6-1.4,8.5-1.4s5.8,0.5,8.5,1.4V9.6l5.6-2.3h0v2.2C47,9.6,46.8,9.8,46.8,10
		c0,0.2,0.2,0.4,0.4,0.5v1.1L46,14.3h2.8l-1.2-2.8v-1.1c0.2-0.1,0.4-0.3,0.4-0.5c0-0.2-0.2-0.4-0.4-0.5V7.2h0l1.1-0.4
		c0.2-0.1,0.2-0.4,0-0.5L33.4,0.6c-0.2-0.1-0.4-0.1-0.6,0L17.5,6.2C17.2,6.3,17.2,6.6,17.5,6.7z M31,12.1h-0.4v-0.2
		c-0.2,0.2-0.4,0.2-0.6,0.2c-0.2,0-0.3,0-0.4-0.1c-0.1,0-0.2-0.1-0.3-0.2c-0.1-0.1-0.2-0.2-0.2-0.4c0-0.1-0.1-0.3-0.1-0.4
		c0-0.2,0-0.3,0.1-0.4c0-0.1,0.1-0.2,0.2-0.4c0.1-0.1,0.2-0.2,0.4-0.2c0.1,0,0.3-0.1,0.4-0.1c0.2,0,0.4,0,0.5,0.1
		c0.2,0.1,0.3,0.2,0.4,0.4l-0.4,0.3c0-0.1-0.1-0.2-0.2-0.2c-0.1,0-0.2-0.1-0.3-0.1c-0.1,0-0.2,0-0.2,0c-0.1,0-0.1,0.1-0.2,0.1
		c0,0.1-0.1,0.1-0.1,0.2c-0.1,0.1-0.1,0.2-0.1,0.3c0,0.1,0,0.2,0,0.3c0,0.1,0.1,0.2,0.1,0.2s0.1,0.1,0.2,0.1c0.1,0,0.2,0,0.2,0
		c0.2,0,0.4-0.1,0.5-0.3v-0.1h-0.4V11H31V12.1z M34.1,11c0,0.2,0,0.3,0,0.4c0,0.1-0.1,0.2-0.2,0.4c-0.1,0.1-0.2,0.2-0.3,0.2
		c-0.1,0-0.3,0.1-0.4,0.1c-0.2,0-0.3,0-0.4-0.1c-0.1,0-0.2-0.1-0.3-0.2c-0.1-0.1-0.1-0.2-0.2-0.4c0-0.1,0-0.3,0-0.4V10h0.5v1.1
		c0,0.1,0,0.2,0,0.2c0,0.1,0,0.2,0.1,0.2c0,0.1,0.1,0.1,0.2,0.2c0,0,0.1,0,0.2,0c0.1,0,0.2,0,0.2,0c0,0,0.1-0.1,0.2-0.2
		c0-0.1,0.1-0.1,0.1-0.2s0-0.2,0-0.2V10h0.5V11H34.1z M37.1,11.8C37,11.9,37,12,36.9,12c-0.1,0-0.2,0.1-0.3,0.1c-0.1,0-0.2,0-0.3,0
		c-0.2,0-0.3,0-0.4-0.1c-0.1-0.1-0.2-0.2-0.3-0.2c-0.1-0.1-0.2-0.2-0.2-0.4c0-0.1-0.1-0.3-0.1-0.4c0-0.1,0-0.3,0.1-0.4
		c0-0.1,0.1-0.2,0.2-0.4c0.1-0.1,0.2-0.2,0.4-0.2C36,10,36.2,10,36.3,10c0.2,0,0.4,0,0.5,0.1c0.2,0.1,0.3,0.2,0.3,0.4l-0.4,0.3
		c0,0,0-0.1-0.1-0.2c0,0-0.1-0.1-0.1-0.1c0,0-0.1,0-0.1,0c0,0-0.1,0-0.1,0c-0.1,0-0.2,0-0.2,0s-0.1,0.1-0.2,0.2
		c0,0.1-0.1,0.1-0.1,0.2c0,0.1,0,0.2,0,0.2c0,0.1,0,0.2,0,0.2c0,0.1,0.1,0.2,0.1,0.2c0,0.1,0.1,0.1,0.2,0.2c0.1,0,0.2,0,0.2,0
		c0,0,0.1,0,0.1,0c0,0,0.1,0,0.1,0c0,0,0.1,0,0.1-0.1c0,0,0.1-0.1,0.1-0.1l0.4,0.2C37.2,11.7,37.2,11.8,37.1,11.8z M33.1,8.5
		c2.9,0,5.2,0.5,6.9,1c-2.3-0.2-4.6-0.4-6.9-0.4c-2.3,0-4.6,0.2-6.9,0.4C27.9,9,30.3,8.5,33.1,8.5z"/>
	<path class="st0" d="M64.8,69.5c0-0.2-0.2-0.2-0.3-0.3c0,0-0.1,0-0.1,0c-3.6-0.8-8.4-1.4-13.8-1.1c-5.4,0.3-9.9,1.3-13.3,2.4
		c-0.2,0.1-0.4,0.2-0.4,0.4c-0.1,0.7,0.1,1.8-0.3,1.9L33.7,73c-0.4,0-0.8,0-1.1,0l-2.8-0.3c-0.4,0-0.2-1.2-0.3-1.9
		c0-0.2-0.2-0.4-0.4-0.4c-3.4-1.1-7.9-2.1-13.3-2.4c-5.5-0.3-10.2,0.4-13.8,1.1c0,0-0.1,0-0.1,0c-0.2,0-0.3,0.2-0.3,0.3
		c-0.3,1-0.5,2.3-0.5,3.8c3.5-1.1,8.1-2.2,13.6-2.5c5-0.3,9.3,0,12.8,0.6c0.3,0,0.6,0.3,0.6,0.7v2c0,0.3,0.2,0.5,0.5,0.6H33h4.7
		c0.3,0,0.5-0.3,0.5-0.6v-2c0-0.3,0.2-0.6,0.6-0.7c3.4-0.5,7.8-0.9,12.8-0.6c5.5,0.4,10.1,1.4,13.6,2.5
		C65.3,71.8,65.1,70.5,64.8,69.5z"/>
	<path class="st0" d="M63,66.2c-1.7-1.5-6.7-5-13.6-3.7c-1.2,0.2-2.4,0.6-3.6,0.9c0,0,0,0-0.1,0c3.6-1.9,6.6-4.6,9-7.8
		c0.2-0.3,0.4-0.6,0.6-0.8c0.6-0.2,1.1-0.3,1.6-0.5c2.9-1,4.7-2,5.4-3.2c0.7-1.2,0.3-2.4-1.1-3.5c-0.4-0.3-0.8-0.6-1.4-0.8
		c-0.3-0.2-0.6-0.3-0.9-0.4c0-0.2,0.1-0.4,0.2-0.6c0.4-1.8,0.6-3.7,0.6-5.7c0-2.6-0.4-5.1-1.1-7.4c-0.1-0.7-0.3-1.4-0.7-2.1
		c-3.8-10-13.5-17.1-24.8-17.1c-11.3,0-20.9,7-24.8,17l-0.2,0.2v0.2c-0.4,0.6-0.5,1.2-0.6,1.9c-0.7,2.4-1.1,4.9-1.1,7.4
		c0,2,0.2,4,0.6,5.9c0,0.2,0.1,0.4,0.2,0.6c-0.4,0.2-0.8,0.3-1.2,0.5c-1.1,0.5-2,1.2-2.4,2c-0.3,0.5-0.3,1.1-0.1,1.6
		c0.6,1.4,2.5,2.5,5.8,3.6c0.5,0.2,0.9,0.3,1.4,0.4c0.2,0.3,0.4,0.6,0.6,0.8c2.4,3.3,5.4,6,9,8c0,0,0,0-0.1,0
		c-1.2-0.4-2.4-0.7-3.6-0.9c-7-1.4-11.9,2.2-13.6,3.7c-0.4,0.3-0.7,0.7-1,1.2c0,0,5.3-1.2,11.9-1.2c3.2,0,7.4,0.6,10.1,1.2
		c6.6,1.5,7.3,3.1,7.4,3.7c0,0.1,0.1,0.2,0.2,0.2h2.6c0.1,0,0.2-0.1,0.2-0.2c0-0.6,0.8-2.2,7.4-3.7c2.7-0.6,6.9-1.2,10.1-1.2
		c6.6,0,11.9,1.2,11.9,1.2C63.7,67,63.4,66.6,63,66.2z M57.4,36.2c0.2,1.2,0.3,2.6,0.3,3.8c0,1.7-0.2,3.4-0.5,5
		c0,0.2-0.1,0.4-0.2,0.6c-0.8-0.2-1.6-0.5-2.6-0.7c-0.8-0.2-1.6-0.3-2.4-0.5c0-0.2,0-0.4,0.1-0.6c0.2-1.4,0.2-2.8,0.2-4.2
		C54.7,38.7,56.3,37.5,57.4,36.2z M49.4,21.6c3,2.6,5.2,5.9,6.7,9.6v0.1l0.1,0.1c0.2,0.5,0.4,1,0.5,1.5V33c0,1.6-1.6,3.2-4.4,4.6
		c-0.4-5-2.1-10.2-5.1-14.3C48,22.8,48.8,22.2,49.4,21.6z M43.7,43c0-0.3,0-0.6,0-0.8c0,0,0,0,0,0c2.4-0.4,4.6-1,6.6-1.7
		c0,1,0,2.1-0.2,3.2c0,0.2,0,0.4-0.1,0.6c-2-0.3-4.2-0.5-6.5-0.6C43.7,43.4,43.7,43.2,43.7,43z M41.2,25.5c0.1,0,0.2,0,0.2,0
		c1.7-0.4,3.2-0.9,4.5-1.6c2.7,4.2,4.1,9.3,4.4,14.4c-1.9,0.7-4.1,1.3-6.5,1.7c0,0,0,0,0,0C43.7,35.1,42.9,30.1,41.2,25.5z
		 M37.9,15.9c3.6,0.7,7,2.3,9.9,4.4c-0.5,0.5-1.2,0.9-1.9,1.3C43.8,19.1,41.1,17.1,37.9,15.9z M35.4,15.6c0.7,0.1,1.4,0.2,2,0.3
		c1.5,0.8,2.8,1.8,4,2.8c1.2,1.1,2.3,2.3,3.3,3.6c-1.1,0.5-2.4,1-3.8,1.3c-0.2,0-0.3,0.1-0.5,0.1C39.2,20.7,37.5,17.9,35.4,15.6z
		 M35.4,15.6c1.6,2.6,2.9,5.4,3.8,8.4c-1.7,0.3-3.6,0.5-5.5,0.5c-0.2-3-0.3-6-0.6-9C33.9,15.4,34.7,15.5,35.4,15.6z M33,15.4
		c-0.2,3-0.4,6-0.6,9c-1.9,0-3.8-0.2-5.5-0.5c1-2.9,2.2-5.7,3.8-8.4C31.6,15.5,32.3,15.4,33,15.4z M28.7,15.8
		c0.7-0.1,1.4-0.2,2.1-0.3c-2.1,2.4-3.8,5.1-5.1,8.1c-0.2,0-0.3-0.1-0.5-0.1c-1.4-0.4-2.7-0.8-3.8-1.3
		C23.4,19.7,25.8,17.5,28.7,15.8z M28.2,15.9c-3.1,1.1-5.8,3.2-7.9,5.7c-0.7-0.4-1.4-0.8-1.9-1.3C21.3,18.2,24.6,16.7,28.2,15.9z
		 M9.6,33c0.2-0.5,0.3-1,0.5-1.6l0.1-0.2v-0.1c1.4-3.7,3.8-7,6.7-9.6c0.6,0.6,1.4,1.2,2.2,1.6c-0.4,0.5-0.7,1-1,1.6
		c-2.3,3.8-3.7,8.2-4,12.7C11.2,36.2,9.6,34.6,9.6,33z M12.8,53.9c-0.1,0-0.1,0-0.2,0c-0.2,0-0.3-0.1-0.5-0.1
		c-0.2,0-0.4-0.1-0.7-0.2h0c-0.2,0-0.4-0.1-0.6-0.2l-0.1,0c-0.1,0-0.3-0.1-0.4-0.1c-0.1,0-0.1,0-0.2,0c0,0-0.1,0-0.1,0
		c-0.7-0.2-1.3-0.4-1.9-0.6c-1.2-0.4-2.1-0.9-2.7-1.4c-0.6-0.5-0.9-1-0.8-1.5c0-0.6,0.6-1.3,1.6-2c0.4-0.2,0.8-0.5,1.3-0.7
		c0,0.2,0.1,0.4,0.2,0.6c0.5,1.6,1.2,3.2,1.9,4.7c0.8,0.2,1.7,0.5,2.7,0.7c-1.2-1.9-2.2-4-2.8-6.2c-0.1-0.2-0.1-0.4-0.2-0.6
		c0.2-0.1,0.3-0.1,0.5-0.2c0.1,0,0.1-0.1,0.1-0.2c0-0.1-0.1-0.2-0.2-0.1c-0.2,0-0.3,0.1-0.5,0.1c0-0.2-0.1-0.4-0.2-0.6
		c-0.4-1.7-0.6-3.5-0.6-5.3c0-1.3,0.1-2.6,0.3-3.8c1,1.3,2.8,2.4,5,3.4c-0.1,4.8,0.9,9.5,3,13.8c0.1,0.2,0.2,0.4,0.3,0.6
		c0.6,0.1,1.2,0.2,1.8,0.2c-0.2-0.5-0.4-1-0.6-1.4c-1.6-3.8-2.4-8.1-2.4-12.4c2,0.7,4.2,1.2,6.6,1.6c0.1,2.2,0.3,4.4,0.6,6.5
		c0.4,2.1,0.9,4.2,1.5,6.2c0.5,0,1,0,1.4,0.1c-1-4-1.6-8.2-1.6-12.4c0.5,0.1,1,0.1,1.4,0.2l0-0.2c0,0,0-0.1,0-0.1l-0.2-0.4l-1.3-0.2
		l-0.8-0.1l-0.4,0c-0.1,0-0.2,0-0.4-0.1c-0.2,0-0.4-0.1-0.5-0.1c-0.5-0.2-1-0.4-1.3-0.6c-0.6-0.4-0.9-0.8-1-1.1
		c-1.5-0.4-2.9-0.8-4.2-1.2c0.3-5.2,1.8-10.2,4.4-14.4c1.3,0.6,2.8,1.2,4.5,1.6c0.1,0,0.1,0,0.2,0c-0.7,1.9-1.3,3.9-1.7,6
		c-0.4,2-0.7,4.1-0.8,6.2c0.1,0,0.2,0,0.4,0c0.4,0,0.7,0,1,0.1l0.6,0.1c0-0.4,0-0.8,0.1-1.1c0.3-3.7,0.8-7.4,1.8-10.9
		c1.9,0.4,3.9,0.6,6,0.6c-0.1,1.7-0.1,3.4-0.2,5.1c0.1,0,0.3-0.1,0.4-0.1c0,0,0.1,0,0.2,0l0.7,0.1c0.2,0,0.4,0.2,0.6,0.3
		c0-1.8-0.1-3.6-0.2-5.5c2,0,4.1-0.2,6-0.6c1,3.6,1.6,7.2,1.8,10.9c0.1,1.2,0.1,2.5,0.1,3.7c-1.4,0.2-2.8,0.3-4.2,0.4
		c0.1,0,0.2,0.1,0.3,0.2c0.3,0.2,0.4,0.6,0.4,0.9c-0.1,0.4-0.5,0.8-1,0.9c1.5-0.1,3-0.2,4.5-0.4c-0.1,4.2-0.6,8.3-1.6,12.4
		c0.5,0,1-0.1,1.5-0.1c1-3.1,1.7-6.5,2-9.9c0-0.2,0-0.4,0-0.6c1.7,0.2,3.3,0.4,4.8,0.7c0.5,0.1,1,0.2,1.6,0.3c0,0.2-0.1,0.4-0.1,0.6
		c-0.4,2.4-1,4.8-2,7c-0.2,0.4-0.4,0.8-0.6,1.3c0.4,0,0.8-0.1,1.2-0.2c0.2,0,0.4,0,0.6-0.1c1.2-2.4,2.1-5,2.6-7.7
		c0-0.2,0.1-0.4,0.1-0.6c1.6,0.4,3.4,0.8,4.8,1.4c0,0.2-0.1,0.4-0.2,0.6c-0.6,1.9-1.4,3.7-2.4,5.4c1-0.2,2-0.5,2.7-0.8
		c0.6-1.2,1.1-2.5,1.6-3.8c0.1-0.2,0.1-0.4,0.2-0.6c0.4,0.2,0.8,0.5,1.2,0.7c0.4,0.2,0.6,0.5,0.8,0.8c0.4,0.6,0.2,1.3-0.6,2
		c-0.8,0.6-2,1.2-3.6,1.8c-0.1,0-0.2,0-0.3,0.1c-0.1,0-0.2,0-0.3,0.1c-0.3,0.1-0.6,0.2-0.9,0.2c-0.1,0-0.2,0-0.3,0.1
		c0,0-0.1,0-0.2,0c0,0-0.1,0-0.2,0c-0.1,0-0.2,0-0.2,0.1c0,0-0.1,0-0.1,0c0,0,0,0-0.1,0c-0.1,0-0.2,0-0.3,0.1
		c-0.3,0.1-0.6,0.2-1,0.2c-1.2,0.2-2.4,0.5-3.8,0.7c0,0,0,0-0.1,0c-0.6,0.1-1.1,0.2-1.7,0.2c-1.9,0.2-3.8,0.4-5.8,0.6
		c-0.5,0-0.9,0.1-1.4,0.1c-2,0.1-4.1,0.2-6.2,0.2c-0.4,0-0.9,0-1.3,0c-1.4,0-3,0-4.5-0.1c-0.6,0-1.2,0-1.8-0.1c-0.5,0-1,0-1.4-0.1
		c-2-0.1-3.9-0.3-5.6-0.5c-0.6-0.1-1.2-0.1-1.7-0.2C15.8,54.5,14.3,54.3,12.8,53.9z M26.7,63.9c-4.8-1.3-9-4-12.1-7.6
		c-0.2-0.3-0.4-0.5-0.7-0.8c1.5,0.3,3,0.6,4.5,0.8c0.2,0.2,0.3,0.5,0.5,0.7c0.6,0.9,1.3,1.8,2.1,2.6C22.6,61.3,24.5,62.8,26.7,63.9z
		 M29.7,64.5c-1-0.2-2-0.4-3-0.6c-2.6-1.8-4.6-4.1-6.3-6.7c-0.2-0.2-0.3-0.5-0.4-0.7c1.8,0.2,3.6,0.4,5.4,0.5
		c0.1,0.2,0.2,0.4,0.3,0.7c0.2,0.5,0.4,1,0.6,1.4C27.3,61,28.4,62.8,29.7,64.5z M29.7,64.5c-0.6-1.1-1.1-2.2-1.6-3.4
		c-0.5-1.1-0.9-2.3-1.3-3.4c-0.1-0.2-0.2-0.4-0.2-0.7c2.1,0.1,4.1,0.2,5.8,0.2c0,0.2,0,0.4,0,0.6c0.1,2.3,0.3,4.6,0.4,6.9
		C31.9,64.7,30.8,64.6,29.7,64.5z M33.2,64.7c0.2-2.3,0.3-4.6,0.4-6.9c0-0.2,0-0.4,0-0.6c1.2,0,2.3,0,3.2,0c0.9,0,1.8-0.1,2.6-0.1
		c-0.1,0.2-0.1,0.4-0.2,0.7c-0.8,2.3-1.7,4.6-2.8,6.8C35.4,64.6,34.3,64.7,33.2,64.7z M39.5,63.9c-1,0.2-2,0.5-3,0.6h0c0,0,0,0,0,0
		c0.7-0.8,1.3-1.7,1.8-2.6c0.6-0.9,1.1-1.9,1.6-2.8c0.2-0.4,0.4-0.9,0.6-1.4c0.1-0.2,0.2-0.4,0.3-0.7c1.9-0.1,3.7-0.3,5.4-0.5
		c-0.2,0.2-0.3,0.5-0.4,0.7C44.1,59.8,42,62.1,39.5,63.9z M39.6,63.9c2.2-1,4.1-2.5,5.7-4.3c0.8-0.8,1.4-1.7,2.1-2.6
		c0.2-0.2,0.3-0.5,0.5-0.7c1.6-0.2,3-0.5,4.4-0.8c-0.2,0.3-0.4,0.5-0.7,0.8C48.4,59.9,44.3,62.6,39.6,63.9z"/>
	<path class="st0" d="M33.7,45.1l-1-2.1l0-0.1c-0.2,0-0.4,0-0.5,0c0,0,0,0.1,0,0.2c0,4,0.2,8,0.3,12h0.2c0.4,0,0.8,0,1.2,0
		c0.2-3.1,0.2-6.3,0.3-9.4C33.9,45.5,33.8,45.3,33.7,45.1z"/>
	<path class="st0" d="M32.5,36.5c0,0.2-0.2,0.4-0.4,0.6c0,0.7,0,1.4,0,2.1c0.4,0.1,0.8,0.2,1.1,0.2l0.9-1c0-1.7,0-3.5-0.1-5.2
		l-1.6,3C32.5,36.2,32.5,36.3,32.5,36.5z"/>
	<path class="st0" d="M26.9,42.5L26.9,42.5c-0.1,0-0.2,0-0.2,0.1l-0.2,1c0,0,0,0.1,0.1,0.1l0.8,0.1l0.6,1.4l-0.2,0
		c0,0-0.1,0-0.1,0.1l-0.2,1c0,0,0,0.1,0.1,0.1l0.9,0.2l1.2,2.8c0,0.1,0.1,0.2,0.2,0.2l0.7,0.1c0.1,0,0.1,0,0.1-0.1l-0.8-4.1h0.1
		c0,0,0.1,0,0.1,0c0,0,0,0,0,0c0,0,0-0.1-0.1-0.1l-0.2,0l-0.3-1.4l0.1-0.6l0.2,0c0,0,0.1,0,0.1,0c0,0,0,0,0,0c0,0,0-0.1-0.1-0.1
		l-0.2,0l0.2-1.3c0.4,0,0.8,0.1,1.2,0.2c0.8,0.1,1.5,0.2,2.1,0.2l1.2,2.7c0,0,0,0.1,0.1,0.1l0.4,0.1c0.1,0,0.2,0,0.2-0.2l-0.1-1.3
		h0.1c0,0,0.1,0,0.1,0c0,0,0,0,0,0c0,0,0-0.1-0.1-0.1h-0.1l0-0.9h0.1c0,0,0.1,0,0.1,0c0,0,0,0,0,0c0,0,0-0.1-0.1-0.1l-0.1,0V42
		c0.7,0,1.1-0.2,1.4-0.3l0.8,0.1c0.2,0,0.3,0,0.3-0.1c0,0,0-0.1-0.1-0.1c0,0-0.1-0.1-0.2-0.1l-0.8-0.1c-0.2-0.2-0.6-0.4-1.2-0.7
		l0.1-0.2l0.1,0c0.1,0,0.1,0,0.1,0c0,0,0,0,0,0c0,0,0,0-0.1,0h-0.1l0.3-0.9h0.1c0.1,0,0.1,0,0.1,0c0,0,0,0,0,0c0,0,0,0-0.1,0h-0.1
		l0.5-1.2c0-0.1,0-0.2-0.1-0.2L35.6,38c0,0-0.1,0-0.1,0l-2,2.2c-0.6-0.2-1.2-0.3-2-0.4c-0.4-0.1-0.8-0.1-1.2-0.2l0.2-1.3l0.2,0
		c0.1,0,0.1,0,0.1,0c0,0,0,0,0,0c0,0,0,0-0.1,0l-0.2,0l0.1-0.6l0.7-1.3l0.2,0c0.1,0,0.1,0,0.1,0c0,0,0,0,0,0c0,0,0,0-0.1,0h-0.1
		l2-3.6c0-0.1,0-0.1-0.1-0.2l-0.7-0.1c-0.1,0-0.2,0-0.3,0.1l-2,2.3l-0.8,0c0,0-0.1,0-0.1,0.1l-0.2,1c0,0,0,0.1,0.1,0.1l0.2,0l-1,1.1
		l-0.8-0.1c0,0-0.1,0-0.1,0.1l-0.2,1c0,0,0,0.1,0.1,0.1h0.1l-1,1.2c-1.7-0.3-2.9-0.4-2.9-0.4c-1.6-0.2-2.9,0.2-2.9,0.6
		c-0.1,0.4,1,1.2,2.6,1.4c0,0,1.2,0.2,2.9,0.4L26.9,42.5z"/>
	<path class="st0" d="M87.8,48.7h-3c-0.1-0.6-0.2-1.6-0.3-2.3c-1,2-3,2.6-5.5,2.6c-5.2,0-8-4.4-8-10.2c0-5.7,3.2-10.4,9.1-10.4
		c4.8,0,7.2,2.6,7.7,6h-4c-0.4-1.2-1.2-2.7-4-2.7c-3.5,0-4.7,3.3-4.7,7.1c0,3.8,1.3,6.9,4.7,6.9c3,0,3.9-2.1,3.9-4.6V41h-4.2v-3.4
		h8.2C87.8,44.9,87.8,48.1,87.8,48.7z"/>
	<path class="st0" d="M92.3,48.7V27.5h4v21.2L92.3,48.7L92.3,48.7z"/>
	<path class="st0" d="M114.2,41c0,4.4-2.1,8-7.2,8c-5.3,0-7.1-3.9-7.1-8c0-3.8,2.1-7.7,7.3-7.7C112,33.4,114.2,36.9,114.2,41z
		 M103.9,41c0,3.2,1.1,5,3.2,5c2,0,3.1-1.7,3.1-4.9c0-3-1-4.5-3.2-4.5C105,36.5,103.9,38.2,103.9,41z"/>
	<path class="st0" d="M117.7,27.5h4v7.8c0.6-1,1.8-1.9,4.2-1.9c3.9,0,5.8,3.4,5.8,7.3c0,4.8-2.2,8.3-6.4,8.3c-2.2,0-3.2-0.9-3.6-1.7
		c0,0.5,0,1-0.1,1.5h-3.8c0-1,0-3.1,0-4.6V27.5z M127.6,40.9c0-2.5-0.9-4.3-3.1-4.3c-2.4,0-3.1,1.6-3.1,4.5c0,3.1,0.8,4.7,3.1,4.7
		C126.6,45.8,127.6,43.9,127.6,40.9z"/>
	<path class="st0" d="M147,44.8c0,1,0.1,2.8,0.2,3.9h-3.5c-0.1-0.4-0.2-1.4-0.2-1.8c-0.6,1.2-2,2.1-4.2,2.1c-3.7,0-5-2.3-5-4.6
		c0-2.7,1.9-5,7.1-5c0.5,0,1.1,0,1.8,0v-1.1c0-1.2-0.4-2.2-2.2-2.2c-1.8,0-2.2,0.9-2.3,2h-3.8c0.2-2.4,1.6-4.8,6.2-4.8
		c3.6,0,6,1.2,6,5L147,44.8L147,44.8z M143.2,42c-0.5,0-1.1,0-1.8,0c-2.7,0-3.2,1.1-3.2,2.1s0.6,1.9,2.1,1.9c2.4,0,2.9-1.6,2.9-3.7
		V42z"/>
	<path class="st0" d="M151.4,48.7V27.5h4v21.2L151.4,48.7L151.4,48.7z"/>
	<path class="st0" d="M163.2,28.8v12.7c0,2.2,0.6,4.3,3.7,4.3s3.6-2,3.6-4.3V28.8h4.1v12.8c0,4.2-1.8,7.5-7.8,7.5
		c-5.9,0-7.7-3.2-7.7-7.4V28.8H163.2z"/>
	<path class="st0" d="M178.7,38.3c0-3.1,0-4,0-4.7h3.8c0,0.3,0.1,1.2,0.1,2c0.6-1.2,2-2.2,4.2-2.2c3.2,0,4.8,2,4.8,5.5v9.9h-4v-9.1
		c0-1.7-0.4-3-2.3-3c-1.8,0-2.7,1-2.7,3.7v8.4h-4V38.3z"/>
	<path class="st0" d="M196.1,33.7v15.1h4V33.7H196.1z"/>
	<path class="st0" d="M200,27.5h-4v3.6h4V27.5z"/>
	<path class="st0" d="M84.2,64.8c-0.4,2.7-2.2,5.2-6.3,5.2c-5,0-6.8-3.6-6.8-8.2c0-4.5,2.3-8.1,6.9-8.1c4.3,0,5.9,2.7,6.1,5.2h-3.2
		c-0.3-1.3-0.8-2.6-3-2.6c-2.6,0-3.5,2.7-3.5,5.5c0,3,0.8,5.6,3.5,5.6c2.1,0,2.8-1.5,3-2.6H84.2z"/>
	<path class="st0" d="M97.4,63.6c0,3.5-1.7,6.4-5.7,6.4c-4.2,0-5.6-3.1-5.6-6.3c0-3,1.7-6.1,5.8-6.1C95.7,57.5,97.4,60.4,97.4,63.6z
		 M89.2,63.6c0,2.6,0.9,3.9,2.6,3.9c1.6,0,2.4-1.4,2.4-3.9c0-2.4-0.8-3.6-2.5-3.6C90.1,60,89.2,61.4,89.2,63.6z"/>
	<path class="st0" d="M99.9,61.5c0-2.5,0-3.2,0-3.7h3.1c0,0.2,0.1,1,0.1,1.6c0.5-0.9,1.6-1.8,3.3-1.8c2.5,0,3.8,1.6,3.8,4.4v7.8H107
		v-7.2c0-1.4-0.3-2.4-1.8-2.4c-1.4,0-2.1,0.8-2.1,2.9v6.7h-3.2V61.5z"/>
	<path class="st0" d="M115.4,66.1c0.1,1,0.9,1.6,2,1.6c1.1,0,1.7-0.4,1.7-1.2c0-0.8-0.7-1.1-2.5-1.6c-3.2-0.9-3.9-2-3.9-3.7
		c0-1.5,1-3.6,4.6-3.6c3.2,0,4.5,1.6,4.6,3.6h-3.1c-0.1-0.6-0.5-1.4-1.8-1.4c-0.8,0-1.3,0.4-1.3,1c0,0.6,0.5,1,2.2,1.4
		c3.3,0.8,4.2,2,4.2,3.9c0,2.4-2,3.8-4.9,3.8c-2.9,0-4.8-1.3-5-3.9H115.4z"/>
	<path class="st0" d="M134.5,66.2c0,1.7,0,2.9,0,3.5h-3c-0.1-0.4-0.1-0.9-0.1-1.4c-0.7,1.2-1.8,1.6-3.3,1.6c-2.4,0-3.7-1.5-3.7-4.2
		v-8h3.1v7.4c0,1.3,0.4,2.1,1.7,2.1c1.3,0,2.1-0.8,2.1-2.9v-6.7h3.2L134.5,66.2L134.5,66.2z"/>
	<path class="st0" d="M137.7,69.8V52.9h3.2v16.8H137.7z"/>
	<path class="st0" d="M142.7,57.7h1.7v-3.2h3.1v3.2h2.1v2.4h-2.1v6.2c0,0.8,0.2,1.2,1.2,1.2c0.3,0,0.4,0,0.7,0v2.2
		c-0.6,0.2-1.5,0.2-1.9,0.2c-2.3,0-3.1-0.9-3.1-3.2v-6.5h-1.7V57.7z"/>
	<path class="st0" d="M161.1,66.6c0,0.8,0,2.2,0.2,3.1h-2.7c-0.1-0.4-0.2-1.1-0.2-1.4c-0.5,1-1.6,1.6-3.4,1.6c-3,0-4-1.8-4-3.6
		c0-2.2,1.5-3.9,5.6-3.9c0.4,0,0.8,0,1.4,0v-0.9c0-1-0.3-1.7-1.7-1.7c-1.4,0-1.7,0.7-1.8,1.6h-3c0.1-1.9,1.2-3.8,4.9-3.8
		c2.8,0,4.8,1,4.8,3.9V66.6z M158.1,64.4c-0.4,0-0.9,0-1.4,0c-2.2,0-2.6,0.9-2.6,1.7s0.5,1.5,1.7,1.5c1.9,0,2.3-1.2,2.3-2.9V64.4z"
		/>
	<path class="st0" d="M164.3,61.5c0-2.5,0-3.2,0-3.7h3.1c0,0.2,0.1,1,0.1,1.6c0.5-0.9,1.6-1.8,3.3-1.8c2.5,0,3.8,1.6,3.8,4.4v7.8
		h-3.2v-7.2c0-1.4-0.3-2.4-1.8-2.4c-1.4,0-2.1,0.8-2.1,2.9v6.7h-3.2V61.5z"/>
	<path class="st0" d="M187.6,65.6c-0.4,2.4-1.9,4.4-5.2,4.4c-3.7,0-5.4-2.3-5.4-6.2c0-3.8,2.1-6.2,5.6-6.2c3.9,0,5,2.8,5,4.5h-3.1
		c-0.1-1.1-0.6-2.1-2-2.1c-1.6,0-2.3,1.5-2.3,3.7c0,2.8,0.8,3.9,2.2,3.9c1.4,0,1.8-0.9,2-2L187.6,65.6L187.6,65.6z"/>
	<path class="st0" d="M192,57.7c1.4,5.1,2.2,7.9,2.4,9.2h0c0.3-1.5,1.4-5.6,2.4-9.2h3.2L196,70.2c-1.2,3.8-2.7,4.3-4.8,4.3
		c-0.2,0-0.8,0-1.2-0.1v-2.6c0.3,0,0.8,0.1,1.1,0.1c1,0,1.5-0.6,1.8-1.6l-4.2-12.5H192z"/>
</g>
</svg>
