<?xml version="1.0" encoding="utf-8"?>
<!-- Generator: Adobe Illustrator 26.0.1, SVG Export Plug-In . SVG Version: 6.00 Build 0)  -->
<svg version="1.1" id="Layer_1" xmlns="http://www.w3.org/2000/svg" xmlns:xlink="http://www.w3.org/1999/xlink" x="0px" y="0px"
	 viewBox="0 0 171 37" style="enable-background:new 0 0 171 37;" xml:space="preserve">
<style type="text/css">
	.st0{fill:#E5E5E5;}
	.st1{opacity:0.9;fill:#E5E5E5;enable-background:new    ;}
</style>
<g>
	<path class="st0" d="M20,5.2c0,0,12,11.2,8.2,16.7c-4.8,7-11.3,16.9-21.4,13.1c-1.1-0.4-1.9-1.6-1.8-2.8c0.2-3.9,1.6-13,8.3-20.5
		c0,0,1.8,3.8,1.6,5.9C15,17.7,18.1,15.7,20,5.2z"/>
	<path class="st1" d="M12.5,0.2c0,0,5,7,2,35.2c0,0-12.3,3.5-14.3-5C-1.8,21.8,11.8,3.9,12.5,0.2z"/>
	<path class="st0" d="M33.6,25c-0.1,0-0.3-0.1-0.3-0.2c0-0.1,0.1-0.2,0.2-0.3s0.6-0.4,0.8-0.9l3.5-8.7c0.1-0.3,0.4-0.5,0.8-0.5h1.1
		c0.4,0,0.6,0.2,0.8,0.5l3.7,8.9c0.2,0.4,0.4,0.6,0.5,0.7c0.1,0.1,0.2,0.2,0.2,0.3c0,0.1-0.1,0.2-0.3,0.2h-4.4
		c-0.1,0-0.3-0.1-0.3-0.2c0-0.1,0.1-0.2,0.3-0.3c0.2-0.1,0.4-0.3,0.2-0.8l-0.7-1.8h-4.3l-0.5,1.4c-0.3,0.8,0.2,1,0.6,1.2
		c0.2,0.1,0.3,0.2,0.3,0.3c0,0.1-0.1,0.2-0.3,0.2H33.6z M35.7,21.5h4l-2-5.4L35.7,21.5z M45.7,25c-0.1,0-0.3-0.1-0.3-0.2
		c0-0.1,0.1-0.3,0.3-0.5c0.3-0.3,0.4-0.7,0.4-2v-6.7c0-0.4-0.2-0.6-0.3-0.8c-0.1-0.1-0.2-0.2-0.2-0.3c0-0.1,0.1-0.2,0.3-0.2h3
		c0.4,0,0.6,0.1,0.8,0.4l4.8,7.5v-4.6c0-1.7-0.3-2.2-0.9-2.6c-0.4-0.3-0.5-0.3-0.5-0.5c0-0.1,0.1-0.2,0.3-0.2h1.9
		c0.1,0,0.3,0.1,0.3,0.2c0,0.1-0.1,0.3-0.3,0.5c-0.3,0.3-0.4,0.7-0.4,2v7.4c0,0.4-0.2,0.7-0.7,0.7h-1.1c-0.4,0-0.6-0.1-0.8-0.4
		l-5.7-8.8v5.9c0,1.7,0.3,2.2,0.9,2.6c0.4,0.3,0.5,0.3,0.5,0.5c0,0.1-0.1,0.2-0.3,0.2H45.7z M59.3,25c-0.1,0-0.3-0.1-0.3-0.2
		c0-0.1,0.1-0.2,0.2-0.3c0.1-0.1,0.3-0.3,0.3-0.7v-9.2h-0.1c-1.3,0-1.8,1.3-2.2,2.5c-0.2,0.6-0.4,1.1-0.7,1.1
		c-0.2,0-0.3-0.1-0.3-0.3v-3c0-0.4,0.2-0.6,0.6-0.6h8.8c0.4,0,0.6,0.2,0.6,0.6v3c0,0.2-0.1,0.3-0.3,0.3c-0.3,0-0.5-0.5-0.7-1.1
		c-0.4-1.2-0.9-2.5-2.2-2.5h-0.1v9.2c0,0.4,0.1,0.6,0.3,0.7c0.1,0.1,0.2,0.2,0.2,0.3c0,0.1-0.1,0.2-0.3,0.2H59.3z M74,25
		c-0.1,0-0.3-0.1-0.3-0.2c0-0.1,0.1-0.2,0.2-0.3c0.1-0.1,0.3-0.3,0.3-0.7v-4h-3v4c0,0.4,0.1,0.6,0.3,0.7c0.1,0.1,0.2,0.2,0.2,0.3
		c0,0.1-0.1,0.2-0.3,0.2h-4c-0.1,0-0.3-0.1-0.3-0.2c0-0.1,0.1-0.2,0.2-0.3c0.1-0.1,0.3-0.3,0.3-0.7v-8.2c0-0.4-0.1-0.6-0.3-0.7
		c-0.1-0.1-0.2-0.2-0.2-0.3c0-0.1,0.1-0.2,0.3-0.2h4c0.1,0,0.3,0.1,0.3,0.2c0,0.1-0.1,0.2-0.2,0.3c-0.1,0.1-0.3,0.3-0.3,0.7v3.9h3
		v-3.9c0-0.4-0.1-0.6-0.3-0.7c-0.1-0.1-0.2-0.2-0.2-0.3c0-0.1,0.1-0.2,0.3-0.2h4c0.1,0,0.3,0.1,0.3,0.2c0,0.1-0.1,0.2-0.2,0.3
		c-0.1,0.1-0.3,0.3-0.3,0.7v8.2c0,0.4,0.1,0.6,0.3,0.7c0.1,0.1,0.2,0.2,0.2,0.3c0,0.1-0.1,0.2-0.3,0.2H74z M79.7,25
		c-0.1,0-0.3-0.1-0.3-0.2c0-0.1,0.1-0.2,0.2-0.3c0.1-0.1,0.3-0.3,0.3-0.7v-8.2c0-0.4-0.1-0.6-0.3-0.7c-0.1-0.1-0.2-0.2-0.2-0.3
		c0-0.1,0.1-0.2,0.3-0.2h7.9c0.4,0,0.6,0.2,0.6,0.6v2.8c0,0.2-0.1,0.3-0.2,0.3c-0.2,0-0.4-0.3-0.7-1.1c-0.4-1-0.9-2.3-2.4-2.3h-1.5
		v4.7h0.6c1,0,1.5-0.6,1.7-1.2c0.1-0.3,0.3-0.5,0.5-0.5c0.2,0,0.3,0.1,0.3,0.3V21c0,0.2-0.1,0.3-0.3,0.3c-0.2,0-0.3-0.2-0.5-0.5
		c-0.3-0.6-0.8-1.2-1.7-1.2h-0.6v4.4c0,0.5,0.3,0.8,0.8,0.8H85c1.5,0,2.1-1.3,2.5-2.4c0.3-0.9,0.5-1.2,0.8-1.2
		c0.1,0,0.2,0.1,0.2,0.3v3c0,0.4-0.2,0.6-0.6,0.6H79.7z M89.6,25c-0.1,0-0.3-0.1-0.3-0.2c0-0.1,0.1-0.3,0.3-0.5
		c0.3-0.3,0.4-0.7,0.4-2v-6.8c0-0.4-0.1-0.6-0.3-0.7c-0.1-0.1-0.2-0.2-0.2-0.3c0-0.1,0.1-0.2,0.3-0.2h3c0.4,0,0.7,0.2,0.8,0.6
		l2.1,7.2l2.1-7.2c0.1-0.4,0.4-0.5,0.8-0.5h3.3c0.1,0,0.3,0.1,0.3,0.2c0,0.1-0.1,0.2-0.2,0.3c-0.1,0.1-0.3,0.3-0.3,0.7v8.2
		c0,0.4,0.1,0.6,0.3,0.7c0.1,0.1,0.2,0.2,0.2,0.3c0,0.1-0.1,0.2-0.3,0.2H98c-0.1,0-0.3-0.1-0.3-0.2c0-0.1,0.1-0.2,0.2-0.3
		c0.1-0.1,0.3-0.3,0.3-0.7v-8.1l-3,8.8c-0.1,0.3-0.4,0.5-0.7,0.5h-0.4c-0.4,0-0.6-0.2-0.7-0.5l-3-8.7v6c0,1.7,0.3,2.2,0.9,2.6
		c0.4,0.3,0.5,0.3,0.5,0.5c0,0.1-0.1,0.2-0.3,0.2H89.6z M106.8,25c-0.1,0-0.3-0.1-0.3-0.2c0-0.1,0.1-0.2,0.2-0.3
		c0.1-0.1,0.3-0.3,0.3-0.7v-8.2c0-0.4-0.1-0.6-0.3-0.7c-0.1-0.1-0.2-0.2-0.2-0.3c0-0.1,0.1-0.2,0.3-0.2h7.9c0.4,0,0.6,0.2,0.6,0.6
		v2.8c0,0.2-0.1,0.3-0.2,0.3c-0.2,0-0.4-0.3-0.7-1.1c-0.4-1-0.9-2.3-2.4-2.3h-1.5v4.7h0.6c1,0,1.5-0.6,1.7-1.2
		c0.1-0.3,0.3-0.5,0.5-0.5c0.2,0,0.3,0.1,0.3,0.3V21c0,0.2-0.1,0.3-0.3,0.3c-0.2,0-0.3-0.2-0.5-0.5c-0.3-0.6-0.8-1.2-1.7-1.2h-0.6
		v4.4c0,0.5,0.3,0.8,0.8,0.8h0.8c1.5,0,2.1-1.3,2.5-2.4c0.3-0.9,0.5-1.2,0.8-1.2c0.1,0,0.2,0.1,0.2,0.3v3c0,0.4-0.2,0.6-0.6,0.6
		H106.8z M116.6,25c-0.1,0-0.3-0.1-0.3-0.2c0-0.1,0.1-0.3,0.3-0.5c0.3-0.3,0.4-0.7,0.4-2v-6.7c0-0.4-0.2-0.6-0.3-0.8
		c-0.1-0.1-0.2-0.2-0.2-0.3c0-0.1,0.1-0.2,0.3-0.2h3c0.4,0,0.6,0.1,0.8,0.4l4.8,7.5v-4.6c0-1.7-0.3-2.2-0.9-2.6
		c-0.4-0.3-0.5-0.3-0.5-0.5c0-0.1,0.1-0.2,0.3-0.2h1.9c0.1,0,0.3,0.1,0.3,0.2c0,0.1-0.1,0.3-0.3,0.5c-0.3,0.3-0.4,0.7-0.4,2v7.4
		c0,0.4-0.2,0.7-0.7,0.7h-1.1c-0.4,0-0.6-0.1-0.8-0.4l-5.7-8.8v5.9c0,1.7,0.3,2.2,0.9,2.6c0.4,0.3,0.5,0.3,0.5,0.5
		c0,0.1-0.1,0.2-0.3,0.2H116.6z M127.7,25c-0.1,0-0.3-0.1-0.3-0.2c0-0.1,0.1-0.2,0.2-0.3c0.1-0.1,0.3-0.3,0.3-0.7v-8.2
		c0-0.4-0.1-0.6-0.3-0.7c-0.1-0.1-0.2-0.2-0.2-0.3c0-0.1,0.1-0.2,0.3-0.2h7.9c0.4,0,0.6,0.2,0.6,0.6v2.8c0,0.2-0.1,0.3-0.2,0.3
		c-0.2,0-0.4-0.3-0.7-1.1c-0.4-1-0.9-2.3-2.4-2.3h-1.5v4.7h0.6c1,0,1.5-0.6,1.7-1.2c0.1-0.3,0.3-0.5,0.5-0.5c0.2,0,0.3,0.1,0.3,0.3
		V21c0,0.2-0.1,0.3-0.3,0.3c-0.2,0-0.3-0.2-0.5-0.5c-0.3-0.6-0.8-1.2-1.7-1.2h-0.6v4.4c0,0.5,0.3,0.8,0.8,0.8h0.8
		c1.5,0,2.1-1.3,2.5-2.4c0.3-0.9,0.5-1.2,0.8-1.2c0.1,0,0.2,0.1,0.2,0.3v3c0,0.4-0.2,0.6-0.6,0.6H127.7z M137.7,25
		c-0.1,0-0.3-0.1-0.3-0.2c0-0.1,0.1-0.2,0.2-0.3c0.1-0.1,0.3-0.3,0.3-0.7v-8.2c0-0.4-0.1-0.6-0.3-0.7c-0.1-0.1-0.2-0.2-0.2-0.3
		c0-0.1,0.1-0.2,0.3-0.2h5.6c2.5,0,4.2,1.1,4.2,2.8c0,1.3-0.9,2.3-2.4,2.8l2.1,3.2c0.4,0.6,0.8,0.9,1,1c0.2,0.1,0.2,0.2,0.2,0.3
		c0,0.4-0.8,0.7-1.8,0.7c-1.4,0-2.7-0.7-3.4-1.9l-1.7-2.9h-0.2v3.4c0,0.4,0.1,0.6,0.3,0.7c0.1,0.1,0.2,0.2,0.2,0.3
		c0,0.1-0.1,0.2-0.3,0.2H137.7z M141.5,20h1.2c1,0,1.4-0.9,1.4-1.9c0-1.3-0.6-3.6-2.4-3.6h-0.1V20z M154.4,25.1
		c-3.7,0-5.9-2.2-5.9-5.4c0-3.4,2.3-5.6,5.9-5.6c2.6,0,4.4,1.2,4.4,2.7c0,0.8-0.5,1.3-1.5,1.3c-1.1,0-1.8-0.7-2.1-1.6
		c-0.3-0.9-0.8-2.1-1.7-2.1c-1.2,0-1.7,1.8-1.7,3.9c0,2.3,1,6.5,3.6,6.5v-4.1c0-0.4-0.1-0.6-0.3-0.7c-0.1-0.1-0.2-0.2-0.2-0.3
		c0-0.1,0.1-0.2,0.3-0.2h3.9c0.1,0,0.3,0.1,0.3,0.2c0,0.1-0.1,0.2-0.2,0.3c-0.1,0.1-0.3,0.3-0.3,0.7v2.5
		C158.9,24.2,156.8,25.1,154.4,25.1z M162.7,25c-0.1,0-0.3-0.1-0.3-0.2c0-0.1,0.1-0.2,0.2-0.3c0.1-0.1,0.3-0.3,0.3-0.7v-3.3l-2.7-5
		c-0.1-0.3-0.5-0.6-0.7-0.7c-0.1-0.1-0.2-0.2-0.2-0.3c0-0.1,0.1-0.2,0.3-0.2h4.7c0.1,0,0.3,0.1,0.3,0.2c0,0.1-0.1,0.2-0.3,0.3
		c-0.2,0.1-0.5,0.3-0.2,0.8l2.3,4.5l1.9-4.1c0.3-0.7,0-1.1-0.3-1.2c-0.2-0.1-0.3-0.2-0.3-0.3c0-0.1,0.1-0.2,0.3-0.2h2
		c0.1,0,0.3,0.1,0.3,0.2c0,0.2-0.2,0.3-0.4,0.4c-0.2,0.1-0.5,0.4-0.7,0.8l-2.6,4.7v3.3c0,0.4,0.1,0.6,0.3,0.7
		c0.1,0.1,0.2,0.2,0.2,0.3c0,0.1-0.1,0.2-0.3,0.2H162.7z"/>
	<path class="st0" d="M35.5,35.3c-1.2,0-1.9-0.6-1.9-1.1c0-0.2,0.1-0.3,0.3-0.3c0.2,0,0.3,0.2,0.4,0.4
		C34.5,34.7,34.7,35.2,35.5,35.3c0.8-0.1,1.3-0.5,1.3-1c0-0.7-0.7-0.9-1.4-1.1c-0.8-0.2-1.6-0.4-1.6-1.3c0-0.8,0.7-1.3,1.7-1.3
		c1.1,0,1.6,0.5,1.6,1c0,0.2-0.1,0.3-0.3,0.3c-0.2,0-0.3-0.2-0.4-0.4c-0.1-0.4-0.3-0.8-1-0.8c-0.7,0-1.1,0.4-1.1,0.9
		c0,0.7,0.7,0.9,1.4,1.1c0.8,0.2,1.6,0.4,1.6,1.3C37.3,34.8,36.5,35.3,35.5,35.3z M42.2,35.3c-1.4,0-2.3-1-2.3-2.4s0.9-2.4,2.3-2.4
		c1.4,0,2.3,1,2.3,2.4S43.6,35.3,42.2,35.3z M40.6,32.6c0,1.4,0.8,2.6,1.9,2.6c0.8,0,1.4-0.8,1.4-2c0-1.3-0.7-2.6-1.9-2.6
		C41.2,30.6,40.6,31.4,40.6,32.6z M47.4,35.2C47.3,35.2,47.3,35.2,47.4,35.2c-0.1-0.1-0.1-0.1,0-0.2c0,0,0.1-0.1,0.1-0.3V31
		c0-0.2-0.1-0.2-0.1-0.3c0,0-0.1-0.1-0.1-0.1c0,0,0-0.1,0.1-0.1h0.8c0,0,0.1,0,0.1,0.1c0,0,0,0.1-0.1,0.1c0,0-0.1,0.1-0.1,0.3v3.9
		c0,0.1,0.1,0.2,0.2,0.2h1.2c0.4,0,0.6-0.4,0.7-0.7c0.1-0.2,0.1-0.3,0.2-0.3c0.1,0,0.1,0,0.1,0.1V35c0,0.1-0.1,0.2-0.2,0.2H47.4z
		 M55,35.3c-1.1,0-1.8-0.6-1.8-1.6V31c0-0.2-0.1-0.2-0.1-0.3c0,0-0.1-0.1-0.1-0.1c0,0,0-0.1,0.1-0.1h0.8c0,0,0.1,0,0.1,0.1
		c0,0,0,0.1-0.1,0.1s-0.1,0.1-0.1,0.3v2.6c0,0.8,0.6,1.4,1.4,1.4c0.9,0,1.4-0.5,1.4-1.4v-2.2c0-0.4-0.1-0.6-0.3-0.7
		c-0.1,0-0.1-0.1-0.1-0.1c0,0,0-0.1,0.1-0.1H57c0,0,0.1,0,0.1,0.1s0,0.1-0.1,0.1c-0.1,0.1-0.1,0.1-0.1,0.5v2.4
		C56.8,34.6,56.1,35.3,55,35.3z M61.2,35.2C61.1,35.2,61.1,35.2,61.2,35.2c-0.1-0.1-0.1-0.1,0-0.2c0,0,0.1-0.1,0.1-0.3v-4.1h-0.6
		c-0.4,0-0.6,0.4-0.7,0.7c-0.1,0.2-0.1,0.3-0.2,0.3c-0.1,0-0.1,0-0.1-0.1v-0.8c0-0.1,0.1-0.2,0.2-0.2h3.4c0.2,0,0.2,0.1,0.2,0.2v0.8
		c0,0.1,0,0.1-0.1,0.1c-0.1,0-0.1-0.1-0.2-0.3c-0.1-0.3-0.3-0.7-0.7-0.7h-0.6v4.1c0,0.2,0.1,0.2,0.1,0.3c0,0,0.1,0.1,0.1,0.1
		c0,0,0,0.1-0.1,0.1H61.2z M66.4,35.2C66.3,35.2,66.3,35.2,66.4,35.2c-0.1-0.1-0.1-0.1,0-0.2c0,0,0.1-0.1,0.1-0.3V31
		c0-0.2-0.1-0.2-0.1-0.3c0,0-0.1-0.1-0.1-0.1c0,0,0-0.1,0.1-0.1h0.8c0,0,0.1,0,0.1,0.1c0,0,0,0.1-0.1,0.1s-0.1,0.1-0.1,0.3v3.8
		c0,0.2,0.1,0.2,0.1,0.3c0,0,0.1,0.1,0.1,0.1c0,0,0,0.1-0.1,0.1H66.4z M72.4,35.3c-1.4,0-2.3-1-2.3-2.4s0.9-2.4,2.3-2.4
		c1.4,0,2.3,1,2.3,2.4S73.7,35.3,72.4,35.3z M70.7,32.6c0,1.4,0.8,2.6,1.9,2.6c0.8,0,1.4-0.8,1.4-2c0-1.3-0.7-2.6-1.9-2.6
		C71.3,30.6,70.7,31.4,70.7,32.6z M77.4,35.2C77.4,35.2,77.4,35.2,77.4,35.2c-0.1-0.1,0-0.2,0-0.2c0.1,0,0.1-0.1,0.1-0.5V31
		c0-0.2-0.1-0.2-0.1-0.3c0,0-0.1-0.1-0.1-0.1c0,0,0-0.1,0.1-0.1h0.6c0.1,0,0.2,0,0.2,0.1l2.7,4v-3.3c0-0.4-0.1-0.6-0.3-0.7
		c-0.1,0-0.1-0.1-0.1-0.1c0,0,0-0.1,0.1-0.1h0.7c0,0,0.1,0,0.1,0.1s0,0.1-0.1,0.1c-0.1,0-0.1,0.1-0.1,0.5v3.8c0,0.1-0.1,0.2-0.2,0.2
		h-0.2c-0.1,0-0.2,0-0.2-0.1L77.7,31v3.4c0,0.4,0.1,0.6,0.3,0.7c0.1,0,0.1,0.1,0.1,0.1c0,0,0,0.1-0.1,0.1H77.4z M87.9,35.2
		C87.9,35.2,87.8,35.2,87.9,35.2c-0.1-0.1-0.1-0.1,0-0.2c0,0,0.1-0.1,0.1-0.3V31c0-0.2-0.1-0.2-0.1-0.3c0,0-0.1-0.1-0.1-0.1
		c0,0,0-0.1,0.1-0.1h3c0.2,0,0.2,0.1,0.2,0.2v0.7c0,0.1,0,0.1-0.1,0.1c-0.1,0-0.1-0.1-0.2-0.3c-0.1-0.3-0.3-0.6-0.7-0.6h-1.5v2.1
		h1.3c0.3,0,0.4-0.2,0.5-0.3c0-0.1,0.1-0.2,0.2-0.2c0.1,0,0.1,0,0.1,0.1v0.9c0,0.1,0,0.1-0.1,0.1c-0.1,0-0.1-0.1-0.2-0.2
		c-0.1-0.2-0.2-0.3-0.5-0.3h-1.3v1.9c0,0.2,0.1,0.2,0.2,0.3c0.1,0,0.1,0.1,0.1,0.1c0,0,0,0.1-0.1,0.1H87.9z M95.9,35.3
		c-1.4,0-2.3-1-2.3-2.4s0.9-2.4,2.3-2.4c1.4,0,2.3,1,2.3,2.4S97.3,35.3,95.9,35.3z M94.3,32.6c0,1.4,0.8,2.6,1.9,2.6
		c0.8,0,1.4-0.8,1.4-2c0-1.3-0.7-2.6-1.9-2.6C94.9,30.6,94.3,31.4,94.3,32.6z M101.1,35.2C101.1,35.2,101,35.2,101.1,35.2
		c-0.1-0.1-0.1-0.1,0-0.2c0,0,0.1-0.1,0.1-0.3V31c0-0.2-0.1-0.2-0.1-0.3c0,0-0.1-0.1-0.1-0.1c0,0,0-0.1,0.1-0.1h2.2
		c0.9,0,1.5,0.5,1.5,1.3c0,0.7-0.5,1.2-1.3,1.3l1.1,1.5c0.2,0.2,0.3,0.3,0.4,0.3c0.1,0,0.1,0,0.1,0.1c0,0.1-0.1,0.2-0.3,0.2
		c-0.3,0-0.6-0.2-0.8-0.5l-1.2-1.6h-0.9v1.5c0,0.2,0.1,0.2,0.1,0.3c0,0,0.1,0.1,0.1,0.1c0,0,0,0.1-0.1,0.1H101.1z M101.9,33.2h1.2
		c0.8,0,1.1-0.5,1.1-1.1c0-0.6-0.4-1.3-1-1.3h-1.2V33.2z M111.4,35.2C111.3,35.2,111.3,35.2,111.4,35.2c-0.1-0.1-0.1-0.1,0-0.2
		c0,0,0.1-0.1,0.1-0.3V31c0-0.2-0.1-0.2-0.1-0.3c0,0-0.1-0.1-0.1-0.1c0,0,0-0.1,0.1-0.1h0.8c0,0,0.1,0,0.1,0.1c0,0,0,0.1-0.1,0.1
		c0,0-0.1,0.1-0.1,0.3v3.8c0,0.2,0.1,0.2,0.1,0.3c0,0,0.1,0.1,0.1,0.1c0,0,0,0.1-0.1,0.1H111.4z M115.3,35.2
		C115.2,35.2,115.2,35.2,115.3,35.2c-0.1-0.1,0-0.2,0-0.2c0.1,0,0.1-0.1,0.1-0.5V31c0-0.2-0.1-0.2-0.1-0.3c0,0-0.1-0.1-0.1-0.1
		c0,0,0-0.1,0.1-0.1h0.6c0.1,0,0.1,0,0.2,0.1l2.7,4v-3.3c0-0.4-0.1-0.6-0.3-0.7c-0.1,0-0.1-0.1-0.1-0.1c0,0,0-0.1,0.1-0.1h0.7
		c0,0,0.1,0,0.1,0.1s0,0.1-0.1,0.1c-0.1,0-0.1,0.1-0.1,0.5v3.8c0,0.1-0.1,0.2-0.2,0.2h-0.2c-0.1,0-0.2,0-0.2-0.1l-2.8-4.2v3.4
		c0,0.4,0.1,0.6,0.3,0.7c0.1,0,0.1,0.1,0.1,0.1c0,0,0,0.1-0.1,0.1H115.3z M122.1,35.2C122.1,35.2,122.1,35.2,122.1,35.2
		c-0.1-0.1-0.1-0.1,0-0.2c0,0,0.1-0.1,0.1-0.3V31c0-0.2-0.1-0.2-0.1-0.3c0,0-0.1-0.1-0.1-0.1c0,0,0-0.1,0.1-0.1h1.9
		c1.3,0,2.2,0.9,2.2,2.3c0,1.4-0.9,2.3-2.3,2.3H122.1z M122.9,34.8c0.3,0.2,0.6,0.3,1,0.3c1.1,0,1.7-0.9,1.7-2
		c0-1.2-0.6-2.4-1.7-2.4h-1V34.8z M131,35.3c-1.1,0-1.8-0.6-1.8-1.6V31c0-0.2-0.1-0.2-0.1-0.3c0,0-0.1-0.1-0.1-0.1
		c0,0,0-0.1,0.1-0.1h0.8c0,0,0.1,0,0.1,0.1c0,0,0,0.1-0.1,0.1s-0.1,0.1-0.1,0.3v2.6c0,0.8,0.6,1.4,1.4,1.4c0.9,0,1.4-0.5,1.4-1.4
		v-2.2c0-0.4-0.1-0.6-0.3-0.7c-0.1,0-0.1-0.1-0.1-0.1c0,0,0-0.1,0.1-0.1h0.7c0,0,0.1,0,0.1,0.1s0,0.1-0.1,0.1
		c-0.1,0.1-0.1,0.1-0.1,0.5v2.4C132.8,34.6,132.1,35.3,131,35.3z M137.6,35.3c-1.2,0-1.9-0.6-1.9-1.1c0-0.2,0.1-0.3,0.3-0.3
		c0.2,0,0.3,0.2,0.4,0.4C136.6,34.7,136.8,35.2,137.6,35.3c0.8-0.1,1.3-0.5,1.3-1c0-0.7-0.7-0.9-1.4-1.1c-0.8-0.2-1.6-0.4-1.6-1.3
		c0-0.8,0.7-1.3,1.7-1.3c1.1,0,1.6,0.5,1.6,1c0,0.2-0.1,0.3-0.3,0.3c-0.2,0-0.3-0.2-0.4-0.4c-0.1-0.4-0.3-0.8-1-0.8
		c-0.7,0-1.1,0.4-1.1,0.9c0,0.7,0.7,0.9,1.4,1.1c0.8,0.2,1.6,0.4,1.6,1.3C139.4,34.8,138.7,35.3,137.6,35.3z M143.5,35.2
		C143.5,35.2,143.4,35.2,143.5,35.2c-0.1-0.1-0.1-0.1,0-0.2c0,0,0.1-0.1,0.1-0.3v-4.1H143c-0.4,0-0.6,0.4-0.7,0.7
		c-0.1,0.2-0.1,0.3-0.2,0.3c-0.1,0-0.1,0-0.1-0.1v-0.8c0-0.1,0.1-0.2,0.2-0.2h3.4c0.1,0,0.2,0.1,0.2,0.2v0.8c0,0.1,0,0.1-0.1,0.1
		c-0.1,0-0.1-0.1-0.2-0.3c-0.1-0.3-0.3-0.7-0.7-0.7h-0.6v4.1c0,0.2,0.1,0.2,0.1,0.3c0,0,0.1,0.1,0.1,0.1c0,0,0,0.1-0.1,0.1H143.5z
		 M148.7,35.2C148.7,35.2,148.6,35.2,148.7,35.2c-0.1-0.1-0.1-0.1,0-0.2c0,0,0.1-0.1,0.1-0.3V31c0-0.2-0.1-0.2-0.1-0.3
		c0,0-0.1-0.1-0.1-0.1c0,0,0-0.1,0.1-0.1h2.2c0.9,0,1.5,0.5,1.5,1.3c0,0.7-0.5,1.2-1.3,1.3l1.1,1.5c0.2,0.2,0.3,0.3,0.4,0.3
		c0.1,0,0.1,0,0.1,0.1c0,0.1-0.1,0.2-0.3,0.2c-0.3,0-0.6-0.2-0.8-0.5l-1.2-1.6h-0.9v1.5c0,0.2,0.1,0.2,0.1,0.3c0,0,0.1,0.1,0.1,0.1
		c0,0,0,0.1-0.1,0.1H148.7z M149.4,33.2h1.2c0.8,0,1.1-0.5,1.1-1.1c0-0.6-0.4-1.3-1-1.3h-1.2V33.2z M155.4,35.2
		C155.3,35.2,155.3,35.2,155.4,35.2c-0.1-0.1-0.1-0.1,0-0.2c0,0,0.1-0.1,0.1-0.3V31c0-0.2-0.1-0.2-0.1-0.3c0,0-0.1-0.1-0.1-0.1
		c0,0,0-0.1,0.1-0.1h0.8c0,0,0.1,0,0.1,0.1c0,0,0,0.1-0.1,0.1s-0.1,0.1-0.1,0.3v3.8c0,0.2,0.1,0.2,0.1,0.3c0,0,0.1,0.1,0.1,0.1
		c0,0,0,0.1-0.1,0.1H155.4z M159.4,35.2C159.3,35.2,159.3,35.2,159.4,35.2c-0.1-0.1-0.1-0.1,0-0.2c0,0,0.1-0.1,0.1-0.3V31
		c0-0.2-0.1-0.2-0.1-0.3s-0.1-0.1-0.1-0.1c0,0,0-0.1,0.1-0.1h3.1c0.2,0,0.2,0.1,0.2,0.2v0.7c0,0.1,0,0.1-0.1,0.1
		c-0.1,0-0.1-0.1-0.2-0.3c-0.1-0.3-0.3-0.6-0.7-0.6h-1.6v2.1h1.3c0.3,0,0.4-0.2,0.5-0.3c0-0.1,0.1-0.2,0.2-0.2c0.1,0,0.1,0,0.1,0.1
		v0.9c0,0.1,0,0.1-0.1,0.1c-0.1,0-0.1-0.1-0.2-0.2c-0.1-0.2-0.2-0.3-0.5-0.3h-1.3v2c0,0.1,0.1,0.2,0.2,0.2h1.5
		c0.4,0,0.6-0.4,0.7-0.7c0.1-0.2,0.1-0.3,0.2-0.3c0.1,0,0.1,0,0.1,0.1V35c0,0.1-0.1,0.2-0.2,0.2H159.4z M167.3,35.3
		c-1.2,0-1.9-0.6-1.9-1.1c0-0.2,0.1-0.3,0.3-0.3c0.2,0,0.3,0.2,0.4,0.4C166.3,34.7,166.5,35.2,167.3,35.3c0.8-0.1,1.3-0.5,1.3-1
		c0-0.7-0.7-0.9-1.4-1.1c-0.8-0.2-1.6-0.4-1.6-1.3c0-0.8,0.7-1.3,1.7-1.3c1.1,0,1.6,0.5,1.6,1c0,0.2-0.1,0.3-0.3,0.3
		c-0.2,0-0.3-0.2-0.4-0.4c-0.1-0.4-0.3-0.8-1-0.8c-0.7,0-1.1,0.4-1.1,0.9c0,0.7,0.7,0.9,1.4,1.1c0.8,0.2,1.6,0.4,1.6,1.3
		C169.1,34.8,168.3,35.3,167.3,35.3z"/>
</g>
</svg>
