<?xml version="1.0" encoding="utf-8"?>
<!-- Generator: Adobe Illustrator 26.0.1, SVG Export Plug-In . SVG Version: 6.00 Build 0)  -->
<svg version="1.1" id="Layer_1" xmlns="http://www.w3.org/2000/svg" xmlns:xlink="http://www.w3.org/1999/xlink" x="0px" y="0px"
	 viewBox="0 0 133 44" style="enable-background:new 0 0 133 44;" xml:space="preserve">
<style type="text/css">
	.st0{fill:#E5E5E5;}
</style>
<g>
	<path class="st0" d="M54.6,13.2v4.2H52V6h3.8c0.7,0,1.4,0.1,2.1,0.3c0.5,0.1,1,0.4,1.4,0.7c0.4,0.3,0.6,0.7,0.8,1.1
		c0.2,0.4,0.3,0.9,0.3,1.3c0,0.4,0,0.7-0.1,1.1c-0.1,0.3-0.3,0.6-0.4,0.9c-0.2,0.3-0.4,0.5-0.7,0.7c-0.3,0.2-0.6,0.4-1,0.5
		c0.2,0.1,0.3,0.2,0.5,0.3c0.2,0.1,0.3,0.3,0.4,0.5l2.4,4H59c-0.2,0-0.4,0-0.6-0.1c-0.2-0.1-0.3-0.2-0.4-0.4l-1.9-3.3
		c-0.1-0.1-0.2-0.2-0.3-0.3c-0.1-0.1-0.3-0.1-0.5-0.1L54.6,13.2z M54.6,11.3h1.1c0.3,0,0.6,0,0.9-0.1c0.2-0.1,0.4-0.2,0.6-0.4
		c0.2-0.2,0.3-0.4,0.4-0.6c0.1-0.2,0.1-0.5,0.1-0.7c0-0.2,0-0.4-0.1-0.6c-0.1-0.2-0.2-0.4-0.4-0.5c-0.4-0.3-1-0.5-1.5-0.4h-1.1V11.3
		z"/>
	<path class="st0" d="M69.8,6v2h-4.7v2.7h3.6v1.9h-3.6v2.7h4.7v2h-7.4V6H69.8z"/>
	<path class="st0" d="M81.9,17.4h-2.1c-0.2,0-0.4,0-0.6-0.2c-0.1-0.1-0.3-0.2-0.3-0.4l-0.7-1.9H74l-0.7,1.9
		c-0.1,0.2-0.2,0.3-0.3,0.4c-0.2,0.1-0.4,0.2-0.6,0.2h-2L74.8,6h2.7L81.9,17.4z M74.6,13h3.1l-1.1-3.1l-0.2-0.7
		c-0.1-0.3-0.2-0.6-0.3-0.9C76.1,8.7,76,9,75.9,9.2c-0.1,0.3-0.2,0.5-0.2,0.7L74.6,13z"/>
	<path class="st0" d="M85.5,15.3h4.2v2.1h-6.9V6h2.6V15.3z"/>
	<path class="st0" d="M104.4,11.7c0,0.8-0.1,1.6-0.4,2.3c-0.3,0.7-0.7,1.3-1.2,1.8c-0.5,0.5-1.2,0.9-1.9,1.2
		c-0.8,0.3-1.6,0.4-2.4,0.4H94V6h4.4c0.8,0,1.7,0.1,2.4,0.4c0.7,0.3,1.3,0.7,1.9,1.2c0.5,0.5,0.9,1.1,1.2,1.8
		C104.3,10.1,104.4,10.9,104.4,11.7 M101.7,11.6c0-0.5-0.1-1-0.2-1.5c-0.1-0.4-0.3-0.8-0.6-1.2c-0.3-0.3-0.6-0.6-1-0.7
		C99.4,8.1,99,8,98.5,8h-1.8v7.3h1.8c0.5,0,0.9-0.1,1.4-0.3c0.4-0.2,0.7-0.4,1-0.7c0.3-0.3,0.5-0.7,0.6-1.2
		C101.6,12.7,101.7,12.2,101.7,11.6z"/>
	<path class="st0" d="M113,6v2h-4.7v2.7h3.6v1.9h-3.6v2.7h4.7v2h-7.4V6H113z"/>
	<path class="st0" d="M125.2,17.4h-2.1c-0.2,0-0.4,0-0.6-0.2c-0.1-0.1-0.3-0.2-0.3-0.4l-0.7-1.9h-4.3l-0.7,1.9
		c-0.1,0.2-0.2,0.3-0.3,0.4c-0.2,0.1-0.4,0.2-0.6,0.2h-2.1L118,6h2.7L125.2,17.4z M117.8,13h3.1l-1.1-3.1c-0.1-0.2-0.1-0.4-0.2-0.7
		c-0.1-0.3-0.2-0.6-0.3-0.9c-0.1,0.3-0.2,0.6-0.3,0.9s-0.2,0.5-0.2,0.7L117.8,13z"/>
	<path class="st0" d="M128.8,15.3h4.2v2.1h-6.9V6h2.7V15.3z"/>
	<path class="st0" d="M77.3,23.9V26h-3.2v9.3h-2.6V26h-3.2v-2.1H77.3z"/>
	<path class="st0" d="M87.8,35.3h-2.1c-0.2,0-0.4,0-0.6-0.2c-0.1-0.1-0.3-0.2-0.3-0.4l-0.7-1.9h-4.3l-0.7,1.9
		c-0.1,0.2-0.2,0.3-0.3,0.4c-0.2,0.1-0.4,0.2-0.6,0.2h-2.1l4.4-11.4h2.7L87.8,35.3z M80.4,30.9h3.1l-1.1-3.1
		c-0.1-0.2-0.1-0.4-0.2-0.7c-0.1-0.3-0.2-0.6-0.3-0.9c-0.1,0.3-0.2,0.6-0.3,0.9c-0.1,0.3-0.2,0.5-0.2,0.7L80.4,30.9z"/>
	<path class="st0" d="M91.5,29.4L88,23.9h2.6c0.1,0,0.3,0,0.4,0.1c0.1,0.1,0.2,0.1,0.2,0.2l2.3,3.8l0.1-0.2l0.1-0.2l2-3.4
		c0-0.1,0.1-0.2,0.2-0.2s0.2-0.1,0.3-0.1h2.5l-3.6,5.4l3.7,6h-2.6c-0.1,0-0.2-0.1-0.3-0.1c-0.1-0.1-0.2-0.2-0.3-0.3l-2.3-4
		c0,0.1-0.1,0.2-0.1,0.3L91,34.9c-0.1,0.1-0.2,0.2-0.3,0.3c-0.1,0.1-0.2,0.1-0.4,0.1h-2.5L91.5,29.4z"/>
	<path class="st0" d="M107.2,23.9v2h-4.7v2.7h3.6v2h-3.6v2.7h4.7v2h-7.4V23.9H107.2z"/>
	<path class="st0" d="M115.1,26.2c-0.1,0.1-0.1,0.2-0.2,0.3c-0.1,0.1-0.2,0.1-0.3,0.1c-0.1,0-0.3,0-0.4-0.1l-0.5-0.3
		c-0.2-0.1-0.4-0.2-0.6-0.3c-0.2-0.1-0.5-0.1-0.8-0.1c-0.4,0-0.8,0.1-1.1,0.3c-0.1,0.1-0.2,0.2-0.3,0.4c-0.1,0.1-0.1,0.3-0.1,0.5
		c0,0.1,0,0.2,0,0.3c0,0.1,0.1,0.2,0.2,0.3c0.2,0.2,0.4,0.3,0.6,0.4c0.3,0.1,0.5,0.2,0.8,0.3c0.3,0.1,0.6,0.2,1,0.3
		c0.3,0.1,0.7,0.2,1,0.4c0.3,0.1,0.6,0.3,0.8,0.6c0.2,0.2,0.4,0.5,0.6,0.9c0.2,0.4,0.2,0.8,0.2,1.2c0,0.5-0.1,1-0.3,1.5
		c-0.2,0.5-0.4,0.9-0.8,1.2c-0.4,0.4-0.8,0.6-1.3,0.8c-0.6,0.2-1.1,0.3-1.7,0.3c-0.4,0-0.7,0-1.1-0.1c-0.4-0.1-0.7-0.2-1.1-0.3
		c-0.3-0.1-0.7-0.3-1-0.5c-0.3-0.2-0.6-0.4-0.8-0.6l0.8-1.2c0.1-0.1,0.1-0.2,0.2-0.2c0.1-0.1,0.2-0.1,0.3-0.1c0.2,0,0.3,0.1,0.5,0.2
		l0.5,0.3c0.2,0.1,0.5,0.2,0.7,0.3c0.3,0.1,0.6,0.2,0.9,0.1c0.4,0,0.8-0.1,1.1-0.3c0.1-0.1,0.2-0.3,0.3-0.4c0.1-0.2,0.1-0.3,0.1-0.5
		c0-0.2-0.1-0.5-0.2-0.7c-0.2-0.2-0.4-0.3-0.6-0.4c-0.3-0.1-0.5-0.2-0.8-0.3c-0.3-0.1-0.6-0.2-1-0.3c-0.3-0.1-0.6-0.2-0.9-0.4
		c-0.3-0.1-0.6-0.3-0.8-0.6c-0.3-0.3-0.4-0.6-0.6-0.9c-0.2-0.4-0.2-0.9-0.2-1.3c0-0.4,0.1-0.9,0.3-1.2c0.2-0.4,0.4-0.8,0.8-1.1
		c0.4-0.3,0.8-0.6,1.2-0.8c0.5-0.2,1.1-0.3,1.7-0.3c0.3,0,0.7,0,1,0.1c0.3,0.1,0.7,0.1,1,0.2c0.3,0.1,0.6,0.2,0.8,0.4
		c0.2,0.1,0.5,0.3,0.7,0.5L115.1,26.2z"/>
</g>
<path class="st0" d="M20.5,5.1c0,0,15.6,15,24,3.7c0,0-2.7,33.2-32.8,34.9C11.7,43.7,40.8,34,20.5,5.1"/>
<path class="st0" d="M18.4,7.2c0,0,18.5,22.4-6.7,33.9c0,0,19-10.6,6.6-29.2c0,0-1,5.1-9,7.7c0,0,7.8,7.7,5,16.9
	c0,0,1.5-10.1-10.9-18.7C3.5,17.9,14.6,19.7,18.4,7.2z"/>
<path class="st0" d="M0.3,24.9c0,0,9,1.8,12,7.7c0,0,0.6-5.3-6.6-10.6L0.3,24.9z"/>
<path class="st0" d="M0.3,31.1l2.4-3.7c3.1,1.3,5.9,3.1,8.4,5.3C11.1,32.7,5.6,29.7,0.3,31.1"/>
<path class="st0" d="M40.6,4.6c0,1.2-0.5,2.4-1.4,3.3c-0.9,0.9-2.1,1.4-3.3,1.4c-1.2,0-2.4-0.5-3.3-1.4c-0.9-0.9-1.4-2-1.4-3.3
	c0-1.2,0.5-2.4,1.4-3.3C33.5,0.5,34.7,0,35.9,0c1.2,0,2.4,0.5,3.3,1.4C40.1,2.2,40.6,3.4,40.6,4.6z"/>
<path class="st0" d="M18.5,25.7c-0.4,0.2-0.8,0.4-1.3,0.5c-0.4,0.1-0.8,0.1-1.1,0.1L16,25.2c0.3,0,0.7,0,1,0c0.3-0.1,0.7-0.2,1-0.3
	c0.2-0.1,0.4-0.2,0.5-0.4c0.1-0.1,0.2-0.2,0.2-0.4c0-0.1,0-0.2,0-0.3c0-0.1-0.1-0.1-0.1-0.2c-0.1,0-0.1-0.1-0.2-0.1
	c-0.2,0-0.4,0-0.5,0l-0.7,0.2l-0.7,0.2c-0.2,0-0.5,0-0.7,0c-0.2,0-0.5-0.1-0.7-0.2c-0.2-0.1-0.4-0.3-0.5-0.6
	c-0.2-0.3-0.2-0.6-0.2-0.9c0-0.4,0.2-0.7,0.4-1c0.3-0.4,0.7-0.7,1.1-0.9c0.3-0.2,0.6-0.3,1-0.4c0.3-0.1,0.6-0.1,1-0.1l0.1,1.1
	c-0.3,0-0.6,0-0.9,0.1c-0.3,0.1-0.5,0.2-0.8,0.3c-0.2,0.1-0.4,0.2-0.5,0.4c-0.1,0.1-0.2,0.2-0.2,0.4c0,0.1,0,0.2,0.1,0.3
	c0,0.1,0.1,0.1,0.1,0.2c0.1,0,0.1,0.1,0.2,0.1c0.2,0,0.4,0,0.5,0l0.7-0.2l0.7-0.2c0.2,0,0.5,0,0.7,0c0.2,0,0.5,0.1,0.7,0.2
	c0.2,0.1,0.4,0.3,0.5,0.6c0.2,0.3,0.2,0.6,0.2,0.9c0,0.4-0.2,0.7-0.4,1C19.3,25.3,18.9,25.6,18.5,25.7 M18.6,26.7l-3.7-6.9l0.7-0.4
	l3.7,6.9L18.6,26.7z"/>
</svg>
