<?xml version="1.0" encoding="utf-8"?>
<!-- Generator: Adobe Illustrator 26.0.1, SVG Export Plug-In . SVG Version: 6.00 Build 0)  -->
<svg version="1.1" id="Layer_1" xmlns="http://www.w3.org/2000/svg" xmlns:xlink="http://www.w3.org/1999/xlink" x="0px" y="0px"
	 viewBox="0 0 595.3 595.3" style="enable-background:new 0 0 595.3 595.3;" xml:space="preserve">
<style type="text/css">
	.st0{fill:#FF0808;}
</style>
<g>
	<circle class="st0" cx="293" cy="310.1" r="25.3"/>
	<g>
		<path d="M32.1,251.1H59c26.5,0,41.7,16.7,41.7,45.9c0,29.2-15.2,45.9-41.7,45.9H32.1V251.1z M87.7,297c0-22.4-10.2-35-28.7-35
			H44.7v70H59C77.4,332,87.7,319.4,87.7,297z"/>
		<path d="M167.2,312.7h-44.8c0.8,14,8,21.2,18.2,21.2c8.7,0,14.8-5.2,15.1-11.7h11.7c-0.9,12.6-11.1,21.9-26.7,21.9
			c-18.2,0-29.5-12.7-29.5-34.1c0-21.4,10-34.1,28.1-34.1s28.1,11.4,28.1,32.8V312.7z M155.7,302.9c-1.4-11.5-7.2-16.7-16.5-16.7
			c-8.9,0-14.7,5.6-16.4,16.7H155.7z"/>
		<path d="M224.5,325.4c0,13-10.5,18.8-23.1,18.8c-13.9,0-23.2-8.1-24.3-23.2h11.1c0.3,8.9,5.5,13,13.8,13c6.7,0,11.3-2.6,11.3-7.9
			c0-4.9-3.9-8.7-11.9-11.5c-13.8-5-20.1-11.5-20.1-21.4c0-10.9,8.3-17.2,20.1-17.2s19.8,6.7,20.3,19.1h-11.1
			c-0.7-5.8-3.8-8.9-9.4-8.9c-5.1,0-8.4,2.2-8.4,7.3c0,4.9,2.9,8,11.5,11.1C218.5,309.8,224.5,316,224.5,325.4z"/>
		<path d="M237,251.1h12.1v14.4H237V251.1z M237.7,277.3h10.8v65.6h-10.8V277.3z"/>
		<path d="M312.9,286.5v-9.2h10.8v76c0,6.3-4.2,10.5-10.5,10.5h-44.8V354h44.6v-20.3c-5.1,6.7-12.7,10.5-21.8,10.5
			c-17.3,0-29-13.8-29-34.1c0-20.2,11.8-34.1,29-34.1C300.2,276,307.8,279.8,312.9,286.5z M312.7,310.1c0-14.8-7.6-23.9-19.9-23.9
			c-12.2,0-19.4,8.9-19.4,23.9c0,14.9,7.2,23.9,19.4,23.9C305,334,312.7,324.9,312.7,310.1z"/>
		<path d="M389.1,342.9h-10.8v-55.7h-28.2v55.7h-10.8v-65.6h39.2c6.3,0,10.5,4.2,10.5,10.5V342.9z"/>
		<path d="M454.5,342.9h-10.8v-55.7h-28.2v55.7h-10.8v-98.3h10.8v32.8H444c6.3,0,10.5,4.2,10.5,10.5V342.9z"/>
		<path d="M470.2,277.3H481V333h28.2v-55.7h10.8v65.6h-39.2c-6.3,0-10.5-4.2-10.5-10.5V277.3z"/>
		<path d="M540,287.1h-8.9v-9.8c5.1,0,8.9-4.9,8.9-14.6h10.8v14.6h11.8v9.8h-11.8V333h17v9.8h-17.3c-6.3,0-10.5-4.2-10.5-10.5V287.1
			z"/>
	</g>
</g>
</svg>
