<?xml version="1.0" encoding="UTF-8"?>
<svg xmlns="http://www.w3.org/2000/svg" version="1.1"  width="208" height="43"  viewBox="0 0 624 128">
  <defs>
    <style>
      .cls-1 {
        fill: #fff;
      }
    </style>
  </defs>
  <!-- Generator: Adobe Illustrator 28.6.0, SVG Export Plug-In . SVG Version: 1.2.0 Build 709)  -->
  <g>
    <g id="Layer_1">
      <path class="cls-1" d="M281.8,94.2c-1.5.9-2.9,1.7-4.4,2.5-15.4,8.9-30.8,17.8-46.2,26.7-1.4.8-1,.8-2.4,0-16.5-9.5-32.9-19-49.4-28.5-.4-.2-.8-.5-1.2-.7,0-.4,0-.9,0-1.3,0-19.1,0-38.1,0-57.2,0-.9.3-1.4,1.1-1.9,16.5-9.5,33.1-19.1,49.6-28.6.3-.2.7-.4,1.1-.6,1.6.9,3.3,1.9,4.9,2.8,15.3,8.8,30.5,17.6,45.8,26.4.7.4,1.1.9,1.1,1.8,0,19.2,0,38.4,0,57.5v1.1ZM261.1,83.6c-.4.2-.6.4-.9.5-.7.2-1.1.6-1.1,1.4,0,.4-.2.8-.4,1.1-.5.6-.6,1.2-.6,1.9,0,.4.1.8.2,1.2.4,2.4-.8,3.6-3.1,3.2-1-.2-2-.5-2.9-.7-2.9-.9-5.9-1.7-8.8-2.6-1-.3-1-.3-1.6.5-3.5,4.6-7,9.3-10.5,13.9-.4.5-.6,1-.5,1.7,0,2.3,0,4.7,0,7,0,.3,0,.6,0,1,.3-.2.6-.3.8-.4,13.5-7.8,27-15.6,40.5-23.4.6-.3.8-.7.8-1.4,0-15.8,0-31.5,0-47.3,0-.3,0-.5-.1-1-6.5,3.9-12.8,7.7-19.3,11.6.3.4.6.8.8,1.1,1,1.6,2.2,3.2,3.1,4.9,1.3,2.4,2.1,4.9,2.3,7.6,0,1.7,0,3.4-.8,5-.8,1.4-.5,2.6.3,3.8,1,1.4,2,2.9,2.9,4.3.2.3.3.5.4.8-.9.8-1.7,1.6-2.5,2.4.3.7.6,1.3.9,2ZM202.1,50c-3.6-2.5-14.1-8.5-14.9-8.7v46.2c4.7-2.9,9.3-5.7,13.9-8.6-.2-1.6-.3-3.1-.5-4.6,0-.8-.4-1.4-1.1-1.8-.6-.4-1.3-.9-1.9-1.3-.2-.1-.4-.3-.7-.6.9-.2,1.6-.3,2.3-.4,5.4-1,10.8-2,16.3-3,.7-.1,1.4-.2,2.1-1-.6,0-.9-.1-1.3-.1-1.7,0-3.3,0-5,0-1.4,0-1.7-.2-2.3-1.5-.5-1.3-1.1-2.5-1.6-3.8-.4-1-1.1-1.4-2.1-1.6-2.2-.4-4.4-1-6.6-1.5-.2,0-.4-.2-.7-.3.9-.6,1.7-1.2,2.5-1.7.7-.5,1.1-1.1,1.2-2,.1-1.2.3-2.5.4-3.8ZM230.8,15.4c0,2.2,0,4.2,0,6.2,0,.3.3.7.5.9,6.8,9,13.6,17.9,20.4,26.9.2.2.3.5.3.7,4.2-2.2,18.2-10.8,18.8-11.5-13.2-7.7-26.5-15.3-40-23.1ZM275.1,90.6c-14.8,8.5-29.5,17.1-44.2,25.5v4.9c16.3-9.4,32.5-18.7,48.6-28,.3-3.9.1-55.4-.2-56.5-1,.6-2,1.3-3,1.8-.9.5-1.2,1-1.2,2.1,0,16.2,0,32.3,0,48.5v1.8ZM187.8,89.8c13.6,7.8,27,15.6,40.5,23.4v-5.9c-3.1-.9-6.2-1.8-9.3-2.6-2.1-.5-3.6-1.6-4.5-3.5-.4-.9-.9-1.7-1.4-2.6-.6-1-1.4-1.8-2.6-2-1-.2-1.4-.8-1.5-1.7-.2-1.5-.6-2.9-.9-4.4-.1-.8-.5-1.3-1.3-1.6-1.3-.4-1.9-1.4-2-2.7,0-.7,0-1.4,0-2,0-1.5-.4-2.8-1.8-3.7-5,3.1-10,6.2-15.2,9.4ZM228.4,16c-13.4,7.7-26.6,15.4-40,23.1,5.2,3.1,10.2,6.1,15.1,9,1.7-.9,2.5-2.3,2.5-4.2,0-.6,0-1.3,0-1.9.1-1.4.7-2.4,2-2.9.8-.3,1.1-.8,1.3-1.6.3-1.5.6-3.1.9-4.6.1-.8.5-1.3,1.3-1.4,1.4-.2,2.4-1.1,3-2.4.4-.8.9-1.6,1.3-2.5.9-1.8,2.3-2.8,4.2-3.3,2.5-.6,5-1.4,7.4-2.1.3,0,.6-.2.9-.3v-5ZM230.8,7.7c0,1.5,0,2.8,0,4,0,1,.3,1.6,1.2,2.1,11.9,6.9,23.9,13.8,35.8,20.6,1.7,1,3.5,2,5.2,3,1.5-.9,2.9-1.8,4.5-2.7-15.6-9-31.1-17.9-46.8-27ZM181.8,35.1c1.3.8,2.5,1.4,3.6,2.1.7.5,1.3.4,2.1,0,10.6-6.1,21.2-12.3,31.8-18.4,2.8-1.6,5.6-3.2,8.4-4.8.4-.2.8-.3.8-.9,0-1.6,0-3.1,0-4.9-15.6,9-31,17.9-46.6,26.9ZM180.7,37.2c-.3,3.4-.2,53.2.1,54.2,1.1-.7,2.1-1.4,3.2-1.9.8-.4,1.1-1,1-1.9,0-15.4,0-30.9,0-46.3,0-.3,0-.7,0-1,0-.2-.1-.5-.3-.6-1.3-.8-2.6-1.6-4-2.4ZM181.9,93.5c1.2,1,45.5,26.5,46.4,26.8v-4.6c-.4-.2-.8-.5-1.1-.7-12.4-7.2-24.9-14.4-37.3-21.6-1.1-.6-2.2-1.3-3.4-1.9-.3-.2-.7-.3-1-.2-1.2.7-2.4,1.4-3.6,2.2ZM249.8,52.6c1.3-1.1,1.3-1.4.5-2.5,0,0,0-.1-.1-.2-2.8-3.6-5.5-7.2-8.3-10.9-3.9-5.2-7.8-10.3-11.7-15.5-.8-1.1-.9-1.1-2.1-.7-2.5.8-5,1.5-7.5,2.3-.3,0-.6.2-1,.4,10.2,9.1,20.3,18.1,30.3,27.2ZM249,54c-.5-.4-.9-.8-1.3-1.2-5.8-5.2-11.6-10.4-17.5-15.7-2.2-2-4.5-4-6.7-6.1-1.2-1.1-2.4-1.3-3.9-.7-1.7.7-3.5,1.2-5.3,1.8-.4.1-.9.3-1.5.5,11.6,7.8,23,15.4,34.5,23.1.6-.6,1.1-1.2,1.7-1.8ZM256.4,84.2c.9-.4,1.7-.8,2.6-1.2-.3-.7-.6-1.4-.9-2.1,1-.6,1.8-1.1,2.8-1.7-.7-1-1.2-1.9-1.9-2.8-.6-.9-1.1-1.9-2-2.7-2,1.3-4.1,1.7-6.4,1.1.1-.5.2-.8.3-1.2.9,0,1.6,0,2.4,0,1.6,0,2.9-.8,3.7-2.2,1.6-2.8,1.6-5.7.7-8.8-.2,0-.3.1-.4.2-2.6,2.2-5.5,3.8-8.6,5.1-.5.2-1,.6-1.4,1.1-1.4,1.7-2,3.5-1.2,5.7.9,2.3,2.3,4.1,4.6,5.2,2.4,1.1,3.9,3,4.1,5.7,0,.9,0,1.8,0,2.6-.1,1.1-.3,2.1-.5,3.3.3,0,.5,0,.8,0,1.8,0,2-.2,1.8-1.9-.2-1.4-.2-2.7.9-3.8,0,0,0-.2,0-.3-.8,0-1.2-.3-1.1-1.2ZM243.2,59.4c-.8-.4-1.4-.8-2-1.1-8.6-4.3-17.1-8.5-25.7-12.8-.4-.2-.7-.4-1.1-.5-1.5-.6-2.8-.4-4.1.5-1.5,1-3,2-4.6,3-.2.2-.5.3-.8.6.5.2.8.3,1.1.4,8.1,2.8,16.1,5.5,24.2,8.3,3,1,5.9,2,8.9,3.1.6.2,1.1.4,1.7,0,.7-.5,1.4-.9,2.4-1.5ZM246.1,56.8c-.5-.4-.9-.6-1.3-.9-8.9-6-17.9-12-26.8-17.9-2-1.4-1.5-1.1-3.4-.2-1.9.9-3.7,1.8-5.8,2.8.7.4,1.3.7,1.8,1,10.7,5.3,21.4,10.6,32.1,15.9.4.2.8.4,1.2.5.5.2,1,.1,1.4-.3.2-.3.5-.5.8-.9ZM238.4,62.3c-.4-.2-.6-.3-.8-.4-9.3-3.2-18.6-6.4-27.9-9.6-.7-.2-1.3-.2-1.9.3-1.8,1.3-3.7,2.5-5.5,3.7-.2.1-.3.3-.6.6,1.6.3,3,.7,4.4,1,9,1.9,17.9,3.8,26.9,5.8.9.2,1.7.2,2.5-.1.9-.3,1.8-.8,2.8-1.2ZM229.8,97c.2-1.9.4-3.5.5-5.2.5-4.7.9-9.5,1.3-14.2.4-3.7.7-7.4,1.1-11.1,0-.4,0-.7,0-1.1,0-.2-.3-.4-.5-.4-.2,0-.5.2-.5.3-.2.4-.3.8-.4,1.3-1.4,6.2-2.9,12.5-4.3,18.7-.5,2.2-1.1,4.5-1.6,6.7-.2.8-.2,1.6.5,2.2,1.2.9,2.5,1.8,3.9,2.8ZM218,74.1c-4.9,1.7-9.6,3.3-14.4,4.9.3.2.4.3.5.3,1.8,1.1,3.5,2.3,5.3,3.4.8.5,1.8.8,2.8.6.7-.2,1.4-.4,2-.7,2.1-1,4.1-2.2,6.3-3.1,1.4-.6,1.8-1.8,2.2-3.2-2,1.2-3.8,2.3-5.9,3.6.5-2,.9-3.8,1.3-5.8ZM231.1,99.3c1.2-.9,2.1-1.7,3.1-2.3.9-.6,1.3-1.4,1.2-2.5-.1-4.7-.2-9.4-.2-14.1,0-4.5-.1-8.9-.2-13.4,0-.4,0-.8-.1-1.2h-.3c-.1.5-.3,1-.4,1.5-.3,3-.6,6-.9,9-.6,5.8-1.1,11.6-1.6,17.4-.2,1.8-.3,3.6-.5,5.7ZM239.4,70.2c0,.3,0,.5,0,.7.9,5.1,1.7,10.2,2.6,15.2,0,.4.2.9.4,1.2.6,1.1,2,1.1,2.6,0,.9-1.6,1.3-3.2.8-5-.3-1.1-.7-2.1-1.1-3.2-1.3-3.1-1.4-6.2.1-9.3.1-.2.1-.4.3-.8-2,.4-3.8.8-5.8,1.1ZM230.3,64.5c-1.2.1-1.4.8-1.7,1.5-2,4.8-3.9,9.5-5.9,14.3-.6,1.3-1.1,2.7-1.6,4-.2.5-.4,1,0,1.5,1,1.1,2.2,2.1,3.5,3.2,1.9-8.2,3.8-16.3,5.7-24.4ZM224.6,95.1c-.9-.6-1.3-1.2-.9-2.2.7-1.8.1-3.1-1.8-4.2-3.3,2.2-6.6,4.4-10.1,6.7.3.2.5.3.7.3,2.2.7,4.3,1.4,6.5,2.2,1.1.4,2.1.2,2.9-.5.9-.7,1.7-1.5,2.7-2.3ZM225.8,96c-2.5,2.2-4.9,4.4-7.5,6.8.5.2.9.4,1.3.5,2.1.6,4.2,1.3,6.3,1.9q2.2.7,3.6-1.2c.6-.8,1.2-1.6,1.8-2.4,0,0-.1,0-.2-.1-.5.4-1.1.7-1.8,1.2,0-.9,0-1.6.2-2.2.2-1-.1-1.7-.9-2.3-.9-.7-1.8-1.3-2.8-2ZM220.6,81.3c-4.4,1.9-8.6,4-13.1,6.3,2.5,1.2,4.8,2.3,7.1,3.4.3.1.8.1,1,0,1.7-1.1,3.3-2.2,5.1-3.4-.7-.6-1.3-1.2-2-1.8.6-1.6,1.2-3,1.8-4.5ZM236.8,66.1c.5-.1,1.1-.2,1.6-.4,4.2-1.1,8.1-2.8,11.6-5.4,1.4-1.1,2.6-2.3,3.6-3.7.3-.5.6-1,.3-1.6-.5-.9-1.1-1.8-1.9-2.6-.7,1-1.4,1.9-2.1,2.7-3.1,3.7-7,6.4-11.3,8.6-.5.3-1,.5-1.5.8-.6.4-.7.6-.4,1.6ZM255.5,57.3c-.9.8-1.7,1.5-2.4,2.2-2.3,2.2-4.9,4.1-7.8,5.4-2.4,1.1-4.9,1.9-7.4,2.5-.3,0-.7.1-.9.3-.2.1-.3.5-.3.7,0,.2.4.3.6.4.1,0,.3,0,.5,0,1.7-.3,3.3-.6,5-.9,4.7-.9,9.1-2.8,12.8-5.9.3-.3.7-.6,1-.9.2-.3.3-.7.2-1-.3-.9-.8-1.8-1.3-2.9ZM246.4,78.6c.4,1.7.9,3.3,1.2,5,.3,1.8-.4,3.4-1.4,5,2.1.8,4.2,1.5,6.2,2.3.9-2.3,1.2-4.5.5-6.7-.2-.7-.7-1.4-1.3-1.9-1.7-1.3-3.5-2.4-5.3-3.6ZM236.9,70.4c0,.2,0,.4,0,.6,0,6.9,0,13.8,0,20.7,0,0,0,0,0,0,0,0,0,0,.2.1.8-.8,1.7-1.7,2.6-2.4.9-.7,1.1-1.5.9-2.7-.7-3.6-1.3-7.3-1.9-11-.3-1.5-.5-3-.8-4.5-.2-.8-.2-.9-1.1-.9ZM227.6,64c-6.3-1.3-12.5-2.6-19-4,.5,1.3,1,2.3,1.4,3.3.4.9,1,1.4,2,1.4,3.6,0,7.2.2,10.9.4,1.2,0,2.4,0,3.6,0,.6,0,1.1-.2,1.1-1.1ZM200.8,71.2c0,.1,0,.2,0,.3,2.1,1.4,4.2,2.8,6.3,4.2.2.2.6.3.9.2,1.1-.3,2.2-.7,3.3-1v-.2c-1-.2-2-.3-3.1-.5,1-1.7,2-3.4,3.1-5.2-3.6.8-7,1.5-10.3,2.2ZM223.4,66.7c0-.1,0-.2-.1-.4-1.2.3-2.3.6-3.5.9-1.8.6-3.5,1.4-5.3,1.9-2.1.6-3.1,2.1-3.9,4,2.1.4,3,.3,4.5-.7,2.6-1.7,5.1-3.4,7.6-5.1.2-.2.4-.4.7-.6ZM219,76.5c0,0,.2,0,.2.1,1.1-.7,2.2-1.3,3.3-2,1-.7,1.7-1.5,2.1-2.7.6-1.5,1.2-3.1,1.8-4.6,0-.2,0-.4.1-.8-2,1.5-3.9,2.8-5.7,4.1-.2.2-.4.4-.4.7-.5,1.7-.9,3.5-1.3,5.2ZM214.9,98.1c0,0-.1.1-.2.2.7,1.2,1.4,2.4,2.2,3.7.9-.8,1.7-1.5,2.7-2.4-1.7-.5-3.2-1-4.7-1.5ZM215.8,29.9c1.2,0,3.9-.9,4.7-1.5-.8-.7-1.6-1.4-2.5-2.2-.8,1.3-1.5,2.5-2.2,3.7ZM213.8,92.3c-1.5-.7-2.7-1.3-4.1-2,.3,1.5.5,2.7.8,4.1,1.2-.8,2.1-1.4,3.3-2.2ZM211.6,33.7c-.3,1.5-.5,2.7-.8,4.2,1.5-.7,2.7-1.3,4.1-2-1.2-.8-2.1-1.4-3.3-2.2ZM207.3,45.6c1.3-.8,2.4-1.5,3.6-2.2-1.2-.6-2.1-1.1-3.3-1.6-.1,1.3-.2,2.4-.3,3.9ZM209.8,84.8c-1.3-.8-2.3-1.4-3.6-2.2.1,1.4.2,2.6.4,3.9,1.1-.6,2.1-1.1,3.2-1.6ZM203.6,50.3c-.1,1.2-.2,2.2-.3,3.5,1.3-.8,2.4-1.5,3.5-2.4-1.2-.4-2.2-.7-3.2-1.1ZM202.5,77.9c1.2-.4,2.1-.7,3.3-1.1-1.3-.9-2.3-1.6-3.6-2.5.1,1.3.2,2.4.3,3.6Z"/>
      <path class="cls-1" d="M325.8,78.3c-3.1.8-5.2,0-6.9-2.6-1.4-2.2-3.3-4.1-5-6.1-.3-.4-.7-.7-1.4-1.3v10h-5.3v-19.6c1.3,0,2.6-.1,3.9,0,.5,0,1.1.6,1.5,1.1,1.9,2.3,3.8,4.6,5.7,6.9.5.6,1,1.2,1.9,2.2v-10h5.5v19.4Z"/>
      <path class="cls-1" d="M428.1,58.9h15.3v4.2h-9.7v3.2h8.5v4.3h-8.5v3.6h10v4.3h-15.4c-.5-1.5-.7-15.5-.2-19.6Z"/>
      <path class="cls-1" d="M347.4,58.8c2.9,6.5,5.7,12.9,8.7,19.6h-5.8c-.5-1.2-1.1-2.4-1.6-3.7h-8.2c-.5,1.2-1.1,2.4-1.6,3.7h-5.2c0-1.5,6.4-16.3,8.4-19.6h5.5ZM344.5,64.3c-.9,2.3-1.6,4.1-2.4,6.1h4.9c-.8-2-1.5-3.8-2.4-6.1Z"/>
      <path class="cls-1" d="M398.8,58.8h6.1c1.7,4,3.4,8.1,5.3,12.6,1.9-4.5,3.7-8.5,5.4-12.6h5.6c-2.8,6.6-5.6,13.1-8.4,19.6h-5.6c-2.7-6.4-5.5-12.8-8.4-19.6Z"/>
      <path class="cls-1" d="M372.2,78.4h-5.7v-15.1h-5.9v-4.5c5.7-.1,11.5,0,17.4,0v4.4h-5.8v15.2Z"/>
      <path class="cls-1" d="M386.1,58.9h5.4v19.5h-5.2c-.5-1.4-.6-15.2-.2-19.5Z"/>
      <path class="cls-1" d="M446.9,71.2c3.4-1.7,6.5-2.4,9.9-1.3.8.2,1.5.6,2.1,1.1,3,2.1,3.2,6,.3,8.4-1.7,1.4-3.7,1.9-5.8,2.3-1.2.2-2.4.3-3.7.5-1,3.7-2.1,7.3-3.1,10.9-1.9-.2-2.3-.6-2-2,.2-1.1.6-2.1,1-3.1,2-5.5,4-10.9,6-16.4,0-.3.1-.5.2-.9-1.6-.5-2.7,1.7-4.9.6ZM453.8,70.3c-1.7,3.4-2.8,7.1-3.9,11,3.2-.1,5.8-.9,7.9-3.1,1.5-1.6,1.8-3.5,1.1-5.5-.6-1.7-2.4-2.6-5-2.5Z"/>
      <path class="cls-1" d="M472.5,83.5c-.5,1.4-1.1,2.6-1.5,3.9-.3.9-.7,2.2.4,2.8,1.1.7,1.8-.5,2.6-1.1.3-.2.5-.5.7-.8-.5-1.1-1-2.2-1.3-3.3-.4-1.2-.1-2.5.6-3.6.7-1.1,2-1.5,3.1-1.1.9.3,1.4,1.3,1.2,2.6-.2,1-.5,2-.9,2.9-.2.6-.5,1.2-.9,1.8,1.7.8,2.7-.3,4.3-1.4-.9,1.8-2.1,2.5-3.5,2.4-1.3-.1-2.1.3-2.8,1.2-.1.2-.3.3-.5.4-2.4,2-4.1,1.6-5.4-1.4-.4.4-.8.8-1.3,1-.7.4-1.5,1-2.3,1.2-2.4.7-3.7-.7-2.9-3.1.3-1,.8-2,1.2-3.1.5-1.5.3-1.9-1.4-3-.8,1.6-1.6,3.3-2.4,4.9-.1,0-.2-.1-.4-.2.4-.9.8-1.8,1.2-2.7.4-1.1,1.1-2.2.8-3.5-.2-.8.3-1.5,1.4-1.9,0,.3.2.6.2.8-.3,1,.1,1.6.9,2.2,2.1,1.6,2.3,2.6,1.3,5.1-.3.7-.6,1.3-.8,2,0,.4,0,1,.2,1.2.3.2,1,.3,1.4.2,1.7-.7,2.9-1.9,3.7-3.5.4-.8.8-1.6,1.3-2.3.5-.6,1.1-1.2,2-.9ZM476.5,81.3c-2.2,1-2.6,3.4-.9,5.5,1.8-2.3,2-3.8.9-5.5Z"/>
    </g>
  </g>
</svg>