<?xml version="1.0" encoding="UTF-8"?>
<svg xmlns="http://www.w3.org/2000/svg" version="1.1"  width="208" height="43"  viewBox="0 0 624 128">
  <defs>
    <style>
      .cls-1 {
        fill: #8cbc95;
      }

      .cls-2 {
        fill: #74b27f;
      }

      .cls-3 {
        fill: #7ab483;
      }

      .cls-4 {
        fill: #f9fbf9;
      }

      .cls-5 {
        fill: #f9faf9;
      }

      .cls-6 {
        fill: #85ba8e;
      }

      .cls-7 {
        fill: #dbeade;
      }

      .cls-8 {
        fill: #6ead79;
      }

      .cls-9 {
        fill: #70b07d;
      }

      .cls-10 {
        fill: #f1f6f3;
      }

      .cls-11 {
        fill: #e4eee6;
      }

      .cls-12 {
        fill: #7cb486;
      }

      .cls-13 {
        fill: #b3cab5;
      }

      .cls-14 {
        fill: #6faf7b;
      }

      .cls-15 {
        fill: #7eb589;
      }

      .cls-16 {
        fill: #74b07d;
      }

      .cls-17 {
        fill: #f7f9f8;
      }

      .cls-18 {
        fill: #74b07f;
      }

      .cls-19 {
        fill: #84b78d;
      }

      .cls-20 {
        fill: #eef8ef;
      }

      .cls-21 {
        fill: #72af7b;
      }

      .cls-22 {
        fill: #72af7c;
      }

      .cls-23 {
        fill: #73b07e;
      }

      .cls-24 {
        fill: #fafafa;
      }

      .cls-25 {
        fill: #e1f0e4;
      }

      .cls-26 {
        fill: #69ad76;
      }

      .cls-27 {
        fill: #6dad79;
      }

      .cls-28 {
        fill: #f6faf7;
      }

      .cls-29 {
        fill: #71af7b;
      }

      .cls-30 {
        fill: #adc4b1;
      }

      .cls-31 {
        fill: #71b07c;
      }

      .cls-32 {
        fill: #76b180;
      }

      .cls-33 {
        fill: #71ad7b;
      }

      .cls-34 {
        fill: #79b483;
      }

      .cls-35 {
        fill: #6fae7a;
      }

      .cls-36 {
        fill: #6fb07b;
      }

      .cls-37 {
        fill: #75b17e;
      }

      .cls-38 {
        fill: #76b280;
      }

      .cls-39 {
        fill: #73b17e;
      }

      .cls-40 {
        fill: #73b17d;
      }

      .cls-41 {
        fill: #6eae7a;
      }

      .cls-42 {
        fill: #75b27f;
      }

      .cls-43 {
        fill: #70af7b;
      }

      .cls-44 {
        fill: #75af7c;
      }

      .cls-45 {
        fill: #75b180;
      }

      .cls-46 {
        fill: #7bb384;
      }
    </style>
  </defs>
  <!-- Generator: Adobe Illustrator 28.6.0, SVG Export Plug-In . SVG Version: 1.2.0 Build 709)  -->
  <g>
    <g id="Layer_1">
      <path class="cls-26" d="M442.3,86.7c-1-2.5-2.9-3.3-5.6-1.8-3,1.6-6.3,2.6-9.8,2.7-2.8,0-3.6,1.3-3.9,4-.4,3.9-1.9,7.5-5.8,10.2-.9-3-.7-5.7-.3-8.4.2-1.6,1.6-3.7-.8-4.6-2.4-1-4.6,0-6,2.2-1.1,1.6-2,3.5-2.9,5.2,0-2.8.6-5.5,1-8.1.2-1.3.5-2.8-1.1-3.6-1.7-.9-3.1-.4-4.6.6-1.7,1.2-1.8,3-1.9,4.7-.1,4.5-2.1,8.4-3.9,12.4-.3.7-.7,1.7-1.7,1.4-1-.2-.8-1.3-.9-2.1-.2-3.5.1-7.1.8-10.6.3-1.7.7-4.4-1.4-4.5-3.7-.3-6.5-2.6-9.9-3.3-1.9-.4-3.7.5-5.2,1.8-2.5,2.1-3.8,4.9-4.6,8-.9,3.5-2.5,6.5-5,9.7,0-3.1,0-5.4,0-7.7,0-4,2.2-9.1-4.8-9.6-.3,0-.5-.6-.8-.9-3.9-3.8-8.1-3.5-11.5.7-1.6,1.9-2.4,4.2-3.2,6.6-1.7,5.1-4.3,9.7-8.2,13.5-1.4,1.4-3.3,2.7-5,1.2-2.5-2.3-1.6-5.6-1.6-8.5,0-2.6,2.2-1.9,3.6-2.3,7.1-1.8,8.8-7.6,4-13.2-3.2-3.7-7.1-3.7-9.8.4-4.6,6.8-5.6,14.4-3.5,22.3,1.6,6,6.5,7.9,12.2,5.1,3.4-1.7,5.7-4.6,8.1-8.2,2.9,6.6,7.5,7.3,13.2,5-1.3,1.7-3.1,1.5-4.5,2.1-1.5.6-3.1,1.1-4.5,1.9-4.3,2.4-5.9,6-4.4,9.4,1.4,3.2,5.7,4.7,9.9,3.6,5.6-1.5,8.4-5.6,9.2-10.8.7-4.4,3.5-7,6.3-10.5.9,4.6,2,8.7,6.7,9.7,4.7,1,6.6-2.8,8.6-6.2,2.1,1.4,3.8,3.5,6.6,2.4,2.4-.9,3.2-3.4,5.3-5,0,2.6.5,4.6,3.2,4.6,2.6,0,3.4-1.6,3.9-3.9.5-2.5.7-5.1,2.7-7.5.2,1.7.4,3,.6,4.3.4,2.4,1.3,4.5,4,5.2,2.7.7,4.5-.9,5.9-2.8,1.6-2.2,2.8-4.7,4.2-7,.4-.8.4-1.9,1.8-1.9,3.3,0,9.1,6.5,8.6,9.8-.2,1.1-.6,2.2-1.9,2.2-1.4,0-1.8-1.1-1.9-2.2,0-.7,0-1.4,0-2-.2-3.1-2.3-4.2-5-2.6-2.4,1.4-2.9,4.8-1,7.6,1.9,2.8,4.8,3.7,7.9,3.2,3.5-.5,6.7-2,7.9-5.6,1-3.1.1-5.8-2.3-8.2-2-1.9-4.4-2.9-7.8-4.3,3.1-.7,5.2-1.1,7.3-1.6,2.1-.5,4.8-.9,3.6-4.1ZM335.6,88.3c.3-1.4.6-2.9,2.1-3.7,1.5,1.1,1.2,2.6,1.1,4,0,2-1.5,3.2-3.2,2.7-1.7-.5-.3-2.1,0-3.1ZM357.2,119.1c-.9.8-1.9,1.7-3.2.8-1.4-1-1.1-2.4-.4-3.6,1.4-2.8,3.9-3.8,7.3-4.6-.7,3.3-1.6,5.7-3.6,7.5ZM359.7,102.9c-1.2,2-2.9,1.8-4.2-.2-1.1-1.8-1.3-3.8-1.1-5.4,0-3.8.6-7,2.3-9.9.5-.9,1.2-1.9,2.4-1.9,1.3,0,1.9,1.1,2.2,2.1,2,5.3,1.1,10.4-1.6,15.2ZM385.1,105.9c-.6,1.2-1.3,2.6-3,2.2-1.6-.3-2-1.8-2.2-3.1-.2-1.5-.2-3-.3-4.5,0-3.6.7-7,2.3-10.2.6-1.2,1.5-2.5,3.1-2.3,1.6.1,2,1.6,2.4,2.9,1.3,5.3,0,10.2-2.2,15Z"/>
      <path class="cls-27" d="M464,12.2c-6.9-5.1-13.2-4.8-19.7.8-1,.8-1.6,2.1-3.2,2.3-.8-1.6-1.5-3.3-2.4-4.7-.8-1.2-1.8-2.7-3.6-1.3-1.4,1.2-1.4,2.5,0,3.9,1.9,1.9,2.4,4.5,3.2,7,.9,2.8,1,5-2.6,6.2-1.5.5-2.9,2-4,3.3-7.9,9.2-8.5,27.3-1.3,37.1,6.7,9.1,17.8,8,22.9-2.4,4.1-8.2,4.6-16.6,2.1-25.4-1.6-5.4-4-10.5-9.3-12.8-3.8-1.7-4.8-3.7-3.9-8,7.8,4.5,15,3.8,21.8-1.6,2.4-1.9,2.2-2.9,0-4.5ZM443.3,35.2c1.7,4.5,1.6,9.3,1.8,13.5-.1,5.1-.3,9.7-1.8,14.2-.3,1-.6,2.6-2.2,2.6-1.2,0-1.6-1.3-1.9-2.4-2.4-9.2-2.3-18.5,0-27.7.3-1.1.7-2.2,2-2.2,1.4-.1,1.8,1.3,2.1,2.2Z"/>
      <path class="cls-42" d="M220.6,88.8c.8.5,1.8,1.3,2.7,1,4.2-1.5,5.6,1.7,6.6,4.4,3,8.7,1.8,17.1-4,24.2-5.4,6.6-12.9,6.5-20.3,4.6-7.3-1.9-12.2-6.9-13.9-14.3-1.6-6.8-.3-12.9,5.3-17.7,1.6,0,3-1.9,4.4-1.6,2.3.5,4.5,1.6,6.9.3.3-.1.8.4,1.1.8,1,1.5,1.9,1.6,3.1.1,1-1.3,2.3-1.8,3.9-1,1.1.5,1.8.2,2.4-.8.6-1,1.3-.9,2.1,0Z"/>
      <path class="cls-35" d="M308.6,21.8c-3.5-1.5-7-2.2-10.6-.4-3.1,1.5-3.9,4.1-2.1,7.1,1.8,3.1,4.6,5.3,7.4,7.5,4.8,3.8,9.8,7.3,12.9,12.8,5,8.8,1.4,19-8.1,22.2-7.4,2.5-15,2.2-22.5.1-2-.6-3-1.3-2.5-4,1-5.1,1.6-10.4.9-16.7,3.5,3.9,6.1,6.9,9.9,8.6,3.8,1.6,7.1,1.1,9.2-1.7,2.4-3.2,1.4-6.2-.9-8.9-2.7-3.2-6-5.9-9.2-8.6-2.1-1.7-4.1-3.6-6-5.5-8.4-8.4-3.6-20.6,6.6-23.5,7.1-2,14.2-1.2,21.2.6,1.7.5,2.2,1.2,1.2,2.9-.5.9-.7,2.1-1,3.1-.9,3.2-3.8,3.6-6.4,4.4Z"/>
      <path class="cls-40" d="M181.6,39c-7.2.2-12.9-3.8-14-10.8-.8-5.5,2.2-9.4,6.2-12.5,6.5-5,14.4-6.7,22.1-8.7,1.4-.4,2.9-.7,4.3-1,5.6-1.2,9,1.9,8.4,7.5-.3,2.4.3,4.2,2.5,5.6,2.3,1.5,2,4-.6,5-6.4,2.5-11.6,6.9-17.1,10.8-3.4,2.4-6.8,4.3-11.9,4.1Z"/>
      <path class="cls-8" d="M388,23.3c.2,2.5.4,5,.7,8.2-2.7-2.5-4.4-5.3-7.2-6.9-4.4-2.4-6.9-1.5-7.8,3.4-.2.9-.4,1.9-.5,2.8-.7,5.2-.6,5,4.4,5.7,4.2.6,8.3,2.7,12.9-.1-2.5,7.8-6.4,9.8-13.2,7.4-4.2-1.5-4.4-1.3-4.1,3,.4,7.7,1.6,15.3,3.6,22.8.5,1.7.4,2.6-1.6,2.6-7,0-14.1,0-21.7,0,1.9-2.6,3.8-4.5,5-6.8,7.1-13.8,7.1-27.8.9-41.9-1.5-3.4-3.2-6.6-4.6-10-.9-2.2-.8-3.7,2.5-3.6,9.9.3,19.8.2,29.8.2.2,1.5-.9,2-2,2.5-2.3,1.2-1.7,1.7-.4,3.8,1.3,2,5.3,3.2,3.3,6.9Z"/>
      <path class="cls-43" d="M201.9,47.7c1.5,1.1,1.9-.6,2.5-1.2,6.7-5.9,15.3-3.4,17.5,5.2,1.6,6.5.9,13-.5,19.4-.4,2-1.6,3.8-4.1,3.3-2.4-.4-4,.7-5.3,2.4-1.9,2.5-4.3,2.7-6.9,1.4-5-2.7-9.8-5.7-13.4-10.2-6-7.3-2.5-16.4,6.8-18.1,1.1-.2,2.3,0,2.8-1.3-.4-.7,0-.9.6-.8Z"/>
      <path class="cls-8" d="M349.4,34.1c-2.5-5-6.1-9.2-12.4-9.2-6,0-9.3,3.8-11.6,8.8-5.1,10.8-5.3,21.4.6,32,2.4,4.4,5.9,7.1,11,7.3,5.4.2,9-3,11.5-7.2,2.9-5,4.7-10.4,4.3-16.5.4-5.3-.9-10.4-3.3-15.2ZM339.6,61.8c-.4,1.5-.7,3.4-2.1,3.6-2.1.3-2.5-2-2.8-3.4-1.5-6-1.7-12.1-1.1-18.2.2-2.8.3-5.7,1.5-8.4.4-.9.6-2.3,2-2.3,1.4,0,1.6,1.2,2.1,2.2,2.1,4.5,1.4,9.3,1.6,12.7,0,5.6,0,9.8-1,14Z"/>
      <path class="cls-40" d="M164.5,67.7c-4.2,3.1-8.6,3.8-13.3,1.1-2.1-1.2-2-2.1-.3-3.5,4.1-3.6,6.8-3.6,13.7.2.5-1.8.8-3.5,1.4-5.2.3-.9.8-2.1,2.1-1.3.9.5.8,1.4.3,2.2-.5,1.1-1.1,2.2-1.3,3.4-.4,2.1-1,4.5,2.5,4.7,1.1,0,2,1,2.5,2,2.8,5.1,7.3,8.6,11.3,12.5,5.5,5.5,6,11.4,1.8,16.8-3.1,3.9-12.4,6.7-16.5,4.9-5-2.1-8.1-8.6-6.7-15,1.1-5.1,2.1-10.1,1.2-15.3-.3-1.6.2-3.2,1.2-4.5.7-.9,1.2-1.9.2-3.2Z"/>
      <path class="cls-38" d="M231.8,31.5c-.1-8.8,10.2-17,17.8-14,4.4,1.8,6.8,5.6,8.2,9.9,1.1,3.6,2.5,6.9,5,9.8,1.7,2.1,3.4,4.3,2.9,7.3-.2,1.1.8,1.7,1.3,2.5,1.2,1.7,2.3,3.5,2.8,5.6.3,1.1,1,2.7-.7,3.1-1.8.4-1.7-1-1.9-2.3-.3-1.5-.9-3.1-1.5-4.5-.6-1.4-1.4-2.2-3.1-1.2-1.3.8-2.6.6-3.9,0-5.2-2.7-10.9-3.6-16.6-4.7-6.1-1.3-10.3-6-10.3-11.3Z"/>
      <path class="cls-35" d="M390.4,72.2c13.2-14.4,14-31.3,2.6-46.9,5.9,0,11.6,0,17.2,0,2.3,0,3,.3,2.4,3-1.9,8-3.5,16.1-3.4,24.4,0,2.9-.7,6.9,2.5,8,3.1,1.1,5.7-1.6,7.9-3.9.2-.3.6-.5,1.3-1.1-.4,5.2,0,9.8.7,14.5.3,1.6,0,2.2-1.7,2.2-9.6,0-19.2,0-29.5,0Z"/>
      <path class="cls-39" d="M262.8,89.9c-.7,2.5-.8,5.2-1.4,7.7-.9,3.7-5.4,4.5-7.8,1.3-1.6-2.1-2.9-2-4.9-1.2-3.3,1.3-6.7,2.5-9.5,4.8-.8.6-1.7,1.9-2.8.7-.9-1-.3-2.2.3-3.1,2-3.3,3.8-6.6,5.1-10.2.6-1.6,1.5-3.2-1.5-4.1-2.5-.7-3-3.4-2.2-5.9.8-2.6,2.6-4,5.3-3.2,1.8.5,3.1.3,4.7-.7,2.9-1.9,5.1-1,6.5,2.4.5,1.3,1.4,1.1,2.3,1.4,2.3.7,4.2,2.3,3.8,4.7-.4,2.5,3,3.1,2.2,5.6Z"/>
      <path class="cls-41" d="M240.6,66.8c-1.2,2.5-2.2,5.2-4.5,7-3.7,3-7.9,1.5-8.7-3.3-1.1-6.4,2.6-12.2,9.1-14.1,1.4-.4,1.5-1.5,1.9-2.4,2-4.3,2.7-5.4,5.9-8,.3,2.7.5,5.2.7,7.7.1,1.9-.2,3.9,2.7,4.4,1.3.2,2,2,2.7,3.3.3,1.2-.5,2.1-1.5,1.7-2.3-.9-2.9.2-3.6,2-.5,1.3-1.5,2.1-3.1,1.6h-.2c-1.6-2.6-1.2-5.4,0-8,1-2.2,1-4.2.6-6.9-1.8,2.3-2.2,4.2-1.6,6.7.6,2.7.5,5.5-.1,8.3Z"/>
      <path class="cls-31" d="M209.2,3.4c1,.1,1.9.1,2.7.4,7.3,2.3,14.7,4.6,22,7.1,1.6.5,3,1.7,4.1,3.1.7.9,1.5,1.8.2,2.8-1.1.8-1.9.1-2.5-.7-1.8-2.5-4.2-4.1-7.1-5.1-2.6-.9-4.7-1-5.5,2.6-.9,3.7-3.1,6.7-6.2,8.9-1.4,1-3.1,2-2.8-1.2,0-.2,0-.7,0-.7-6.5-2.9-1-11.7-7.3-14.7-.5-.2-.9-.9-.4-1.6.3-.5,1.8-.9,3-.8Z"/>
      <path class="cls-3" d="M166.5,54.4c-2.4-.2-4.8-1.6-6.7,1.5-1,1.6-3,.7-4.2-.5-2.7-2.7-2-11.3,1.3-13.2,1.3-.7,1.4-1.9,2.1-2.7,1.2-1.5,9.5-1,10.6.6.9,1.2,1.2,3,.3,3.8-3.8,3-1.1,5.5.2,8.2-.9,1.2-3.1.4-3.6,2.3Z"/>
      <path class="cls-18" d="M270,64.5c0,4.7-3.6,7.2-8,5.8-5.8-1.9-9.3-8.9-7-14.5,1.3-3.3-1.9-3-3.2-4.1-.8-.7-2.9-.5-2-2.2.8-1.8,2.4-.8,3.4,0,2.7,2.3,5.7,3.5,9.2,4.4,4.6,1.2,7.7,6.3,7.6,10.7Z"/>
      <path class="cls-26" d="M305.9,92.3c0-1.8,0-3.6.3-5.3.7-2.6,2.8-3.5,5.4-3.2,3,.3,1.7,2.5,1.6,4.1-.5,4.1,0,8.1,1.2,12.1.3,1,.6,2.4,1.9,2.3,1.1,0,1.3-1.3,1.6-2.1,1.4-3.7,2.1-7.6,2.4-11.5.1-1.7.2-3.6,2.5-3.5,2.5.1,1.8,2.1,1.6,3.7-.6,5.1-1.5,10.2-4.2,14.7-1.5,2.5-3.4,4.2-6.5,4-3-.2-4.5-2.2-5.7-4.6-1.6-3.4-2-7-2-10.7Z"/>
      <path class="cls-34" d="M201.9,47.7c-.2.3-.4.5-.6.8-.8-1.5-1.5-3.1-2.5-4.5-1.2-1.7-2.7-3.3-5.2-2.7-1.7.4-2.5-.5-2.4-1.8,0-1.4,1.4-1.4,2.5-1.5,2.4-.2,3.6,1.9,5.7,2.9.6-5.3,3-8.8,8.5-9.5,2.7-.3,3.6.6,3.2,3.3-.6,4.7-2.4,7.7-6.6,8.1-4.2.4-3.5,2.3-2.6,4.9Z"/>
      <path class="cls-12" d="M222.5,41.7c2.2.5,4.1,1,6,1.4.9.2,2.1.5,2.8-.3,1.1-1.2,1.9-3.1,3.8-1.7,1.5,1.2,2.4,3.2,2.4,5.1.1,5.3-4.4,9.3-9.5,8.5-1.6-.2-2.9-1.9-1.9-3.2,2.2-3.1,0-4.7-1.6-6.5-.7-.8-1.6-1.5-1.9-3.2Z"/>
      <path class="cls-33" d="M330.5,17c.7-7.6,4.2-11.4,10.3-11.8,2.3-.1,3.2.5,2.6,3-1.1,5.5-3.9,9.4-9.3,11.3-3,1-4.9,1.3-3.6-2.5Z"/>
      <path class="cls-16" d="M236.1,113.2c.2-4.9,3.4-8.2,8.3-8.7,1.6-.1,2.2.5,2.5,1.9,1.1,5.2-3.7,10.5-8.9,10.1-2.7-.2-1.8-2.1-1.9-3.4Z"/>
      <path class="cls-29" d="M199.6,89.1c1.2-1.2,2.6-2.2,4.2-2.9,3.8-1.7,7.5-3.6,9.1-7.9.3-.7,1.1-1.3,1.7-1.9.6-.6,1.3-.7,1.9,0,.7.7.4,1.3-.2,1.9,0,0-.2.1-.3.2-4.1,4.4-4,4.9,1.6,6.9.6.4,1.2.8,1.1,1.6-.5,1.9-.6,4.3-3.7,2.4-1.2-.8-2,.5-2.7,1.4-1.2,1.6-2.2,1.9-3.2-.1-.7-1.3-1.6-1.9-2.9-.7-.5.4-1.4.9-1.6.5-1.2-2.4-3.6-.4-5.1-1.4Z"/>
      <path class="cls-34" d="M229.5,17.9c1.7.2,4.6.1,5,2.2.4,2.5-1.9,4.7-4.2,6-2.7,1.4-5.5.6-8.1-.4-1.1-.4-1.3-1.2-.9-2.4,1.3-3.3,4.3-5.5,8.2-5.4Z"/>
      <path class="cls-23" d="M181.7,108.3c4.2,0,7.9,2.9,8.5,6.6.2,1,0,1.6-1,2.1-4.4,2.3-11.8-1.3-12-6.2,0-3,3-2,4.4-2.5Z"/>
      <path class="cls-32" d="M180.8,50c-.2,2.6-.6,6.4-2.5,6.7-2.5.4-4-3-5-5.5-.7-1.7-.8-3.3-.2-5,.5-1.5,0-3.7,1.7-4.1,1.4-.3,2.7,1.4,3.8,2.6,1.3,1.5,2.5,3.1,2.2,5.3Z"/>
      <path class="cls-2" d="M269.4,79c0,.1,0,.2,0,.4-.4,2.3-1,4.7-3.2,5.8-1.1.6-4.7-3.8-4.9-5.8,0-.4,0-.8,0-1.1.6-2.3.4-5.2,3.3-5.9,1.7-.4,4.9,4.3,4.9,6.7Z"/>
      <path class="cls-36" d="M242.1,66.8c.5-.3,1.4-.4,1.6-.8,1.3-2.5,2.2-5.5,6.1-3.6,0,0,.3-.6.5-.9,1,2,1.3,4.1.8,6.3-.5,2-1.2,3.8-3.4,4.2-2.2.4-3.6-1.1-4.6-2.8-.4-.7-.6-1.5-.9-2.3Z"/>
      <path class="cls-9" d="M225.7,77.3c3.7.2,7,3.7,6.7,7-.2,1.7-1.3,1.8-2.7,1.7-3.6-.2-6.5-3.4-6.3-6.8,0-1.7,1-2.1,2.3-1.9Z"/>
      <path class="cls-11" d="M199.6,89.1c1.7.9,4.2-3.7,5.3.8,0,0,.5,0,.6-.1,3.4-3.9,3.8.2,5.3,2.1,1.6-2.4,3.1-5.2,6.3-2.2,1-.9-.1-2.4,1.2-3,1.4-.4,2.3-.1,2.4,1.6,0,.2,0,.4,0,.6-.5,0-1.4-.6-1.4.5,0,2.8-1.5,2.4-3.1,1.4-1.1-.7-2.2-1.4-3,.3-1.9,3.7-3.3,2.9-4.6-.4-.1-.3-.4-.6-.4-.8-2.2.4-2.3,3.6-4.6,3-1.3-.4-.5-1.9-.4-3.1-2.3.3-4,2.2-6.2,1.3.9-.7,1.8-1.3,2.6-2Z"/>
      <path class="cls-6" d="M388,23.3c-1.2-.5,2.1-5-2.3-2.5,0,0-.5-.3-.5-.5,0-2.4-1.7-3.1-3.6-3.6-.8-.2-.8-1.3,0-1.6,1.9-.7.5-5,4.2-3.6.3.1,1-.8,1.4-1.3,1.9-.2,3.4-.6,2.6,2.5-.9,3.5-1.1,7.1-1.6,10.7Z"/>
      <path class="cls-37" d="M221.4,29.9c3-.7,5.3.4,7,2.8.7,1.1,1.6,2.4.5,3.7-1,1.2-2.4,1.3-3.7.8-1.1-.4-2.1-1.2-3.1-1.8-.8-.9-1.6-1.8-1.8-3-.1-.5-.1-1,0-1.5.2-.5.7-.7,1.2-.9Z"/>
      <path class="cls-4" d="M240.6,66.8c0-3.1.1-6.1-1.3-9.3-1.1-2.5,1-5.1,2.6-7.2.6-.8,1.5-.4,1.5.6,0,2.7,1.5,5.4-.8,8-2.1,2.4-1.7,5.2-.7,8-.4,0-.9,0-1.3,0Z"/>
      <path class="cls-46" d="M175.7,70c.4-3.2,3.6-6.2,5.9-5.9,1.2.1,1.3.8,1.2,1.8-.3,2.9-3.7,6.4-6,6.2-1.7-.2-.8-1.5-1.1-2Z"/>
      <path class="cls-22" d="M189.7,76.6c-.4,1,.4,2.8-1.4,3.2-1.3.3-4.1-3.6-4-5.6.1-1.5.2-4.1,1.9-3.7,2.4.6,3.6,3.2,3.4,6.1Z"/>
      <path class="cls-21" d="M157.2,81.4c-.3,1,.2,3.5-1.5,3.1-2.1-.5-4-2.5-3.8-5.2.1-1.5.3-4.2,1.7-3.9,2.4.5,3.7,3,3.6,5.9Z"/>
      <path class="cls-45" d="M195.4,86.4c-1.1,0-2.3.1-2.2-1.5,0-2.5,2.4-4.6,5.1-4.7,1.1,0,2.2-.2,2.2,1.6,0,2.4-2.3,4.6-5.1,4.6Z"/>
      <path class="cls-19" d="M220.7,32.1c.4,1.1.8,2.2,1.2,3.3-.1,0-.3.1-.3.2,0,1.8.8,4.1-2,4.5-1.6.2-4.1-3.3-3.3-5.3.7-1.8-.2-3.3-.2-4.9.2,0,.3,0,.5-.1,1.6.4,1.7,3.4,4.1,2.3Z"/>
      <path class="cls-15" d="M166.8,31c0,3.3-1.8,4.6-4.5,5-1.5.3-1.5-.7-1.6-1.8,0-2.7,2.4-5.6,4.8-5.5,1.8,0,.8,1.7,1.3,2.2Z"/>
      <path class="cls-14" d="M191.1,46.5c0,2.5-1.1,4.3-3.1,4.6-1.6.2-2-1.9-2.1-3.3,0-2.2,1.3-4.1,3.2-4.3,1.9-.3,1.5,2,1.9,3.1Z"/>
      <path class="cls-1" d="M308.6,21.8c1.1-.8,2.1-2,3.3-2.3,1.5-.3,2.2-1.2,3.1-2.1-.3,2.5-.5,5.1-.8,7.9-2.4-.5-3.6-2.8-5.6-3.5Z"/>
      <path class="cls-44" d="M166.5,54.4c.5-1.9,2-2.2,3.6-2.3.9,1.6,3.6,2.9,2.2,4.7-1.2,1.5-2.7-1.3-4.3-1.5-.5,0-1-.6-1.5-.9Z"/>
      <path class="cls-13" d="M221.4,29.9c-.3.2-.6.4-.8.7-1.8,1.8-2.8-1.3-4.4-.7,0,0,0,0,0,0-.8-.2-1.4-.7-1.3-1.5.3-1.1,1.1-.6,1.8-.4,1.6.6,2.8,2,4.7,1.9Z"/>
      <path class="cls-30" d="M220.6,88.3c-.5-1-1.3-1.4-2.4-1.6-.2-.4-.4-.9-.6-1.3,2.2.3,4,1.5,5.7,2.9-1.1,1-1.9-.3-2.7,0Z"/>
      <path class="cls-24" d="M214.6,120.9c-6,1.9-12.4-.4-16.8-5.7-4.5-5.6-5.4-12.6-2-18.8.5,12.9,5,22.3,18.7,24.5Z"/>
      <path class="cls-5" d="M176.3,16.7c-3.5,5.4-2.5,10.4.5,15.4.4.7,1.4,1.8.3,2.6-1.1.8-2.1-.1-2.9-.8-4.1-3.3-4.3-10.1-.5-14.6.8-.9,1.7-1.7,2.6-2.5Z"/>
      <path class="cls-5" d="M218.6,58.1c-.2-.7-.3-1.4-.5-2.1-1.9-6.6-2.8-7.1-9.3-5-.8.3-1.8.7-2.3-.2-.6-.9.3-1.6.9-2.2,2.1-2,4.4-2.9,7.4-2,2.8.9,4.3,2.9,4.4,5.7,0,1.9.8,3.8-.5,5.7Z"/>
      <path class="cls-10" d="M165.1,75.7c3.1,6.9.7,14.5,3.8,21.3.4.9.5,2.4-.8,2.9-1.4.5-1.8-.9-2.5-1.7-.7-.9-1.1-1.8-1.1-3,0-6.6,2.3-13,.6-19.5Z"/>
      <path class="cls-17" d="M261.9,39.6c-3-2.5-6.2-4.6-7.8-8.4-1.2-2.9-4.1-4.5-6.2-6.8-.8-.8-2.2-1.8-1-3,1-1,2.3-.5,3.4.2,1.1.7,1.9,1.6,2.5,2.7,3.1,5.1,4.7,11,9,15.4Z"/>
      <path class="cls-7" d="M241.8,94.6c.7-1.4-.2-3.6,2-3.8.5,0,1.6,1,1.5,1.4-.2,1.9-2,2.1-3.5,2.4Z"/>
      <path class="cls-20" d="M243.7,97.1c1.4-1.9,2.2-4.1,4.8-.9-1.6.5-2.9,1.2-4.8.9Z"/>
      <path class="cls-25" d="M256.7,55.9c.4,4.4,1.3,8.4,4.5,12.1-4.8-2.5-6.9-8.3-4.5-12.1Z"/>
      <path class="cls-28" d="M216.1,29.9c1.8-1.6,2.7,1.7,4.4.7,0,.5.1,1,.2,1.5-.3.6.4,2.3-1.5,1.3-1.5-.8-1.9-2.5-3.1-3.4Z"/>
    </g>
  </g>
</svg>