<?xml version="1.0" encoding="UTF-8"?>
<svg xmlns="http://www.w3.org/2000/svg" xmlns:xlink="http://www.w3.org/1999/xlink" version="1.1" width="208" height="43" viewBox="0 0 624 128">
  <defs>
    <style>
      .cls-1 {
        fill: url(#linear-gradient-2);
      }

      .cls-2 {
        fill: url(#linear-gradient);
      }

      .cls-3 {
        fill: #fff;
      }
    </style>
    <linearGradient id="linear-gradient" x1="81.6" y1="91.7" x2="81.6" y2="12.7" gradientUnits="userSpaceOnUse">
      <stop offset="0" stop-color="#007c3f"/>
      <stop offset="1" stop-color="#83c343"/>
    </linearGradient>
    <linearGradient id="linear-gradient-2" x1="351.1" y1="73.3" x2="395.8" y2="73.3" xlink:href="#linear-gradient"/>
  </defs>
  <!-- Generator: Adobe Illustrator 28.6.0, SVG Export Plug-In . SVG Version: 1.2.0 Build 709)  -->
  <g>
    <g id="Layer_1">
      <path class="cls-2" d="M137.2,28.5c-1.8,1.8-3.5,3.6-5.1,5.6-2.6,3.7-4.7,7.7-6.4,11.8-1.6,3.9-3.1,7.8-4.6,11.7-2.2,5.3-5.1,10.4-9.9,13.8-5.9,3.7-13.1,4.6-19.9,4.3.6-1.6,1.4-3.4,1.9-4.9,2.2-5.6,5.3-10.9,9-15.6,1.5-1.8,3.1-3.5,4.7-5.2,1.6.3,3.4.9,4.9-.2,1.2-.7,2-1.9,2.2-3.3.4-2.6-1.8-5.2-4.4-5.3-2.5-.1-4.9,2-4.7,4.5,0,.8.1,1.7.2,2.5-3.6,3.7-6.9,7.7-9.5,12.2-1.2,2-2.3,4.1-3.4,6.3-.5,1-1,2.1-1.4,3.2-2,4.2-2.7,8.8-2.8,13.4,1.9,1.2,3.4,3.5,2.3,5.8-1.2,3.5-6.9,3.6-8,0-1.1-2.3.5-4.5,2.3-5.9-.3-3.3,0-6.8-1.4-9.9-.4-1.1-.8-2.2-1.2-3.3-1.5-4.1-3.5-8-5.8-11.8-1.2-1.9-2.5-3.8-4-5.6-1.5-2-3.4-3.7-4.9-5.7h0c0-.4,0-.7.1-.9.4-1.6,0-3.5-1.2-4.7-1.9-1.9-4.8-1.8-6.6.1-1.5,1.6-1.8,4.2-.4,6,1,1.4,2.7,1.9,4.4,1.6.2,0,1.8-.5,1.9-.4,2.8,2.8,5.2,5.9,7.5,9.1,2.2,3.2,4,6.7,5.6,10.2.7,1.6,1.3,3.2,1.9,4.8.2.4.4,1.3.6,1.7-6.6.3-13.4-.5-19.4-3.5-4.8-2.6-8.8-6.6-11.5-11.4l-.3-.3c-2.4-4.6-4.5-9.3-6.2-14.2-1.3-3.5-2.7-7-3.9-10.5h-.2c-.8-2.3-1.7-4.4-2.6-6.5-2.9-5.7-6.4-11.1-11-15.5,4.9,0,9.7,1,14.4,1.7,11.1,2.1,22.4,5.5,31.2,12.8,2.8,1.9,5.1,4.5,7.1,7.2,2.2,3.1,4.1,6.6,5.2,10.2.6,1.8,1,3.7,1.4,5.6.4,2.4.6,4.8.6,7.2,0,3.7-.4,7.3-.8,10.9-.1,1,0,2.1.5,3,.4.9.8,1.8,1.1,2.7.9-1,1.1-2.3,1.2-3.7,0-.7,0-1.3-.2-2-.9-4.1-.7-8.4-.3-12.5.4-5.1,2.1-10,4.8-14.4,2.5-3.6,6-6.5,9.7-8.7,5.1-3.2,11.2-4.4,17.1-5,6.1-.3,12.2-.5,18.3.6ZM61.1,44.6c0,1.2.9,2.1,2.1,2.1s2.1-.9,2.1-2.1-.9-2.1-2.1-2.1-2.1.9-2.1,2.1ZM111.5,46c0-1.2-.9-2.1-2.1-2.1s-2.1.9-2.1,2.1.9,2.1,2.1,2.1,2.1-.9,2.1-2.1Z"/>
      <path class="cls-3" d="M150.3,93.7v-33.1h-13v-7.7h35.5v7.7h-13v33.1h-9.4Z"/>
      <path class="cls-3" d="M187.2,86.1h22.2v7.6h-31.6v-40.8h30.8v7.6h-21.4v25.6ZM186.5,69.3h19.6v7.3h-19.6v-7.3Z"/>
      <path class="cls-3" d="M236.4,94.4c-3.1,0-6.1-.5-8.8-1.5-2.7-1-5-2.5-7-4.4-2-1.9-3.5-4.1-4.6-6.7-1.1-2.6-1.7-5.4-1.7-8.4s.6-5.9,1.7-8.4c1.1-2.6,2.7-4.8,4.7-6.7,2-1.9,4.3-3.4,7-4.4,2.7-1,5.6-1.5,8.8-1.5s6.7.6,9.6,1.8c2.9,1.2,5.3,3,7.2,5.4l-6.1,5.6c-1.4-1.6-3-2.8-4.7-3.6-1.7-.8-3.6-1.2-5.6-1.2s-3.6.3-5.2.9c-1.6.6-3,1.5-4.1,2.7-1.2,1.2-2.1,2.5-2.7,4.1-.6,1.6-1,3.4-1,5.3s.3,3.7,1,5.3c.6,1.6,1.5,3,2.7,4.1s2.5,2.1,4.1,2.7c1.6.6,3.3.9,5.2.9s3.9-.4,5.6-1.2c1.7-.8,3.3-2,4.7-3.6l6.1,5.6c-1.9,2.4-4.3,4.2-7.2,5.4-2.9,1.2-6.1,1.9-9.6,1.9Z"/>
      <path class="cls-3" d="M269,93.7h-9.4v-40.8h9.4v40.8ZM288.3,77h-19.9v-8h19.9v8ZM287.6,52.9h9.4v40.8h-9.4v-40.8Z"/>
      <path class="cls-3" d="M306.7,93.7v-40.8h7.8l24.1,29.4h-3.8v-29.4h9.3v40.8h-7.7l-24.1-29.4h3.8v29.4h-9.3Z"/>
      <path class="cls-1" d="M373.5,94.4c-3.2,0-6.2-.5-8.9-1.6-2.7-1-5.1-2.5-7.1-4.4-2-1.9-3.6-4.1-4.7-6.7-1.1-2.6-1.7-5.4-1.7-8.4s.6-5.8,1.7-8.4c1.1-2.6,2.7-4.8,4.7-6.7,2-1.9,4.4-3.4,7.1-4.4,2.7-1,5.7-1.6,8.9-1.6s6.2.5,8.9,1.6c2.7,1,5,2.5,7,4.4,2,1.9,3.6,4.1,4.7,6.7,1.1,2.5,1.7,5.3,1.7,8.4s-.6,5.8-1.7,8.4c-1.1,2.6-2.7,4.8-4.7,6.7-2,1.9-4.3,3.3-7,4.4-2.7,1-5.6,1.6-8.8,1.6ZM373.5,86.3c1.8,0,3.5-.3,5-.9,1.5-.6,2.9-1.5,4-2.7,1.2-1.2,2.1-2.5,2.7-4.1.6-1.6,1-3.4,1-5.3s-.3-3.7-1-5.3c-.6-1.6-1.5-3-2.7-4.1-1.1-1.2-2.5-2.1-4-2.7-1.6-.6-3.2-.9-5.1-.9s-3.5.3-5,.9c-1.5.6-2.9,1.5-4,2.7-1.2,1.2-2.1,2.5-2.7,4.1-.6,1.6-1,3.4-1,5.3s.3,3.7,1,5.3c.6,1.6,1.5,3,2.7,4.2,1.1,1.2,2.5,2.1,4,2.7,1.6.6,3.2.9,5.1.9Z"/>
      <path class="cls-3" d="M422.4,94.4c-3.1,0-6.1-.5-8.8-1.5-2.7-1-5-2.5-7-4.4-2-1.9-3.5-4.1-4.6-6.7-1.1-2.6-1.7-5.4-1.7-8.4s.6-5.9,1.7-8.4c1.1-2.6,2.7-4.8,4.7-6.7,2-1.9,4.3-3.4,7-4.4,2.7-1,5.6-1.5,8.8-1.5s6.7.6,9.6,1.8c2.9,1.2,5.3,3,7.2,5.4l-6.1,5.6c-1.4-1.6-3-2.8-4.7-3.6-1.7-.8-3.6-1.2-5.6-1.2s-3.6.3-5.2.9c-1.6.6-3,1.5-4.1,2.7-1.2,1.2-2.1,2.5-2.7,4.1-.6,1.6-1,3.4-1,5.3s.3,3.7,1,5.3c.6,1.6,1.5,3,2.7,4.1s2.5,2.1,4.1,2.7c1.6.6,3.3.9,5.2.9s3.9-.4,5.6-1.2c1.7-.8,3.3-2,4.7-3.6l6.1,5.6c-1.9,2.4-4.3,4.2-7.2,5.4-2.9,1.2-6.1,1.9-9.6,1.9Z"/>
      <path class="cls-3" d="M445.5,93.7v-40.8h17.6c3.6,0,6.8.6,9.4,1.8,2.6,1.2,4.7,2.9,6.1,5.1,1.4,2.2,2.2,4.9,2.2,7.9s-.7,5.6-2.2,7.8c-1.4,2.2-3.5,3.9-6.1,5-2.6,1.2-5.8,1.7-9.4,1.7h-12.4l4.2-4.1v15.5h-9.4ZM455,79.2l-4.2-4.4h11.9c2.9,0,5.1-.6,6.5-1.9,1.4-1.3,2.2-3,2.2-5.2s-.7-4-2.2-5.2c-1.4-1.2-3.6-1.9-6.5-1.9h-11.9l4.2-4.5v23.1ZM471.5,93.7l-10.2-14.8h10.1l10.3,14.8h-10.2Z"/>
      <path class="cls-3" d="M483,93.7l18.2-40.8h9.3l18.2,40.8h-9.9l-14.9-36h3.7l-15,36h-9.7ZM492.1,84.9l2.5-7.2h21l2.6,7.2h-26Z"/>
      <path class="cls-3" d="M542.4,93.7h-9.4v-40.8h30.8v7.6h-21.4v33.2ZM541.7,71.2h19.6v7.6h-19.6v-7.6Z"/>
      <path class="cls-3" d="M578.9,93.7v-33.1h-13v-7.7h35.5v7.7h-13v33.1h-9.4Z"/>
    </g>
  </g>
</svg>