<?xml version="1.0" encoding="UTF-8"?>
<svg xmlns="http://www.w3.org/2000/svg" xmlns:xlink="http://www.w3.org/1999/xlink" version="1.1" width="208" height="43" viewBox="0 0 624 128">
  <defs>
    <style>
      .cls-1 {
        fill: url(#linear-gradient-5);
      }

      .cls-2 {
        fill: url(#linear-gradient-4);
      }

      .cls-3 {
        fill: url(#linear-gradient-3);
      }

      .cls-4 {
        fill: url(#linear-gradient-2);
      }

      .cls-5 {
        fill: url(#linear-gradient);
      }

      .cls-6 {
        fill: #fff;
      }
    </style>
    <linearGradient id="linear-gradient" x1="234.2" y1="60.6" x2="264.1" y2="60.6" gradientTransform="translate(0 128) scale(1 -1)" gradientUnits="userSpaceOnUse">
      <stop offset="0" stop-color="#84c38c"/>
      <stop offset=".3" stop-color="#6cbf9b"/>
      <stop offset=".9" stop-color="#2eb4c1"/>
      <stop offset="1" stop-color="#29b4c5"/>
    </linearGradient>
    <linearGradient id="linear-gradient-2" x1="268.3" y1="60.6" x2="294.9" y2="60.6" gradientTransform="translate(0 128) scale(1 -1)" gradientUnits="userSpaceOnUse">
      <stop offset="0" stop-color="#84c38c"/>
      <stop offset=".3" stop-color="#6cbf9b"/>
      <stop offset=".9" stop-color="#2eb4c1"/>
      <stop offset="1" stop-color="#29b4c5"/>
    </linearGradient>
    <linearGradient id="linear-gradient-3" x1="299.1" y1="60.4" x2="331.8" y2="60.4" gradientTransform="translate(0 128) scale(1 -1)" gradientUnits="userSpaceOnUse">
      <stop offset="0" stop-color="#84c38c"/>
      <stop offset=".3" stop-color="#6cbf9b"/>
      <stop offset=".9" stop-color="#2eb4c1"/>
      <stop offset="1" stop-color="#29b4c5"/>
    </linearGradient>
    <linearGradient id="linear-gradient-4" x1="337.2" y1="60.6" x2="368.6" y2="60.6" gradientTransform="translate(0 128) scale(1 -1)" gradientUnits="userSpaceOnUse">
      <stop offset="0" stop-color="#84c38c"/>
      <stop offset=".3" stop-color="#6cbf9b"/>
      <stop offset=".9" stop-color="#2eb4c1"/>
      <stop offset="1" stop-color="#29b4c5"/>
    </linearGradient>
    <linearGradient id="linear-gradient-5" x1="52.2" y1="64" x2="133.8" y2="64" gradientTransform="translate(0 128) scale(1 -1)" gradientUnits="userSpaceOnUse">
      <stop offset="0" stop-color="#84c38c"/>
      <stop offset=".3" stop-color="#6cbf9b"/>
      <stop offset=".9" stop-color="#2eb4c1"/>
      <stop offset="1" stop-color="#29b4c5"/>
    </linearGradient>
  </defs>
  <!-- Generator: Adobe Illustrator 28.6.0, SVG Export Plug-In . SVG Version: 1.2.0 Build 709)  -->
  <g>
    <g id="Layer_1">
      <path class="cls-6" d="M162.7,84.5v-27.8h-11v-6.5h29.9v6.5h-11v27.8h-7.9Z"/>
      <path class="cls-6" d="M185.9,84.5v-34.3h14.9c3.1,0,5.7.5,7.9,1.5s3.9,2.4,5.1,4.3c1.2,1.9,1.8,4.1,1.8,6.7s-.6,4.7-1.8,6.6c-1.2,1.8-2.9,3.3-5.1,4.2-2.2,1-4.9,1.5-7.9,1.5h-10.4l3.5-3.5v13h-8ZM193.9,72.3l-3.5-3.7h10c2.5,0,4.3-.5,5.5-1.6s1.8-2.5,1.8-4.4-.6-3.4-1.8-4.4-3-1.6-5.5-1.6h-10l3.5-3.8v19.5ZM207.7,84.5l-8.6-12.5h8.5l8.7,12.5h-8.6,0Z"/>
      <path class="cls-6" d="M222,84.5v-34.3h7.9v34.3h-7.9Z"/>
      <path class="cls-5" d="M245.2,84.5v-27.8h-11v-6.5h29.9v6.5h-11v27.8h-7.9Z"/>
      <path class="cls-4" d="M276.2,78.1h18.7v6.4h-26.6v-34.3h25.9v6.4h-18v21.6h0ZM275.6,64h16.5v6.2h-16.5s0-6.2,0-6.2Z"/>
      <path class="cls-3" d="M317.6,85.1c-2.6,0-5.1-.4-7.4-1.3s-4.2-2.1-5.9-3.7c-1.7-1.6-3-3.5-3.9-5.6-.9-2.2-1.4-4.5-1.4-7.1s.5-5,1.4-7.1c.9-2.2,2.2-4,3.9-5.6,1.7-1.6,3.7-2.8,5.9-3.7,2.3-.9,4.7-1.3,7.4-1.3s5.7.5,8.1,1.5,4.4,2.5,6.1,4.5l-5.1,4.7c-1.2-1.3-2.5-2.3-3.9-3s-3-1-4.7-1-3.1.3-4.4.8-2.5,1.3-3.5,2.3-1.7,2.1-2.3,3.5c-.5,1.3-.8,2.8-.8,4.5s.3,3.1.8,4.5c.5,1.3,1.3,2.5,2.3,3.5s2.1,1.7,3.5,2.3c1.3.5,2.8.8,4.4.8s3.3-.3,4.7-1c1.4-.7,2.7-1.7,3.9-3.1l5.1,4.7c-1.6,2-3.7,3.5-6.1,4.6-2.4,1-5.1,1.6-8.1,1.6v-.3Z"/>
      <path class="cls-2" d="M345.1,84.5h-7.9v-34.3h7.9v34.3ZM361.3,70.4h-16.8v-6.7h16.8v6.7ZM360.7,50.2h7.9v34.3h-7.9v-34.3Z"/>
      <path class="cls-6" d="M376.8,84.5v-34.3h15.6c3.7,0,7,.7,9.9,2.1,2.8,1.4,5.1,3.4,6.7,6,1.6,2.5,2.4,5.6,2.4,9.1s-.8,6.5-2.4,9c-1.6,2.6-3.8,4.6-6.7,6-2.8,1.4-6.1,2.1-9.9,2.1h-15.6ZM384.7,78h7.3c2.3,0,4.3-.4,6-1.3s3-2.1,3.9-3.7,1.4-3.5,1.4-5.6-.5-4.1-1.4-5.7c-.9-1.6-2.2-2.8-3.9-3.7-1.7-.9-3.7-1.3-6-1.3h-7.3v21.3Z"/>
      <path class="cls-6" d="M417.3,84.5v-34.3h7.9v34.3h-7.9Z"/>
      <path class="cls-6" d="M449.9,85.1c-2.7,0-5.2-.4-7.5-1.3s-4.2-2.1-5.9-3.7c-1.7-1.6-3-3.5-3.9-5.6-.9-2.2-1.4-4.5-1.4-7.1s.5-5,1.4-7.1c.9-2.2,2.2-4,3.9-5.6,1.7-1.6,3.7-2.8,6-3.7s4.8-1.3,7.5-1.3,5.8.5,8.2,1.5,4.5,2.5,6.2,4.4l-5.1,4.7c-1.2-1.3-2.6-2.3-4.1-2.9-1.5-.6-3.1-1-4.8-1s-3.2.3-4.6.8-2.6,1.3-3.6,2.3-1.8,2.1-2.3,3.5c-.5,1.3-.8,2.8-.8,4.5s.3,3.1.8,4.4,1.3,2.5,2.3,3.5,2.2,1.8,3.5,2.3c1.4.5,2.9.8,4.5.8s3.1-.3,4.6-.8,2.9-1.4,4.3-2.6l4.5,5.7c-1.9,1.4-4,2.5-6.5,3.2-2.5.8-4.9,1.1-7.4,1.1h.2ZM456.5,79.7v-12.9h7.3v13.9l-7.3-1Z"/>
      <path class="cls-6" d="M471.1,84.5v-34.3h7.9v34.3h-7.9Z"/>
      <path class="cls-6" d="M494.3,84.5v-27.8h-11v-6.5h29.9v6.5h-11v27.8h-7.9Z"/>
      <path class="cls-6" d="M511.3,84.5l15.3-34.3h7.8l15.3,34.3h-8.3l-12.5-30.3h3.1l-12.6,30.3h-8.1,0ZM518.9,77.1l2.1-6h17.6l2.2,6h-21.9,0Z"/>
      <path class="cls-6" d="M553.3,84.5v-34.3h7.9v27.8h17.2v6.5h-25.1Z"/>
      <path class="cls-1" d="M121.5,34.7c-3.5-3.4-7.6-6.2-12.1-8.1-5.1-2.2-10.8-3.5-16.8-3.4-21.3.2-39.3,17.5-40.3,38.8-1.2,23.5,17.5,42.9,40.8,42.9s11.3-1.2,16.3-3.4c-6.5-6.3-10.6-13.7-13.1-20.4l1.5-1.5c2.2-2.2,5.2-3.4,8.3-3.4h.3c.5.2,1,.3,1.5.3,1.9,0,3.7-.9,4.8-2.5,1.3-1.8,1.4-4.1.5-6.1v-.2h-.2c-2-.5-4.2,0-5.8,1.3-1.5,1.4-2.1,3.3-1.9,5.2h-3.4c0-3.4,1.4-6.6,3.8-8.9l4.2-4h0c1.9-.9,3.2-2.7,3.4-4.8.3-2.5-1.1-4.8-3.3-5.9l-.5-.2-.5.2c-2,1-3.3,3.1-3.3,5.3s.7,3.4,2,4.5l-4.2,4.1c-2.4,2.3-3.8,5.5-3.8,8.9v1.5l-1.5,1.5c-1.1,1.1-2.6.9-3.6,0-.3-1-.5-2-.8-3v-4.4c0-.4.2-.8.4-1l4-3.6c2.5-2.3,4-5.6,4-9v-2.8c2.1-.5,3.7-2.5,3.4-4.8-.2-2-1.9-3.7-3.9-3.9-2.7-.3-4.9,1.8-4.9,4.4s1.4,3.8,3.3,4.3v1.9c0,3.4-1.4,6.7-4,9-.9.8-2.3.2-2.3-1v-3.2c1.9-.6,3.2-2.4,3.1-4.4,0-2.3-2-4.1-4.2-4.2-2.5,0-4.6,1.9-4.6,4.4s1.2,3.5,2.9,4.2v3.3c0,1.2-1.4,1.8-2.3,1h0c-2.6-2.4-4-5.7-4-9.2v-1.8c1.9-.5,3.3-2.3,3.3-4.4s-2-4.2-4.2-4.3c-2.5,0-4.6,1.9-4.6,4.4s1.5,3.9,3.5,4.3v2.7c0,3.5,1.5,6.8,4,9.2l4,3.6c.3.3.4.6.4,1v2c0,.2-.2.3-.2.5-.4,1.9-.8,3.7-1.3,5.5-.9.4-2,.2-2.8-.6l-1.5-1.6v-1.5c0-3.4-1.4-6.6-3.8-8.9l-4.2-4.1c1.3-1.1,2-2.7,2-4.5s-1.3-4.3-3.3-5.3l-.5-.2h-.2c-1.8,1-3.3,2.7-3.5,4.7-.4,2.6,1,5,3.2,6.2h.2l4.2,4.1c2.4,2.3,3.8,5.5,3.8,8.9h-3.4c.3-1.9-.4-3.8-1.9-5.2-1.5-1.4-3.8-1.8-5.8-1.3h-.2v.2c-.9,2-.8,4.4.5,6.1,1.2,1.6,2.9,2.5,4.8,2.5s1,0,1.5-.2h.3c3.1,0,6.1,1.2,8.3,3.4l1.2,1.2c-1.6,4.8-3.3,8.6-4.7,11.4-12.7-4.3-21.5-16.9-20-31.3,1.7-16.3,17.1-28.3,33.4-26.1h.2c4.4.6,8.5,2.2,12.1,4.6,8,5.3,13.3,14.4,13.3,24.7s-5.3,19.4-13.3,24.7h0c6.6,4.3,15.5,1.8,19.3-5.1,3.2-5.8,5.1-12.6,5.1-19.7,0-11.5-4.8-21.9-12.4-29.3v-.2ZM108.3,70.7c.8-1,2.1-1.5,3.3-1.3.3,1.2,0,2.5-.8,3.5s-2.1,1.5-3.3,1.3c-.3-1.2,0-2.5.8-3.5ZM109.5,52.5c1,.7,1.7,1.9,1.7,3.2s-.6,2.5-1.7,3.2c-1-.7-1.7-1.9-1.7-3.2s.6-2.5,1.7-3.2ZM99.1,48.4c-.3-1.6,1.1-3,2.7-2.7.9.2,1.7.9,1.8,1.8.3,1.6-1.1,3-2.7,2.7-.9-.2-1.6-.9-1.8-1.8ZM83.2,50.2c-.9-.2-1.7-.9-1.8-1.8-.3-1.6,1.1-3,2.7-2.7.9.2,1.6.9,1.8,1.8.3,1.6-1.1,3-2.7,2.7ZM75.5,58.8c-1-.7-1.7-1.9-1.7-3.2s.6-2.5,1.7-3.2c1,.7,1.7,1.9,1.7,3.2s-.6,2.5-1.7,3.2ZM77.6,74.2c-1.3,0-2.5-.4-3.3-1.3-.8-1-1.1-2.3-.8-3.5,1.3,0,2.5.4,3.3,1.3.8,1,1.1,2.3.8,3.5ZM90.4,55.1c-.3-1.6,1.1-3,2.7-2.7.9.2,1.6.9,1.8,1.8.3,1.6-1.1,3-2.7,2.7-.9-.2-1.7-.9-1.8-1.8Z"/>
    </g>
  </g>
</svg>