<?xml version="1.0" encoding="UTF-8"?>
<svg xmlns="http://www.w3.org/2000/svg" version="1.1"  width="208" height="43"  viewBox="0 0 624 128">
  <defs>
    <style>
      .cls-1 {
        fill: #85654a;
      }

      .cls-2 {
        fill: #784b17;
      }

      .cls-3 {
        fill: #ebd875;
      }

      .cls-4 {
        fill: #d3ad44;
      }

      .cls-5 {
        fill: #e0c461;
      }

      .cls-6 {
        fill: #f5eb99;
      }

      .cls-7 {
        fill: #dfc25d;
      }

      .cls-8 {
        fill: #613613;
      }

      .cls-9 {
        fill: #cca13c;
      }

      .cls-10 {
        fill: #ecdb87;
      }

      .cls-11 {
        fill: #dbbb54;
      }

      .cls-12 {
        fill: #cda13c;
      }

      .cls-13 {
        fill: #cda139;
      }

      .cls-14 {
        fill: #996a1f;
      }

      .cls-15 {
        fill: #e0c569;
      }

      .cls-16 {
        fill: #f7f097;
      }

      .cls-17 {
        fill: #9b6c22;
      }

      .cls-18 {
        fill: #cda13a;
      }

      .cls-19 {
        fill: #b0832f;
      }

      .cls-20 {
        fill: #9e7023;
      }

      .cls-21 {
        fill: #f7ef97;
      }

      .cls-22 {
        fill: #744f31;
      }

      .cls-23 {
        fill: #f0e38e;
      }

      .cls-24 {
        fill: #cb9d33;
      }

      .cls-25 {
        fill: #b48424;
      }

      .cls-26 {
        fill: #7c4f19;
      }

      .cls-27 {
        fill: #f1e482;
      }

      .cls-28 {
        fill: #d6b34d;
      }

      .cls-29 {
        fill: #d3ae55;
      }

      .cls-30 {
        fill: #9e7024;
      }

      .cls-31 {
        fill: #f1e381;
      }

      .cls-32 {
        fill: #d3ad45;
      }

      .cls-33 {
        fill: #e5ce73;
      }

      .cls-34 {
        fill: #9b6d21;
      }

      .cls-35 {
        fill: #c1912d;
      }

      .cls-36 {
        fill: #e7d177;
      }

      .cls-37 {
        fill: #e5ce75;
      }

      .cls-38 {
        fill: #603613;
      }

      .cls-39 {
        fill: #a57621;
      }

      .cls-40 {
        fill: #c99b32;
      }

      .cls-41 {
        fill: #85581a;
      }

      .cls-42 {
        fill: #7d5019;
      }

      .cls-43 {
        fill: #6f4929;
      }

      .cls-44 {
        fill: #734e2f;
      }

      .cls-45 {
        fill: #633a18;
      }

      .cls-46 {
        fill: #ebd87d;
      }

      .cls-47 {
        fill: #ebda87;
      }

      .cls-48 {
        fill: #7c4f1a;
      }

      .cls-49 {
        fill: #cba03a;
      }

      .cls-50 {
        fill: #cda642;
      }

      .cls-51 {
        fill: #a57522;
      }

      .cls-52 {
        fill: #603612;
      }

      .cls-53 {
        fill: #c99b30;
      }

      .cls-54 {
        fill: #be8d26;
      }

      .cls-55 {
        fill: #a87822;
      }

      .cls-56 {
        fill: #f0e380;
      }

      .cls-57 {
        fill: #e2c862;
      }

      .cls-58 {
        fill: #c49732;
      }

      .cls-59 {
        fill: #895b1c;
      }

      .cls-60 {
        fill: #f0e284;
      }

      .cls-61 {
        fill: #d7b54d;
      }

      .cls-62 {
        fill: #ab7b23;
      }

      .cls-63 {
        fill: #ebd979;
      }

      .cls-64 {
        fill: #c5b6a9;
      }

      .cls-65 {
        fill: #8a5c1c;
      }

      .cls-66 {
        fill: #e7d270;
      }

      .cls-67 {
        fill: #dec273;
      }

      .cls-68 {
        fill: #cba24b;
      }

      .cls-69 {
        fill: #cea753;
      }

      .cls-70 {
        fill: #dfc45e;
      }

      .cls-71 {
        fill: #f0e287;
      }

      .cls-72 {
        fill: #c49632;
      }

      .cls-73 {
        fill: #ca9e35;
      }

      .cls-74 {
        fill: #95671e;
      }

      .cls-75 {
        fill: #d2ac43;
      }

      .cls-76 {
        fill: #d7b554;
      }

      .cls-77 {
        fill: #8a5e22;
      }

      .cls-78 {
        fill: #f2e69b;
      }

      .cls-79 {
        fill: #dfc35e;
      }

      .cls-80 {
        fill: #d2aa41;
      }

      .cls-81 {
        fill: #d3ac45;
      }

      .cls-82 {
        fill: #663b16;
      }

      .cls-83 {
        fill: #a57622;
      }

      .cls-84 {
        fill: #d5b048;
      }

      .cls-85 {
        fill: #c7b8ac;
      }

      .cls-86 {
        fill: #e1c660;
      }

      .cls-87 {
        fill: #ca9d33;
      }

      .cls-88 {
        fill: #e0c45f;
      }

      .cls-89 {
        fill: #f3e887;
      }

      .cls-90 {
        fill: #dfc45f;
      }

      .cls-91 {
        fill: #d3ac44;
      }

      .cls-92 {
        fill: #dec05c;
      }

      .cls-93 {
        fill: #c4942b;
      }

      .cls-94 {
        fill: #d5b049;
      }

      .cls-95 {
        fill: #e5ce69;
      }

      .cls-96 {
        fill: #c19028;
      }

      .cls-97 {
        fill: #f5ea88;
      }

      .cls-98 {
        fill: #87674d;
      }

      .cls-99 {
        fill: #e1c670;
      }

      .cls-100 {
        fill: #dec15b;
      }

      .cls-101 {
        fill: #85571a;
      }

      .cls-102 {
        fill: #91631d;
      }

      .cls-103 {
        fill: #996c24;
      }

      .cls-104 {
        fill: #e0c460;
      }

      .cls-105 {
        fill: #f2e684;
      }

      .cls-106 {
        fill: #936520;
      }

      .cls-107 {
        fill: #d9b858;
      }

      .cls-108 {
        fill: #eddc83;
      }

      .cls-109 {
        fill: #ecdc79;
      }

      .cls-110 {
        fill: #a17220;
      }

      .cls-111 {
        fill: #84571b;
      }

      .cls-112 {
        fill: #efe17e;
      }

      .cls-113 {
        fill: #ddbe58;
      }

      .cls-114 {
        fill: #7b4f1b;
      }

      .cls-115 {
        fill: #92641f;
      }

      .cls-116 {
        fill: #e9d578;
      }

      .cls-117 {
        fill: #c3952f;
      }

      .cls-118 {
        fill: #eddb79;
      }

      .cls-119 {
        fill: #e1c76d;
      }

      .cls-120 {
        fill: #cb9f37;
      }

      .cls-121 {
        fill: #c7972d;
      }

      .cls-122 {
        fill: #e1c66e;
      }

      .cls-123 {
        fill: #f0e183;
      }

      .cls-124 {
        fill: #d8b55b;
      }

      .cls-125 {
        fill: #6e4317;
      }

      .cls-126 {
        fill: #efe07e;
      }

      .cls-127 {
        fill: #ddbf5a;
      }

      .cls-128 {
        fill: #9a6c1f;
      }

      .cls-129 {
        fill: #d8b55e;
      }

      .cls-130 {
        fill: #e1c662;
      }

      .cls-131 {
        fill: #966822;
      }

      .cls-132 {
        fill: #b88829;
      }

      .cls-133 {
        fill: #8f6222;
      }

      .cls-134 {
        fill: #6e4215;
      }

      .cls-135 {
        fill: #dec15c;
      }

      .cls-136 {
        fill: #885b1e;
      }

      .cls-137 {
        fill: #aa7b24;
      }

      .cls-138 {
        fill: #8c5e1c;
      }

      .cls-139 {
        fill: #8b6436;
      }

      .cls-140 {
        fill: #643c1e;
      }

      .cls-141 {
        fill: #835822;
      }

      .cls-142 {
        fill: #d8b650;
      }

      .cls-143 {
        fill: #704a2b;
      }

      .cls-144 {
        fill: #d8b54f;
      }

      .cls-145 {
        fill: #cfa53e;
      }

      .cls-146 {
        fill: #86581a;
      }

      .cls-147 {
        fill: #d5b149;
      }

      .cls-148 {
        fill: #d8b64e;
      }

      .cls-149 {
        fill: #c3922a;
      }

      .cls-150 {
        fill: #f1e382;
      }

      .cls-151 {
        fill: #d8b54e;
      }

      .cls-152 {
        fill: #d4af49;
      }

      .cls-153 {
        fill: #6d4215;
      }

      .cls-154 {
        fill: #d4af53;
      }

      .cls-155 {
        fill: #f1e481;
      }

      .cls-156 {
        fill: #cea33e;
      }

      .cls-157 {
        fill: #d8b64f;
      }

      .cls-158 {
        fill: #c5942a;
      }

      .cls-159 {
        fill: #f3e996;
      }

      .cls-160 {
        fill: #f1e386;
      }

      .cls-161 {
        fill: #ecdb79;
      }

      .cls-162 {
        fill: #b38325;
      }

      .cls-163 {
        fill: #623815;
      }

      .cls-164 {
        fill: #eddc7a;
      }

      .cls-165 {
        fill: #d9b851;
      }

      .cls-166 {
        fill: #9a6b1f;
      }

      .cls-167 {
        fill: #eede7c;
      }

      .cls-168 {
        fill: #ba8926;
      }

      .cls-169 {
        fill: #dbbc56;
      }

      .cls-170 {
        fill: #8e6f56;
      }

      .cls-171 {
        fill: #eddd7a;
      }

      .cls-172 {
        fill: #ddbf59;
      }

      .cls-173 {
        fill: #a37423;
      }

      .cls-174 {
        fill: #7d5a3d;
      }

      .cls-175 {
        fill: #633814;
      }

      .cls-176 {
        fill: #cb9e35;
      }

      .cls-177 {
        fill: #f6ed8c;
      }

      .cls-178 {
        fill: #85571b;
      }

      .cls-179 {
        fill: #cfa63e;
      }

      .cls-180 {
        fill: #cda239;
      }

      .cls-181 {
        fill: #bc8c28;
      }

      .cls-182 {
        fill: #e1c771;
      }

      .cls-183 {
        fill: #b38326;
      }

      .cls-184 {
        fill: #d4af46;
      }

      .cls-185 {
        fill: #815419;
      }

      .cls-186 {
        fill: #cfa63f;
      }

      .cls-187 {
        fill: #f2e58e;
      }

      .cls-188 {
        fill: #d7b45b;
      }

      .cls-189 {
        fill: #d1aa41;
      }

      .cls-190 {
        fill: #ebd978;
      }

      .cls-191 {
        fill: #cca23c;
      }

      .cls-192 {
        fill: #dfc465;
      }

      .cls-193 {
        fill: #663b13;
      }

      .cls-194 {
        fill: #eedf7c;
      }

      .cls-195 {
        fill: #633915;
      }

      .cls-196 {
        fill: #d0a73f;
      }

      .cls-197 {
        fill: #ecdb78;
      }

      .cls-198 {
        fill: #f3e886;
      }

      .cls-199 {
        fill: #ae7e23;
      }

      .cls-200 {
        fill: #c4932b;
      }

      .cls-201 {
        fill: #966a28;
      }

      .cls-202 {
        fill: #d6b24e;
      }

      .cls-203 {
        fill: #f1e58b;
      }

      .cls-204 {
        fill: #e5cf70;
      }

      .cls-205 {
        fill: #bd8e2a;
      }

      .cls-206 {
        fill: #8a5d1f;
      }

      .cls-207 {
        fill: #ba8a28;
      }

      .cls-208 {
        fill: #d0a740;
      }

      .cls-209 {
        fill: #e5cd68;
      }

      .cls-210 {
        fill: #b38224;
      }

      .cls-211 {
        fill: #b18124;
      }

      .cls-212 {
        fill: #e6cf6a;
      }

      .cls-213 {
        fill: #755132;
      }

      .cls-214 {
        fill: #8b6333;
      }

      .cls-215 {
        fill: #ac7d26;
      }

      .cls-216 {
        fill: #d3ad47;
      }

      .cls-217 {
        fill: #8b5d1c;
      }

      .cls-218 {
        fill: #dbbc55;
      }

      .cls-219 {
        fill: #d6b25b;
      }

      .cls-220 {
        fill: #a77722;
      }

      .cls-221 {
        fill: #86581b;
      }

      .cls-222 {
        fill: #6d4219;
      }

      .cls-223 {
        fill: #e8d377;
      }

      .cls-224 {
        fill: #f1e484;
      }

      .cls-225 {
        fill: #8d5f1c;
      }

      .cls-226 {
        fill: #f0e27f;
      }

      .cls-227 {
        fill: #613612;
      }

      .cls-228 {
        fill: #603512;
      }

      .cls-229 {
        fill: #c99c34;
      }

      .cls-230 {
        fill: #ecda76;
      }

      .cls-231 {
        fill: #ead773;
      }

      .cls-232 {
        fill: #fdfefe;
      }

      .cls-233 {
        fill: #cea33a;
      }

      .cls-234 {
        fill: #f2e584;
      }

      .cls-235 {
        fill: #d2ac4f;
      }

      .cls-236 {
        fill: #bb8b28;
      }

      .cls-237 {
        fill: #e6d06b;
      }

      .cls-238 {
        fill: #6a3f18;
      }

      .cls-239 {
        fill: #ebd977;
      }

      .cls-240 {
        fill: #dabb61;
      }

      .cls-241 {
        fill: #d4ae46;
      }

      .cls-242 {
        fill: #d4af58;
      }

      .cls-243 {
        fill: #f5eb89;
      }

      .cls-244 {
        fill: #ddc05a;
      }

      .cls-245 {
        fill: #d8b754;
      }

      .cls-246 {
        fill: #a27424;
      }
    </style>
  </defs>
  <!-- Generator: Adobe Illustrator 28.6.0, SVG Export Plug-In . SVG Version: 1.2.0 Build 709)  -->
  <g>
    <g id="Layer_1">
      <path class="cls-232" d="M533.1,83c-1.6-6.8-3.7-13.4-8.5-18.8-1.1-1.3-.6-2.7.3-4,2.8-3.8,5.4-7.7,8.2-11.5v34.3Z"/>
      <path class="cls-24" d="M456.5,56.8h0c0,0,0,0,0,0v9.8c-.5,0-.7.5-1.2.6-4.2-.1-8.4-.1-12.6,0-.3,0-.5,0-.8-.1-.9-.4-1.6-1-2.3-1.7,0-.7.6-.5,1-.6,1.4,0,2.7,0,4.1,0,3.3,0,6.5,0,9.8,0,.5,0,1,.2,1.4-.4,0-.3,0-.7,0-1,0-.5,0-.9,0-1.4,0-1.3,0-2.7,0-4,0-.4,0-.8.4-1Z"/>
      <path class="cls-136" d="M222.6,4.6c.3.2.7.4.9.8.3.7.1,1.3-.5,1.8-.7.5-1.3.4-1.9-.2-.5-.6-.5-1.2,0-1.8.2-.2.4-.4.6-.6.3,0,.6,0,1,0Z"/>
      <path class="cls-228" d="M299.5,61.7c0-4.8,0-9.6,0-14.3,0-.5.2-.6.6-.6,1,0,2.1,0,3.1,0,.5,0,.8.3,1,.6,3.3,3.7,6.7,7.2,9.9,11.1,0,0,.1.1.3.2,0-1.7,0-3.3,0-5,0-2.1,0-4.1,0-6.2,0-.6.2-.8.8-.8,1.3,0,2.6,0,3.9,0,.4,0,.6,0,.6.6,0,4.8,0,9.5,0,14.3-.3.3-.6.3-1,.3-2.3,0-4.6,0-6.9,0-.2,0-.4,0-.5-.1-2.2-2.2-4.2-4.7-6.4-7.2v6.8c0,.4-.3.6-.7.6-1.2,0-2.5,0-3.7,0-.3,0-.6-.2-.7-.4Z"/>
      <path class="cls-228" d="M424.8,61.6c-1.9-1.9-3.7-4-5.4-6.1-.2-.2-.2-.5-.6-.6,0,0,0,0,0,0,0,0,0,0,0,0,0,2.3.1,4.6,0,6.9-1,.5-2,.2-3,.3-.7,0-1.4.2-2-.3,0-4.8,0-9.7,0-14.5,0-.5.1-.6.6-.6,1.1,0,2.1,0,3.2,0,.5,0,.7.3,1,.6,3.3,3.7,6.8,7.3,10,11.2.3-.1.1-.4.1-.6,0-3.5,0-6.9,0-10.4,0-.7.1-.9.8-.9,1.4,0,2.8,0,4.2,0,0,.1,0,.3,0,.5,0,4.5,0,9,0,13.5,0,.6-.2.9-.8.9-2.4,0-4.8,0-7.2,0-.3,0-.6-.2-.8-.3Z"/>
      <path class="cls-228" d="M339.2,61.8c-3-7.4,2.3-15.3,10.3-15.4,4.3,0,7.8,1.5,10.2,5.1,2.1,3.1,2.2,6.5,1.1,9.9-.2.3-.5.4-.8.5-1.5,0-3,0-4.5,0-.2,0-.3,0-.4-.2-.3-.5,0-.9.2-1.2,1.3-2.8.7-5.6-1.5-7.7-2.1-2-5.5-2-7.6,0-2.3,2.1-2.8,4.9-1.6,7.8.2.4.6.8,0,1.3-1.8.2-3.6.2-5.5,0Z"/>
      <path class="cls-228" d="M384.4,47.1c0-.4.4-.3.6-.3,1.3,0,2.6,0,3.9,0,.6,0,.7.2.7.7,0,2.7,0,5.4,0,8.4.6-.8,1-1.3,1.3-1.9,1.6-2.2,3.2-4.5,4.8-6.7.2-.3.3-.6.7-.6,1.7,0,3.5,0,5.4,0-1.8,2.6-3.5,5-5.3,7.5-.6.9-1.2,1.8-1.8,2.6-.4.4-.3.7,0,1.2.9,1.2,1.7,2.3,2.5,3.5,0,.4-.3.5-.6.5-1.7.1-3.5.4-5.2-.2-.6-.8-1.2-1.5-1.9-2.5v2.5c-.2.2-.6.3-.9.3-1.1,0-2.1,0-3.2,0-.7,0-1.1-.3-1-1.1,0-4.3,0-8.6,0-13,0-.3,0-.7,0-1Z"/>
      <path class="cls-228" d="M437.6,62.1c-1.7-3.4-1-9,1.6-11.8,4.4-4.8,11.1-4.7,15.1-2.8.7.3.9.7.8,1.5-.2,1.1-.2,2.3-.3,3.4-.3.2-.5-.1-.7-.2-2.2-1.2-4.5-1.7-7-1.2-4.8,1-7,6.7-4.1,10.7,0,.3-.2.4-.4.4-1.7.1-3.4.2-5.1,0Z"/>
      <path class="cls-228" d="M364.7,62c-3.1-7.5,2.3-15.6,10.3-15.6,2,0,4,0,5.9.9.5.2.7.4.6,1-.1,1.2-.2,2.5-.3,3.9-1.4-.8-2.8-1.2-4.4-1.3-3.8-.3-7,1.8-7.6,5.3-.4,1.9,0,3.8,1.1,5.4,0,.5-.4.5-.7.5-1.7,0-3.3.2-5,0Z"/>
      <path class="cls-57" d="M227.8,70c1.7-2.3,3.8-4.1,6.3-5.4.4.4.3,1,.3,1.5,0,4.6,0,9.3,0,13.9,0,.4-.1.8-.2,1.2-1.3,1.5-3.1,2.5-4.8,3.5-.4.2-.8.4-1.3.6-.7-.2-.5-.8-.5-1.3,0-3,0-5.9,0-8.9,0-1.3,0-2.7,0-4,0-.3,0-.7.1-1Z"/>
      <path class="cls-177" d="M225.6,70.8c-1.6,2.8-2.9,5.7-3.5,8.8-.1.6-.2,1.2-.4,1.8-.6-3.6-1.8-6.9-3.6-10,.2-1.3,0-2.6,0-3.8,0-2.5,0-4.9,0-7.4,0-.7,0-1.4.5-1.9,1.5,2.4,2.3,5.1,3,8,.3-1.2.6-2.2.9-3.1.6-1.9,1.3-3.8,2.5-5.5.7.3.5,1,.5,1.5,0,3.7,0,7.4,0,11.1,0,.2,0,.3,0,.5Z"/>
      <path class="cls-165" d="M212.6,65.2c-2.1-1.5-4.4-2.8-6.8-3.7-.5-.2-.6-.5-.5-.9,1-4,2.5-7.7,4.3-11.4.2-.5.4-.5.8-.2.9.7,1.8,1.3,2.5,2.2.3.4.3.8.3,1.3,0,3.8,0,7.7,0,11.5,0,.3,0,.6-.1.9-.1.2-.2.5-.6.3Z"/>
      <path class="cls-153" d="M404.4,62.5c0-5,0-10,0-15.1,0-.5.2-.6.7-.6,1.3,0,2.6,0,3.8,0,.6,0,.7.2.7.8,0,4.6,0,9.2,0,13.8-.2.4.2.9-.3,1.3-1.6.2-3.3.4-4.9-.2Z"/>
      <path class="cls-4" d="M234.3,81.1c-.2-.3-.1-.7-.1-1,0-4.6,0-9.3,0-13.9,0-.5,0-1.1,0-1.6,1.4-.9,2.9-1.6,4.5-2.2.4-.2.6-.2.7.3.8,4.3.8,8.6-.9,12.7-.9,2.2-2.3,4.1-4.1,5.7Z"/>
      <path class="cls-237" d="M212.6,65.2c.5,0,.4-.5.4-.8,0-4.4,0-8.8,0-13.2,2.4,1.9,4.4,4.3,5.8,7.1-.4,4,0,8.1-.2,12.1,0,.4.2.9-.4,1-1.5-2.4-3.4-4.4-5.6-6.2Z"/>
      <path class="cls-38" d="M277.3,61.7c0-.3,0-.6,0-.9,0-4.4,0-8.7,0-13.1,0-.7.2-.9.9-.9,1.1,0,2.2,0,3.4,0,.8,0,1,.1,1,1,0,4,0,7.9,0,11.9,0,.6,0,1.2,0,1.8,0,.4-.3.4-.5.4-1.4,0-2.9.1-4.3,0-.2,0-.3-.1-.4-.2Z"/>
      <path class="cls-97" d="M223.7,92.1c-.6-.8-1-1.7-1.4-2.6-.2-.4-.2-.6.3-.8.8-.2,1.5-.5,2.3-.7.8.1,1.5,0,2.3,0,4.4,0,8.8-.1,13.1.1,1.9.9,3.4,2.1,4.8,3.6-.3.6-1,.5-1.5.5-3.6,0-7.1,0-10.7,0-2.6,0-5.2,0-7.8,0-.5,0-1,0-1.5-.3Z"/>
      <path class="cls-228" d="M328.3,46.9c0,0,0,.2,0,.3,0,4.9,0,9.9,0,14.8-.2.2-.5.3-.8.3-1.4,0-2.9.3-4.2-.3-.1-.5,0-1,0-1.5,0-4.3,0-8.5,0-12.8,0-.7.2-.9.9-.9,1.4,0,2.8,0,4.2,0Z"/>
      <path class="cls-228" d="M290.6,61.5c.2-4.5,0-9.1,0-13.7,0-.8.1-1.1,1-1.1,1.3.1,2.6,0,3.9,0,.1.2,0,.4,0,.7,0,4.5,0,8.9,0,13.4,0,.8-.3,1.1-1,1.1-1.1,0-2.1,0-3.2,0-.4,0-.8,0-.9-.5Z"/>
      <path class="cls-243" d="M220.5,88.7c.8,0,1.1.3.6,1.1-.6,1-.9,2.1-1.7,2.9-.3,0-.7.1-1,.1-6.3,0-12.6,0-19,0-.6,0-1.2.1-1.6-.3,1.3-1.4,2.7-2.7,4.4-3.7.5-.1,1-.1,1.4-.1,5.5,0,11,0,16.5,0,.1,0,.3,0,.4-.1Z"/>
      <path class="cls-198" d="M227.8,70c.1.5.2,1,.2,1.5,0,4.2,0,8.4,0,12.6,0,.4-.1.8.2,1.1-1.6,1-3.4,1.5-5.2,2.1-.4.1-.6.1-.6-.4.3-6,1.5-11.8,5.2-16.7,0,0,.1-.1.2-.2Z"/>
      <path class="cls-230" d="M225.6,70.8c-.6-.1-.3-.6-.3-1,0-3.7,0-7.3,0-11,0-.4,0-.8-.2-1.2,1.1-2.1,2.6-4,4.4-5.6.4.2.5.6.5,1,0,4.2,0,8.3,0,12.5,0,.2,0,.3-.1.5-1.5,1.5-3.1,3-4.3,4.8Z"/>
      <path class="cls-218" d="M209.5,64.6c1.4.7,2.6,1.6,3.7,2.7.3.4.3.8.3,1.3,0,4.5,0,9,0,13.4,0,.5.3,1.3-.7,1.2-1.5-.9-2.7-2.1-3.9-3.5.2-4.5,0-9.1.1-13.6,0-.5-.2-1.2.5-1.6Z"/>
      <path class="cls-189" d="M209.5,64.6c-.2.4-.2.8-.2,1.2,0,4.3,0,8.5,0,12.8,0,.4.1.9-.4,1.2-2.4-2.6-3.7-5.7-4.2-9.2-.4-2.5-.3-5,.1-7.5,0-.6.2-.8.8-.5,1.3.6,2.6,1.2,3.8,2Z"/>
      <path class="cls-95" d="M212.7,83.3c.6-.1.4-.6.4-.9,0-5,0-10,0-15,1.7,1.3,3,3,4.1,4.9.2.5.3.9.3,1.4,0,3.4,0,6.8,0,10.3,0,.6.1,1.4-.7,1.7-1.4-.6-2.8-1.3-4-2.3Z"/>
      <path class="cls-158" d="M205.1,56.9c-.3,1.1-.6,2.3-.9,3.4,0,.3-.2.5-.6.4-.9-.3-1.7-.6-2.6-.8-.3-.4-.3-.9-.3-1.4,0-4.4,0-8.8,0-13.1,0-.6-.1-1.2.5-1.5,1.3.5,2.5,1.2,3.6,1.8.2.3.3.6.3.9,0,3.5.1,7,0,10.4Z"/>
      <path class="cls-86" d="M229.9,66c-.2-.4-.2-.8-.2-1.2,0-3.8,0-7.7,0-11.5,0-.4,0-.8-.2-1.2,1.2-1.3,2.6-2.3,4-3.4.4-.3.6-.1.6.3-.1.9,0,1.8,0,2.7,0,3.8-.1,7.6,0,11.4-1.4.9-2.9,1.8-4.2,2.9Z"/>
      <path class="cls-209" d="M197.7,92.5c6.8,0,13.6,0,20.3,0,.4,0,.9,0,1.3.2-.7.9-1.3,1.9-2.3,2.5-.3.1-.5.2-.8.2-6.4-.1-12.8,0-19.2,0-.5,0-1,0-1.5-.3.6-.9,1.3-1.8,2.1-2.5Z"/>
      <path class="cls-96" d="M200.4,61c.8.2,1.5.5,2.3.6.9.2,1.1.6.9,1.5-.5,2.9-.5,5.9,0,8.8.2,1.2.6,2.3,1,3.5.1,1.1-.2,2.3-.1,3.4,0,.3,0,.5-.3.7-1.5-.9-2.8-2.1-4-3.3.2-4.7,0-9.3,0-14,0-.4,0-.8.1-1.1Z"/>
      <path class="cls-53" d="M241.9,60s0,0-.2.1c-1.6.5-1.6.5-2.1-1.1-.5-1.7-1.1-3.3-1.7-5-.1-2.3,0-4.6,0-6.9,0-.5,0-1,.3-1.4,1.2-.7,2.4-1.4,3.6-1.9.4.3.3.8.3,1.3,0,4.5,0,9,0,13.5,0,.4,0,.9-.3,1.3Z"/>
      <path class="cls-157" d="M195.6,95c6.1,0,12.2,0,18.3,0,1,0,2.1,0,3.1.2-1.2,1-2.3,1.9-3.7,2.5-.4-.2-.9,0-1.3,0-5.5,0-10.9,0-16.4,0-.5,0-1.1.1-1.5-.3.4-.8,1-1.6,1.6-2.3Z"/>
      <path class="cls-193" d="M249.2,40.8q2-1,2.2,1.2c.5,5,.7,9.9.4,14.9,0,1-.3,1.5-1.4,1.5-.4,0-.8,0-1.1,0-.4-.4-.3-.8-.3-1.3,0-5.1,0-10.1,0-15.2,0-.4,0-.9.3-1.3Z"/>
      <path class="cls-185" d="M249.2,40.8v17.7c-.7.2-1.5.3-2.3.4-.6-.2-.5-.7-.5-1.2,0-1.9,0-3.9,0-5.8,0-2.9,0-5.7,0-8.6,0-.5,0-1,.3-1.5.8-.4,1.6-.8,2.5-1Z"/>
      <path class="cls-54" d="M240.3,73.8c1-3.8.9-7.7.1-11.5,0-.4,0-.6.4-.7.9-.2,1.7-.6,2.6-.6.4.5.3,1,.3,1.6,0,4.4,0,8.7,0,13.1-.8,1.1-2,1.9-3,2.8-.4-.3-.5-.7-.5-1.2,0-1.1,0-2.2,0-3.3Z"/>
      <path class="cls-147" d="M234.1,63.1c-.4-.2-.4-.6-.4-1,0-4,0-8,0-12.1,0-.4,0-.8.4-1,2,3.5,3.5,7.3,4.6,11.2.2.7,0,.9-.6,1.1-1.4.5-2.7,1.2-4,1.7Z"/>
      <path class="cls-128" d="M246.7,41.8c0,5.4,0,10.7,0,16.1,0,.3-.1.7.2,1-.6.2-1.3.3-1.9.4-.6.2-.8,0-1-.6-.1-.4-.1-.8-.1-1.2,0-4.4,0-8.7,0-13.1,0-.5,0-1,.3-1.5.8-.5,1.6-.8,2.5-1.1Z"/>
      <path class="cls-70" d="M246.8,93.7c.6.6,1.2,1.3,1.6,2.1-.5.4-1,.3-1.6.3-5.7,0-11.5,0-17.2,0-.7,0-1.4,0-2.1,0-.9-.6-1.7-1.3-2.4-2.1.4-.7,1.1-.5,1.6-.5,4.3,0,8.5,0,12.8,0,2,0,4,0,6,0,.4,0,.8,0,1.2.1Z"/>
      <path class="cls-52" d="M194.1,58.5c-2.2,0-2.2,0-2.4-2.2-.4-5.4,0-10.8.6-16.4.6.2,1.1.5,1.6.7.5.3.5.7.5,1.2,0,5.2,0,10.5,0,15.7,0,.3,0,.7-.3,1Z"/>
      <path class="cls-62" d="M201.2,43.8c-.3.4-.2.9-.2,1.3,0,4.9,0,9.8,0,14.8-.8-.1-1.7-.3-2.5-.6-.3-.4-.3-.8-.3-1.3,0-4.7,0-9.5,0-14.2,0-.4,0-.9.3-1.3.9.3,1.9.8,2.7,1.3Z"/>
      <path class="cls-3" d="M220.5,88.7c-.2.4-.6.4-.9.4-5.5,0-11,0-16.5,0-.3,0-.6,0-.9-.2.5-.6,1.5-.7,2-1.3.6-.5,1.3-.7,2.1-.8,2.4-.7,4.8-1.1,7.3-1,.4,0,.8.1,1.2.3,1.8,1.1,3.8,1.8,5.8,2.6Z"/>
      <path class="cls-84" d="M227.6,96.2c.3-.5.7-.4,1.2-.4,6.6,0,13.1,0,19.7,0,.5.6.9,1.2,1.3,1.9-.4.4-1,.3-1.5.3-5.5,0-11,0-16.5,0-.2,0-.4,0-.7,0-1.3-.4-2.4-1.1-3.5-1.9Z"/>
      <path class="cls-102" d="M198.5,42.5c0,5.6,0,11.1,0,16.7-1-.1-2.1-.3-3.1-.6.5-.6.5-1.2.5-1.9,0-4.6,0-9.1,0-13.7,0-.5-.1-1.1.3-1.5.8.2,1.6.6,2.3,1Z"/>
      <path class="cls-82" d="M456.5,56.8c0,1.7,0,3.4,0,5.2-.3.3-.6.3-1,.3-1.2,0-2.5.3-3.6-.3-.1-1.3-.1-1.2-1.4-1.3-.8,0-2,.4-2.5-.2-.4-.5-.1-1.6-.1-2.4,0-.3,0-.5,0-.8,0-.4,0-.6.6-.6,2.6,0,5.2,0,7.9,0,0,0,.2,0,.3.1Z"/>
      <path class="cls-227" d="M218.6,39.2c.1,0,.2,0,.3,0,.6.1,1.1-.2,1.5-.6,1.1-1,2.2-1.1,3.3-.4,1.1.9,1.4,2.4.4,3.5-.8.8-.8,1.5-.6,2.4.2.4-.2.6-.4.9-.8.8-1.6,1.5-2.4,2.3-.6.6-.6.2-.7-.3,0-.4.1-.9.2-1.3.3-1.2.2-1.4-.9-1.9-.2,0-.4-.1-.5-.3.2-.6.3-1.2.5-1.7.2-.6,0-.8-.6-1-.7-.2-.5.4-.6.7-.1.4-.2.8-.3,1.2,0,.3,0,.8-.4.7-.5-.1-1.2-.2-1-1,.1-.4.2-.9.4-1.3.2-.4-.1-.7,0-1,.5-.5,1-1,1.8-.9Z"/>
      <path class="cls-231" d="M246.8,93.7c-.4.2-.8.2-1.2.2-6.4,0-12.7,0-19.1,0-.4,0-.9,0-1.3.2-.6-.5-1.1-1.2-1.5-1.9,6.7,0,13.4,0,20.1,0,.4,0,.9,0,1.3-.2.6.5,1.2,1.1,1.7,1.8Z"/>
      <path class="cls-176" d="M194.1,97.3c6,0,12,0,18.1,0,.4,0,.9-.2,1.2.3-6.3,2.9-12.8,2.3-19.4,1.1-.7-.1-.7-.4-.3-.8.2-.2.3-.4.4-.6Z"/>
      <path class="cls-25" d="M244.2,42.9c0,5,0,10.1,0,15.1,0,.6,0,1.2.8,1.2-1,.3-2.1.5-3.1.8,0-5.3,0-10.7,0-16,.7-.4,1.5-.8,2.3-1.1Z"/>
      <path class="cls-110" d="M243.7,75.6c-.5-.3-.3-.7-.3-1.1,0-4.5,0-9,0-13.5,1-.4,2-.6,3.1-.7-.2,4.1,0,8.2,0,12.3-.7,1.2-1.7,2.2-2.7,3.1Z"/>
      <path class="cls-112" d="M216.8,85.6c.4-.5.4-1.2.4-1.8,0-3.8,0-7.7,0-11.5,1.2,1.7,1.9,3.6,2.4,5.6.9,2.8,1.2,5.7,1.4,8.7,0,.8-.2.9-.9.6-1.1-.5-2.4-.8-3.4-1.5Z"/>
      <path class="cls-8" d="M261.3,70.4c-1.1,2.3-2.6,4.3-4.2,6.3-.2.3-.7.5,0,.8.2.1.1.5-.1.5-.4.2-.4-.3-.5-.5-.3.1-.5.4-.7.6-4.5,4.7-10,7.7-16.3,9.3-.1,0-.3,0-.4.2-.8,0-1.4-.2-1.9-.9,2.8-.7,5.6-1.5,8.2-2.8,6.1-2.9,10.7-7.3,14.1-13,.2-.3.4-.7.6-1,.9-.4,1-.3,1.1.3Z"/>
      <path class="cls-61" d="M416.7,86.5c-.8,1.3-1.8,2.2-3.3,2.5-1.6.3-2.3-.1-2.9-1.7-.7.5-1.3,1.1-2,1.4-.4.2-1,.5-1.3.1-.7-.9-1.2-.4-1.9-.1-1,.4-2,0-2.7-.9-.2-.3-.4-.6-.6-.9-.8.6-1.5,1.4-2.4,1.8-1.1.5-1.6.3-2.1-.7-.1-.2,0-.5,0-.7,0-1.4.7-1.8,2-1.4.7.2.3.8.6,1.2.5-.4,1-.7,1.6-1.1.9-.6,1.8-.3,2.8-.2.5.1.6.6.8,1,.3.4.7.6,1,0,.4-1,1.4-1.2,2.6-.6,0,.3,0,.6,0,.9.7-.3,1.2-.8,1.8-1.2.2-.1.3-.4.6,0,.1.2.2.3.2.6-.1.9.4,1.7,1.2,1.7.9,0,1.1-.7,1-1.5.4-.8,1.3-.9,2.2-.2.1,0,.2-.1.3-.2.4-.2.6,0,.6.4Z"/>
      <path class="cls-2" d="M196.2,41.6c0,5.3,0,10.7,0,16,0,.6,0,1.1-.8,1.1-.5,0-.9,0-1.3-.2,0-5.6,0-11.1,0-16.7,0-.4,0-.8-.2-1.2.8.2,1.6.6,2.3.9Z"/>
      <path class="cls-220" d="M200.4,61c.2.3.2.7.2,1,0,4.4,0,8.8,0,13.2,0,.3.2.8-.4.9-.9-.8-1.8-1.7-2.5-2.7,0-4,0-7.9,0-11.9,0-.4,0-.8.1-1.1.9.1,1.7.3,2.5.6Z"/>
      <path class="cls-11" d="M344.3,87.1c.7-.4,1.3-.8,1.9-1.3.9-.5,1.8-.3,2.7-.2.5.2.6.7.8,1,.2.3.3.6.7.5.4,0,.3-.4.4-.7,0-.3,0-.6.3-.8,1-.3,2-.4,2.6.7.3-.2.6-.4.9-.6,1.1,0,2.2-.3,3.3.2,0,.7,0,1.4,0,2.1,0,1-.6.9-1.3,1-.7,0-1.2-.2-1.1-1,0-.5,0-1.1,0-1.8-1.1.9-2.3,1.5-2.2,3-.3-.6-.8-.8-1.5-.7-.3,0-.6,0-.8,0-.2-.2-.3-.1-.5,0-1.5.8-2.9.5-3.8-1-.4-.6-.6-.6-1-.1-.6.7-1.4,1.2-2.3,1.5-.8.3-1.4.1-1.6-.8-.1-.5,0-1.1,0-1.6-.1-.9.4-1,1.1-1,1,0,1.2.1,1.2,1,0,.2,0,.5.1.6Z"/>
      <path class="cls-149" d="M342.7,66.2c-.8-.5-1.5-1.2-2-2,.4-.3.8-.3,1.3-.3,1.6,0,3.3,0,4.9,0,.4,0,.8,0,1.2-.2,1.2,0,2.4,0,3.6,0,.3.2.7.2,1.1.2,1.7,0,3.4,0,5,0,.5,0,1,0,1.3.5-.4.8-1.1,1.3-1.8,1.8-1,.2-2,0-3,0-3.5,0-7,0-10.6,0-.4,0-.7,0-1,0Z"/>
      <path class="cls-87" d="M231.1,98.1c.2-.4.6-.4,1-.4,5.9,0,11.7,0,17.6,0,.5.6.6.9-.4,1.1-5.1.9-10.2,1.4-15.3.2-1-.2-2-.5-3-1Z"/>
      <path class="cls-225" d="M197.9,60.4c.2.3.2.7.2,1.1,0,3.6,0,7.2,0,10.8,0,.4.1.9-.3,1.1-1-1.2-1.9-2.4-2.6-3.8.2-2.7,0-5.4.1-8.2,0-.5,0-1,.3-1.5.8,0,1.6.2,2.3.4Z"/>
      <path class="cls-200" d="M374.9,64.1c2.3.2,4.5,0,6.6-1.1,0,1-.1,1.9-.2,2.8-.2.8-.8.7-1.4.7-3.2,0-6.4,0-9.6,0-.6,0-1.3.1-1.9,0-.8-.5-1.5-1-2-1.8.2-.5.7-.5,1.2-.5,2.2,0,4.4-.1,6.6,0,.3,0,.6,0,.8-.1Z"/>
      <path class="cls-80" d="M342.7,66.2c.4-.2.8-.2,1.2-.2,4.1,0,8.1,0,12.2,0,.4,0,.8,0,1.2.2-2.9,2.6-8.4,3.3-12.4,1.4-.8-.4-1.6-.7-2.2-1.4Z"/>
      <path class="cls-93" d="M294.8,64.6c-.4.7-.9,1.3-1.5,1.7-.3.2-.6.1-.9.1-3.9,0-7.8,0-11.8,0-.3,0-.6,0-.9-.1-.7-.5-1.2-1.1-1.6-1.9.4-.4.8-.3,1.3-.3,1.9,0,3.7-.1,5.6,0,.2,0,.4,0,.6-.1.6,0,1.3,0,1.9,0,.4.3.7,0,1.1,0,1.7,0,3.4,0,5.1,0,.4,0,.9,0,1.1.5Z"/>
      <path class="cls-212" d="M237.3,86.8c.6.3,1.3.5,1.9.9.4.2.8.4,1.2.6-.4.2-.8.2-1.2.2-4.4,0-8.8,0-13.1,0-.4,0-.9.1-1.1-.4,1.7-.7,3.4-1.4,5-2.2.9-.4,1.9-.1,2.8,0,1.5.1,3,.5,4.5.9Z"/>
      <path class="cls-146" d="M246.4,72.5c-.3-.4-.3-.9-.3-1.5,0-3.2,0-6.5,0-9.7,0-.4,0-.8.4-1.1.8-.1,1.5-.3,2.3-.4.2.7,0,1.4.1,2.1,0,2.1,0,4.2,0,6.4-.6,1.5-1.5,2.9-2.5,4.2Z"/>
      <path class="cls-28" d="M328.3,46.9c-1.4,0-2.8,0-4.2,0-.5,0-.8.1-.8.7,0,4.8,0,9.5,0,14.3.4.5.3,1,.3,1.5,0,.5,0,.9,0,1.4,0,.2,0,.4,0,.7,0,.7.3.9.9.9,3.6,0,7.2,0,10.8,0,.6,0,1.1-.2,1.2-.9,0-.2.1-.4.4-.4,0,.8,0,1.6,0,2.4,0,.5-.2.7-.7.7-4.1,0-8.3,0-12.4,0-.6,0-.8-.2-.8-.8,0-6.7,0-13.3,0-20,0-.4,0-.8.5-.7,1.6,0,3.1-.1,4.7.1Z"/>
      <path class="cls-53" d="M337,65.2q-.4,1.5-2.2,1.5c-3.4,0-6.8,0-10.2,0q-1.3,0-1.3-1.4c0-.2,0-.4,0-.6.4-.4,1-.3,1.5-.3,3.3,0,6.6,0,9.9,0,.8,0,1.6,0,2.3-.5,0,.4,0,.8,0,1.1Z"/>
      <path class="cls-84" d="M368.3,66.4c.5-.2,1-.2,1.6-.2,3.4,0,6.8,0,10.2,0,.4,0,.8,0,1.1-.4,0,1.8,0,2-1.8,2.4-3.9.9-7.7.7-11.1-1.8Z"/>
      <path class="cls-184" d="M279.6,66.3c.5-.1,1-.2,1.5-.2,3.5,0,7.1,0,10.6,0,.5,0,1,0,1.5.2-1.4,1.4-3.1,2-5,2.2-3.1.4-6.1,0-8.6-2.2Z"/>
      <path class="cls-38" d="M317.7,75.8c3-3.8,9.3-4.8,13.3-2.1.7.5,1.4,1.1,1.8,1.9-1.1.5-2.2.3-3.3.2-1.9-2.8-6.2-2.6-8.4-1.1-.7.4-1.3,1-1.9,1.5-1,.5-1.4.4-1.5-.4Z"/>
      <path class="cls-134" d="M195.6,60c0,2.8,0,5.5,0,8.3,0,.5,0,1-.4,1.3-1.7-3-2.6-6.3-3.1-9.7,0-.4,0-.5.4-.5,1,.2,2.1.4,3.1.5Z"/>
      <path class="cls-196" d="M205.1,56.9c-.2-.5-.2-1-.2-1.5,0-3.3,0-6.5,0-9.8,1.2.6,2.4,1.3,3.5,2.1.3.2.5.4.3.8-1.4,2.7-2.5,5.6-3.6,8.5Z"/>
      <path class="cls-8" d="M225.7,35.7c-1.1-1.3-2.1-2.6-3.2-4-.8-.9-.8-.9-1.5,0-1.7,2.1-3.3,4.2-4.8,6.4-.5.4-.9.2-1.3-.2,1.9-2.9,4-5.7,6.3-8.3.4-.4.8-.6,1.2,0,1.6,1.8,3.1,3.6,4.5,5.6-.2.6-.6.6-1.1.5Z"/>
      <path class="cls-186" d="M178.7,62.3c-.4-1.3-.9-2.5-1.2-3.8-.2-.8.3-1,.9-.9,2.8,0,5.6.1,8.4.2,1.1,0,2.2.2,3.3.3.8,0,1.8-.2,1.3,1.3-4.1-.4-8.2-.6-12.5-.5.3,1.1.6,2.2.9,3.3-.3.7-.5.7-1.1.2Z"/>
      <path class="cls-208" d="M378.5,80.2c0,.1-.1.2-.2.4-.2.3-.4.4-.8.3-.4-.1-.4-.4-.4-.7,0-.5,0-1,0-1.5,0-.7,0-1.4,0-2.1.6.7,1.4.8,2.3.7.4,0,.8,0,1.1,0,.4.6.3,1.4.7,2,.3-.7.6-1.4.9-2,1,0,2-.4,2.9.4-.3.8,0,1.7-.2,2.5-.1,0,0,0,0,0-2.1.4-4.1.4-6.1,0Z"/>
      <path class="cls-155" d="M344.3,87.1c-.3-.1-.2-.4-.2-.6,0-.6-.2-.8-.8-.8-1.3,0-1.3,0-1.4,1.3,0,.3,0,.7,0,1-.3-1.1,0-2.3-.2-3.4-.2-.1-.2,0-.3.2-1.6,1.3-2.9.9-3.5-1.1-.2-.7-.3-1.4,0-2,1,0,2-.3,2.9.2,0,1-.5,1.7-1.5,2.1-.1,0-.4,0-.4.2,0,.2.2.3.3.4.6.3,1,0,1.5-.3,1-.7,1-1.7,1-2.8.2,0,.4,0,.6,0q1.2.2,1.8-.9c0,0,.1-.1.2,0,0,2.2-.3,4.3-.1,6.5Z"/>
      <path class="cls-151" d="M442.1,67c1.5-.4,3-.2,4.5-.2,2.4,0,4.9,0,7.3,0,.5,0,1.1,0,1.5.4-1.4.9-2.9,1.3-4.5,1.4-3.1.3-6.1.2-8.8-1.6Z"/>
      <path class="cls-162" d="M456.4,64.2c.2.8-.4.8-.9.8-4.9,0-9.7,0-14.6,0-.4,0-.8-.2-1.1.3-.5-.4-1-.9-1.3-1.4.3-.5.8-.4,1.3-.5,1.7,0,3.5,0,5.2,0,2,1,4,1.2,6.2.6,1.3,0,2.6,0,3.9,0,.4,0,.9,0,1.3.3Z"/>
      <path class="cls-90" d="M216.8,40.2c.3.3.2.6,0,.9-.3-1.1-1.2-.8-1.9-1-.5,0-.9,0-1.3-.4-.5-.5-1.1-.5-1.7-.7-2-.6-4-1.1-6-1.7-.7-.2-1.1-.2-1.2.7-.3,1.3-.9,2.3-2.4,2.6-.5.1-.9,0-1.4-.1.1-.5.6-.4.9-.4.8,0,1.4-.4,1.8-1.1.5-.7.4-.9-.4-1.2-.2-1,.2-1.8.6-2.6.5,0,1,0,1.5,0,0,0,0,0,.1,0,.8.3,1.5.5,2.3.8,0,.8-.6.8-1.1,1,.8.2,1.7.5,2.6.8.8.2,1.5.3,2.2-.2.2-.2.5-.4.8-.2.8.1,1.6.4,2.4.7-.2.6-.7.8-1.2.9,1.1.4,2.4.6,3.5,1.2Z"/>
      <path class="cls-127" d="M264.6,58.9c-4.2,0-8.3.1-12.5.5,0-1.2,0-1.2,1.2-1.3,3.8-.4,7.7-.5,11.5-.5,1.2,0,1.4.3,1,1.5-.3-.4-.8,0-1.2-.2Z"/>
      <path class="cls-114" d="M222.4,116.4q.5,0,1.5-.8c0,.6-.7.8-.7,1.3,1.5.5,3.1.4,4.6.7-1.4.1-2.8.2-4.2.5-.6.1-.7.3-.3.8.4.4.7.8.9,1.3-.6-.4-1.1-.9-1.7-1.4-.5,1.6-.4,3.3-.7,4.9-.1-1.4-.3-2.7-.5-4.1,0-.6-.3-.7-.7-.3-.3.3-.7.6-1.2.8.4-.5.9-1.1,1.4-1.7-1.7-.6-3.5-.6-5.4-.8,1.8-.4,3.5-.2,5.1-.8-.3-.4-.6-.8-.8-1.1,0,0,0,0,0,0,.4.3.8.6,1.2.9.4-.4.9-.6,1.4-.2Z"/>
      <path class="cls-211" d="M337,64.1c-.1.5-.4.8-1.1.8-4.2,0-8.4,0-12.6,0,0-.4,0-.9,0-1.3.2-.2.5-.3.8-.3,1.1,0,2.3,0,3.4,0,.3,0,.6,0,.8.3.2.4.6.2,1,.2,2.3,0,4.5,0,6.8,0,.3,0,.7-.2.8.3Z"/>
      <path class="cls-79" d="M393.2,81.9c0-.4,0-.8,0-1.2-.1-1.3.1-1.6,1.2-1.7,1,0,1.4.3,1.4,1.8.7-1.4,1.6-1.9,2.9-1.7.7.1,1.1.7,1.3,1.4.2,1.4,0,1.5-1.5,1.5-.4,0-.8,0-1.1-.3-.7-.8-.9,0-1.2.4-1,.2-2,.3-3-.2Z"/>
      <path class="cls-167" d="M326.8,81.2c.3,2.1,0,4-1.4,5.6-.8-.2-1.7,0-2.5-.2.7-1.7.7-3.4.6-5.2,1.1-.5,2.2-.3,3.3-.2Z"/>
      <path class="cls-233" d="M389.6,65.2c0,.8,0,1.7,0,2.5,0,.4-.2.6-.6.6-1.3,0-2.7,0-4,0-.5,0-.6-.2-.6-.6,0-1.1,0-2.2,0-3.4.7.7,1.5.7,2.4.7.9,0,1.8-.3,2.7.3Z"/>
      <path class="cls-88" d="M340.8,81.9c-1-.1-1.9.3-2.9-.2,0-.1.2-.3.1-.4,0-.2-.3,0-.4,0-.3.2-.5.4-.7.6-.9.3-1.7.1-2.6,0-.6-.1-.2-.8-.4-1.1,0-1.5.6-2,1.9-1.6.8.3.8.8.7,1.5.5-.6,1-1.3,1.9-1.5,1.6-.3,2.5.5,2.5,2.1,0,.2,0,.4,0,.7Z"/>
      <path class="cls-118" d="M415.8,86.3c-.8-.2-1.5-.5-2.2.2-.2-.3-.3-.6-.6-.8-1.9-1.9-1.5-4-.8-6.2,0-.2,0-.4.3-.4.2,0,.3.2.4.4.3,1.7,1.4,3,2.3,4.5.4.7.5,1.5.5,2.3Z"/>
      <path class="cls-125" d="M248.9,68.3c-.3,0-.3-.3-.3-.6,0-2.4,0-4.8,0-7.2,0-.2.1-.4.2-.6.4,0,.8-.2,1.2-.2,1.5-.2,1.5-.2,1.2,1.3-.4,2.5-1.3,4.9-2.3,7.3Z"/>
      <path class="cls-101" d="M311,61.9c1-.3,2-.2,3-.2,1.8,0,3.6,0,5.4,0,0,.6,0,1.3,0,1.9-.3.3-.6.3-1,.3-1.6,0-3.2,0-4.9,0-.4,0-.8,0-1.1-.3-.5-.5-1.1-1.1-1.6-1.7Z"/>
      <path class="cls-244" d="M358.2,79.4v1.2c.8-1.1,1.7-1.6,3-1.4.7.1,1.1.6,1.2,1.3.2,1.3,0,1.4-1.2,1.5-.5,0-.9,0-1.4-.3-.3-.4-.6-.3-.9,0-1.1.5-2.2.5-3.3,0v-2.3c.8-.4,1.7-.4,2.5,0Z"/>
      <path class="cls-197" d="M382.2,81.6c-.3,1.6-.6,3.3-.9,4.9,0,.2,0,.3-.1.5-.2.5-.3,1.2-1,1.1-.6,0-.7-.7-.8-1.3-.2-1.7-.4-3.5-.6-5.2,1.1-.1,2.2-.1,3.4,0Z"/>
      <path class="cls-241" d="M238.2,45.8c0,2.4,0,4.8,0,7.3,0,.3.1.7-.2,1-1-1.9-1.7-4-2.8-5.9-.2-.4,0-.6.3-.7.9-.5,1.9-1.1,2.8-1.6Z"/>
      <path class="cls-84" d="M418.6,61.9c0-2.3,0-4.6,0-6.9.3,1.1.1,2.2.1,3.3,0,3,0,6,0,8.9,0,.8-.3,1-1,1-1.2,0-2.3,0-3.5,0-.6,0-.8-.2-.8-.8,0-.5,0-1,0-1.5.4-.3.9-.3,1.4-.3.5,0,1,0,1.4,0,2.3,0,1.9,0,1.9-1.8,0-.6-.2-1.3.3-1.9Z"/>
      <path class="cls-164" d="M408.8,86.2c-.3,0-.7,0-1,0-.8-.1-1.3,0-1.4,1-.2-.1-.3-.3-.3-.5,0-2-.2-4.1.1-6.1,1,0,1.9,0,2.8.4,0,1.7-.1,3.5-.2,5.2Z"/>
      <path class="cls-32" d="M322.9,86.6c.9-.2,1.7-.5,2.5.2-1.7,2-3.9,2.9-6.5,2.3-1.4-.3-2.5-1.2-3-2.5.6-.6,1.2-.6,1.8-.2.5.7,1.1,1.3,2,1.6,1.4.4,2.2,0,3.2-1.4Z"/>
      <path class="cls-207" d="M312.6,63.7c2.3,0,4.6,0,6.9,0,0,.8,0,1.5,0,2.3-.3.3-.7.3-1.1.3-1.2,0-2.4.1-3.5-.1-.8-.8-1.6-1.6-2.3-2.5Z"/>
      <path class="cls-234" d="M181.8,66.9c1.4,2.7,2.7,5.3,4.6,7.7.5.6.9,1.2,1.3,1.7-.2.4-.6.6-1,.6-1.3-1.1-2.1-2.6-3.1-4-1.1-1.7-2.1-3.4-2.9-5.3.3-.3.7-.4.9-.7Z"/>
      <path class="cls-161" d="M364.1,86c.5-.3.6-.7.6-1.3,0-1.2,0-2.4,0-3.5.9-.5,1.8-.3,2.7-.2,0,2-.3,4.1-.1,6.1-.7-.7-1.6-.7-2.5-.7-.3,0-.6,0-.6-.4Z"/>
      <path class="cls-56" d="M222.2,15.6c-1.2,0-2.1-.9-2.1-2,0-1,1-2,2.1-2,1,0,2,.9,2,2,0,1.3-.7,2.1-2,2.1Z"/>
      <path class="cls-31" d="M404.6,86c-1,0-2,0-3,0-.1-1.9,0-3.7,1.3-5.2.6.3,1.3-.2,1.9.4,0,1.4,0,2.9,0,4.3,0,.2,0,.4-.2.5Z"/>
      <path class="cls-32" d="M404.6,81c-.6.2-1.2.5-1.7-.2.7-.9,1.6-1.4,2.6-1.5.7,0,.9-.3.9-1,0-.4,0-.9,0-1.3.6.4,1.2.6,1.9.5.3,0,.6,0,.9.2,0,.3,0,.7,0,1-.2.7,0,1.4-.2,2.1,0,0,0,.1,0,.2-.6,0-1.2,0-1.7,0-.5,0-.8-.2-.9-.6-.7,0-1.2.3-1.8.6Z"/>
      <path class="cls-155" d="M328.9,86c0-.9-.2-1.8-.9-2.4-.5-.4-.6-.7,0-1.1.3-.2.6-.5.8-.8,1-.4,2.1-.5,3,.2,0,0,0,0,0,0-.7.6-1,1.1-.5,2,.4.6.5,1.5,0,2.3-.8-.2-1.7.1-2.5-.4Z"/>
      <path class="cls-126" d="M333.9,80.8c.1.8.5,1.1,1.3,1,.6-.1,1.1.1,1.7.2-.6,1.7-.6,3.6-.6,5.4,0,.4,0,.8-.1,1.2-.4-.4-.3-.9-.3-1.3,0-.6-.3-.9-.9-.9-.7,0-.6.5-.7.9,0,.6.2,1.2-.3,1.6-.2-.1-.2-.3-.2-.5,0-2.5,0-5,0-7.6Z"/>
      <path class="cls-109" d="M390.9,81.4c0,1.7.1,3.3-.2,5-.8.4-1.5.4-2.3,0,0-1.7,0-3.3,0-5,.8-.5,1.7-.5,2.5,0Z"/>
      <path class="cls-26" d="M424.8,61.6c2.6,0,5.2,0,7.8,0,.7,0,.9-.2.9-.9,0-4.6,0-9.2,0-13.7.2,0,.2.2.2.4,0,4.8,0,9.6,0,14.5-.1,1.2-.2,1.2-1.4,1.2-1.9,0-3.7,0-5.6,0-.2,0-.4,0-.6-.2-.4-.4-.9-.8-1.2-1.3Z"/>
      <path class="cls-84" d="M304.6,65.8q.2,2.5-2.2,2.5c-.8,0-1.5,0-2.3,0-.5,0-.7-.2-.7-.7,0-.6,0-1.2,0-1.8,1.7-.1,3.4-.2,5.1,0Z"/>
      <path class="cls-167" d="M397.5,81.8c.4,0,.9,0,1.3,0,1,.2,1.3-.3,1.2-1.2.3.6.2,1.3.1,1.9-.2,1.6-.1,3.1-.1,4.7-.4-.2,0-1-.9-1-1.6,0-1.6,0-1.6,2-.3-.5-.2-1.1-.1-1.7.2-1.6.1-3.1.1-4.7Z"/>
      <path class="cls-236" d="M304.6,65.8c-1.7.3-3.4.3-5.1,0,0-.7,0-1.4,0-2.1.1-.1.3-.2.5-.2,1.5,0,3.1-.2,4.6,0,0,.8,0,1.5,0,2.3Z"/>
      <path class="cls-135" d="M347.2,81.5c.7-1.4,2-1.9,3.4-2.1.6,0,1.2-.1,1.9-.3.8-.3,1.1,0,1.2.9-.1.4,0,.8,0,1.2,0,.7-.3.9-.9,1-.5,0-1,0-1.5,0-.3,0-.4-.3-.4-.6,0-.3-.2-.6-.6-.6-.4,0-.6.2-.8.5-.1.2-.2.4-.4.5-1.1.5-1.6.4-1.9-.4Z"/>
      <path class="cls-194" d="M355.7,81.7c1.1,0,2.2,0,3.3,0-.8,1.3-.7,2.8-1,4.2-1.1-.1-2.2.2-3.3-.2,1-.5,1.1-1.4,1-2.4,0-.5,0-1.1,0-1.6Z"/>
      <path class="cls-147" d="M400.6,66.2c.5.6,1,1.3,1.6,2.1h-2.7c-.5,0-1.1,0-1.6,0-1.5.3-2.4-.5-3-1.7.2-.3.5-.4.9-.4,1.6,0,3.2-.1,4.8,0Z"/>
      <path class="cls-144" d="M364.1,86c.4.4.9.2,1.4.2.8,0,1.5,0,1.7,1,.6-.4,1.2-.8,1.8-1.2.2-.2.4-.3.6,0,.1.2.2.4,0,.6-.9.9-1.8,1.8-2.9,2.3-1.2.6-2,0-2-1.3,0-.2,0-.5-.2-.8-.4.2-.5.7-1,.8-.3,0-.7,0-1-.3,0,0,0-.2,0-.2.5-.3,1-.7,1.5-1Z"/>
      <path class="cls-179" d="M204.3,79.5c0-1.4-.1-2.7.4-4.1,1.3,2.9,3.1,5.5,5.5,7.6-2.1-1-4.1-2.1-5.9-3.6Z"/>
      <path class="cls-8" d="M224.9,23.3c-.3,1.3-1.3,2.2-2.6,2.2-1.3,0-2.3-.7-2.8-2-.2-.5,0-.8.5-.9,1.5-.1,2.9-.1,4.4,0,.3,0,.6.2.5.6Z"/>
      <path class="cls-27" d="M362.6,87s0,0,0,.1c-.1,0-.3.1-.3,0-.4-.9-1.1-1-1.9-1-.2,0-.3,0-.4-.2,0-1.4,0-2.8,0-4.2.4,0,.9,0,1.3,0,.9.1,1.4-.2,1.2-1.2.3.8.2,1.7,0,2.5-.1,1.2,0,2.4,0,3.6,0,.1.1.2.2.3Z"/>
      <path class="cls-102" d="M445,63.3c-.2.5-.6.3-.9.3-1.5,0-3.1,0-4.6,0-.3,0-.7,0-1,.2-.4-.5-.8-1.1-1-1.7,1.5-.4,3,0,4.5-.2.4,0,.8.1,1.1-.2.6.6,1.2,1.2,1.9,1.6Z"/>
      <path class="cls-14" d="M348.2,63.9c-.3.3-.7.4-1.1.4-2.1,0-4.2,0-6.3,0-.4-.5-.8-.9-1-1.5.4-.4.9-.3,1.4-.3,1.5,0,2.9.1,4.4-.1.1,0,.3-.1.4,0,.8.5,1.7.9,2.4,1.6Z"/>
      <path class="cls-166" d="M359.1,64.4c-.5-.3-1-.2-1.5-.2-1.7,0-3.3,0-5,0-.4,0-.8,0-1-.3.8-.7,1.7-1.3,2.7-1.5,1.5,0,2.9,0,4.4,0,.5,0,1,0,1.4.5-.2.6-.6,1.1-1.1,1.5Z"/>
      <path class="cls-94" d="M409.4,62.5c0-.4,0-.8.1-1.1,0,2.1,0,4.2,0,6.2,0,.5-.3.6-.7.6-1.2,0-2.4,0-3.6,0-.8,0-1.1-.2-1-1,0-.3,0-.6,0-1,.4-.3.9-.3,1.4-.3.5,0,1.1,0,1.6,0q1.7,0,1.7-1.6c0-.6-.2-1.3.3-1.9Z"/>
      <path class="cls-39" d="M374.9,64.1c-.2.4-.6.3-1,.3-2.2,0-4.3,0-6.5,0-.4,0-.8,0-1.1.2-.4-.4-.8-.8-1-1.3.3-.3.6-.4,1-.4,1.8,0,3.7-.2,5.5,0,1,.5,1.9,1.1,3.1,1.2Z"/>
      <path class="cls-65" d="M384.4,47.1c.3.3.1.7.1,1,0,4.2,0,8.5,0,12.7,0,.8.2,1.1,1.1,1.1,1.3,0,2.6,0,3.9,0,0,.5,0,1,0,1.5-.3.3-.6.3-1,.3-1.1,0-2.1,0-3.2,0-.6,0-1-.2-1-.9,0-5.3,0-10.5,0-15.8Z"/>
      <path class="cls-121" d="M400.6,66.2c-.4.4-.8.2-1.3.2-1.5,0-3-.2-4.4.2-.5-.6-.9-1.3-1.4-1.9.4-.3.8-.3,1.3-.3,1.5,0,3,0,4.5,0,.5.6,1,1.2,1.4,1.9Z"/>
      <path class="cls-75" d="M433.6,64.4c0,1.1,0,2.3,0,3.4,0,.2,0,.4-.2.5-.3.2-2.5,0-2.8-.3-.7-.8-1.4-1.6-2.1-2.3.3-.3.7-.3,1.1-.3.7,0,1.3,0,2,0,.8,0,1.5,0,1.7-.9,0-.1.1-.1.2-.1Z"/>
      <path class="cls-228" d="M376.9,75.6c-.1-.5-.3-1-.4-1.6-.2-1,0-1.5,1-2,.9-.4,1.3-.2,1.6.7.3.9.6,1.8.8,2.6.1.2,0,.4-.1.5-.6.4-2.4.2-2.9-.3Z"/>
      <path class="cls-148" d="M328.9,86c.6,0,1.2,0,1.8,0,.3,0,.7,0,.7.4-.5,1.9-2.6,3.1-4.5,2.5-.5-.2-.8-.5-.9-1,0-.5-.2-1.1.7-.7,1,.4,1.5,0,2.1-1.2Z"/>
      <path class="cls-181" d="M418.6,63.8q0,2.1-2,2.1c-1,0-2,0-3,0,0-.7,0-1.4,0-2.1.2-.2.5-.3.8-.3,1.4,0,2.8-.3,4.2.3Z"/>
      <path class="cls-141" d="M290.6,61.5c1,.4,2.1.2,3.2.2,1.8,0,1.8,0,1.8-1.7,0-4.4,0-8.7,0-13.1.3.2.2.6.2.9,0,4.3,0,8.6,0,12.9,0,.9,0,1.7-.4,2.5-1.7.2-3.4.1-5.1,0-.2,0-.4-.1-.4-.4.3-.4.5-.9.8-1.3Z"/>
      <path class="cls-180" d="M240.3,73.8c.3.9.2,1.8.2,2.7,0,.6,0,1.2.2,1.8-1.6,1.4-3.4,2.5-5.3,3.5,2.3-2.3,3.8-5,4.9-8Z"/>
      <path class="cls-105" d="M351,81.9c.7,0,1.5.2,2.2,0,.8-.3,0-1.3.5-1.8.1,1.8-.3,3.6-.1,5.4,0,.3-.1.7.2,1,0,0,0,0,0,0-.7-1-1.7-.6-2.6-.7-.5-1.3-.5-2.6,0-3.8Z"/>
      <path class="cls-171" d="M317.8,86.3c-.6,0-1.2,0-1.8.2-.9-1.9-.8-3.8-.5-5.8.5-.4,1-.4,1.5,0,0,1.9-.1,3.8.8,5.6Z"/>
      <path class="cls-168" d="M433.6,64.4q-.4,1.3-1.9,1.3c-1,0-2,0-3.1,0-.5-.6-1-1.1-1.6-1.7.3-.4.7-.3,1.2-.3,1,0,2.1,0,3.1,0,.8,0,1.6,0,2.3-.7,0,.4,0,.9,0,1.3Z"/>
      <path class="cls-27" d="M347.2,81.5c.6.7,1.2.4,1.9.2.4.8,0,1.7.1,2.6,0,.5.3,1-.1,1.5-1,0-1.9,0-2.9,0,0-1.5,0-3,1-4.2Z"/>
      <path class="cls-226" d="M384.9,81.7c.2,1.4.6,2.7,1.2,4.1-.8.5-1.8.2-2.7.4-.5-1.4-.6-2.8-.7-4.2.7-.4,1.5-.3,2.3-.2Z"/>
      <path class="cls-14" d="M433.6,63.1c-.1.8-.6,1-1.4,1-1.7,0-3.5,0-5.2,0-.4-.4-.7-.8-1.1-1.2,1.6-.4,3.3,0,5-.2.4,0,.9,0,1.3,0,.8.1,1.2-.2,1.4-1,0,.4,0,.9,0,1.3Z"/>
      <path class="cls-110" d="M409.4,62.5c0,.6,0,1.3,0,1.9-.2.2-.5.3-.8.3-1.1,0-2.3,0-3.4,0-.3,0-.6,0-.8-.3,0-.6-.1-1.3,0-1.9,1.7,0,3.3,0,5,0Z"/>
      <path class="cls-102" d="M418.6,63.8c-1.7,0-3.3,0-5,0,0-.6-.1-1.3,0-1.9,1.7,0,3.3,0,5,0,0,.6,0,1.3,0,1.9Z"/>
      <path class="cls-93" d="M404.4,64.4c1.7,0,3.3,0,5,0q0,1.9-1.9,1.9c-1,0-2.1,0-3.1,0,0-.6,0-1.3,0-1.9Z"/>
      <path class="cls-130" d="M384.9,81.7c-.7.4-1.5.1-2.3.2,0-.3,0-.7-.1-1.1-.4.1-.2.5-.4.7-1.1.3-2.2.3-3.4,0,0-.4-.2-.9-.3-1.3,2.1,0,4.1,0,6.2,0,.2.5.1,1,.2,1.5Z"/>
      <path class="cls-73" d="M192.7,81c2,1.4,4.2,2.5,6.4,3.6-.2.6-.7.7-1.2.8-2.2-.9-4.3-2.2-6.2-3.6-.1-.8.4-.8,1-.8Z"/>
      <path class="cls-227" d="M409.2,75.8c0,0,0,.1,0,.2-.7.5-1.5.3-2.3.2-.4,0-.5-.3-.5-.7,0-.8,0-1.6,0-2.5.6-.9,1.5-.6,2.3-.5.7.1.7.7.6,1.3-.2.6,0,1.3-.1,1.9Z"/>
      <path class="cls-83" d="M285.6,64.1c-.1.5-.6.3-.9.3-2.2,0-4.4,0-6.6,0-.3-.4-.5-.8-.6-1.3.4-.3.8-.3,1.3-.3,1.5,0,3-.1,4.5,0,.7.5,1.4,1.1,2.3,1.2Z"/>
      <path class="cls-147" d="M314.8,66.2c1.2-.4,2.4,0,3.6-.2.3,0,.7,0,1,0,0,.2,0,.3,0,.5,0,2.2,0,2.2-2.2,2-.3,0-.5-.1-.7-.3-.6-.7-1.2-1.3-1.8-2Z"/>
      <path class="cls-51" d="M289.8,62.9c.3.3.7.2,1.1.2,1.5,0,3-.2,4.5.2,0,.5-.3.9-.6,1.3-.5-.3-1.1-.2-1.7-.2-1.6,0-3.1,0-4.7,0-.3,0-.7.2-.9-.3.9-.2,1.6-.6,2.3-1.2Z"/>
      <path class="cls-217" d="M304.6,63.5c-1,.4-2,.1-2.9.2-.7,0-1.5,0-2.2,0,0-.6,0-1.3,0-1.9,1.6.4,3.1.1,4.7.2.1,0,.3-.2.4-.3,0,.6,0,1.3,0,1.9Z"/>
      <path class="cls-17" d="M198,85.4c.3-.4.9-.4,1.2-.8,2.3.9,4.7,1.6,7.1,2.2-.7.4-1.3.7-2.1.8-2.1-.6-4.2-1.2-6.2-2.2Z"/>
      <path class="cls-58" d="M330.1,79.4c0-.8,0-1.6,0-2.5,1.1-.6,2.2-.5,3.3,0,.3.8.2,1.5.1,2.3-.8.8-2.2.9-3.4.2Z"/>
      <path class="cls-198" d="M393.2,81.9c1,0,2-.1,3,.2-.6,1.4-.4,3-.7,4.5-.3-.8-.8-1.3-1.7-1.1-.2,0-.4,0-.6-.2,0-1.1,0-2.2,0-3.3Z"/>
      <path class="cls-210" d="M384.4,62.9c.2.4.4.6.9.6,1.4,0,2.8,0,4.2,0,0,.6,0,1.2,0,1.7-1.2,0-2.5,0-3.7,0-.8,0-1.3-.2-1.4-1,0-.4,0-.9,0-1.3Z"/>
      <path class="cls-221" d="M371.8,62.9c-.4.3-.9.1-1.3.2-1.7,0-3.5-.2-5.2.2-.3-.4-.5-.8-.7-1.3,1.4-.5,2.8,0,4.1-.2.5,0,1.1.2,1.5-.2.5.5,1,.9,1.5,1.4Z"/>
      <path class="cls-172" d="M192.7,81c-.3.3-.9.2-1,.8-1.6-1.1-2.9-2.4-4.2-3.8-.2-.2-.3-.5-.6-.5-.1,0-.2,0-.2-.2,0-.1,0-.2,0-.3.3-.3.7-.4,1-.6,1.5,1.7,3.3,3.2,5,4.6Z"/>
      <path class="cls-227" d="M355.7,75.6c0-.1,0-.3,0-.4.2-.7,0-1.5.2-2.3.6-.7,1.4-.5,2.2-.4.4,0,.6.4.5.8,0,.7-.2,1.5-.2,2.3-.7.7-1.9.7-2.6,0Z"/>
      <path class="cls-59" d="M391.5,61.9c1.5,0,3,0,4.6,0,.4,0,.9,0,1.2-.4.5.5.8,1.1,1.2,1.7,0,0,0,.1-.1.1-2,.3-3.9.4-5.9-.1-.3-.4-.7-.9-1-1.3Z"/>
      <path class="cls-63" d="M377.1,78.7c.3.4.1.8.1,1.2,0,.9.2,1,1.1.7-.2,2.3-.7,4.6-1.7,6.8-.4,0-.9.1-1.1-.4,1.5-2.6,1.5-5.4,1.5-8.3Z"/>
      <path class="cls-55" d="M392.5,63.3c2,0,4,0,6,0,.3.3.5.6.7,1-.2.4-.6.4-1,.4-1.6,0-3.2,0-4.7,0-.4-.4-.7-.8-1-1.3Z"/>
      <path class="cls-151" d="M359.9,86c.3,0,.6,0,.9,0,.7,0,1.6-.2,1.5,1,0,0,.2.1.3.2.3.3.8,0,1,.4-.5.6-1.2,1.1-2,1.3-1.2.4-2-.3-1.9-1.5,0-.5,0-.9.1-1.4Z"/>
      <path class="cls-117" d="M363.5,79.3c-.3-.2-.4-.4-.2-.7.2-.3.5-.3.8-.2.6.2.7,0,.6-.5,0-.6.2-1,.8-1.1.7-.2,1.4-.2,2,.3.2.2.3.4.1.6-.3.5-.1,1-.1,1.5-1.3.5-2.6.3-4,.2Z"/>
      <path class="cls-72" d="M375.5,87c.3.3.8,0,1.1.4-.4.8-.7,1.6-1.3,2.2-.4.5-.9.9-1.6,1-.5,0-1,0-1.2-.5-.2-.5,0-.9.4-1.2.3-.2.6-.4.9-.6.7-.3,1.2-.8,1.7-1.4Z"/>
      <path class="cls-183" d="M219.5,21.5c.5-1.2,1.4-1.8,2.7-1.8,1.3,0,2.1.7,2.6,2-1.6.5-3.2.3-4.8.2-.2,0-.4-.1-.5-.3Z"/>
      <path class="cls-100" d="M330.1,79.4c1.2,0,2.3.5,3.4-.2-.1,1.2-.8,2-1.7,2.7-1-.3-2-.2-3-.2.5-.7.9-1.5,1.2-2.3Z"/>
      <path class="cls-84" d="M388.4,86.4c.8,0,1.5,0,2.3,0,0,.8.3.8.8.4.4-.2.9-.3,1.2.2-.7.8-1.5,1.5-2.5,1.9-1.1.5-1.7,0-1.8-1.1,0-.4,0-.9,0-1.3Z"/>
      <path class="cls-120" d="M264.6,58.9c.4.2,1-1,1.2.2-.5,2-1,3.9-1.9,5.8-.4,0-.8,0-1.1-.2.6-1.9,1.4-3.8,1.9-5.8Z"/>
      <path class="cls-138" d="M328.3,63.5c-1.7,0-3.3,0-5,0,0-.5,0-1,0-1.5,1.7,0,3.3,0,5,0,.1.5,0,1,0,1.5Z"/>
      <path class="cls-163" d="M200.4,33c.4-1.9,1.2-2.8,2.7-2.9.9,0,1.6.2,2.2.9,0,.6-.6.7-1,.9q-1.7,0-2.3,1.6c-.1.4-.2.7-.5,1,0,0-.2,0-.2,0-.2-.5-.5-1-.9-1.4Z"/>
      <path class="cls-42" d="M220.3,47.1c0,.1,0,.3.1.4,1-1.2,2.3-2.1,3.2-3.3.2.5.3,1,.4,1.5.1.4-.2.6-.4.8-.9.9-1.8,1.8-2.7,2.7h-1.2c-.3-.8-.2-1.6.6-2.1Z"/>
      <path class="cls-178" d="M283.3,62.9c-.5.4-1,.2-1.5.2-1.4,0-2.9,0-4.3,0-.2-.4-.3-.9-.2-1.3,1.4,0,2.9,0,4.3,0,.3,0,.6,0,.9-.2.3.5.5.9.8,1.4Z"/>
      <path class="cls-144" d="M363.5,79.3c1.3-.3,2.6-.2,4-.2.3.1.5.2.8.3.3.1.6.2.5.6,0,.4-.4.5-.7.4-.5,0-.7,0-.7.6-.9.4-1.8.1-2.7.2.2-1-.2-1.7-1.2-1.9Z"/>
      <path class="cls-246" d="M262.7,64.6c.4,0,.8-.2,1.1.2-.7,1.9-1.5,3.8-2.5,5.5-.2-.6-.7-.3-1.1-.3.8-1.8,1.7-3.6,2.5-5.4Z"/>
      <path class="cls-137" d="M220.8,49.2c.2-.8,1-1.2,1.5-1.8.5-.6,1.1-1.1,1.6-1.7.4,1,.5,2,.8,3,.1.4,0,.5-.4.5-1.2,0-2.4,0-3.5,0Z"/>
      <path class="cls-151" d="M326.8,81.2c-1.1.5-2.2.1-3.3.2-.1-.6-.3-1.3-.4-1.9,1.1-.8,2.3-.6,3.5-.2.3.6.2,1.3.2,1.9Z"/>
      <path class="cls-42" d="M360.2,62.9c-1.6-.4-3.3-.1-5-.2-.4,0-.8.1-1.1-.2.1-.6.4-1,1-1.1,1.3.4,2.7,0,4.1.2.6,0,1.2.1,1.7-.2-.1.6-.4,1.1-.7,1.6Z"/>
      <path class="cls-152" d="M231.8,42.5c1.1,1.5,1.9,3.2,2.9,4.9-.6-.1-.9.1-1.1.5-1-1.7-2-3.4-3-5,.3-.3.7-.5,1.2-.4Z"/>
      <path class="cls-111" d="M219.5,21.5c1.6.3,3.3.3,4.9,0,.1,0,.3,0,.4.1.2.5.3,1,0,1.6,0-.4-.3-.4-.6-.4-1.4,0-2.7,0-4.1,0-.5,0-.7.2-.7.6-.3-.7-.3-1.3,0-2Z"/>
      <path class="cls-48" d="M345.7,62.3c-.1.5-.5.3-.9.3-1.7,0-3.4,0-5.1,0-.2-.3-.4-.6-.4-.9.7-.4,1.4-.2,2.2-.2,1.2,0,2.4,0,3.5,0,.5,0,.8.2.7.8Z"/>
      <path class="cls-132" d="M212.9,43.1c-.9,1.6-1.7,3.1-2.6,4.7-.1.2-.2.4-.5,0-.2-.3-.5-.3-.9-.3.8-1.6,1.6-3.1,2.6-4.5.4-.2.9-.4,1.3,0Z"/>
      <path class="cls-104" d="M181.8,66.9c0,.7-.4.7-.9.7-.8-1.7-1.6-3.5-2.1-5.4.4.2.8.3,1.1-.2.6,1.6,1.3,3.2,1.9,4.8Z"/>
      <path class="cls-218" d="M383.4,86.2c.4-.6,1-.3,1.5-.4.4,0,.8,0,1.2,0,.3.5.6,1.1,1,1.6.2.3.4.6,0,.9-1-.2-1.9-.2-2.9,0-.4-.6-.7-1.4-.8-2.1Z"/>
      <path class="cls-89" d="M212.2,37.3c-2,1.7-3.9.2-5.9-.3.5-.4,1.2-.5,1.4-1.1,1.5.4,3,.8,4.4,1.3Z"/>
      <path class="cls-197" d="M203.3,37.9c.3,0,.6-.4.9,0,.2.3,0,.6-.1.9-.5,1.1-1.3,1.7-2.5,1.7-.2,0-.5,0-.7.2-.8-.3-1.3-.8-1.6-1.5.3-.5.7-.7,1.3-.6,1.2.9,1.5.8,2.4-.4,0-.1.2-.2.3-.2Z"/>
      <path class="cls-7" d="M344.5,80.6c-.4.3.2,1.1-.5,1.3-.7.2-1.5.2-2.2-.3,0-.3,0-.6,0-.9,0-.4-.2-1,.4-1.3.7-.3,1.4-.3,2,0,.5.2.3.7.3,1.1Z"/>
      <path class="cls-40" d="M326.6,79.2c-1.2,0-2.3-.2-3.5.2-.2-.6-.4-1.3-.6-1.9,1.2-.5,2.4-.3,3.6-.2.3.6.4,1.3.4,1.9Z"/>
      <path class="cls-142" d="M334.1,88.9c0-.7,0-1.4,0-2.1,0-.7.3-.8.9-.8.6,0,1.2,0,1.2.8,0,.6,0,1.2,0,1.7-.3.7-1.1.8-2.2.4Z"/>
      <path class="cls-35" d="M231.8,42.5c-.4.2-.7.4-1.2.4-.9-1.4-1.8-2.7-2.7-4.1.3-.4.7-.6,1.2-.4,1.1,1.2,1.8,2.7,2.7,4Z"/>
      <path class="cls-41" d="M451.8,61.9c1.5,0,3.1,0,4.6,0,0,.4,0,.9,0,1.3-.2.2-.5.3-.8.3-1.3,0-2.6.3-3.8-.3,0-.5,0-.9,0-1.4Z"/>
      <path class="cls-50" d="M216.8,40.2c-1.3-.2-2.5-.7-3.8-1.2.6-.4,1-.7,1.5-1,.1,0,.2,0,.3,0,.4,0,.8.3,1.3.2.7.6,1.7.4,2.4.9-.7.2-1.2.6-1.7,1Z"/>
      <path class="cls-58" d="M358.2,79.4c-.8,0-1.7,0-2.5,0,0-.8,0-1.5,0-2.3.2-.2.5-.3.8-.2.7,0,1.3-.1,1.8-.5,0,1-.1,2-.2,3.1Z"/>
      <path class="cls-195" d="M352.4,91.6c-.9,1.2-2.1,1.7-3.6,1.5-1,0-1.6-.8-1.7-1.7.5-.6.7-.6,1.4,0,.8,1.3,1.6,1.4,2.3.2.1-.4.4-.6.8-.6.4,0,.8,0,.7.6Z"/>
      <path class="cls-74" d="M376.9,75.6c.9.4,1.9.1,2.8.1,0,0,.2-.2.3-.3.4.6.3,1.3.6,1.9-1,.4-2,.2-3,.2-.5,0-.2-.7-.5-.9,0-.3-.1-.7-.2-1Z"/>
      <path class="cls-103" d="M406.5,73.1c0,.8,0,1.5,0,2.3,0,.4.2.6.6.6.7,0,1.4,0,2.1,0,0,.6,0,1.1,0,1.7-.6,0-1.1,0-1.7,0-.7,0-1-.2-1.1-.8,0-1.3-.1-2.6.1-3.9Z"/>
      <path class="cls-173" d="M326.2,77.3c-1.2.5-2.4,0-3.6.2,0-1,.9-1.7,2-1.9.8-.1,1.2.4,1.6,1.7Z"/>
      <path class="cls-209" d="M392.7,86.9c-.4,0-.8-.3-1.2-.2.5-.6,1.4-.7,1.7-1.6.3,0,.6,0,.9,0q1.4,0,1.5,1.4c0,.1,0,.2,0,.4-.8.4-1.5.4-2.3,0-.2-.3-.3,0-.5,0Z"/>
      <path class="cls-81" d="M246.4,112.1c-1.4.5-1.6,1.6-1.8,2.9-.4-1.2-.4-2.5-2-2.7.7-.3,1.2-.4,1.4-.9.2-.5.3-1,.3-1.6.5.4.3,1,.6,1.4.3.5.7.8,1.5.9Z"/>
      <path class="cls-169" d="M390.9,81.4c-.8,0-1.7,0-2.5,0,0-.3,0-.5,0-.8,0-1.1.2-1.4,1.4-1.3.8,0,1.4.3,1.2,1.2,0,.3,0,.6,0,.9Z"/>
      <path class="cls-216" d="M199,109.8c.2,1,.3,2,1.8,2.3-1.4.5-1.8,1.4-1.9,2.7-.4-1-.4-2.2-2-2.6,1.5-.3,1.7-1.3,2-2.3Z"/>
      <path class="cls-222" d="M391.6,75.3c-1.3.2-1.6,1.2-1.9,2.5-.3-1.2-.5-2.2-1.8-2.5,1.4-.3,1.5-1.4,1.8-2.5.2,1.1.3,2.3,1.8,2.5Z"/>
      <path class="cls-238" d="M343.2,77.7c-.4-1.2-.5-2.2-1.9-2.5,1.5-.3,1.6-1.5,1.9-2.7.3,1.2.2,2.5,1.8,2.7-1.2.3-1.6,1.2-1.8,2.5Z"/>
      <path class="cls-131" d="M229.1,38.5c-.4.1-.8.3-1.2.4-.8-1-1.5-2.1-2.3-3.1.3-.2.8-.2,1.1-.5.9.9,1.6,2.1,2.4,3.2Z"/>
      <path class="cls-91" d="M393.2,86.9c.8,0,1.5,0,2.3,0,0,.4,0,.8,0,1.1,0,.7-.2,1-1,1-1.3,0-1.4,0-1.4-1.4,0-.3,0-.5,0-.8Z"/>
      <path class="cls-145" d="M317,80.8c-.5,0-1,0-1.5,0,0-1,.4-2,.9-2.9.6-.3,1.1-.4,1.5.2-.3.9-.8,1.7-1,2.7Z"/>
      <path class="cls-199" d="M451.8,63.3c1.5,0,3.1,0,4.6,0,0,.3,0,.6,0,1-1.4,0-2.9,0-4.3,0-.3,0-.7.2-.9-.3.3-.1.5-.3.6-.6Z"/>
      <path class="cls-115" d="M212.9,43.1c-.4,0-.9,0-1.3,0,.5-1.2,1.4-2.2,2-3.3.5,0,.9,0,1.3.4-.7,1-1.3,1.9-2,2.9Z"/>
      <path class="cls-5" d="M220.3,47.1c-.3.7-.5,1.4-.6,2.1-.8.2-.9-.1-.7-.8.3-1,.5-2.1.9-3.1.2-.7.1-1.1-.7-1.2-.2,0-.6,0-.3-.5q2.1.7,1.5,2.8c0,.2,0,.4-.1.6Z"/>
      <path class="cls-111" d="M333.3,76.9c-1.1,0-2.2,0-3.3,0-.2-.4-.3-.8-.5-1.2,1.1-.4,2.2,0,3.3-.2.5.3.3.9.6,1.3Z"/>
      <path class="cls-175" d="M382.6,75.8c0-.5.4-.9.6-1.4.2-.5.5-.9,1.2-.7.6.2.9.6.8,1.2,0,.2,0,.4,0,.7-.5.8-1.8.9-2.5.2Z"/>
      <path class="cls-34" d="M382.6,75.8c.8.2,1.7.5,2.5-.2,0,.7-.1,1.4-.2,2.1-.6-.2-1.3-.2-1.9-.2-.3,0-.7.1-1-.2.1-.5.3-1.1.6-1.5Z"/>
      <path class="cls-191" d="M200.5,38.4c-.4.2-.8.4-1.2.6-.6-1.5.1-2.8.6-4.1,1.2-.4,1.3-.2,1,.9-.1.6-.4,1.2-.2,1.8,0,.3,0,.5-.1.7Z"/>
      <path class="cls-229" d="M384.2,88.3c.6-.8,1.5-.2,2.2-.4.3,0,.7,0,.7.4-.2.8-.6,1.6-1.4,1.6-.8,0-1.2-.9-1.5-1.6Z"/>
      <path class="cls-205" d="M351.1,88.5c.6-.4,1.2-.2,1.9-.2.7,0,.3.6.5,1,0,.3,0,.5-.2.7-.7.4-1.4.3-2.1.2,0-.6,0-1.1,0-1.7Z"/>
      <path class="cls-113" d="M223.8,38.3c-1.4-.5-2.6-.2-3.6,1-.4.5-.8,0-1.3,0,.4,0,.5-.5.7-.7,1.1-1.5,3.1-1.6,4.2-.2Z"/>
      <path class="cls-206" d="M358.3,76.4c-.2.6-.5.9-1.1.8-.5,0-1,0-1.5,0,0-.5,0-1,0-1.5.9.3,1.8.3,2.6,0,0,.3,0,.5,0,.8Z"/>
      <path class="cls-215" d="M317.9,78.1c-.5-.3-1-.1-1.5-.2.3-.8.7-1.5,1.3-2.1.3.8,1,.3,1.5.4-.4.6-.9,1.3-1.3,1.9Z"/>
      <path class="cls-118" d="M416.7,86.5c-.1-.3-.3-.3-.6-.4.6-1.2,1.2-2.4,1.8-3.6.6.7,0,2.5-1.3,3.9Z"/>
      <path class="cls-77" d="M200.4,37.7c-.4-.6.1-1.1.2-1.7,0-.3.1-.7.2-1-.4-.2-.7.4-1,0,.1-.7.3-1.3.6-1.9,0,0,.1.2.2.2.8-.2.9.2.6.8,0,.1,0,.3.1.4.1,1.2-.3,2.3-1,3.3Z"/>
      <path class="cls-190" d="M251.8,103.1c-.4,0-.7-.2-.9-.6-.1-.4,0-.7.3-.9.4-.3,1-.1,1.3-.7,0,0,.4.2.4.2-.5.5,0,1.3-.5,1.8-.2.2-.4.2-.6.2Z"/>
      <path class="cls-45" d="M256.7,80.8c0,0,0,0,.1,0,.3.1.7,1.9.5,2.1-.3.4-.8.5-1.2.3-.4-.2-.5-.6-.4-1.1.2-.5.9-.6.8-1.3,0,0,.2,0,.2,0Z"/>
      <path class="cls-19" d="M222.4,116.4c-.5,0-.9,0-1.4.2.5-1.5.6-3,.7-4.7.2,1.6.5,3,.7,4.5Z"/>
      <path class="cls-18" d="M231.1,112.3c.6.1.9.4.9,1,0,.5-.3.9-.8.9-.6,0-.9-.3-.9-.9,0-.6.4-.8.8-1Z"/>
      <path class="cls-224" d="M219.7,107.2c-.6,0-.9-.3-.9-.9,0-.6.4-.9,1-.9.5,0,.9.4.9.9,0,.5-.3.9-.9.9Z"/>
      <path class="cls-66" d="M222.6,101.4c-.1.5-.4.9-1,.8-.5,0-.9-.4-.8-1,0-.5.4-.8.9-.8.5,0,.8.4.9,1Z"/>
      <path class="cls-92" d="M204.1,110.2c0,.6-.4.9-.9.9-.5,0-.9-.4-.9-.9,0-.5.4-.8.8-.9.6,0,.8.4.9.9Z"/>
      <path class="cls-13" d="M213.2,113.3c0,.5-.4.9-.9.9-.5,0-.9-.4-.8-1,0-.5.4-.8.9-.8.5,0,.9.3.9,1Z"/>
      <path class="cls-92" d="M240.2,111.2c-.5-.1-.9-.4-.9-1,0-.5.4-.9.9-.9.5,0,.9.3.9.9,0,.6-.4.8-.9.9Z"/>
      <path class="cls-133" d="M204.3,31.8c.2-.4.8-.4,1-.8.9.7.9,1.7.7,2.7-.1.5-.3,1-.5,1.5,0,0,0,0,0,0-.5,0-.3-.4-.3-.6,0-.3,0-.6.2-.8.3-.7,0-.9-.6-.9-.3-.3-.5-.6-.4-1Z"/>
      <path class="cls-239" d="M191.7,103.1c-.6,0-1-.3-.9-.9,0-.5.3-.8.9-.8.6,0,.9.3.9.9,0,.5-.3.8-.8.9Z"/>
      <path class="cls-30" d="M256.3,92.8c0,.6-.3.9-.9.9-.5,0-.8-.3-.9-.8,0-.6.2-.9.8-1,.6,0,.9.3,1,.8Z"/>
      <path class="cls-106" d="M351.1,90.2c.7-.4,1.4-.1,2.1-.2,0,.6-.3,1.1-.8,1.5-.5-.6-1-.5-1.5,0,0-.4.1-.9.2-1.3Z"/>
      <path class="cls-150" d="M223.8,105.4c.6,0,.9.4.9.9,0,.5-.3.8-.9.8-.6,0-.9-.4-.9-.9,0-.5.3-.8.9-.8Z"/>
      <path class="cls-20" d="M188.1,93.7c-.6,0-1-.4-.9-.9,0-.5.4-.9.9-.9.5,0,.8.3.8.9,0,.6-.3.9-.8.9Z"/>
      <path class="cls-163" d="M187,81.6c.6,0,.8.4.8,1,0,.4-.3.7-.7.8-.4,0-.8,0-1-.4-.2-.4-.2-.8.3-1.1.2-.1.4,0,.6-.2Z"/>
      <path class="cls-201" d="M348.5,91.4c-.5-.2-.9-.4-1.4,0-.3-.5,0-.9.2-1.2.2-.4.5-.8.9-.6.4.1,0,.5.1.8,0,.3,0,.7.1,1Z"/>
      <path class="cls-15" d="M221.7,100c-.3,0-.6,0-.6-.3,0-.4.3-.5.7-.5.3,0,.6,0,.6.5,0,.4-.4.3-.7.3Z"/>
      <path class="cls-21" d="M244.1,104.1c.3.1.6.1.7.5,0,.3-.2.4-.4.3-.3-.1-.7,0-.7-.5,0-.2.1-.3.4-.3Z"/>
      <path class="cls-16" d="M199.8,104.4c0,.5-.4.4-.7.5-.2.1-.4,0-.4-.2,0-.4.3-.5.6-.6.3,0,.4,0,.5.3Z"/>
      <path class="cls-76" d="M222.2,98c0,.3-.3.4-.5.4-.2,0-.5,0-.4-.4,0-.3.2-.5.5-.4.3,0,.3.3.4.4Z"/>
      <path class="cls-170" d="M187,81.6c-.1.2-.4.2-.6.2,0,0,.2-.2.2-.3-.1-.3-.3-.5,0-.7.2-.1.3,0,.4,0,.3.3,0,.5,0,.8Z"/>
      <path class="cls-156" d="M222.1,96.2c0,.2-.1.5-.4.4-.3,0-.3-.2-.3-.5,0-.2,0-.5.4-.4.3,0,.3.2.3.5Z"/>
      <path class="cls-78" d="M244.5,103.2c-.2,0-.4-.2-.4-.5,0-.2.1-.4.4-.4.3,0,.4.2.4.4,0,.2-.1.3-.4.4Z"/>
      <path class="cls-98" d="M256.4,88c0,.2-.1.4-.4.4-.2,0-.3-.2-.3-.4,0-.2.2-.4.4-.3.2,0,.3.1.3.4Z"/>
      <path class="cls-1" d="M256.6,86.3c0,.3-.2.4-.4.4-.2,0-.3-.2-.3-.4,0-.2.2-.4.4-.3.2,0,.3.2.3.3Z"/>
      <path class="cls-85" d="M229.4,124.8c.8-.2,1.5-.2,2.3,0h-2.3Z"/>
      <path class="cls-68" d="M188.5,94.3c.2,0,.3.2.3.4,0,.2,0,.4-.3.4-.2,0-.3-.2-.4-.3,0-.2.1-.3.3-.4Z"/>
      <path class="cls-182" d="M217.2,110.5c0,.2-.1.4-.3.4-.2,0-.4-.1-.4-.3,0-.2.2-.3.4-.3.2,0,.3.1.3.3Z"/>
      <path class="cls-69" d="M255.3,94.7c0,.3-.2.4-.4.4-.2,0-.3-.2-.3-.4,0-.2.1-.3.4-.3.2,0,.3.2.3.3Z"/>
      <path class="cls-67" d="M189.8,98c0,.2-.1.3-.4.3-.2,0-.3-.2-.3-.4,0-.2.1-.4.4-.3.2,0,.3.2.3.4Z"/>
      <path class="cls-99" d="M227,110.6c0,.2-.1.3-.3.3-.3,0-.4-.2-.4-.4,0-.2.2-.3.3-.3.2,0,.3.2.4.4Z"/>
      <path class="cls-188" d="M214.4,112.6c0,.2-.2.3-.4.3-.2,0-.3-.1-.3-.4,0-.2.2-.3.4-.3.2,0,.3.1.3.4Z"/>
      <path class="cls-174" d="M256.2,89.7c0,.2,0,.4-.3.4-.2,0-.4-.1-.4-.3,0-.2.1-.4.3-.4.2,0,.3.1.4.4Z"/>
      <path class="cls-129" d="M229.4,112.2c.2,0,.3.2.3.4,0,.2-.1.3-.4.3-.2,0-.4-.2-.3-.4,0-.2.2-.3.4-.3Z"/>
      <path class="cls-154" d="M236.4,112.8c0,.2-.1.4-.3.4-.2,0-.4,0-.4-.3,0-.2.1-.3.3-.3.2,0,.4,0,.4.3Z"/>
      <path class="cls-29" d="M209.4,113.3c0,.2-.1.4-.3.4-.2,0-.4-.1-.4-.3,0-.2.1-.4.3-.4.2,0,.3.1.4.3Z"/>
      <path class="cls-47" d="M244.5,107.8c.2,0,.4.2.3.4,0,.2-.2.3-.4.3-.2,0-.3-.1-.3-.3,0-.2.1-.3.3-.4Z"/>
      <path class="cls-159" d="M200.4,106c0,.2,0,.3-.3.3-.2,0-.4-.1-.4-.3,0-.2,0-.4.3-.4.2,0,.3.2.4.3Z"/>
      <path class="cls-242" d="M234.7,113.3c0,.2-.2.4-.4.3-.2,0-.4-.2-.3-.4,0-.2.2-.3.5-.3.2,0,.2.2.2.4Z"/>
      <path class="cls-6" d="M250.7,103.9c0,.2-.1.3-.4.3-.2,0-.4-.1-.3-.4,0-.2.2-.3.4-.3.2,0,.3.1.3.4Z"/>
      <path class="cls-213" d="M187.5,86.2c0,.2-.1.4-.4.3-.2,0-.3-.2-.3-.4,0-.2.1-.4.4-.3.2,0,.3.2.3.4Z"/>
      <path class="cls-64" d="M205.8,124.8h-1.9c.6-.2,1.3-.2,1.9,0Z"/>
      <path class="cls-206" d="M355.9,72.9c0,.8.2,1.5-.2,2.3,0-.8-.2-1.5.2-2.3Z"/>
      <path class="cls-159" d="M243.7,106c0,.2-.1.4-.3.4-.2,0-.3-.1-.3-.3,0-.2.1-.4.3-.4.2,0,.3.1.3.3Z"/>
      <path class="cls-187" d="M244.9,106.4c0,.2-.1.3-.3.3-.2,0-.3-.2-.3-.4,0-.2.1-.3.3-.3.2,0,.3.2.3.4Z"/>
      <path class="cls-10" d="M219.2,107.8c0,.2-.2.4-.4.4-.2,0-.3-.1-.3-.3,0-.2.1-.3.4-.4.2,0,.3,0,.3.3Z"/>
      <path class="cls-22" d="M256.8,84.5c0,.3-.2.4-.4.4-.2,0-.3-.2-.3-.4,0-.2.1-.3.3-.3.3,0,.3.2.3.3Z"/>
      <path class="cls-23" d="M199,102.4c.2,0,.3.2.3.4,0,.2-.1.3-.3.3-.2,0-.4-.1-.4-.3,0-.2.1-.3.3-.4Z"/>
      <path class="cls-33" d="M218.3,109.3c0,.2-.2.4-.4.3-.2,0-.3-.2-.3-.4,0-.2.2-.3.4-.3.2,0,.2.2.3.3Z"/>
      <path class="cls-37" d="M225.5,108.9c.2,0,.3.1.4.3,0,.2,0,.3-.3.3-.2,0-.4-.1-.4-.3,0-.2,0-.3.3-.4Z"/>
      <path class="cls-240" d="M253.9,97.7c.2,0,.3,0,.3.2,0,.3,0,.4-.3.5-.2,0-.3-.1-.3-.3,0-.2,0-.4.3-.4Z"/>
      <path class="cls-44" d="M256.8,79.1c.2,0,.3.2.3.4,0,.2-.1.3-.3.3-.2,0-.3-.2-.3-.4,0-.2.1-.4.4-.4Z"/>
      <path class="cls-44" d="M187.7,87.9c0,.2,0,.4-.3.4-.2,0-.3-.2-.4-.3,0-.2,0-.4.3-.4.2,0,.3.2.4.4Z"/>
      <path class="cls-143" d="M187.6,89.2c.3,0,.3.2.3.4,0,.2-.1.4-.3.3-.2,0-.3-.2-.3-.4,0-.2.1-.3.3-.3Z"/>
      <path class="cls-203" d="M199.3,106.4c0,.2-.1.3-.3.3-.2,0-.3-.1-.3-.3,0-.2,0-.3.2-.4.2,0,.3.2.3.3Z"/>
      <path class="cls-71" d="M222,106.8c0,.1,0,.3-.2.3-.2,0-.3-.2-.3-.4,0-.2.1-.3.3-.3.2,0,.3.1.3.4Z"/>
      <path class="cls-108" d="M201.2,107.5c0,.1,0,.3-.2.3-.2,0-.3-.2-.3-.4,0-.2.1-.3.3-.3.2,0,.3.1.3.3Z"/>
      <path class="cls-46" d="M224.9,107.9c0,.2-.1.3-.3.3-.2,0-.3-.2-.3-.4,0-.2.1-.3.3-.3.2,0,.3.1.3.4Z"/>
      <path class="cls-223" d="M222,108.5c0,.2-.1.4-.4.3-.2,0-.2-.2-.2-.3,0-.2.1-.4.4-.3.2,0,.2.2.2.3Z"/>
      <path class="cls-143" d="M187,84.1c.2,0,.3.2.3.4,0,.2-.1.3-.4.3-.2,0-.3-.1-.3-.3,0-.2,0-.4.3-.4Z"/>
      <path class="cls-36" d="M241.9,108.9c0,.2-.1.3-.4.3-.2,0-.2-.1-.2-.3,0-.2.1-.4.3-.4.2,0,.3.1.3.4Z"/>
      <path class="cls-12" d="M210.7,113c.2,0,.4.1.4.3,0,.2-.1.3-.4.3-.2,0-.3-.1-.3-.3,0-.2.2-.3.3-.3Z"/>
      <path class="cls-192" d="M190.1,99.3c.2,0,.3.1.3.4,0,.2-.1.3-.3.3-.2,0-.3-.2-.4-.4,0-.2.1-.3.3-.3Z"/>
      <path class="cls-122" d="M221.8,109.9c.2,0,.3.2.3.4,0,.2-.1.3-.3.3-.2,0-.3-.2-.3-.4,0-.2.1-.3.3-.4Z"/>
      <path class="cls-140" d="M186.7,77.3c0,0,.2.1.2.2,0,.2,0,.5-.4.5-.2,0-.3-.2-.3-.3,0-.3.2-.3.5-.3Z"/>
      <path class="cls-219" d="M207.7,112.8c0,.3-.1.4-.3.4-.2,0-.4,0-.4-.3,0-.2,0-.4.3-.4.2,0,.3.2.4.3Z"/>
      <path class="cls-43" d="M187,79.2c0,.3,0,.5-.3.5-.2,0-.3-.2-.3-.4,0-.2,0-.3.3-.3.2,0,.3.1.4.3Z"/>
      <path class="cls-164" d="M409,80.8c0-.7-.1-1.4.2-2.1,0,.7.1,1.4-.2,2.1Z"/>
      <path class="cls-124" d="M205.7,111.8c.3.1.5.2.5.4,0,.2-.2.3-.4.3-.2,0-.3-.2-.3-.4,0-.1.2-.2.2-.3Z"/>
      <path class="cls-214" d="M255.6,91.8c-.2,0-.3-.2-.3-.4,0-.2.1-.3.3-.3.2,0,.3.2.3.4,0,.2-.1.3-.4.4Z"/>
      <path class="cls-139" d="M188.2,91.3c0,.2-.1.4-.4.3-.2,0-.3-.2-.3-.4,0-.2.2-.3.3-.3.2,0,.3.2.3.4Z"/>
      <path class="cls-81" d="M238,112.2c0,.2-.2.3-.4.3-.2,0-.3-.1-.3-.3,0-.2.2-.3.4-.3.2,0,.3.1.3.3Z"/>
      <path class="cls-202" d="M227.6,111.7c0-.2.1-.3.3-.3.2,0,.4.1.3.3,0,.2-.2.3-.3.2-.2,0-.3-.1-.3-.3Z"/>
      <path class="cls-245" d="M238.9,111.6s-.1,0-.1-.3c0-.2,0-.3.3-.3.2,0,.4,0,.4.3,0,.2-.1.3-.5.3Z"/>
      <path class="cls-107" d="M204.5,111.6c-.3,0-.4-.2-.4-.3,0-.2.2-.3.4-.3.2,0,.3.2.3.4,0,.2-.2.2-.2.2Z"/>
      <path class="cls-235" d="M254.2,96.6c0-.3,0-.5.3-.5.2,0,.3.1.3.3,0,.2,0,.4-.3.4-.2,0-.3,0-.3-.2Z"/>
      <path class="cls-103" d="M409.2,75.8c0-.7-.2-1.3.1-1.9,0,.7.1,1.3-.1,1.9Z"/>
      <path class="cls-119" d="M253.2,100c-.1,0-.2-.2-.2-.3,0-.2.1-.3.3-.3.2,0,.3.2.3.4,0,.2-.1.3-.4.2Z"/>
      <path class="cls-9" d="M232.6,113.6c-.1,0-.2-.1-.2-.3,0-.2.1-.3.3-.3.2,0,.4.2.3.4,0,.2-.2.3-.4.2Z"/>
      <path class="cls-204" d="M202,109.2c-.3,0-.4,0-.4-.2,0-.2,0-.4.3-.4.2,0,.3.1.3.3,0,.2,0,.3-.2.3Z"/>
      <path class="cls-116" d="M198.9,108.5c-.2,0-.2-.2-.2-.3,0-.2.1-.3.3-.3.2,0,.3.2.3.4,0,.2-.1.3-.4.2Z"/>
      <path class="cls-123" d="M220.7,103.4c-.2,0-.2-.2-.2-.4,0-.2.1-.3.4-.3.2,0,.2.2.2.4,0,.2-.1.3-.3.3Z"/>
      <path class="cls-60" d="M223,103.1c0,0,0,.2-.2.3-.2,0-.3-.1-.3-.3,0-.2,0-.3.3-.3.2,0,.3.1.3.4Z"/>
      <path class="cls-160" d="M222,103.1c0,.2,0,.3-.2.3-.2,0-.3,0-.3-.3,0-.2,0-.3.3-.3.2,0,.3.1.3.3Z"/>
      <path class="cls-49" d="M204.1,35.2c.2-.8.4-1.7.6-2.5.1,0,.3,0,.4,0,.2,0,.4-.4.6-.2.2.2.1.5,0,.8-.1.6-.6,1.2-.3,1.9-.4.3-.9.9-1.3,0Z"/>
    </g>
  </g>
</svg>