<?xml version="1.0" encoding="UTF-8"?>
<svg xmlns="http://www.w3.org/2000/svg" version="1.1" width="208" height="43" viewBox="0 0 624 128">
  <defs>
    <style>
      .cls-1 {
        fill: #eb523b;
      }
    </style>
  </defs>
  <!-- Generator: Adobe Illustrator 28.6.0, SVG Export Plug-In . SVG Version: 1.2.0 Build 709)  -->
  <g>
    <g id="Layer_1">
      <path class="cls-1" d="M439.7,91.6c-.3-1.8-1.4-2.8-2.3-4-4.7-6.4-9.5-12.9-14.3-19.4-4.3-5.9-4.4-3.8,0-9.9,4.1-5.6,8-11.1,12.5-17.2-10.4.2-16.8,5.3-21.8,12.9-.3-.2-.6-.3-.8-.5V18.3c0-4.3-1.8-7.2-5.5-9.1-3.5-1.8-4.3-1.2-4.3,2.6,0,25.2,0,50.5,0,75.7,0,4.3,2,4,4.8,4s5.7.8,5.2-4c-.5-4.9,0-9.9,0-14.8,7.4,9,13.2,18.8,26.6,18.8h-.2Z"/>
      <path class="cls-1" d="M391.1,63c-3-1.6-6.2-3.1-9.3-4.7-1.6-.9-2.9-2.1-2.4-4.2.6-1.9,2.2-2.7,4-3,1.7-.3,3.3,0,4.5,1.1,1.2,1,2.3.9,3.5,0,1.3-1,2.7-2.1,4.3-2.9,1.8-1,1.6-2.1.3-3.4-3.2-3.2-7-4.8-12.9-4.8h0c-5.9,0-11.8,4.1-13.5,10.4-1.7,6.5,1.4,12.7,8.2,16.2,3.2,1.7,6.4,3.2,9.6,4.9,1.8.9,2.6,2.6,2.4,4.7-.2,2.2-1.6,3.3-3.4,4.1-2.6,1.1-5.3.7-7-1.4-1.7-2.2-2.9-1.6-4.5-.3-1,.9-2.2,1.6-3.3,2.3-2,1.1-2.1,2.3-.6,4.1,4,4.8,11.2,7.1,17.5,5.3,6.2-1.8,11-6.9,11.5-12.6.7-6.8-2.4-12.2-8.9-15.7h0Z"/>
      <path class="cls-1" d="M305.9,9.1c-2.6-1-3.9-.8-3.9,2.6v68.5c0,4.3,1.5,7.8,5.5,9.9,3.6,1.8,4.7,1.1,4.7-2.8v-34h0V18.8c0-4.7-2.5-8.1-6.4-9.7Z"/>
      <path class="cls-1" d="M291.5,47.5c-7.5-7.5-18.5-9.6-27.7-5.5h0c-10.3,4-16.1,12.4-16.1,23.5,0,5.2-.9,9.7-4.9,13.3-2.7,1.8-5.4,2.6-8.1,2.6s-5.1-.7-7.8-1.7c-1.8-1.8-3.2-3.7-4.2-5.9-.9-2.2-1.4-4.5-1.4-7.2.2-9.8,0-19.7,0-29.5s-3.3-9.7-9.6-10.4c0,15.2-.2,30.4-.2,45.6,1,4,2.6,7.5,4.9,10.4,2.3,2.9,5.4,5.1,9.5,6.5.3,0,.5.2.8.2,6.3,2.5,12.6,2.1,18.6-1.2.5-.2.9-.3,1.2-.3.9,0,1.1.8,1.1,2.2v24.8c0,4.4,2.5,7.9,6.2,9.4,2.4.9,3.9,1.2,3.9-2.5-.2-10.4,0-20.8,0-31.2s0-4.5,0-5.1c0,.6.3,1.4.8.9,4.4,2.5,8.8,5.1,14.2,4.3,10.4.6,19.7-5.3,24.2-15.2,4.3-9.5,2.1-20.6-5.4-28.1ZM277.1,79.3h0c-1.4.6-3,.7-4.2,1.8-.6-.5-1.3-.7-2.1-.9-14.4-4.4-14.7-20.4-5.7-26.8.9-.7,1.7-1.3,2.3-2.3,1.2.9,2.7.2,4,0,7.9-.7,14.6,4.3,16.1,11.9,1.3,7.1-3,13.8-10.5,16.3Z"/>
      <path class="cls-1" d="M331.6,42.7h0c-9.6,2.8-16.2,12.4-16.2,23.5s6.9,20.9,17,23.8c3.5,1.8,7.3,1.9,11,1.5,8.5-.9,15-5.1,19.5-12.4.4-.8,1.6-2.5,0-2.5-3.9,0-8.3-1.7-11.6.9-5.7,4.5-11.4,4.7-17.9,2.2h0c-2.6-.8-3.6-3.1-5-4.9-1.1-1.3-2.8-3.1-1.9-4.9.8-1.4,2.9-.4,4.4-.6,1-.2,2.2-.2,3.2-.2,9.7,0,19.6,0,29.3.2,2,0,2.8-.5,3-2.6,1.2-17.3-18.9-31.3-34.8-24.1ZM327.9,57.9c2.7-.9,3.9-3.2,5.2-5.4.6.4,1.3.5,1.9.5,1.3,0,2.6-.6,3.9-.8,5.4-.9,10.6,1.5,13,6.3-8.2-.4-16.2.9-24-.7Z"/>
      <polygon class="cls-1" points="332.3 90.1 332.3 90.1 332.3 90.1 332.3 90.1"/>
    </g>
  </g>
</svg>