<?xml version="1.0" encoding="UTF-8"?>
<svg xmlns="http://www.w3.org/2000/svg" version="1.1" width="208" height="43" viewBox="0 0 624 128">
  <defs>
    <style>
      .cls-1 {
        fill: #407744;
      }

      .cls-2 {
        fill: #5fa449;
      }

      .cls-3 {
        fill: #80a482;
      }

      .cls-4 {
        fill: #27532c;
      }

      .cls-5 {
        fill: #769279;
      }

      .cls-6 {
        fill: #5da649;
      }

      .cls-7 {
        fill: #fefefd;
      }

      .cls-8 {
        fill: #fbfdfb;
      }

      .cls-9 {
        fill: #305a35;
      }

      .cls-10 {
        fill: #6aac5a;
      }

      .cls-11 {
        fill: #fdfefd;
      }

      .cls-12 {
        fill: #fbfcfa;
      }

      .cls-13 {
        fill: #76b163;
      }

      .cls-14 {
        fill: #69ac59;
      }

      .cls-15 {
        fill: #29542d;
      }

      .cls-16 {
        fill: #39613e;
      }

      .cls-17 {
        fill: #fcfdfc;
      }

      .cls-18 {
        fill: #5fa64e;
      }

      .cls-19 {
        fill: #426947;
      }

      .cls-20 {
        fill: #416846;
      }

      .cls-21 {
        fill: #f3f5f3;
      }

      .cls-22 {
        fill: #fefefe;
      }

      .cls-23 {
        fill: #3a623f;
      }

      .cls-24 {
        fill: #81b873;
      }

      .cls-25 {
        fill: #5ea746;
      }

      .cls-26 {
        fill: #70b061;
      }

      .cls-27 {
        fill: #67a951;
      }

      .cls-28 {
        fill: #39733d;
      }

      .cls-29 {
        fill: #fbfcfb;
      }

      .cls-30 {
        fill: #e9edea;
      }

      .cls-31 {
        fill: #4f7353;
      }

      .cls-32 {
        fill: #65a74f;
      }

      .cls-33 {
        fill: #fafbfa;
      }

      .cls-34 {
        fill: #5fa54d;
      }

      .cls-35 {
        fill: #fdfdfd;
      }
    </style>
  </defs>
  <!-- Generator: Adobe Illustrator 28.6.0, SVG Export Plug-In . SVG Version: 1.2.0 Build 709)  -->
  <g>
    <g id="Layer_1">
      <g id="Layer_1-2" data-name="Layer_1">
        <path class="cls-4" d="M475.9,53.8c-.4,0-.6-.2-.6-.7-.1-1,0-1.2,1.3-1.2,1.7,0,3.2,0,4.7-.9h.5c1.4-.2,2.8-.3,4.1-.6,2.6-.6,4.8-1.8,5.9-4.4l-.4-.4v-.6c-.4-1.6-1.5-2.5-2.7-3.5-2.2-1.9-4.1-2.1-6.6-.6s-5.1,2.6-8,3.1c-2.6.4-5.1,1.4-7.9,1.1-2.4-.2-3.8,1.4-3.8,3.9s0,2.1-.3,3.1c-.9,5.3-4,9.6-7.3,13.7-.4.5-1,.7-1.7.5s-.9-.8-.9-1.4c-.2-3.4-.4-6.8,0-10.2.2-1.5.6-2.9.6-4.4.2-3.1-1.6-4.6-4.5-3.9-2.9.7-5.2,2.3-6.8,4.7-1.4,2.2-2.5,4.5-2.8,7.1,0,.5,0,1.2-.9,1.2s-1-.5-1.1-1.1c-.2-.7,0-1.4.4-2,.6-1,.8-2,.8-3.1.2-2.2.4-4.4.8-6.5.2-1.3.8-2.5.8-3.9s-.6-2.3-2.1-2.7c-1-.2-1.9,0-2.9,0-3.1.3-5.3,2.1-6,4.9-.3.8-.3,1.6-.3,2.4,0,2-.3,3.9-.7,5.9-1.2,5.9-3.7,11.2-6.2,16.6-.1.3-.3.6-.6.6-.9.3-2.5-.8-2.5-1.8,0-4,.1-8,.5-12,.2-2.7.7-5.3,1.1-8,.4-3-1.1-5.4-3.7-6-1.1-.2-2.2-.2-3.2,0-1.8.4-3.2,0-4.4-1.3-.4-.4-.8-.7-1.3-1-3.7-2.6-7.6-2.5-11.3,0-2.4,1.6-4.1,3.8-5.4,6.4-1.4,2.6-2.3,5.5-3.3,8.2-1.7,4.4-3.6,8.7-6.8,12.3-.3.3-.5.6-.9.8,0-4.6.1-9.2.4-13.7.2-2.4.5-4.7.5-7.1,0-2.4-.9-3.5-3.2-4.2-1-.2-2-.4-3-.6-.5-.1-.8-.3-1.1-.8-2.4-4.2-6.5-6.5-11.9-4.9-3.7,1.1-6.3,3.6-8.2,6.8-2.3,3.8-4.3,7.7-6.1,11.7-2.2,4.8-4.7,9.3-7.9,13.4-1.2,1.6-2.7,2.9-4.3,4-2.4,1.6-4.1,1.1-5.3-1.5-.5-1.2-1-2.5-1.2-3.9-.5-3.4.6-5.8,3.5-7.5,1-.7,2.2-1.1,3.4-1.5,2.6-.9,4.9-2,6.9-3.9.7-.7,1.3-1.6,1.2-2.7-.2-1.5-.2-2.9-.2-4.4s0-4.1-1.2-5.8c-2-3-4.4-5.6-7.7-7.2-2.8-1.4-5.5-.9-7.8,1.2-1.1,1-2.1,2.2-2.8,3.5-5,9.3-7.1,19-5.5,29.5.4,3.2,1.3,6.4,3.3,9.1,2.6,3.5,6.1,5.1,10.5,4.5,4.2-.6,7.5-2.7,10.5-5.5,2.6-2.5,4.6-5.4,6.4-8.4.1-.3.2-.7.6-.8.6,1.5,1.2,2.8,2,4.1,2.7,4.4,6.6,6.1,11.6,5.6.4,0,.8,0,1.1-.3.9-.8,2-1.2,2.9-2,.3-.4.7-.5,1.2-.5s.9,0,1.2.4c.3.5.3,1.1,0,1.6-.7,1.3-1.8,1.9-3.2,1.9s-1-.1-1.4,0c-2.5.7-5.1,1.5-7.5,2.6-3.2,1.5-6,3.5-7.8,6.6-1.2,2.1-1.8,4.3-1.2,6.7,1.3,5.5,7.3,9.4,13,8.4,7.9-1.4,14.8-8.2,16-16,.5-3.2,1.2-6.2,2.9-9,2-3.3,4.5-6.1,6.8-9.2h.2c.2,1,.5,2,.8,3,.7,3.2,1.9,6.2,3.9,8.9,4.6,6,13.8,4.1,16.3-2.5.3-.7.5-1.4.8-2,.9-1.8,1.8-2.1,3.4-.8.9.7,1.7,1.5,2.7,2.1,1.4.8,2.8,1.3,4.4.8,1.7-.5,2.8-1.7,3.7-3.1,1-1.5,2.1-3.1,3.1-4.6.4-.6.9-.7,1.5-.7.6.1.7.7.8,1.2.1.5.1.9,0,1.4-.4,1.7.1,3,1.3,3.8,3.7,2.4,8.2.4,8.9-3.8.5-2.8.9-5.7,1.9-8.4.6-1.6,1.3-3.1,2.5-4.5,0,.5.3.8.3,1.2.5,2.2.5,4.4.8,6.6.5,3.3,2.2,5.7,5.4,6.8,3.1,1.1,5.6-.1,7.7-2.3,1.6-1.6,3.1-3.5,4.4-5.4,1.9-2.7,3.4-5.6,4.2-8.8,0-.8.5-.8,1.1-.8,6.4.4,13.5,7.1,14.2,13.5.2,1.8-.5,3.2-2,4.3-.8.6-1.5.6-2.3,0-1.3-.9-1.9-2.1-2.1-3.7-.2-1.2.2-2.5.2-3.7.2-2.2-.7-3.4-2.9-3.8-3.6-.7-7.3,2.4-7.6,6.1-.4,4.7,2.6,9.4,7.2,10.8,5.5,1.7,10.5.5,14.8-3.2,4.3-3.6,5.2-9.3,2-14-3-4.5-7.1-7.8-12.6-8.9ZM329.2,49.7c.7-2.7,1.6-5.3,2.6-7.9.3-.7.8-1.2,1.7-1.1.9,0,1.5.6,1.6,1.5,0,1.5.2,3,.3,4.5h0c.2,2.1-.9,3.6-2.6,4.7-.5.3-1,.5-1.6.5-1.4,0-2.3-.8-1.9-2.2ZM367.9,84.5c-.8,2.9-1.8,5.7-3.8,8-.8.9-1.7,1.7-2.7,2.4-1,.7-2.1,1.1-3.3.4s-1.9-1.7-1.8-2.9c0-2.2,1.1-3.8,2.4-5.2,2-2.3,4.3-4.1,7.4-4.7,1.7-.3,2.3.4,1.8,2ZM366.9,68.9c-1.2,2.5-3.2,3.2-5.3,2-1.1-.6-1.8-1.6-2.1-2.8-2.5-8.4-1.5-16.3,2.9-23.8.2-.4.5-.7.8-1,1.3-1.3,2.8-1.4,4.1,0,1.6,1.6,2.2,3.6,2.6,5.6.3,1.8.4,3.6.4,5.2h0c.2,5.4-1.2,10.2-3.5,14.8ZM404.2,75c-.7,1.4-1.7,2.4-3.4,2.4s-2.6-1-3.1-2.4c-.6-1.8-.9-3.6-1-5.5-.6-6.8.1-13.5,3.3-19.7.4-.8.8-1.5,1.4-2.2,2-2.4,5.1-2,6.2,1,1,2.9,1.2,5.9,1.3,8.5,0,6.6-1.7,12.4-4.7,17.9Z"/>
        <path class="cls-4" d="M222.2,10.8c2.9.3,5,2.5,5.5,5.7.5,2.8.2,5.7.4,8.5,0,.4-.2.5-.5.5h-3.7c-.6,0-.5-.3-.5-.7v-6.3c0-2.3-.9-3.2-3.2-3.2h-30.8c-2.2,0-3.1,1-3.1,3.1v6.3c0,.6-.2.8-.8.8h-3.3c-.3,0-.7,0-.6-.5.2-2.9-.1-5.8.4-8.6.5-3.2,2.7-5.3,5.5-5.6,1.7-.1,3.4,0,5.1,0h14.5c.3.2.7,0,1,0h14.1Z"/>
        <path class="cls-5" d="M222.2,10.8h-14.6c-.2,0-.4,0-.5-.2h15v.2h.1Z"/>
        <path class="cls-5" d="M202.5,10.6c-.1.2-.3.2-.5.2h-14.6v-.2h15.1Z"/>
        <path class="cls-34" d="M238.3,111.3v-25.1c0-.7.2-1.1.8-1.5,9.1-5.8,18.2-11.7,27.4-17.6,1-.6,2-1.1,3.1-1.1s1.8.6,1.9,1.6v20.5c0,2.1-1.1,3.6-2.5,5-1.1,1-2.4,1.7-3.6,2.4-8.8,5.1-17.5,10.2-26.2,15.3-.2,0-.5.3-.9.5h0Z"/>
        <path class="cls-6" d="M173.3,98.2v11.6c0,.4.2.9-.1,1.1-.4.2-.7-.3-1.1-.4-9.4-5.4-18.8-10.8-28.1-16.3-.6-.4-1.3-.7-1.9-1.1-1.7-.9-2.3-2-2-3.9,0-.5.1-1,.1-1.5v-17.5c0-.7,0-1.5.2-2.2.4-1.4,1.4-2,2.9-1.7.7,0,1.4.4,2,.8,9.2,6,18.3,12,27.5,18,.5.3.6.6.6,1.2v12h0Z"/>
        <path class="cls-18" d="M181,111.2c-.2-.4-.1-.7-.1-1v-24.4c0-.7.2-1.1.8-1.4,9.2-5.7,18.4-11.3,27.6-17,.7-.4,1.4-1,2.2-1.2,1.2-.4,2.1,0,2.5,1.2.3.8.4,1.7.4,2.5,0,6.2.1,12.5,0,18.7,0,2.6-1.8,4.4-4,5.7-5.9,3.4-11.9,6.8-17.8,10.3-3.7,2.1-7.3,4.2-11,6.3l-.6.3h0Z"/>
        <path class="cls-15" d="M285.3,51.4c.1-2,.2-4,.4-5.9.2-2.1,1.3-3.7,3.2-4.7,1.6-.8,3.4-1.2,5.2-1.1,1.4,0,2.1.7,2.4,2,.3,1.4,0,2.7-.1,4.1-.5,5.1-.6,10.1.4,15.1.5,2.3,1.2,4.4,2.1,6.6.5,1.2,1.7,1.5,2.6.6.8-.8,1.5-1.7,1.9-2.9,1.6-6,2.9-12,3.5-18.1.1-1.1.1-2.2.4-3.2.5-1.8,1.6-2.5,3.5-2.2,1.5.2,2.4,1.2,2.3,3-.1,3-.7,5.9-1.2,8.8-.9,5.2-2.2,10.3-4.6,15.1-1.6,3.3-4.2,5.6-7.3,7.5-2.1,1.3-4.2.9-6.3-.3-4-2.3-6-6.1-7.1-10.4-1.2-4.6-1.7-9.2-1.6-13.9h.3Z"/>
        <path class="cls-4" d="M165.6,51c0-.6.2-1.3.5-2,3.4-6.6,6.8-13.2,10.2-19.9.5-.9,1-1,1.8-.8,1.6.5,3,1.2,4.5,2,5,2.6,9.7,5.6,14.4,8.6.5.3.9.7,1.2,1.1.9,1.1.9,2-.1,3-6.1,6.2-12.3,12.3-18.4,18.5-.4.4-.8.8-1.3,1.1-1.4.8-2.3.7-3.4-.4-2.5-2.5-5.1-5-7.7-7.4-1.2-1.1-1.7-2.2-1.7-3.7h0Z"/>
        <path class="cls-4" d="M246.3,44.2c.3-.6.4-1.5,1.3-2-.2,1-.6,1.8-.6,2.6s.1.6.6.4c.5-.2,1-.4,1.4-.9.4-.6.8-.4,1.2,0,.7.7,1.9,1.3,1.9,2s-1.1,1.4-1.8,2.1c-4.1,4.2-8.1,8.4-12.5,12.3-3.1,2.7-4.8,2.6-7.6-.3-2-2.1-3.9-4.4-6-6.4-.7-.6-1.1-1.4-1.4-2.3-.2-.7-.2-1.4.1-2.1,3.5-6.8,6.9-13.6,10.4-20.4.7-1.4,1.2-1.6,2.7-1.1,2.3.7,4.4,2,6.4,3.3,4.3,2.6,8.4,5.5,12.8,7.8.7.4,1.4.8,1.9,1.5.4.6.3,1.1-.3,1.4-.3.2-.6.2-.7-.3-.2-.6-.6-1.1-1-1.6-.9-1.1-1.9-1.2-3-.3-.5.4-.9.8-1.5,1.3,0-.9-.1-1.6-.4-2.3-.2-.5-.4-.6-.9-.5-2.2.6-3.5,3.3-2.7,5.6l-.3.2Z"/>
        <path class="cls-18" d="M215.4,111.3h-9.2c-.7,0-.9-.2-.9-.9v-9.4c0-.6.2-1,.7-1.3,7.7-4.8,15.3-9.7,22.9-14.5.6-.4,1.3-.8,1.9-1.3.6-.5,1.3-.8,2.1-.9,1.3-.2,2.2.6,2.2,1.9v16.1c0,2.7-1,4.9-3,6.6-1.9,1.8-4.3,2.8-6.8,3.5-.4,0-.8,0-1.2,0h-8.9.2Z"/>
        <path class="cls-4" d="M140,46.7v-12.6c0-1.5.9-2.6,2.1-3.5,1.2-.9,2.7-1.3,4.1-1.3,5.1-.1,10.3,0,15.4,0h5.2v.3c-8.9,5.6-17.9,11.3-27,17h.2Z"/>
        <path class="cls-4" d="M271.6,46.2c-9.1-5.7-18.1-11.2-27.1-16.8.3-.2.6-.1.9-.1h19.3c4,0,6.5,2.2,6.8,6.3.2,3.5.1,7,0,10.7h.1Z"/>
        <path class="cls-18" d="M271.3,94.5c.3,3.7.6,7.2.3,10.7-.1,1.6-.8,2.9-2.1,3.9-1.7,1.4-3.5,2.2-5.8,2.2h-18.3c-6.1,0-.6,0-.9,0v-.2c8.9-5.5,17.8-11,26.8-16.6Z"/>
        <path class="cls-25" d="M140.4,94.3c9,5.6,17.7,11.2,26.5,16.7-.1.4-.4.2-.6.2-6.5,0-13,0-19.4-.2-1.2,0-2.3-.3-3.4-.8-1.9-.9-3-2.5-3.1-4.6v-11.3Z"/>
        <path class="cls-28" d="M180.4,73.2v-5.2c0-.4,0-.7.3-1.1,1.7-2.1,3.5-4.1,5.5-5.9,1.4-1.2,2.8-1.6,4.6-1.2,4.4,1,8.8,2.3,13.1,3.7,1,.3,1.1,1,.4,1.8-.3.4-.7.7-1.2,1-5.3,3.2-10.4,6.8-15.7,10-1.6,1-3.2,1.9-4.9,2.6-.4,0-.7.3-1.1.4-1,.3-1.1.2-1.1-.8v-5.3h0Z"/>
        <path class="cls-28" d="M238,73.6v-3.6c-.1-1.6.2-3,1.1-4.3,1.6-2.4,3.8-4.2,6.1-5.9.3-.2.5-.2.8,0,4.7,1.3,9.5,2.6,14.3,3.6.7,0,1.7.3,1.8,1.2.2.9-.8,1.1-1.4,1.5-6.7,4.4-13.4,8.7-20.2,13-.6.4-1.2,1.1-2,.7s-.5-1.3-.5-2.1v-4h0Z"/>
        <path class="cls-28" d="M139.9,56.3v-5.6c0-.4,0-.8.4-1.1,2.4-1.9,4.7-3.9,7.5-5.4.4-.2.8-.4,1.2-.6.8-.3,1.4-.2,2,.4,3,2.9,5.8,6,8.7,9.1.5.6,1.1,1.1,1.6,1.6.9.9.8,1.7-.4,2.2-1.3.6-2.8.9-4.2,1.2-5.3,1.4-10.6,2.8-15.9,4.2-.8.2-1,0-.9-.8v-5.5.3Z"/>
        <path class="cls-28" d="M271,62.8c-7.4-2.5-14.7-5-22-7.5,0-.4.3-.5.5-.7,3.6-3.7,7.3-7.4,10.9-11.1.5-.5.8-.6,1.5-.3,2.6,1.4,5.1,2.8,7.2,4.8,1.3,1.2,2,2.7,1.9,4.5-.1,3.4,0,6.7,0,10.2h0Z"/>
        <path class="cls-28" d="M173.2,79.6c-8.1-5-16.1-9.9-24.2-14.9.7-.3,1.3-.5,2-.7,4.2-1.5,8.3-3,12.6-4,1.2-.3,2.2-.2,3.2.5,1.9,1.2,3.7,2.4,5,4.1.8,1,1.4,2.1,1.4,3.4-.3,3.8-.2,7.6,0,11.7h0Z"/>
        <path class="cls-4" d="M187.2,29.5h33.7v.2c-3.5,2.9-7.1,5.6-11.2,7.6-2.6,1.2-5.1,1.3-7.8.3-3.6-1.4-11.7-5.8-14.7-8.1Z"/>
        <path class="cls-28" d="M213.8,62.4c-7.3-2.3-14.5-4.5-21.7-6.7,0,0-.2-.2-.2-.3,1.8-1.7,3.7-3.4,5.4-5.1,2.1-2.1,4.2-4.2,6.2-6.3.4-.5.8-.6,1.4-.3,2.4,1.1,4.7,2.3,6.6,4.2,1.6,1.6,2.5,3.4,2.3,5.7-.2,2.9,0,5.8,0,8.9h0Z"/>
        <path class="cls-28" d="M217.8,56.5c.4,0,.6.4.9.6,3.2,2.7,6.3,5.6,9.6,8.2,2.1,1.8,2.7,4,2.5,6.6-.2,3.9-2.1,6.8-5.4,8.9-2.1,1.4-4.4,2.6-6.7,3.6-.6.3-.8.3-.8-.5v-27.4h-.1Z"/>
        <path class="cls-25" d="M382.4,101v-9.5c0-.8.2-1,1-1h12.3c1,0,1,.4,1,1.1s0,1.2-1.1,1.2h-9.8c-.9,0-1.1.3-1,1.1v5.1c0,.8.3.9,1,.9h8.6c1,0,1.1.4,1.1,1.2s-.2,1.1-1,1.1h-8.7c-.7,0-1,0-.9.9v5.7c0,.7.2.9.8.9h10.5c1,0,.9.5.9,1.2s0,1.1-.9,1.1h-12.8c-.8,0-1-.3-1-1v-10Z"/>
        <path class="cls-25" d="M431.7,98c-1.4-1.6-3.3-2.3-5.4-2.3-2.6-.1-4.6.9-6.2,3.3,0-.9-.1-1.7,0-2.4,0-1.1-.6-.9-1.2-.9s-1.2-.1-1.2,1v19.2q0,1.5,1.5,1.5c.7,0,.9-.2.9-.9v-8.3c3.1,3.7,7.9,4.3,11.1,1.5,3.2-2.8,3.4-8.6.5-11.7ZM425.7,109.4h0c-3.3.1-5.6-2.3-5.6-5.8s2.4-5.8,5.7-5.8,5.6,2.5,5.6,5.8-2.4,5.8-5.7,5.8Z"/>
        <path class="cls-25" d="M480,96.1c-4.1,1.2-6.2,5-5.3,9.5.6,2.9,2.4,5,5.3,5.7,3,.7,5.9.2,8.3-2,.2-.2.2-.4,0-.7-.8-.9-.8-1-1.9-.2-3.8,2.7-8.7,1-9.6-3.2-.1-.7,0-.7.6-.7h5.9c0-.1,5.8-.1,5.8-.1.5,0,.7,0,.7-.6.2-5.7-4.3-9.3-9.8-7.7ZM486.8,102.6h-9.4c-.4,0-.7,0-.6-.5.4-2.4,2.6-4.2,5.3-4.3,2.8,0,4.8,1.5,5.3,4,0,.6,0,.8-.6.8Z"/>
        <path class="cls-25" d="M452.7,95.9c-4.7,0-8,3.2-8,7.8s3.2,8,7.9,8,8.1-3.3,8.1-7.9-3.3-7.9-8-7.9ZM452.6,109.5h-.1c-3.2,0-5.5-2.4-5.5-5.9s2.4-5.7,5.8-5.7,5.6,2.5,5.5,5.9c0,3.4-2.4,5.7-5.7,5.7Z"/>
        <path class="cls-4" d="M153.8,40.7c5.7-3.3,11.3-6.6,17.1-9.9-.2.4-.3.7-.4.9-2.8,5.5-5.6,11-8.4,16.5-.4.7-.6.8-1.1.2-2.3-2.6-4.7-5.1-7.2-7.7h0Z"/>
        <path class="cls-4" d="M210.7,40.9c5.7-3.4,11.4-6.8,17-10.2h.1c-3,5.9-5.9,11.9-8.9,17.9-2.8-2.6-5.5-5.2-8.2-7.8h0Z"/>
        <path class="cls-25" d="M399.4,111.6c1.8-2.6,3.5-5,5.3-7.4.4-.5.4-.9,0-1.4-1.5-2-2.9-4-4.3-6.1-.2-.3-.4-.5-.5-.9h2.1c.5,0,.7.3.9.6,1.2,1.8,2.5,3.5,3.8,5.4,1.1-1.5,2.1-3,3.1-4.4.8-1.2,2-1.7,3.7-1.5-.7,1.1-1.4,2.1-2.1,3.1-.9,1.3-1.7,2.6-2.6,3.8-.4.5-.4.8,0,1.3,1.6,2.2,3.1,4.4,4.6,6.5.2.3.3.5.6.9h-2.4c-.5,0-.6-.4-.8-.6-1.2-1.7-2.4-3.5-3.6-5.2-.4-.5-.5-.5-.9,0-1.1,1.6-2.3,3.2-3.4,4.8-.5.8-1.1,1.2-2.1,1.1h-1.4Z"/>
        <path class="cls-18" d="M189.2,111c2.2-1.6,4.4-3.2,6.6-4.8s2.3-1.6,3.4-2.5c.2,0,.3-.2.5-.3.7-.4,1.5-.9,2.3-.4s.6,1.3.6,2.1c0,1.8-.1,3.6-.2,5.4,0,.4,0,.7-.5.7h-12.7v-.2h0Z"/>
        <path class="cls-25" d="M440.3,100.5v10.3c0,.7-.1,1-.9.9h-.8c-.5,0-.7,0-.7-.7v-20.9c0-.6.3-.7.8-.7q1.6,0,1.6,1.6v9.6h0Z"/>
        <path class="cls-25" d="M467.1,99.1c1.1-1.8,2.6-2.8,4.6-3.2.7,0,1.2,0,1.1.8v.4c.1.8-.1,1-1,1.1-2.8.3-4.7,2.4-4.7,5.3v7.2c0,.8-.2,1.1-.9.9h-.6c-.7,0-.9-.2-.9-.8v-13.9c-.2-1,.3-1.1,1.2-1.1s1.3.3,1.2,1.3v2h0Z"/>
        <path class="cls-22" d="M268.6,85.7h-5.4c-.4,0-.6,0-.7.6-.2,1.2-.8,1.8-1.8,1.8s-1.6-.6-1.8-1.8c0-.4-.2-.6-.5-.9-1.1-1-1.2-1.9-.4-3.1.1-.2.3-.4.3-.7,0-1,.4-1.7,1.4-1.9.4,0,.3-.4.4-.6.3-.8.9-1.1,1.8-.8.4,0,.7.2,1.1,0,.6-.3,1.3-.3,1.7.2.5.6,1,1.2.4,2-.3.4-.1.7.1,1,1.1,1.4,2.2,2.8,3.2,4.2h.2Z"/>
        <path class="cls-22" d="M247.7,91.1c-2,0-3.7.5-5.2,1.8.7-3.7,6-6.2,9.3-4.3.4.2.5.4.4.8-.7,4.3-5.2,7.2-8.9,5.9q-1-.4-.3-1.1c1.3-1.5,2.9-2.5,4.8-3h-.1Z"/>
        <path class="cls-11" d="M256.6,92c.4.8.1,1.6-.2,2.5.6-.6.8-.8,1.1-2,.6.6.7,1.5.4,2.4s-.9,1.5-1.7,2-1.2.5-1.7-.4c-.9-1.6,0-3.7,2.1-4.5h0Z"/>
        <path class="cls-29" d="M266.7,73.3c.2-.3.5-.5.8-.9.2.8,0,1.3-.4,1.7-.5.6-1.2,1-1.9.9-.6,0-.6-.7-.6-1.2,0-.9,1.1-1.9,2-1.9s.4,0,.3.4c0,.3-.2.6-.3.9h.1Z"/>
        <path class="cls-29" d="M253.4,82.7c0,.5.4.7.5,1.2-.8,0-1.2-.4-1.5-.9-.4-.7-.6-1.4-.2-2.1.3-.5,1-.3,1.5,0,.7.4,1.2,1.6,1.1,2.4,0,.3-.2.4-.4.2-.3-.2-.6-.4-.9-.7h-.1Z"/>
        <path class="cls-22" d="M158.6,93.6c0-2.8.7-3.9,3.3-4.7,1.1-.3,2-.8,2.6-1.9.3-.5.8-.9,1.2-1.4.2-.2.3-.4.6-.2.3.3,0,.3-.2.5,0,0-.2.3-.2.4-.9,1.6-.8,1.8.9,2.2,3.4.7,4.8,2.7,4.5,6.1-.1,1.2-.2,2.3-.6,3.4-.8,2-2.4,3.1-4.6,3.3h-2.4c-3.4-.6-4.9-2.5-5.2-6.4v-1.2h0Z"/>
        <path class="cls-22" d="M149,82.5c-1.3,1.3-2,3-2.2,5-1-1.5-1.2-3-.9-4.5.4-2.1,1.7-3.7,3.6-4.7.6-.3,1-.2,1.4.3,2.6,3.1,1.6,7.9-1.9,9.7-.5.3-.7.3-.9-.4-.3-1.9.1-3.7.9-5.4h0Z"/>
        <path class="cls-11" d="M156.6,95.7c-1.1-.3-1.6-1.1-2.2-1.9,0,1,.7,1.6,1.2,2.4-2,0-3.5-2.5-2.8-4.4.1-.4.4-.4.7-.4,1.5-.3,2.9.9,3.1,2.7v1.6Z"/>
        <path class="cls-17" d="M144,72.1c-.4-.4-.8-.5-1.3-.6,1.2-.8,3.3,0,3.5,1.4,0,.2,0,.4-.2.5-.6.5-1.2.6-2,.4s-1.3-.7-1.7-1.5.1-.4.3-.4c.4,0,.9,0,1.3,0h0Z"/>
        <path class="cls-17" d="M157.4,83.5c.3-1.5,1.7-2.4,3.1-2,.6,0,.5.6.5,1-.2,1.3-1.5,2.1-3.2,1.8.1-.6.6-1,1.1-1.4-.6,0-.9.4-1.4.6h-.1Z"/>
        <path class="cls-22" d="M183.2,100.3c1.1-2.8,2.2-5.4,3.2-8,.3-.7.4-1.1-.5-1.4-1.6-.7-2.3-2.5-1.7-3.8.6-1.5,2.2-2.2,3.9-1.7.6.2.9,0,1.4-.2,2.1-1.3,3.9-.8,5.2,1.3.2.3.3.6.8.8,1.7.6,2.3,1.5,2.1,3.3,0,.4,0,.6.4.8,1.2.7,1.5,2.3.5,3.4-.5.5-.7,1-.6,1.7.1,1.6-.3,2.3-1.6,2.7-1.7.5-2.6.3-3.4-1.2-.3-.5-.6-.4-1-.3-2.5.8-5.1,1.6-7.6,2.4-.3,0-.6.2-1,.3h0Z"/>
        <path class="cls-22" d="M206.2,94.1c-1.9-2.4-2.6-5.1-2.4-8.1-1,1.6-1,4.4,0,7.6-.7-.4-1.2-.9-1.7-1.3-3.1-3.3-3-8.8,0-12,.4-.4.7-.5,1.3-.2,5.3,2.2,6.9,9.4,3.1,13.7-.1,0-.3.2-.4.4h0Z"/>
        <path class="cls-7" d="M212.3,72.1c.1,1.2-.4,2.1-1.2,2.8-.9.8-1.9,1-3,1.1-1.3,0-1.7-.4-1.6-1.7.1-1.6,1.6-3,3.4-3.2h1.7c-.2,1.2-1.1,1.9-2.1,2.7,1.2-.2,2-.8,2.7-1.7h.1Z"/>
        <path class="cls-22" d="M187.4,44.6c-2-.7-3.8-1.4-5.6-2.1-.6-.2-.9-.3-1.2.4-.4,1-1.5,1.4-2.4,1.1-1-.3-1.6-1.3-1.3-2.5.1-.5,0-.8-.2-1.2-.8-1.3-.5-2.4.8-3.3.3-.2.6-.4.7-.8,0-.5.4-1,.8-1,1.3,0,2-1.2,3.2-1.3.1,0,.4,0,.4.2.6.6,1.2.6,2,.6s1.1.4,1.3,1.1c.2.7.5,1.5-.3,2-.5.4-.4.7-.2,1.2.7,1.8,1.3,3.6,2,5.7h0Z"/>
        <path class="cls-22" d="M173.3,49.9c-.7,1.9-.7,3.6,0,6-1.2-.5-2.5-2.1-3-3.9-.7-2.6,0-4.9,1.7-6.9.3-.4.6-.4,1.1-.2,4.2,1.8,5.7,7.5,2.8,11.1-.5.6-.7.4-1,0-1.1-1.6-1.5-3-1.6-6h0Z"/>
        <path class="cls-35" d="M192.3,41.6c.5-.9.4-1.7.4-2.5,1.9,1.1,1.1,4.1-.5,5.2-.2.2-.4,0-.6,0-.9-.5-1.4-1.3-1.4-2.4s.5-2.1,1.3-2.9c.3-.3.4,0,.5.2.4.7.4,1.4.3,2.3h0Z"/>
        <path class="cls-35" d="M184.3,49.6c.5-.9.4-1.6.4-2.4.8.4,1.2,1.3,1.1,2.4-.1.8-.4,1.5-.9,2.1-.7.9-1.1.9-1.9,0-1.2-1.2-.9-3.8.4-4.7.4-.3.4,0,.5.2.3.6.3,1.4.3,2.3h0Z"/>
        <path class="cls-22" d="M241.1,41.8c-.1.2-.2.3-.3.4-.8,1.4-.8,1.6.7,1.9,2.1.5,3.2,1.9,3.1,4.1,0,.9-.1,1.9-.4,2.7-.6,1.6-1.8,2.5-3.6,2.6-3.5,0-5.2-1.5-5.3-5v-1.2c0-1.3.5-2.3,1.7-2.7,1.3-.4,2.3-1.1,3-2.2.2-.3.4-.6,1-.5h.1Z"/>
        <path class="cls-22" d="M231.7,56.5c-1.6-2-2.1-4.2-2.1-6.6-.7,2-.7,4.1.1,6.2-3.8-2.4-4.4-7.9-1.3-11,.4-.4.7-.3,1.1-.2,4.5,2,5.7,8,2.2,11.6Z"/>
        <path class="cls-35" d="M237.4,37.5c.2-1.1,0-2.1-.6-3.3,2.2,1.4,3,3.9,2,5.8-.4.7-.8.9-1.5.4-2-1.2-3.1-3.6-2.4-5.5.1-.3.2-.8.5-.9.4,0,.5.4.7.7.6.8.9,1.8,1.2,2.8h.1Z"/>
        <path class="cls-22" d="M213.2,104.6c-1.9,0-2.7.2-5.7,1.8.9-2.2,2.4-3.7,4.5-4.5,1.6-.6,3.3-.5,4.8.3.3.2.6.3.5.8-.6,4.2-5,7.4-9,5.9-.8-.3-.8-.6-.3-1.1,1.3-1.4,2.8-2.4,4.6-2.9.1,0,.2,0,.5-.2h0Z"/>
        <path class="cls-22" d="M225.5,98.8c0,1.8.5,3.4,1.8,4.8-1.2,0-2.6-.8-3.4-2-1.4-2-1.4-4.1-.7-6.3.2-.5.5-.6.9-.6,2.7,0,5.1,2.2,5.4,5,.1,1,0,2-.2,2.9-.2.5-.3.7-.8.3-1.5-1.1-2.4-2.5-2.9-4.2h-.1Z"/>
        <path class="cls-11" d="M221,108.4c.1.8.5,1.5,1.1,2.1-1.6,0-2.8-1.2-2.9-2.9,0-.6-.3-1.3.3-1.7.7-.4,1.5-.2,2.2.3,1.2.8,1.5,2,1.4,3.4,0,.5-.2.5-.6.3-.6-.3-1.1-.9-1.5-1.4h0Z"/>
        <path class="cls-8" d="M231.7,89.4c.5,0,.8-.3,1.3-.4,0,.8-.5,1.2-1.2,1.5s-1.4.3-2.1,0c-.3,0-.2-.4-.2-.7,0-1.1,1.9-2,2.9-1.5.3.2.3.3,0,.5-.2.2-.5.4-.7.7h0Z"/>
        <path class="cls-12" d="M219,98.6c-.6,0-.8-.5-1.2-.8-.1.5.4.8.6,1.3-.8,0-1.3-.4-1.6-1-.3-.7-.6-1.4-.2-2.1.2-.5.8-.3,1.2-.2,1,.4,1.4,1.4,1.2,2.8Z"/>
        <path class="cls-22" d="M186.3,69.9c-1.5,1-2.6,2.4-3.1,4.2-.5-.8-.6-1.9-.4-3.1.5-2.6,2.6-4.7,5.2-5.1.6,0,.8,0,1.1.5,2.1,3.8-.4,8.6-4.7,9.2,0-2.2.7-4,2-5.7h-.1Z"/>
        <path class="cls-11" d="M192.3,66.9c-.5-2.3.5-4,2.3-4.5.6-.2.9,0,1.1.6.8,2-.4,4.2-2.7,4.6-.2-1,.3-1.9.9-3-.9.6-1.3,1.3-1.6,2.3Z"/>
        <path class="cls-22" d="M245,67.7c-1.1,1.6-1.7,3.2-1.4,5.1-2.6-2.5-2.2-7.6,1.7-9.8.3-.2.5,0,.7,0,3.3,2.3,3.1,8.2-.4,10.3-.5.3-.6,0-.7-.3-.5-1.5-.6-3-.2-4.5,0-.3.2-.6.2-.9h0Z"/>
        <path class="cls-35" d="M251.8,66.1c-.6.9-.8,1.7-.8,2.6-1.4-1.3-.9-4.4.9-5.1.2,0,.4,0,.6,0,1.6,1.2,1.5,4.3-.2,5.4-.4.2-.5,0-.6-.3-.3-.9-.2-1.7,0-2.7h.1Z"/>
        <path class="cls-22" d="M150.9,52.1c0,1.9.5,3.4,1.7,4.8-3.4-.4-6.2-4.8-4.2-8.9.2-.4.5-.4.8-.3,4.1.2,7,4.8,5.5,8.5-.2.5-.4.5-.7.2-1.2-.9-2.1-2-2.7-3.4-.1-.3-.2-.6-.3-.9h-.1Z"/>
        <path class="cls-35" d="M142.4,54c-.2-1,.3-1.8.8-2.8-.9.5-1.1,1.3-1.5,2-.5-2,.4-3.8,2.4-4.4.6-.2.8,0,1,.5.9,2-.3,4.2-2.6,4.7h0Z"/>
        <path class="cls-33" d="M142.3,58.1c.4-.4.8-.6,1.4-.9-.6,0-1,0-1.4,0,.7-1.3,2.7-1.7,3.7-.7.3.3.1.5,0,.8-.4,1.3-2.4,1.8-3.7.7Z"/>
        <path class="cls-22" d="M256.9,55.1c-1.4-3.6,1.3-8,5.1-8.3.3,0,.6,0,.8.3,2.2,3.3-.2,8.7-4.2,9.4-.6,0-.5-.3-.5-.6,0-1.7.6-3.1,2-5-1.2.4-2.3,1.8-3.3,4.2h.1Z"/>
        <path class="cls-33" d="M267.6,50.8c-.2-.5-.7-.6-.9-1,1.3-.3,2.9,1.1,2.6,2.3,0,.5-.6.5-1,.6-.9,0-2.2-1.1-2.2-2s.2-.4.4-.3c.3,0,.7.3,1.1.4Z"/>
        <path class="cls-29" d="M266.4,56.7c.5-.2.6-.7,1-.9.3,1.2-1.1,2.8-2.3,2.5-.5,0-.6-.6-.6-1,0-.9,1-2.1,2-2.1s.4.2.3.5-.3.7-.4,1Z"/>
        <path class="cls-22" d="M167.5,69.4c0,1.9.6,3.5,1.8,5-3.9-.8-6-5.4-4.3-8.8.2-.4.4-.5.8-.5,4.1.2,7,4.7,5.5,8.5-.2.6-.4.5-.8.2-1.5-1.1-2.5-2.6-3.1-4.4h.1Z"/>
        <path class="cls-35" d="M161.5,68.1c-.9-.5-1.3-1.4-1.7-2.4-.1,1,.3,1.7.6,2.4-1.8,0-2.9-2.9-1.9-4.7.3-.5.7-.2,1,0,2.3.7,2.9,3.5,1.9,4.9h0Z"/>
        <path class="cls-22" d="M201.3,48.6c1-.6,2.4-.2,3,.8s.4.5.8.2c2.8-1.6,4-1,4.7,2.1.2,1.2.4,2.3.5,3.5s-.3,1.7-1.4,1.8c-.6,0-.9.3-1.3.7-1,1-1.8,1-2.9,0-1.2-1-2.3-2.1-3.3-3.2-1.1-1.2-.9-2.3.4-3.3.5-.4,1-.7,1.6-.8.7-.2.6-.5.3-1-.3-.4-.8-.7-1.3-.8-.4,0-.7,0-1.2-.2h0Z"/>
        <path class="cls-33" d="M219.7,71.1c0-1.7.2-3.3.9-4.9.5-1.4.3-2.8.3-4.2s0-.8.6-.8.5.4.5.8c0,2.8,1.3,4.7,3.5,6.2,1.8,1.3,2.9,3.2,3.1,5.5,0,1.2-.4,2.1-1.3,2.9-.8.7-1.8,1.1-2.8,1.4-1.7.4-3-.3-3.8-1.9s-.9-3.3-1-4.9h0Z"/>
        <path class="cls-17" d="M160.4,41.8c-.7.4-1,1-1.3,1.7-.8-1.8.7-4.2,2.6-4.3.4,0,.5.2.6.5.9,1.8-.1,4.2-2.1,4.7-.5.2-.6,0-.6-.5.1-.7.4-1.4.7-2.1h.1Z"/>
        <path class="cls-21" d="M164.7,36.1c.6,0,.9.2,1.2.6.2.3.3.6-.2.5-.6,0,.1.5-.3.5s-1.4-.4-1.5-.9c0-.7.5-.5.8-.6h0Z"/>
        <path class="cls-35" d="M216.9,44.4c-.5-2.1.5-3.9,2.3-4.4.6-.2.9,0,1.1.6.7,1.8-.2,3.8-2,4.5-.6.2-.8.2-.7-.5.1-.8.5-1.4,1-2.3-.9.6-1.2,1.3-1.6,2.1h-.1Z"/>
        <path class="cls-30" d="M224,37.9c-.1.3-.9,0-.6.6-.4.2-.8,0-1.1-.2s-.7-.5-.6-.9c0-.4.4-.4.7-.5.7,0,1.3.2,1.6.9h0Z"/>
        <path class="cls-10" d="M264,83.8c.3.3.7.6.8,1.1-.5-.2-1.6.2-.8-1.1Z"/>
        <path class="cls-24" d="M264.9,82.2c.2.5.4.8.6,1.3-.8-.2-1.1-.5-.6-1.3Z"/>
        <path class="cls-2" d="M165.7,100.3c-1.8,0-3.4-.4-4.6-1.8-1.3-1.5-1.2-3.3-.8-5.1.5,3.3,1.8,6,5.4,6.9h0Z"/>
        <path class="cls-27" d="M167.2,90.8c-.2,0-.3.2-.4.3-.2,0-.4.2-.7.4-.1-.6-.3-1.1-.5-1.9.7.5,1.1.9,1.6,1.2h0Z"/>
        <path class="cls-32" d="M164.3,89.7c.3.6.4,1,.6,1.4,0,.2.4.5,0,.6-.2,0-.6,0-.8,0-.3,0-.1-.4,0-.6,0-.4.2-.8.3-1.5h-.1Z"/>
        <path class="cls-13" d="M162.9,90c0,1.1-.4,1.6-1.2,1.5.2-.6.7-1,1.2-1.5Z"/>
        <path class="cls-14" d="M186.9,94.9c.2-.5.2-1.1.8-1.3.1,0,.7.5.6.6-.2.6-.9.5-1.4.7h0Z"/>
        <path class="cls-26" d="M188.6,96.6c.5-.7,1-.8,1.5-.2-.5.2-.9.3-1.5.2Z"/>
        <path class="cls-23" d="M183.2,40.7c.2.6.4,1,.7,1.5-.5-.2-.9-.4-1.4-.6.2-.3.4-.6.7-1h0Z"/>
        <path class="cls-31" d="M184.7,39.6c0,.5.1.9.2,1.4q-1-.7-.2-1.4Z"/>
        <path class="cls-9" d="M236.7,47.5c.3,2.5,1.2,4.4,3.8,5.2-2.9.3-4.6-2.1-3.8-5.2Z"/>
        <path class="cls-19" d="M239.6,45.4c.2.4.7.8.4,1.3,0,0-.5.2-.5,0-.4-.5.1-.9.1-1.4h0Z"/>
        <path class="cls-16" d="M240.9,45.2c.3.3.9.3.9.8s-.4.3-.5.3c-.4-.2-.3-.7-.3-1.1h0Z"/>
        <path class="cls-20" d="M238.2,45.6c0,.4.3.8-.1,1h-.5c0-.4.4-.6.6-.9h0Z"/>
        <path class="cls-1" d="M208.6,52.9c-.3-1.5-1.4-1.8-2.5-2.3,1.1-.4,1.7-.3,2.2.2.5.6.6,1.2.3,2.1Z"/>
        <path class="cls-3" d="M221.4,68.1c.6,2,1.1,4.1,1.7,6.1.2.6.5,1.5-.3,1.8-.7.2-1-.6-1.3-1.2-1-2.2-1-4.4-.1-6.7h0Z"/>
      </g>
    </g>
  </g>
</svg>