<?xml version="1.0" encoding="utf-8"?>
<!-- Generator: Adobe Illustrator 26.0.1, SVG Export Plug-In . SVG Version: 6.00 Build 0)  -->
<svg version="1.1" id="Layer_1" xmlns="http://www.w3.org/2000/svg" xmlns:xlink="http://www.w3.org/1999/xlink" x="0px" y="0px"
	 viewBox="0 0 100 100" style="enable-background:new 0 0 100 100;" xml:space="preserve">
<style type="text/css">
	.st0{fill:#7C7C71;}
</style>
<g>
	<path class="st0" d="M9.3,9.5V9.2C9.3,9.1,9.2,9,9,9S8.8,9.1,8.8,9.2v0.3c0,0.1,0.1,0.2,0.2,0.2S9.3,9.6,9.3,9.5z"/>
	<path class="st0" d="M15,5.1c0.1,0,0.2-0.1,0.2-0.1l0,0l0,0l0,0l0.3-0.6c0.1-0.1,0-0.3-0.1-0.3h0c0,0,0,0,0,0
		c-0.1-0.1-0.3,0-0.3,0.1l-0.3,0.6C14.7,4.9,14.8,5.1,15,5.1C15,5.1,15,5.1,15,5.1z"/>
	<path class="st0" d="M20.2,3.1V2.9c0-0.1-0.1-0.2-0.2-0.2s-0.2,0.1-0.2,0.2v0.2c0,0.1,0.1,0.2,0.2,0.2C20.1,3.3,20.2,3.2,20.2,3.1z
		"/>
	<path class="st0" d="M13.4,13.2c0.1,0,0.2-0.1,0.2-0.2s-0.1-0.2-0.2-0.2h-0.1c-0.1,0-0.2,0.1-0.2,0.2s0.1,0.2,0.2,0.2H13.4z"/>
	<path class="st0" d="M9.6,17.9c0-0.1-0.1-0.2-0.2-0.2H8.9c-0.1,0-0.2,0.1-0.2,0.2s0.1,0.2,0.2,0.2h0.4C9.5,18.1,9.6,18,9.6,17.9z"
		/>
	<path class="st0" d="M17.2,16L17.2,16c0.2,0,0.3-0.1,0.3-0.2s-0.1-0.2-0.2-0.2h-0.1c-0.1,0-0.2,0.1-0.2,0.2S17,16,17.2,16z"/>
	<path class="st0" d="M18.4,8.3c-0.1-0.1-0.3-0.1-0.4,0l-0.1,0.1c-0.1,0.1-0.1,0.3,0,0.4c0,0.1,0.1,0.1,0.2,0.1s0.1,0,0.2-0.1
		l0.1-0.1C18.5,8.5,18.4,8.4,18.4,8.3z"/>
	<path class="st0" d="M24,9.2h0.5c0.1,0,0.2-0.1,0.2-0.2s-0.1-0.2-0.2-0.2H24c-0.1,0-0.2,0.1-0.2,0.2S23.9,9.2,24,9.2z"/>
	<path class="st0" d="M21.8,14.3c0.1,0,0.1,0,0.2-0.1l0.1-0.1c0.1-0.1,0.1-0.3,0-0.4c-0.1-0.1-0.3-0.1-0.4,0l-0.1,0.1
		c-0.1,0.1-0.1,0.3,0,0.4C21.6,14.2,21.7,14.3,21.8,14.3z"/>
	<path class="st0" d="M14.2,10.4v-0.1c0-0.1-0.1-0.2-0.2-0.2s-0.2,0.1-0.2,0.2v0.1c0,0.1,0.1,0.2,0.2,0.2S14.2,10.6,14.2,10.4z"/>
	<path class="st0" d="M7.5,4.8c0.1,0,0.1,0,0.2-0.1l0.1-0.2C8,4.5,8,4.3,7.9,4.2c-0.1-0.1-0.3-0.1-0.3,0L7.4,4.4
		c-0.1,0.1-0.1,0.3,0,0.3C7.4,4.8,7.5,4.8,7.5,4.8z"/>
	<path class="st0" d="M11.3,1.2C11.3,1.2,11.3,1.2,11.3,1.2L12,1.1c0.1,0,0.2-0.2,0.2-0.3c0-0.1-0.2-0.2-0.3-0.2l-0.6,0.2
		c-0.1,0-0.2,0.2-0.2,0.3C11.1,1.2,11.2,1.2,11.3,1.2z"/>
	<path class="st0" d="M4.2,4.4c0.1,0,0.2-0.1,0.2-0.2V4c0-0.1-0.1-0.2-0.2-0.2S4,3.8,4,4v0.1C4,4.3,4.1,4.4,4.2,4.4z"/>
	<path class="st0" d="M4,11.3v-0.1c0-0.1-0.1-0.2-0.2-0.2S3.5,11,3.5,11.2v0.1c0,0.1,0.1,0.2,0.2,0.2S4,11.4,4,11.3z"/>
	<path class="st0" d="M5.2,15.2v-0.1c0-0.1-0.1-0.2-0.2-0.2s-0.2,0.1-0.2,0.2v0.1c0,0.1,0.1,0.2,0.2,0.2C5.1,15.5,5.2,15.3,5.2,15.2
		z"/>
	<path class="st0" d="M1.9,19.8c0.1,0,0.2-0.1,0.2-0.2v-0.1c0-0.1-0.1-0.2-0.2-0.2s-0.2,0.1-0.2,0.2v0.1C1.6,19.7,1.7,19.8,1.9,19.8
		z"/>
	<path class="st0" d="M0.8,15.7c0.1,0,0.1,0,0.2-0.1l0.3-0.5c0.1-0.1,0.1-0.3,0-0.4c-0.1-0.1-0.3-0.1-0.3,0.1l-0.4,0.5
		c-0.1,0.1-0.1,0.3,0.1,0.4C0.7,15.7,0.7,15.7,0.8,15.7z"/>
	<path class="st0" d="M2.9,2.4C2.9,2.4,2.9,2.4,2.9,2.4c0.2,0,0.3-0.2,0.2-0.3L3,1.7c0-0.1-0.2-0.2-0.3-0.2c-0.1,0-0.2,0.2-0.2,0.3
		l0.2,0.4C2.7,2.4,2.8,2.4,2.9,2.4z"/>
	<path class="st0" d="M4.2,0H4c0,0,0.1,0,0.1,0C4.1,0,4.2,0,4.2,0z"/>
	<path class="st0" d="M23.5,0C23.5,0,23.5,0,23.5,0C23.6,0,23.6,0,23.5,0L23.5,0z"/>
	<path class="st0" d="M25.2,3.6c-0.1,0-0.2,0.1-0.2,0.2s0.1,0.2,0.2,0.2h0.3c0.1,0,0.2-0.1,0.2-0.2s-0.1-0.2-0.2-0.2
		C25.5,3.6,25.2,3.6,25.2,3.6z"/>
	<path class="st0" d="M29.2,7c0,0.1,0.1,0.1,0.2,0.1c0.1,0,0.1,0,0.2-0.1c0.1-0.1,0.1-0.3,0-0.3l-0.1-0.2c-0.1-0.1-0.3-0.1-0.4,0
		c-0.1,0.1-0.1,0.3,0,0.3L29.2,7z"/>
	<path class="st0" d="M27.2,10.7c0.1,0,0.2-0.1,0.2-0.2s-0.1-0.2-0.2-0.2H27c-0.1,0-0.2,0.1-0.2,0.2s0.1,0.2,0.2,0.2H27.2z"/>
	<path class="st0" d="M24.3,20.1h0.3c0.1,0,0.2-0.1,0.2-0.2s-0.1-0.2-0.2-0.2h-0.3c-0.1,0-0.2,0.1-0.2,0.2S24.2,20.1,24.3,20.1z"/>
	<path class="st0" d="M17.4,23.4c0,0,0.1,0,0.1,0c0.1,0,0.2,0,0.2-0.1c0.1-0.1,0-0.3-0.1-0.3c0,0,0-0.1,0-0.1c0.1-0.1,0-0.3-0.1-0.3
		c-0.1-0.1-0.3,0-0.3,0.1C17.1,22.9,17.2,23.2,17.4,23.4z"/>
	<path class="st0" d="M15.2,20.2h0.1c0.1,0,0.2-0.1,0.2-0.2s-0.1-0.2-0.2-0.2h-0.1c-0.1,0-0.2,0.1-0.2,0.2S15,20.2,15.2,20.2z"/>
	<path class="st0" d="M10.4,22.8L10.2,23c-0.1,0.1-0.1,0.3,0,0.4c0.1,0,0.1,0.1,0.2,0.1s0.1,0,0.2-0.1l0.1-0.1
		c0.1-0.1,0.1-0.3,0-0.4C10.6,22.7,10.4,22.7,10.4,22.8z"/>
	<path class="st0" d="M8.5,24.9c0,0,0.1,0,0.1,0c0.1,0,0.2,0,0.2-0.1c0.1-0.1,0-0.3-0.1-0.3l-0.3-0.1c-0.1-0.1-0.3,0-0.3,0.1
		c-0.1,0.1,0,0.3,0.1,0.3L8.5,24.9z"/>
	<path class="st0" d="M6.2,22.5c0.1,0,0.2-0.1,0.2-0.2v-0.1c0-0.1-0.1-0.2-0.2-0.2S5.9,22,5.9,22.1v0.1C5.9,22.4,6.1,22.5,6.2,22.5z
		"/>
	<path class="st0" d="M0.3,24.4h0.5c0.1,0,0.2-0.1,0.2-0.2s-0.1-0.2-0.2-0.2H0.3C0.1,23.9,0,24,0,24.2C0,24.3,0.1,24.4,0.3,24.4z"/>
	<path class="st0" d="M3.1,28.8L3.1,28.8c0.1-0.1,0.1-0.2,0-0.3l-0.3-0.5C2.8,28,2.7,27.9,2.6,28c-0.1,0-0.2,0.1-0.2,0.3
		c0,0.2,0.2,0.5,0.4,0.6c0,0,0.1,0,0.2,0C3,28.9,3.1,28.9,3.1,28.8z"/>
	<path class="st0" d="M28.3,0.8h-0.1c-0.1,0-0.2,0.1-0.2,0.2s0.1,0.2,0.2,0.2h0.1c0.1,0,0.2-0.1,0.2-0.2S28.4,0.8,28.3,0.8z"/>
	<path class="st0" d="M31.2,6.2c0,0.1,0.1,0.2,0.2,0.2s0.2-0.1,0.2-0.2V6.1c0-0.1-0.1-0.2-0.2-0.2s-0.2,0.1-0.2,0.2V6.2z"/>
	<path class="st0" d="M31,11.6l0.1-0.1c0.1-0.1,0.1-0.3,0-0.4c-0.1-0.1-0.3-0.1-0.4,0l-0.1,0.1c-0.1,0.1-0.1,0.2,0,0.3
		c0,0,0.1,0.1,0.2,0.1C30.8,11.7,30.9,11.7,31,11.6z"/>
	<path class="st0" d="M26.5,15.1c0-0.1-0.1-0.2-0.2-0.2h-0.1c-0.1,0-0.2,0.1-0.2,0.2s0.1,0.2,0.2,0.2h0.1
		C26.4,15.3,26.5,15.2,26.5,15.1z"/>
	<path class="st0" d="M19.8,19.4c0.1,0,0.2-0.1,0.2-0.2V19c0-0.1-0.1-0.2-0.2-0.2s-0.2,0.1-0.2,0.2v0.1
		C19.6,19.2,19.7,19.4,19.8,19.4z"/>
	<path class="st0" d="M21.5,23.3l-0.1-0.1c-0.1-0.1-0.3-0.1-0.4,0c-0.1,0.1-0.1,0.3,0,0.4l0.1,0.1c0,0,0.1,0.1,0.2,0.1
		c0.1,0,0.1,0,0.2-0.1C21.6,23.5,21.6,23.4,21.5,23.3z"/>
	<path class="st0" d="M18.4,28.4c0-0.1-0.1-0.2-0.2-0.2s-0.2,0.1-0.2,0.2v0.3c0,0.1,0.1,0.2,0.2,0.2s0.2-0.1,0.2-0.2V28.4z"/>
	<path class="st0" d="M10.3,29.7v-0.3c0-0.1-0.1-0.2-0.2-0.2s-0.2,0.1-0.2,0.2v0.3c0,0.1,0.1,0.2,0.2,0.2S10.3,29.9,10.3,29.7z"/>
	<path class="st0" d="M13.7,26c-0.1-0.1-0.2-0.1-0.4,0L13,26.2c-0.1,0.1-0.1,0.2,0,0.4c0.1,0,0.1,0.1,0.2,0.1s0.1,0,0.2-0.1l0.3-0.3
		C13.8,26.2,13.8,26.1,13.7,26z"/>
	<path class="st0" d="M1.7,33.1c0,0,0.1,0,0.1,0c0.3-0.1,0.4-0.4,0.4-0.7c0-0.1-0.1-0.2-0.2-0.2s-0.2,0.1-0.2,0.2
		c0,0.1-0.1,0.2-0.1,0.2c-0.1,0.1-0.2,0.2-0.1,0.3C1.5,33.1,1.6,33.1,1.7,33.1z"/>
	<path class="st0" d="M6.4,31C6.4,31,6.4,31,6.4,31c0.2,0,0.3-0.1,0.2-0.3c0-0.1,0.1-0.3,0.2-0.3c0.1-0.1,0.2-0.2,0.1-0.3
		S6.7,29.9,6.6,30c-0.3,0.2-0.5,0.5-0.4,0.8C6.2,30.9,6.3,31,6.4,31z"/>
	<path class="st0" d="M10.2,33.6c0.1,0,0.2,0,0.2-0.1l0.1-0.3c0.1-0.1,0-0.3-0.1-0.3s-0.3,0-0.3,0.1L10,33.2c-0.1,0.1,0,0.3,0.1,0.3
		C10.2,33.6,10.2,33.6,10.2,33.6z"/>
	<path class="st0" d="M14.3,30.2c0.1,0,0.2,0,0.2-0.1l0.3-0.4c0.1-0.1,0.1-0.3-0.1-0.4c-0.1-0.1-0.3,0-0.4,0.1l-0.3,0.4
		c-0.1,0.1-0.1,0.3,0.1,0.4C14.2,30.2,14.3,30.2,14.3,30.2z"/>
	<path class="st0" d="M18.1,32.5l0.1-0.3c0.1-0.1,0-0.3-0.1-0.3c-0.1-0.1-0.3,0-0.3,0.1l-0.1,0.3c-0.1,0.1,0,0.3,0.1,0.3
		c0,0,0.1,0,0.1,0C18,32.7,18,32.6,18.1,32.5z"/>
	<path class="st0" d="M22.1,29.1v0.3c0,0.1,0.1,0.2,0.2,0.2s0.2-0.1,0.2-0.2v-0.3c0-0.1-0.1-0.2-0.2-0.2
		C22.2,28.9,22.1,29,22.1,29.1z"/>
	<path class="st0" d="M26.4,24.4c0.1,0,0.2,0,0.2-0.1l0.1-0.3c0.1-0.1,0-0.3-0.1-0.3c-0.1-0.1-0.3,0-0.3,0.1l-0.1,0.3
		c-0.1,0.1,0,0.3,0.1,0.3C26.3,24.4,26.4,24.4,26.4,24.4z"/>
	<path class="st0" d="M32.4,1.8c0.1,0,0.2,0,0.2-0.1l0.2-0.3c0.1-0.1,0-0.3-0.1-0.3c-0.1-0.1-0.3,0-0.3,0.1l-0.2,0.3
		c-0.1,0.1,0,0.3,0.1,0.3C32.3,1.8,32.3,1.8,32.4,1.8z"/>
	<path class="st0" d="M33.6,20.8c0.1,0,0.2-0.1,0.2-0.2L34,20c0-0.1,0-0.3-0.2-0.3c-0.1,0-0.3,0-0.3,0.2l-0.2,0.6
		C33.3,20.7,33.4,20.8,33.6,20.8C33.5,20.8,33.6,20.8,33.6,20.8z"/>
	<path class="st0" d="M30.2,17.6v0.1c0,0.1,0.1,0.2,0.2,0.2s0.2-0.1,0.2-0.2v-0.1c0-0.1-0.1-0.2-0.2-0.2
		C30.3,17.4,30.2,17.5,30.2,17.6z"/>
	<path class="st0" d="M33.4,14.4c0.1,0,0.2,0,0.2-0.1l0.2-0.2c0.1-0.1,0-0.3-0.1-0.4c-0.1-0.1-0.3,0-0.3,0.1L33.2,14
		c-0.1,0.1,0,0.3,0.1,0.4C33.3,14.4,33.4,14.4,33.4,14.4z"/>
	<path class="st0" d="M6.1,27c0-0.1-0.1-0.2-0.2-0.2H5.7c-0.1,0-0.2,0.1-0.2,0.2s0.1,0.2,0.2,0.2h0.2C6,27.3,6.1,27.2,6.1,27z"/>
	<path class="st0" d="M12.8,16.1l-0.1,0.1c-0.1,0.1-0.1,0.3,0,0.4c0.1,0,0.1,0.1,0.2,0.1c0.1,0,0.1,0,0.2-0.1l0.1-0.1
		c0.1-0.1,0.1-0.3,0-0.4C13,16,12.9,16,12.8,16.1z"/>
	<path class="st0" d="M8.2,13.6v0.1c0,0.1,0.1,0.2,0.2,0.2s0.2-0.1,0.2-0.2v-0.1c0-0.1-0.1-0.2-0.2-0.2C8.3,13.3,8.2,13.4,8.2,13.6z
		"/>
	<path class="st0" d="M5.6,19.2c0.1,0,0.2-0.1,0.2-0.2c0.1,0.1,0.3,0,0.3-0.1c0.1-0.1,0-0.3-0.1-0.3s-0.3-0.1-0.4,0
		s-0.2,0.2-0.2,0.3S5.4,19.2,5.6,19.2C5.5,19.2,5.5,19.2,5.6,19.2z"/>
	<path class="st0" d="M17.1,12.2c0.1,0,0.2-0.1,0.2-0.2v-0.1c0-0.1-0.1-0.2-0.2-0.2s-0.2,0.1-0.2,0.2v0.1
		C16.9,12.1,17,12.2,17.1,12.2z"/>
	<path class="st0" d="M21.6,5.4c-0.1-0.1-0.3-0.1-0.4,0c-0.1,0.1-0.1,0.3,0,0.3l0.1,0.2C21.5,6,21.5,6,21.6,6c0.1,0,0.1,0,0.2-0.1
		c0.1-0.1,0.1-0.3,0-0.3L21.6,5.4z"/>
	<path class="st0" d="M20.6,11.1c0.1,0,0.2-0.1,0.2-0.2s-0.1-0.2-0.2-0.2h-0.1c-0.1,0-0.2,0.1-0.2,0.2s0.1,0.2,0.2,0.2H20.6z"/>
	<path class="st0" d="M28.6,20.9c0.1-0.1,0-0.3-0.1-0.3s-0.3,0-0.3,0.1L28,20.9c-0.1,0.1,0,0.3,0.1,0.3c0,0,0.1,0,0.1,0
		c0.1,0,0.2,0,0.2-0.1L28.6,20.9z"/>
	<path class="st0" d="M4.7,8.1H4.5c-0.1,0-0.2,0.1-0.2,0.2s0.1,0.2,0.2,0.2h0.2c0.1,0,0.2-0.1,0.2-0.2C4.9,8.2,4.8,8.1,4.7,8.1z"/>
	<path class="st0" d="M23.7,16.2c-0.1-0.1-0.3,0-0.4,0.1L23,16.7C23,16.8,23,17,23.1,17c0,0,0.1,0,0.1,0c0.1,0,0.2,0,0.2-0.1
		l0.3-0.4C23.8,16.4,23.8,16.3,23.7,16.2z"/>
	<path class="st0" d="M43.3,3.5C43.3,3.5,43.4,3.5,43.3,3.5c0.2,0,0.3-0.2,0.2-0.3l-0.1-0.3c0-0.1-0.2-0.2-0.3-0.2
		C43,2.8,43,3,43,3.1l0.1,0.3C43.1,3.5,43.2,3.5,43.3,3.5z"/>
	<path class="st0" d="M44.8,0.6c0.1,0,0.2-0.1,0.2-0.3c0-0.1-0.1-0.2-0.2-0.2h0c-0.1,0-0.2-0.1-0.3-0.1H44
		C44.1,0.4,44.4,0.6,44.8,0.6C44.8,0.6,44.8,0.6,44.8,0.6z"/>
	<path class="st0" d="M48.7,5.3c0-0.1-0.2-0.2-0.3-0.2l-0.1,0c-0.1,0-0.2,0.2-0.2,0.3c0,0.1,0.1,0.2,0.2,0.2c0,0,0,0,0.1,0l0.1,0
		C48.7,5.6,48.7,5.5,48.7,5.3z"/>
	<path class="st0" d="M45.6,11.6l0.4-0.1c0.1,0,0.2-0.2,0.2-0.3S46,11,45.9,11l-0.4,0.1c-0.1,0-0.2,0.2-0.2,0.3
		C45.3,11.6,45.4,11.6,45.6,11.6C45.5,11.6,45.6,11.6,45.6,11.6z"/>
	<path class="st0" d="M52.9,7.3C52.9,7.3,53,7.3,52.9,7.3l0.2,0c0.1,0,0.2-0.1,0.2-0.2c0,0,0-0.1,0-0.1c0-0.1-0.2-0.2-0.3-0.2
		l-0.1,0c-0.1,0-0.2,0.1-0.2,0.2c0,0,0,0.1,0,0.1C52.7,7.2,52.8,7.3,52.9,7.3z"/>
	<path class="st0" d="M51.7,0.2c0.1,0,0.2,0,0.2-0.1l0-0.1h-0.5c0,0.1,0.1,0.1,0.1,0.2C51.6,0.2,51.7,0.2,51.7,0.2z"/>
	<path class="st0" d="M56.7,3.8l-0.1,0.2c-0.1,0.1,0,0.3,0.1,0.3c0,0,0.1,0,0.1,0c0.1,0,0.2-0.1,0.2-0.1L57.1,4
		c0.1-0.1,0-0.3-0.1-0.3C56.9,3.6,56.8,3.6,56.7,3.8z"/>
	<path class="st0" d="M48.3,3C48.3,3,48.4,3,48.3,3c0.2,0,0.3-0.2,0.2-0.3l0-0.1c0-0.1-0.2-0.2-0.3-0.2c-0.1,0-0.2,0.2-0.2,0.3
		l0,0.1C48.1,3,48.2,3,48.3,3z"/>
	<path class="st0" d="M37,6.5c-0.1,0-0.2,0.2-0.2,0.3l0,0.1c0,0.1,0.1,0.2,0.2,0.2c0,0,0,0,0.1,0c0.1,0,0.2-0.2,0.2-0.3l0-0.1
		C37.2,6.6,37.1,6.5,37,6.5z"/>
	<path class="st0" d="M41.2,9.8L41.2,9.8c-0.1-0.2-0.2-0.3-0.3-0.3s-0.2,0.2-0.2,0.3l0,0.1L41,9.9L41.2,9.8z"/>
	<path class="st0" d="M39.1,14.6c-0.1,0-0.2,0.2-0.2,0.3l0,0.1c0,0.1,0.1,0.2,0.2,0.2c0,0,0,0,0.1,0c0.1,0,0.2-0.2,0.2-0.3l0-0.1
		C39.4,14.6,39.2,14.5,39.1,14.6z"/>
	<path class="st0" d="M35.7,18.4C35.8,18.4,35.8,18.4,35.7,18.4c0.2-0.1,0.3-0.2,0.2-0.3l-0.1-0.4c0-0.1-0.2-0.2-0.3-0.2
		c-0.1,0-0.2,0.2-0.2,0.3l0.1,0.4C35.5,18.3,35.6,18.4,35.7,18.4z"/>
	<path class="st0" d="M34.1,9.8l-0.5-0.4c-0.1-0.1-0.3-0.1-0.3,0c-0.1,0.1-0.1,0.3,0,0.4l0.5,0.4c0,0,0.1,0.1,0.2,0.1
		c0.1,0,0.1,0,0.2-0.1C34.2,10.1,34.2,9.9,34.1,9.8z"/>
	<path class="st0" d="M35,3.8L35,3.8c0.1,0,0.2-0.1,0.3-0.2l0-0.5c0-0.1-0.1-0.3-0.2-0.3c-0.1,0-0.3,0.1-0.3,0.2l0,0.5
		C34.8,3.6,34.9,3.8,35,3.8z"/>
	<path class="st0" d="M37.3,10.5c-0.1,0-0.3,0-0.3,0.1l-0.2,0.6c0,0.1,0,0.3,0.2,0.3c0,0,0.1,0,0.1,0c0.1,0,0.2-0.1,0.2-0.2l0.2-0.6
		C37.5,10.7,37.5,10.6,37.3,10.5z"/>
	<path class="st0" d="M60.9,9.2C60.9,9.2,60.9,9.2,60.9,9.2l0.4-0.1c0.1,0,0.2-0.2,0.2-0.3s-0.2-0.2-0.3-0.2l-0.3,0.1
		c-0.1,0-0.2,0.2-0.2,0.3C60.7,9.1,60.8,9.2,60.9,9.2z"/>
	<path class="st0" d="M55.3,14.3C55.3,14.3,55.3,14.3,55.3,14.3c0.2,0,0.3-0.1,0.3-0.2c0-0.1,0-0.3-0.2-0.3c0,0-0.1-0.1-0.1-0.1
		c0-0.1-0.1-0.3-0.2-0.3c-0.1,0-0.3,0.1-0.3,0.2C54.8,13.9,55,14.2,55.3,14.3z"/>
	<path class="st0" d="M52.2,11.4l-0.2,0c-0.1,0-0.2,0.2-0.2,0.3c0,0.1,0.1,0.2,0.2,0.2c0,0,0,0,0.1,0l0.1,0c0.1,0,0.2-0.2,0.2-0.3
		C52.5,11.4,52.3,11.3,52.2,11.4z"/>
	<path class="st0" d="M48.2,15.9c-0.1,0.1,0,0.3,0.1,0.3c0,0,0.1,0,0.1,0c0.1,0,0.2,0,0.2-0.1l0.1-0.2c0.1-0.1,0-0.3-0.1-0.3
		s-0.3,0-0.3,0.1L48.2,15.9z"/>
	<path class="st0" d="M47.3,18c0-0.1-0.1-0.3-0.2-0.3l-0.3-0.1c-0.1,0-0.3,0.1-0.3,0.2c0,0.1,0.1,0.3,0.2,0.3l0.3,0.1c0,0,0,0,0,0
		C47.2,18.2,47.3,18.1,47.3,18z"/>
	<path class="st0" d="M43.9,16.4c0,0.1,0.1,0.2,0.2,0.2c0,0,0,0,0.1,0c0.1,0,0.2-0.2,0.2-0.3l0-0.1c0-0.1-0.2-0.2-0.3-0.2
		s-0.2,0.2-0.2,0.3L43.9,16.4L43.9,16.4z"/>
	<path class="st0" d="M39,20.1C39,20.1,39,20.1,39,20.1l0.5-0.1c0.1,0,0.2-0.2,0.2-0.3s-0.2-0.2-0.3-0.2l-0.4,0.1
		c-0.1,0-0.2,0.2-0.2,0.3C38.8,20,38.9,20.1,39,20.1z"/>
	<path class="st0" d="M38.2,24.8c0.1,0,0.2,0,0.2,0c0.1,0,0.2-0.2,0.2-0.3v0c0-0.1-0.1-0.2-0.2-0.2l-0.5-0.1c-0.1,0-0.2,0-0.3,0.2
		s0,0.2,0.1,0.3C37.9,24.8,38.1,24.8,38.2,24.8z"/>
	<path class="st0" d="M42.7,23.6C42.7,23.6,42.8,23.6,42.7,23.6c0.2,0,0.3,0,0.3-0.1v0c0-0.1,0-0.2-0.1-0.3l-0.4-0.4
		c-0.1-0.1-0.2-0.1-0.3,0c-0.1,0.1-0.1,0.2-0.1,0.3C42.3,23.3,42.5,23.5,42.7,23.6z"/>
	<path class="st0" d="M36.2,22.1c0-0.1-0.1-0.3-0.2-0.3l-0.3-0.1c-0.1,0-0.3,0.1-0.3,0.2c0,0.1,0.1,0.3,0.2,0.3l0.3,0.1c0,0,0,0,0,0
		C36.1,22.3,36.2,22.3,36.2,22.1z"/>
	<path class="st0" d="M61.3,3.6l-0.2,0c-0.1,0-0.2,0.2-0.2,0.3c0,0.1,0.1,0.2,0.2,0.2c0,0,0,0,0.1,0l0.1,0c0.1,0,0.2-0.2,0.2-0.3
		C61.6,3.6,61.5,3.5,61.3,3.6z"/>
	<path class="st0" d="M56.1,9.4l0,0.1c0,0.1,0.1,0.2,0.2,0.2c0,0,0,0,0.1,0c0.1,0,0.2-0.2,0.2-0.3l0-0.1c0-0.1-0.2-0.2-0.3-0.2
		C56.1,9.1,56,9.3,56.1,9.4z"/>
	<path class="st0" d="M59.1,13l-0.2-0.1c-0.1-0.1-0.3,0-0.3,0.1c-0.1,0.1,0,0.3,0.1,0.3l0.2,0.1c0,0,0.1,0,0.1,0
		c0.1,0,0.2-0.1,0.2-0.1C59.3,13.2,59.2,13.1,59.1,13z"/>
	<path class="st0" d="M57,17.2c-0.1,0-0.2,0.2-0.2,0.3l0.1,0.3c0,0.1,0.1,0.2,0.2,0.2c0,0,0,0,0.1,0c0.1,0,0.2-0.2,0.2-0.3l-0.1-0.3
		C57.2,17.3,57.1,17.2,57,17.2z"/>
	<path class="st0" d="M50.2,22.4l-0.1-0.3c0-0.1-0.2-0.2-0.3-0.2c-0.1,0-0.2,0.2-0.2,0.3l0.1,0.3c0,0.1,0.1,0.2,0.2,0.2
		c0,0,0,0,0.1,0C50.2,22.6,50.2,22.5,50.2,22.4z"/>
	<path class="st0" d="M52.4,17.8c-0.1-0.1-0.3,0-0.3,0.1l-0.2,0.4c-0.1,0.1,0,0.3,0.1,0.3c0,0,0.1,0,0.1,0c0.1,0,0.2,0,0.2-0.1
		l0.2-0.4C52.6,18,52.5,17.9,52.4,17.8z"/>
	<path class="st0" d="M42.8,28c0.1,0,0.1,0,0.2-0.1c0.2-0.2,0.3-0.5,0.2-0.8c0-0.1-0.2-0.2-0.3-0.2c-0.1,0-0.2,0.2-0.2,0.3
		c0,0.1,0,0.2-0.1,0.3c-0.1,0.1-0.1,0.2,0,0.4C42.7,28,42.7,28,42.8,28z"/>
	<path class="st0" d="M47.6,26.7C47.6,26.7,47.6,26.7,47.6,26.7c0.2-0.1,0.3-0.2,0.2-0.4c0-0.1,0-0.3,0.1-0.4c0.1-0.1,0.1-0.3,0-0.4
		c-0.1-0.1-0.3-0.1-0.3,0c-0.2,0.2-0.3,0.6-0.2,0.9C47.4,26.6,47.5,26.7,47.6,26.7z"/>
	<path class="st0" d="M50.6,28.5l0.1-0.3c0-0.1-0.1-0.3-0.2-0.3c-0.1,0-0.3,0.1-0.3,0.2l-0.1,0.3c0,0.1,0.1,0.3,0.2,0.3c0,0,0,0,0,0
		C50.5,28.7,50.6,28.6,50.6,28.5z"/>
	<path class="st0" d="M53.6,25C53.7,25,53.7,25,53.6,25c0.2,0,0.3-0.1,0.3-0.2l0.2-0.5c0-0.1,0-0.3-0.2-0.3c-0.1,0-0.3,0-0.3,0.2
		l-0.2,0.5C53.4,24.8,53.5,25,53.6,25z"/>
	<path class="st0" d="M57.5,20.6c-0.1,0-0.3,0.1-0.3,0.2l-0.1,0.3c0,0.1,0.1,0.3,0.2,0.3c0,0,0,0,0,0c0.1,0,0.2-0.1,0.2-0.2l0.1-0.3
		C57.8,20.8,57.7,20.6,57.5,20.6z"/>
	<path class="st0" d="M61.5,18.2c-0.1,0-0.2,0.2-0.2,0.3l0.1,0.3c0,0.1,0.1,0.2,0.2,0.2c0,0,0,0,0.1,0c0.1,0,0.2-0.2,0.2-0.3
		l-0.1-0.3C61.8,18.2,61.7,18.1,61.5,18.2z"/>
	<path class="st0" d="M64,12.8C64,12.8,64.1,12.8,64,12.8c0.2,0,0.3-0.1,0.3-0.2l0.1-0.3c0-0.1-0.1-0.3-0.2-0.3
		c-0.1,0-0.3,0.1-0.3,0.2l-0.1,0.3C63.8,12.6,63.9,12.8,64,12.8z"/>
	<path class="st0" d="M68.8,8.8C68.8,8.9,68.9,9,69,9h0c0.1,0,0.2-0.1,0.2-0.3l0-0.6c0-0.1-0.1-0.3-0.3-0.2c-0.1,0-0.2,0.1-0.2,0.3
		L68.8,8.8z"/>
	<path class="st0" d="M66.4,5.2l0-0.1c0-0.1-0.2-0.2-0.3-0.2S65.9,5,65.9,5.2l0,0.1c0,0.1,0.1,0.2,0.2,0.2c0,0,0.1,0,0.1,0
		C66.4,5.4,66.5,5.3,66.4,5.2z"/>
	<path class="st0" d="M69.1,2.1C69.1,2.1,69.2,2.1,69.1,2.1c0.2,0,0.3-0.2,0.2-0.3l-0.1-0.3c0-0.1-0.2-0.2-0.3-0.2
		c-0.1,0-0.2,0.2-0.2,0.3L68.9,2C68.9,2.1,69,2.1,69.1,2.1z"/>
	<path class="st0" d="M45.4,20.9c0-0.1-0.2-0.2-0.3-0.2l-0.1,0c-0.1,0-0.2,0.2-0.2,0.3c0,0.1,0.1,0.2,0.2,0.2c0,0,0,0,0.1,0l0.1,0
		C45.4,21.2,45.5,21.1,45.4,20.9z"/>
	<path class="st0" d="M49.2,8.8c0.1-0.1,0-0.3-0.1-0.3s-0.3,0-0.3,0.1l-0.1,0.2c-0.1,0.1,0,0.3,0.1,0.3c0,0,0.1,0,0.1,0
		c0.1,0,0.2-0.1,0.2-0.1L49.2,8.8z"/>
	<path class="st0" d="M43.9,7.7C43.9,7.7,44,7.7,43.9,7.7c0.2-0.1,0.3-0.2,0.2-0.3l0-0.1c0-0.1-0.2-0.2-0.3-0.2
		c-0.1,0-0.2,0.2-0.2,0.3l0,0.1C43.7,7.7,43.8,7.7,43.9,7.7z"/>
	<path class="st0" d="M41,6.7C41.1,6.7,41.1,6.7,41,6.7c0.2-0.1,0.3-0.2,0.2-0.3l0-0.1c0-0.1-0.2-0.2-0.3-0.2s-0.2,0.2-0.2,0.3
		l0,0.1C40.8,6.6,40.9,6.7,41,6.7z"/>
	<path class="st0" d="M42.6,13.6C42.6,13.6,42.6,13.6,42.6,13.6c0.2,0,0.2-0.1,0.2-0.2c0.1,0,0.3-0.1,0.3-0.2c0-0.1-0.1-0.3-0.2-0.3
		c-0.1,0-0.3,0-0.4,0.1c-0.1,0.1-0.2,0.2-0.2,0.4C42.4,13.5,42.5,13.6,42.6,13.6z"/>
	<path class="st0" d="M51.5,3.4c0,0.1,0.1,0.2,0.2,0.2c0,0,0,0,0.1,0c0.1,0,0.2-0.2,0.2-0.3l0-0.1c0-0.1-0.2-0.2-0.3-0.2
		c-0.1,0-0.2,0.2-0.2,0.3L51.5,3.4L51.5,3.4z"/>
	<path class="st0" d="M54.7,1.6l0.1,0C55,1.6,55,1.4,55,1.3s-0.2-0.2-0.3-0.2l-0.1,0c-0.1,0-0.2,0.2-0.2,0.3
		C54.4,1.6,54.5,1.7,54.7,1.6C54.7,1.7,54.7,1.7,54.7,1.6z"/>
	<path class="st0" d="M12.7,69.6C12.7,69.6,12.8,69.6,12.7,69.6c0.2-0.1,0.3-0.2,0.2-0.3l0-0.1c0-0.1-0.2-0.2-0.3-0.2
		s-0.2,0.2-0.2,0.3l0,0.1C12.5,69.5,12.6,69.6,12.7,69.6z"/>
	<path class="st0" d="M12.4,75.4c0.1,0,0.2-0.1,0.2-0.1l0.1-0.2c0.1-0.1,0-0.3-0.1-0.3c-0.1-0.1-0.3,0-0.3,0.1l-0.1,0.2
		c-0.1,0.1,0,0.3,0.1,0.3C12.3,75.4,12.4,75.4,12.4,75.4z"/>
	<path class="st0" d="M18.2,74.1C18.2,74.1,18.3,74.1,18.2,74.1l0.5-0.1c0.1,0,0.2-0.2,0.2-0.3c0-0.1-0.2-0.2-0.3-0.2l-0.4,0.1
		c-0.1,0-0.2,0.2-0.2,0.3C18,74,18.1,74.1,18.2,74.1z"/>
	<path class="st0" d="M17.5,79.6c0.1,0,0.2-0.1,0.2-0.1l0.1-0.2c0.1-0.1,0-0.3-0.1-0.3s-0.3,0-0.3,0.1l-0.1,0.2
		c-0.1,0.1,0,0.3,0.1,0.3C17.4,79.6,17.5,79.6,17.5,79.6z"/>
	<path class="st0" d="M18,68.8l0.3-0.1c0.1,0,0.2-0.2,0.2-0.3c0-0.1-0.2-0.2-0.3-0.2l-0.3,0.1c-0.1,0-0.2,0.2-0.2,0.3
		C17.8,68.8,17.9,68.8,18,68.8C18,68.8,18,68.8,18,68.8z"/>
	<path class="st0" d="M23,70.4c0.1-0.1,0-0.3-0.1-0.3L22.8,70c-0.1-0.1-0.3,0-0.3,0.1c-0.1,0.1,0,0.3,0.1,0.3l0.2,0.1
		c0,0,0.1,0,0.1,0C22.9,70.6,23,70.5,23,70.4z"/>
	<path class="st0" d="M21.5,74.7C21.5,74.7,21.6,74.7,21.5,74.7l0.2-0.1c0.1,0,0.2-0.2,0.2-0.3c0-0.1-0.2-0.2-0.3-0.2l-0.1,0
		c-0.1,0-0.2,0.2-0.2,0.3C21.3,74.6,21.4,74.7,21.5,74.7z"/>
	<path class="st0" d="M24.7,69.4C24.7,69.4,24.7,69.4,24.7,69.4c0.2-0.1,0.3-0.2,0.2-0.3l0-0.1c0-0.1-0.2-0.2-0.3-0.2
		s-0.2,0.2-0.2,0.3l0,0.1C24.5,69.3,24.6,69.4,24.7,69.4z"/>
	<path class="st0" d="M6.2,70.2C6.2,70.2,6.3,70.2,6.2,70.2c0.2-0.1,0.3-0.2,0.2-0.3l0-0.2c0-0.1-0.2-0.2-0.3-0.2s-0.2,0.2-0.2,0.3
		L6,70C6,70.2,6.1,70.2,6.2,70.2z"/>
	<path class="st0" d="M25.4,74.6c0.1,0,0.2-0.1,0.2-0.1l0.1-0.2c0.1-0.1,0-0.3-0.1-0.3s-0.3,0-0.3,0.1l-0.1,0.2
		c-0.1,0.1,0,0.3,0.1,0.3C25.3,74.6,25.4,74.6,25.4,74.6z"/>
	<path class="st0" d="M21.7,79.2c0,0.1,0.1,0.2,0.2,0.2c0,0,0,0,0.1,0l0.1,0c0.1,0,0.2-0.2,0.2-0.3c0-0.1-0.2-0.2-0.3-0.2l-0.1,0
		C21.8,78.9,21.7,79.1,21.7,79.2z"/>
	<path class="st0" d="M31.5,78.8C31.5,78.8,31.5,78.8,31.5,78.8c0.2-0.1,0.3-0.2,0.2-0.3l-0.1-0.3c0-0.1-0.2-0.2-0.3-0.2
		s-0.2,0.2-0.2,0.3l0.1,0.3C31.2,78.7,31.4,78.8,31.5,78.8z"/>
	<path class="st0" d="M12.4,78.9C12.5,78.9,12.5,78.9,12.4,78.9c0.2-0.1,0.3-0.2,0.2-0.3l0-0.1c0-0.1-0.2-0.2-0.3-0.2
		c-0.1,0-0.2,0.2-0.2,0.3l0,0.1C12.2,78.8,12.3,78.9,12.4,78.9z"/>
	<path class="st0" d="M14.9,71.7c0,0,0.1,0,0.1,0c0.1,0,0.2-0.1,0.2-0.1c0.1-0.1,0-0.3-0.1-0.3L15,71.1c-0.1-0.1-0.3,0-0.3,0.1
		c-0.1,0.1,0,0.3,0.1,0.3L14.9,71.7z"/>
	<path class="st0" d="M15.3,76.9C15.3,76.9,15.4,76.9,15.3,76.9l0.2-0.1c0.1,0,0.2-0.2,0.2-0.3s-0.2-0.2-0.3-0.2l-0.1,0
		c-0.1,0-0.2,0.2-0.2,0.3C15.1,76.9,15.2,76.9,15.3,76.9z"/>
	<path class="st0" d="M64.8,8.6L64.7,9c0,0.1,0.1,0.3,0.2,0.3c0,0,0,0,0,0c0.1,0,0.2-0.1,0.2-0.2l0.1-0.3c0-0.1-0.1-0.3-0.2-0.3
		S64.8,8.5,64.8,8.6z"/>
	<path class="st0" d="M39,3.3c0-0.1-0.2-0.2-0.3-0.2l-0.1,0c-0.1,0-0.2,0.2-0.2,0.3c0,0.1,0.1,0.2,0.2,0.2c0,0,0,0,0.1,0l0.1,0
		C39,3.6,39.1,3.4,39,3.3z"/>
	<path class="st0" d="M2,91.3C2,91.3,2,91.3,2,91.3c0.2-0.1,0.3-0.2,0.2-0.3l-0.1-0.3c0-0.1-0.2-0.2-0.3-0.2s-0.2,0.2-0.2,0.3
		l0.1,0.3C1.8,91.3,1.9,91.3,2,91.3z"/>
	<path class="st0" d="M3.5,88.4C3.5,88.4,3.5,88.4,3.5,88.4c0.2,0,0.3-0.1,0.3-0.3c0-0.1-0.1-0.3-0.3-0.2c-0.2,0-0.3-0.1-0.3-0.3
		c0-0.1-0.2-0.2-0.3-0.2c-0.1,0-0.2,0.2-0.2,0.3C2.7,88.1,3.1,88.4,3.5,88.4z"/>
	<path class="st0" d="M6.4,85.2C6.4,85.2,6.4,85.2,6.4,85.2c0.2,0,0.3-0.1,0.3-0.2l0.1-0.7c0-0.1-0.1-0.3-0.2-0.3c0,0,0,0,0,0
		c-0.1,0-0.3,0.1-0.3,0.2l-0.1,0.7C6.2,85.1,6.3,85.2,6.4,85.2z"/>
	<path class="st0" d="M10.9,81.8l0-0.1c0-0.1-0.2-0.2-0.3-0.2s-0.2,0.2-0.2,0.3l0,0.1c0,0.1,0.1,0.2,0.2,0.2c0,0,0.1,0,0.1,0
		C10.9,82.1,11,81.9,10.9,81.8z"/>
	<path class="st0" d="M10.6,87.3c-0.1-0.1-0.3,0-0.3,0.1l-0.1,0.2l0.2,0.1l0.2,0.1l0.1-0.2C10.8,87.5,10.7,87.4,10.6,87.3z"/>
	<path class="st0" d="M16.2,86.6C16.2,86.6,16.2,86.6,16.2,86.6l0.5-0.1c0.1,0,0.2-0.2,0.2-0.3c0-0.1-0.2-0.2-0.3-0.2l-0.4,0.1
		c-0.1,0-0.2,0.2-0.2,0.3C16,86.5,16.1,86.6,16.2,86.6z"/>
	<path class="st0" d="M15.5,92.1c0.1,0,0.2-0.1,0.2-0.1l0.1-0.2c0.1-0.1,0-0.3-0.1-0.3c-0.1-0.1-0.3,0-0.3,0.1l-0.1,0.2
		c-0.1,0.1,0,0.3,0.1,0.3C15.4,92.1,15.4,92.1,15.5,92.1z"/>
	<path class="st0" d="M7,90.8C7,90.8,7,90.8,7,90.8c0.2-0.1,0.3-0.2,0.2-0.3l0-0.1c0-0.1-0.2-0.2-0.3-0.2s-0.2,0.2-0.2,0.3l0,0.1
		C6.8,90.7,6.9,90.8,7,90.8z"/>
	<path class="st0" d="M2.5,81.8c-0.1-0.1-0.2-0.2-0.3-0.1l-0.5,0.3c-0.1,0.1-0.2,0.2-0.1,0.3c0,0.1,0.1,0.1,0.2,0.1c0,0,0.1,0,0.1,0
		l0.5-0.3C2.5,82.1,2.6,81.9,2.5,81.8z"/>
	<path class="st0" d="M9.2,94.9L9.2,94.9c0.1,0,0.2-0.1,0.3-0.2l0-0.5c0-0.1-0.1-0.3-0.2-0.3C9.2,93.9,9,94,9,94.2l0,0.5
		C9,94.8,9.1,94.9,9.2,94.9z"/>
	<path class="st0" d="M2.5,76.7c-0.1-0.1-0.3,0-0.3,0.1l-0.3,0.6c-0.1,0.1,0,0.3,0.1,0.3c0,0,0.1,0,0.1,0c0.1,0,0.2-0.1,0.2-0.1
		L2.6,77C2.7,76.9,2.6,76.8,2.5,76.7z"/>
	<path class="st0" d="M8.4,75.6c0.1,0,0.2,0,0.2-0.1c0.1-0.1,0.1-0.2,0-0.3c0-0.1-0.1-0.2-0.2-0.2c-0.1,0-0.3,0-0.3,0.2
		c-0.1,0.1,0,0.3,0.1,0.4C8.3,75.5,8.4,75.6,8.4,75.6z"/>
	<path class="st0" d="M16.1,82.6C16.1,82.6,16.1,82.6,16.1,82.6l0.4-0.1c0.1,0,0.2-0.2,0.2-0.3c0-0.1-0.2-0.2-0.3-0.2L16,82.1
		c-0.1,0-0.2,0.2-0.2,0.3C15.9,82.5,15.9,82.6,16.1,82.6z"/>
	<path class="st0" d="M20.7,83c0,0,0.1,0,0.1,0c0.1,0,0.2-0.1,0.2-0.1c0.1-0.1,0-0.3-0.1-0.3l-0.2-0.1c-0.1-0.1-0.3,0-0.3,0.1
		c-0.1,0.1,0,0.3,0.1,0.3L20.7,83z"/>
	<path class="st0" d="M19.5,87.2C19.5,87.2,19.5,87.2,19.5,87.2l0.2-0.1c0.1,0,0.2-0.2,0.2-0.3c0-0.1-0.2-0.2-0.3-0.2l-0.1,0
		c-0.1,0-0.2,0.2-0.2,0.3C19.3,87.1,19.4,87.2,19.5,87.2z"/>
	<path class="st0" d="M22.7,81.9c0.1,0,0.2-0.2,0.2-0.3l0-0.1c0-0.1-0.2-0.2-0.3-0.2s-0.2,0.2-0.2,0.3l0,0.1
		C22.4,81.8,22.5,81.9,22.7,81.9C22.6,81.9,22.7,81.9,22.7,81.9z"/>
	<path class="st0" d="M23.7,86.8c0.1-0.1,0-0.3-0.1-0.3s-0.3,0-0.3,0.1l-0.1,0.2l0.5,0.2L23.7,86.8z"/>
	<path class="st0" d="M20,91.9l0.1,0c0.1,0,0.2-0.2,0.2-0.3c0-0.1-0.2-0.2-0.3-0.2l-0.1,0c-0.1,0-0.2,0.2-0.2,0.3
		C19.7,91.8,19.8,91.9,20,91.9C20,91.9,20,91.9,20,91.9z"/>
	<path class="st0" d="M27.8,89.9C27.8,89.9,27.8,89.9,27.8,89.9c0.2-0.1,0.3-0.2,0.2-0.3l-0.1-0.3c0-0.1-0.2-0.2-0.3-0.2
		s-0.2,0.2-0.2,0.3l0.1,0.3C27.6,89.8,27.7,89.9,27.8,89.9z"/>
	<path class="st0" d="M10.3,90.7c-0.1,0-0.2,0.2-0.2,0.3l0,0.1c0,0.1,0.1,0.2,0.2,0.2c0,0,0.1,0,0.1,0c0.1,0,0.2-0.2,0.2-0.3l0-0.1
		C10.6,90.8,10.4,90.7,10.3,90.7z"/>
	<path class="st0" d="M12.7,84.1l0.2,0.1c0,0,0.1,0,0.1,0c0.1,0,0.2-0.1,0.2-0.1c0.1-0.1,0-0.3-0.1-0.3L13,83.7
		c-0.1-0.1-0.3,0-0.3,0.1C12.6,83.9,12.6,84,12.7,84.1z"/>
	<path class="st0" d="M13.7,89.1c0-0.1-0.2-0.2-0.3-0.2l-0.1,0c-0.1,0-0.2,0.2-0.2,0.3c0,0.1,0.1,0.2,0.2,0.2c0,0,0.1,0,0.1,0l0.1,0
		C13.6,89.4,13.7,89.2,13.7,89.1z"/>
	<path class="st0" d="M6.3,78.7c-0.1,0.3,0.1,0.6,0.4,0.7c0,0,0,0,0.1,0c0.1,0,0.2-0.1,0.2-0.2C7,79,7,78.9,6.8,78.9
		c0,0-0.1-0.1-0.1-0.1c0-0.1-0.1-0.3-0.2-0.3C6.4,78.4,6.3,78.5,6.3,78.7z"/>
	<path class="st0" d="M59.2,5.6c-0.1,0-0.3,0-0.3,0.2l-0.2,0.5c0,0.1,0,0.3,0.2,0.3c0,0,0,0,0.1,0c0.1,0,0.2-0.1,0.2-0.2l0.2-0.5
		C59.5,5.8,59.4,5.7,59.2,5.6z"/>
	<polygon class="st0" points="75.8,4.7 75.8,4.7 76,4.6 	"/>
	<path class="st0" d="M75.7,5.1c0,0.1,0.1,0.1,0.2,0.1c0,0,0.1,0,0.1,0c0.1-0.1,0.2-0.2,0.1-0.3L76,4.6l-0.2,0.1l-0.3,0.2L75.7,5.1z
		"/>
	<path class="st0" d="M76.8,2.1C77,2,77.1,1.9,77,1.8c0-0.1-0.2-0.2-0.3-0.2c-0.2,0-0.3,0-0.4-0.2c-0.1-0.1-0.2-0.2-0.3-0.1
		c-0.1,0.1-0.2,0.2-0.1,0.3c0.1,0.3,0.4,0.5,0.8,0.5C76.7,2.1,76.8,2.1,76.8,2.1z"/>
	<path class="st0" d="M81.6,6.9c-0.1-0.1-0.2-0.2-0.3-0.1l-0.1,0.1C81,7,80.9,7.1,81,7.2c0,0.1,0.1,0.1,0.2,0.1c0,0,0.1,0,0.1,0
		l0.1-0.1C81.6,7.2,81.7,7,81.6,6.9z"/>
	<path class="st0" d="M83.7,0.1l0-0.1h-0.5c0,0.1,0,0.2,0.2,0.3c0,0,0.1,0,0.1,0C83.6,0.3,83.7,0.2,83.7,0.1z"/>
	<path class="st0" d="M89.3,3.3c0.1,0,0.2-0.1,0.2-0.2l0.1-0.2c0-0.1,0-0.3-0.2-0.3c-0.1,0-0.3,0-0.3,0.2L89,3
		C89,3.1,89.1,3.2,89.3,3.3C89.2,3.3,89.2,3.3,89.3,3.3z"/>
	<path class="st0" d="M79.8,3.7C80,3.7,80,3.5,79.9,3.4l-0.1-0.1c-0.1-0.1-0.2-0.2-0.3-0.1c-0.1,0.1-0.2,0.2-0.1,0.3l0.1,0.1
		c0,0.1,0.1,0.1,0.2,0.1C79.8,3.8,79.8,3.7,79.8,3.7z"/>
	<path class="st0" d="M72.2,1.6C72.2,1.6,72.3,1.6,72.2,1.6c0.2,0,0.3-0.1,0.3-0.2l0.1-0.2c0-0.1,0-0.3-0.2-0.3
		c-0.1,0-0.3,0-0.3,0.2l-0.1,0.2C72,1.4,72.1,1.5,72.2,1.6z"/>
	<path class="st0" d="M93.6,2.2c0,0,0.1,0,0.1,0l0.1-0.1C94,2.1,94,1.9,94,1.8s-0.2-0.2-0.3-0.1l-0.1,0.1c-0.1,0.1-0.2,0.2-0.1,0.3
		C93.4,2.2,93.5,2.2,93.6,2.2z"/>
	<path class="st0" d="M74.1,8.6c0,0.1,0.1,0.1,0.2,0.1c0,0,0.1,0,0.1,0c0.1-0.1,0.2-0.2,0.1-0.3l-0.1-0.1c-0.1-0.1-0.2-0.2-0.3-0.1
		C74,8.2,74,8.4,74,8.5L74.1,8.6z"/>
	<path class="st0" d="M84.3,3.6c0.1-0.1,0.2-0.2,0.1-0.3l-0.1-0.1C84.3,3,84.1,3,84,3c-0.1,0.1-0.2,0.2-0.1,0.3L84,3.5
		c0,0.1,0.1,0.1,0.2,0.1C84.2,3.6,84.3,3.6,84.3,3.6z"/>
	<path class="st0" d="M86.6,0.6l-0.1,0.1c-0.1,0.1-0.2,0.2-0.1,0.3c0,0.1,0.1,0.1,0.2,0.1c0,0,0.1,0,0.1,0l0.1-0.1
		C87,1,87,0.8,87,0.7C86.9,0.6,86.8,0.6,86.6,0.6z"/>
	<path class="st0" d="M71.5,6l-0.1-0.2l-0.1,0.1c-0.1,0.1-0.2,0.2-0.1,0.3c0,0.1,0.1,0.1,0.2,0.1c0,0,0.1,0,0.1,0l0.1-0.1L71.5,6z"
		/>
	<path class="st0" d="M91.9,5.1C91.9,5.1,91.9,5.1,91.9,5.1c0.2,0,0.3-0.1,0.3-0.2l0.1-0.5c0-0.1-0.1-0.3-0.2-0.3
		c-0.1,0-0.3,0.1-0.3,0.2l-0.1,0.5C91.6,5,91.7,5.1,91.9,5.1z"/>
	<path class="st0" d="M79,97.2C79,97.2,79,97.2,79,97.2c-0.2,0-0.3,0.1-0.2,0.3l0.1,0.7c0,0.1,0.1,0.2,0.2,0.2h0
		c0.1,0,0.2-0.1,0.2-0.3l0-0.7C79.3,97.3,79.2,97.2,79,97.2z"/>
	<path class="st0" d="M82.4,94.3c0.1,0.1,0.1,0.1,0.2,0.1c0,0,0.1,0,0.1,0c0.1-0.1,0.2-0.2,0.1-0.3L82.8,94
		c-0.1-0.1-0.2-0.2-0.3-0.1c-0.1,0.1-0.2,0.2-0.1,0.3L82.4,94.3z"/>
	<path class="st0" d="M83.7,100L83.7,100c0.1-0.2,0-0.4-0.1-0.4c-0.1,0-0.3,0-0.3,0.2l-0.1,0.2c0,0,0,0,0,0L83.7,100L83.7,100z"/>
	<path class="st0" d="M88.9,97.8c0,0,0.1,0,0.1,0l0.4-0.2c0.1-0.1,0.2-0.2,0.1-0.3c-0.1-0.1-0.2-0.2-0.3-0.1l-0.4,0.2
		c-0.1,0.1-0.2,0.2-0.1,0.3C88.7,97.7,88.8,97.8,88.9,97.8z"/>
	<path class="st0" d="M73.9,96.7c0.1,0,0.1,0,0.2-0.1l0.4-0.4c0.1-0.1,0.1-0.2,0-0.3c-0.1-0.1-0.2-0.1-0.3,0l-0.4,0.4
		c-0.1,0.1-0.1,0.2,0,0.3C73.8,96.6,73.9,96.7,73.9,96.7z"/>
	<path class="st0" d="M69.4,96.5C69.4,96.5,69.4,96.5,69.4,96.5c0.2,0,0.3-0.1,0.3-0.2l0.1-0.4c0-0.1,0-0.3-0.2-0.3
		c-0.1,0-0.3,0-0.3,0.2l-0.1,0.4C69.2,96.3,69.2,96.4,69.4,96.5z"/>
	<path class="st0" d="M73.2,91.9C73.2,91.9,73.3,91.9,73.2,91.9c0.2,0,0.3-0.1,0.3-0.2l0.2-0.6c0-0.1,0-0.3-0.2-0.3s-0.3,0-0.3,0.2
		L73,91.6C73,91.7,73.1,91.8,73.2,91.9z"/>
	<path class="st0" d="M79.3,88.1c0-0.1-0.1-0.2-0.2-0.2c-0.1,0-0.3,0.1-0.3,0.2c0,0.2,0.1,0.3,0.2,0.4c0,0,0.1,0,0.1,0
		c0.1,0,0.2-0.1,0.3-0.1C79.4,88.3,79.4,88.2,79.3,88.1z"/>
	<path class="st0" d="M87.7,92.1l-0.3,0.1c-0.1,0.1-0.2,0.2-0.1,0.3c0,0.1,0.1,0.1,0.2,0.1c0,0,0.1,0,0.1,0l0.3-0.1
		c0.1-0.1,0.2-0.2,0.1-0.3C88,92.1,87.9,92,87.7,92.1z"/>
	<path class="st0" d="M92.7,93.4c0.1,0,0.2-0.1,0.2-0.2c0-0.1,0-0.3-0.2-0.3l-0.2-0.1c-0.1,0-0.3,0-0.3,0.2c0,0.1,0,0.3,0.2,0.3
		L92.7,93.4C92.6,93.4,92.7,93.4,92.7,93.4z"/>
	<path class="st0" d="M92.2,97.7c0,0,0.1,0,0.1,0l0.1-0.1c0.1-0.1,0.2-0.2,0.1-0.3c-0.1-0.1-0.2-0.2-0.3-0.1l-0.1,0.1
		C92,97.3,92,97.4,92,97.6C92.1,97.6,92.2,97.7,92.2,97.7z"/>
	<path class="st0" d="M71.2,88.8c0,0,0.1,0,0.1,0l0.1,0c0.1,0,0.1-0.1,0.1-0.2c0,0,0-0.1,0-0.1c-0.1-0.1-0.2-0.2-0.3-0.1l-0.1,0
		c-0.1,0-0.1,0.1-0.1,0.2c0,0,0,0.1,0,0.1C71,88.7,71.1,88.8,71.2,88.8z"/>
	<path class="st0" d="M78.9,85.6c0.1-0.1,0.2-0.2,0.1-0.3c-0.1-0.1-0.2-0.2-0.3-0.1l-0.4,0.2c-0.1,0.1-0.2,0.2-0.1,0.3
		c0,0.1,0.1,0.1,0.2,0.1c0,0,0.1,0,0.1,0L78.9,85.6z"/>
	<path class="st0" d="M83.9,86.3c-0.1,0.1-0.2,0.2-0.1,0.3l0.1,0.1c0,0.1,0.1,0.1,0.2,0.1c0,0,0.1,0,0.1,0c0.1-0.1,0.2-0.2,0.1-0.3
		l-0.1-0.1C84.2,86.3,84,86.2,83.9,86.3z"/>
	<path class="st0" d="M96,96.9C96,96.9,96,96.9,96,96.9c0.2,0,0.3-0.1,0.3-0.2l0.1-0.2c0-0.1,0-0.3-0.2-0.3c-0.1,0-0.3,0-0.3,0.2
		l-0.1,0.2C95.8,96.7,95.8,96.8,96,96.9z"/>
	<path class="st0" d="M61.4,90.1c-0.2-0.4-0.6-0.6-0.9-0.5c-0.1,0-0.2,0.2-0.2,0.3c0,0.1,0.2,0.2,0.3,0.2c0.2,0,0.3,0.1,0.4,0.2
		c0,0.1,0.1,0.2,0.2,0.2c0,0,0.1,0,0.1,0C61.4,90.4,61.4,90.2,61.4,90.1z"/>
	<path class="st0" d="M57.8,83.7c0,0,0.1,0,0.1,0l0.1-0.1c0.1-0.1,0.2-0.2,0.1-0.3c-0.1-0.1-0.2-0.2-0.3-0.1l-0.1,0.1
		c-0.1,0.1-0.2,0.2-0.1,0.3C57.6,83.6,57.7,83.7,57.8,83.7z"/>
	<path class="st0" d="M61.6,83.1c0,0,0.1,0,0.1,0l0.1-0.1C62,83,62,82.8,62,82.7s-0.2-0.2-0.3-0.1l-0.1,0.1
		c-0.1,0.1-0.2,0.2-0.1,0.3C61.4,83,61.5,83.1,61.6,83.1z"/>
	<path class="st0" d="M55.2,89.8C55.3,89.8,55.3,89.8,55.2,89.8c0.2,0,0.3,0,0.3-0.1l0.1-0.2c0-0.1,0-0.3-0.2-0.3
		c-0.1,0-0.3,0-0.3,0.2l-0.1,0.2C55,89.6,55.1,89.7,55.2,89.8z"/>
	<path class="st0" d="M58.4,86.4c0,0,0.1,0,0.1,0c0.1-0.1,0.2-0.2,0.1-0.3l-0.1-0.1c-0.1-0.1-0.2-0.2-0.3-0.1
		c-0.1,0.1-0.2,0.2-0.1,0.3l0.1,0.1C58.2,86.3,58.3,86.4,58.4,86.4z"/>
	<path class="st0" d="M54.7,86.2c0,0.1,0.1,0.1,0.2,0.1c0,0,0.1,0,0.1,0c0.1-0.1,0.2-0.2,0.1-0.3l-0.1-0.1c-0.1-0.1-0.2-0.2-0.3-0.1
		c-0.1,0.1-0.2,0.2-0.1,0.3L54.7,86.2z"/>
	<path class="st0" d="M85,96l0.2,0.1c0,0,0.1,0,0.1,0c0.1,0,0.2-0.1,0.2-0.2c0-0.1,0-0.3-0.2-0.3l-0.2-0.1c-0.1,0-0.3,0-0.3,0.2
		C84.8,95.8,84.9,96,85,96z"/>
	<path class="st0" d="M78.2,92.6L78.2,92.6c0.1,0,0.2-0.1,0.3-0.2s-0.1-0.2-0.2-0.3c0,0-0.1-0.1-0.1-0.1c0-0.1-0.1-0.2-0.2-0.2l0,0
		c-0.1,0-0.2,0.1-0.2,0.2C77.6,92.3,77.9,92.6,78.2,92.6z"/>
	<path class="st0" d="M56.4,64.1C56.4,64.1,56.4,64.1,56.4,64.1c0.1,0,0.3-0.1,0.3-0.2l0.1-0.5c0-0.1-0.1-0.3-0.2-0.3
		c-0.1,0-0.3,0.1-0.3,0.2l-0.1,0.5C56.1,64,56.2,64.1,56.4,64.1z"/>
	<path class="st0" d="M4,100L4,100C4,100,4,100,4,100l0.2,0c0,0,0.1-0.1,0.1-0.1l0.2-0.3c0.1-0.1,0-0.3-0.1-0.3
		c-0.1-0.1-0.3,0-0.3,0.1l-0.2,0.3C3.8,99.8,3.8,99.9,4,100C4,100,4,100,4,100z"/>
	<path class="st0" d="M7.4,99c0.1,0,0.1,0,0.2-0.1l0.3-0.3c0.1-0.1,0.1-0.3,0-0.3c-0.1-0.1-0.3-0.1-0.3,0l-0.3,0.3
		c-0.1,0.1-0.1,0.3,0,0.3C7.3,99,7.3,99,7.4,99z"/>
	<path class="st0" d="M12.9,96.7c0.1,0,0.1,0,0.2-0.1l0.4-0.4c0.1-0.1,0.1-0.3,0-0.3c-0.1-0.1-0.3-0.1-0.4,0l-0.4,0.4
		c-0.1,0.1-0.1,0.3,0,0.3C12.8,96.7,12.9,96.7,12.9,96.7z"/>
	<path class="st0" d="M19.6,96.4c0,0,0.1,0,0.1,0c0.1-0.1,0.1-0.2,0.1-0.3c0-0.1,0-0.2-0.1-0.3c-0.1-0.1-0.3,0-0.4,0.1
		c-0.1,0.1-0.1,0.3,0,0.4C19.5,96.4,19.6,96.4,19.6,96.4z"/>
	<path class="st0" d="M23.5,100L23.5,100c0.1,0,0.1,0,0.2,0c0.1-0.1,0.1-0.2,0.1-0.3c0-0.1,0-0.2-0.1-0.3c-0.1-0.1-0.3,0-0.4,0.1
		c-0.1,0.1-0.1,0.3,0,0.4C23.4,100,23.4,100,23.5,100z"/>
	<path class="st0" d="M1.2,96.6c0.1,0,0.2,0,0.2-0.1L1.7,96c0.1-0.1,0-0.3-0.1-0.3s-0.3-0.1-0.4,0.1L1,96.2
		c-0.1,0.1-0.1,0.3,0.1,0.3C1.1,96.6,1.1,96.6,1.2,96.6z"/>
	<path class="st0" d="M5.4,94.9c0.1,0.1,0.1,0.1,0.2,0.1c0.1,0,0.1,0,0.2-0.1c0.1-0.1,0.1-0.3,0-0.3l-0.2-0.2
		c-0.1-0.1-0.3-0.1-0.3,0c-0.1,0.1-0.1,0.3,0,0.3L5.4,94.9z"/>
	<path class="st0" d="M12.5,93L12.5,93c0.2,0,0.3-0.1,0.3-0.2s-0.1-0.2-0.2-0.2h-0.1c-0.1,0-0.2,0.1-0.2,0.2S12.4,93,12.5,93z"/>
	<path class="st0" d="M21.8,94.3h0.5c0.1,0,0.2-0.1,0.2-0.2s-0.1-0.2-0.2-0.2h-0.5c-0.1,0-0.2,0.1-0.2,0.2S21.7,94.3,21.8,94.3z"/>
	<path class="st0" d="M16.8,99.6c0,0,0.1,0,0.1,0c0.1,0,0.2,0,0.2-0.1c0.1-0.1,0-0.3-0.1-0.3c0,0,0-0.1,0-0.1c0.1-0.1,0-0.3-0.1-0.3
		c-0.1-0.1-0.3,0-0.3,0.1C16.5,99,16.6,99.4,16.8,99.6z"/>
	<path class="st0" d="M44.1,99.7c-0.1,0-0.2,0.2-0.2,0.3c0,0,0,0,0,0h0.6c0,0-0.1-0.1-0.1-0.1C44.4,99.7,44.3,99.6,44.1,99.7z"/>
	<path class="st0" d="M47.9,96.3c-0.1,0-0.3,0.1-0.3,0.2l-0.1,0.7c0,0.1,0.1,0.3,0.2,0.3c0,0,0,0,0,0c0.1,0,0.2-0.1,0.2-0.2l0.1-0.7
		C48.2,96.4,48.1,96.3,47.9,96.3C47.9,96.3,47.9,96.3,47.9,96.3z"/>
	<path class="st0" d="M52.3,94l0-0.1c0-0.1-0.2-0.2-0.3-0.2s-0.2,0.2-0.2,0.3l0,0.2c0,0.1,0.1,0.2,0.2,0.2c0,0,0,0,0.1,0
		C52.2,94.3,52.3,94.1,52.3,94z"/>
	<path class="st0" d="M52,99.9c0.1-0.1,0-0.3-0.1-0.3s-0.3,0-0.3,0.1l-0.1,0.2c0,0.1,0,0.1,0,0.2h0.5L52,99.9z"/>
	<path class="st0" d="M57.5,98.8C57.5,98.8,57.6,98.8,57.5,98.8l0.5-0.1c0.1,0,0.2-0.2,0.2-0.3s-0.2-0.2-0.3-0.2l-0.4,0.1
		c-0.1,0-0.2,0.2-0.2,0.3C57.3,98.7,57.4,98.8,57.5,98.8z"/>
	<path class="st0" d="M40.5,99.2c0.1,0,0.2-0.1,0.2-0.1l0.1-0.2c0.1-0.1,0-0.3-0.1-0.3s-0.3,0-0.3,0.1l-0.1,0.2
		c-0.1,0.1,0,0.3,0.1,0.3C40.4,99.2,40.5,99.2,40.5,99.2z"/>
	<path class="st0" d="M43.1,94.7c0,0,0.1,0,0.1,0l0.5-0.3c0.1-0.1,0.2-0.2,0.1-0.3c-0.1-0.1-0.2-0.2-0.3-0.1L43,94.3
		c-0.1,0.1-0.2,0.2-0.1,0.3C42.9,94.7,43,94.7,43.1,94.7z"/>
	<path class="st0" d="M37.2,99.7C37.2,99.7,37.3,99.7,37.2,99.7c0.2-0.1,0.3-0.2,0.2-0.3l0-0.2c0-0.1-0.2-0.2-0.3-0.2
		s-0.2,0.2-0.2,0.3l0,0.1C37,99.6,37.1,99.7,37.2,99.7z"/>
	<path class="st0" d="M35.1,98.1c0,0.1,0.1,0.1,0.2,0.1c0,0,0.1,0,0.1,0c0.1-0.1,0.1-0.2,0.1-0.3l-0.3-0.4c-0.1-0.1-0.2-0.1-0.3-0.1
		c-0.1,0.1-0.1,0.2-0.1,0.3L35.1,98.1z"/>
	<path class="st0" d="M35.8,95.6C35.8,95.6,35.8,95.6,35.8,95.6C35.8,95.6,35.8,95.6,35.8,95.6c0.2,0,0.3,0,0.3-0.2l0.1-0.4
		c0-0.1,0-0.3-0.2-0.3c-0.1,0-0.3,0-0.3,0.2l-0.1,0.4C35.6,95.4,35.6,95.5,35.8,95.6z"/>
	<path class="st0" d="M38.7,93.7c0.1,0,0.2-0.1,0.2-0.1l0.2-0.4c0.1-0.1,0-0.3-0.1-0.3c-0.1-0.1-0.3,0-0.3,0.1l-0.2,0.4
		c-0.1,0.1,0,0.3,0.1,0.3C38.7,93.7,38.7,93.7,38.7,93.7z"/>
	<path class="st0" d="M43.8,88.9c-0.1-0.1-0.3,0-0.3,0.1l-0.3,0.6c-0.1,0.1,0,0.3,0.1,0.3c0,0,0.1,0,0.1,0c0.1,0,0.2-0.1,0.2-0.1
		l0.3-0.6C44,89.1,44,89,43.8,88.9z"/>
	<path class="st0" d="M49.8,87.8c0.1,0,0.2,0,0.2-0.1c0.1-0.1,0.1-0.2,0-0.3c0-0.1-0.1-0.2-0.2-0.2c-0.1,0-0.3,0-0.3,0.2
		c-0.1,0.1,0,0.3,0.1,0.4C49.7,87.8,49.7,87.8,49.8,87.8z"/>
	<path class="st0" d="M25.5,96.3c0.1,0,0.2,0,0.2-0.1c0.1-0.1,0.1-0.2,0-0.3c0-0.1-0.1-0.2-0.2-0.2c-0.1,0-0.3,0-0.3,0.2
		c-0.1,0.1,0,0.3,0.1,0.4C25.4,96.3,25.5,96.3,25.5,96.3z"/>
	<path class="st0" d="M57.3,93.6C57.3,93.6,57.3,93.6,57.3,93.6l0.4-0.1c0.1,0,0.2-0.2,0.2-0.3S57.6,93,57.5,93l-0.3,0.1
		c-0.1,0-0.2,0.2-0.2,0.3C57.1,93.5,57.2,93.6,57.3,93.6z"/>
	<path class="st0" d="M62,95.2c0,0,0.1,0,0.1,0c0.1,0,0.2-0.1,0.2-0.1c0.1-0.1,0-0.3-0.1-0.3l-0.2-0.1c-0.1-0.1-0.3,0-0.3,0.1
		c-0.1,0.1,0,0.3,0.1,0.3L62,95.2z"/>
	<path class="st0" d="M60.9,98.9l-0.2,0c-0.1,0-0.2,0.2-0.2,0.3c0,0.1,0.1,0.2,0.2,0.2c0,0,0,0,0.1,0l0.1,0c0.1,0,0.2-0.2,0.2-0.3
		C61.2,98.9,61,98.8,60.9,98.9z"/>
	<path class="st0" d="M30,98.4C30,98.4,30,98.4,30,98.4c0.2-0.1,0.3-0.2,0.2-0.3l-0.1-0.4c0-0.1-0.2-0.2-0.3-0.2s-0.2,0.2-0.2,0.3
		l0.1,0.4C29.8,98.3,29.9,98.4,30,98.4z"/>
	<path class="st0" d="M30.6,93.8C30.6,93.8,30.6,93.8,30.6,93.8c0.2,0,0.3-0.1,0.3-0.2l0.2-0.5c0-0.1,0-0.3-0.2-0.3s-0.3,0-0.3,0.2
		l-0.2,0.5C30.4,93.6,30.5,93.8,30.6,93.8z"/>
	<path class="st0" d="M35.9,90.3c0.1,0,0.2-0.1,0.2-0.1c0.1-0.1,0-0.3-0.1-0.3l-0.2-0.1c-0.1-0.1-0.3,0-0.3,0.1
		c-0.1,0.1,0,0.3,0.1,0.3l0.2,0.1C35.8,90.3,35.8,90.3,35.9,90.3z"/>
	<path class="st0" d="M42,86.5C42,86.5,42,86.5,42,86.5l0.2,0c0.1,0,0.2-0.1,0.2-0.2c0,0,0-0.1,0-0.1c0-0.1-0.2-0.2-0.3-0.2l-0.1,0
		c-0.1,0-0.2,0.1-0.2,0.2c0,0,0,0.1,0,0.1C41.8,86.4,41.9,86.5,42,86.5z"/>
	<path class="st0" d="M50.3,84.6c0-0.1-0.2-0.2-0.3-0.2l-0.4,0.1l0.1,0.2l0.1,0.2l0.4-0.1C50.3,84.8,50.3,84.7,50.3,84.6z"/>
	<path class="st0" d="M26,91.6C26.1,91.6,26.1,91.6,26,91.6l0.2-0.1c0.1,0,0.2-0.2,0.2-0.3c0-0.1-0.2-0.2-0.3-0.2l-0.1,0
		c-0.1,0-0.2,0.2-0.2,0.3C25.8,91.5,25.9,91.6,26,91.6z"/>
	<path class="st0" d="M64,94.1C64,94.1,64,94.1,64,94.1c0.2-0.1,0.3-0.2,0.2-0.3l0-0.1c0-0.1-0.2-0.2-0.3-0.2s-0.2,0.2-0.2,0.3
		l0,0.1C63.8,94,63.9,94.1,64,94.1z"/>
	<path class="st0" d="M64.7,99.4c0.1,0,0.2-0.1,0.2-0.1l0.1-0.2c0.1-0.1,0-0.3-0.1-0.3c-0.1-0.1-0.3,0-0.3,0.1L64.5,99
		c-0.1,0.1,0,0.3,0.1,0.3C64.6,99.3,64.7,99.4,64.7,99.4z"/>
	<path class="st0" d="M54.2,96.4c0,0,0.1,0,0.1,0c0.1,0,0.2-0.1,0.2-0.1c0.1-0.1,0-0.3-0.1-0.3l-0.2-0.1c-0.1-0.1-0.3,0-0.3,0.1
		c-0.1,0.1,0,0.3,0.1,0.3L54.2,96.4z"/>
	<path class="st0" d="M48.3,91.4c0-0.1,0-0.3-0.2-0.3c0,0-0.1-0.1-0.1-0.1c0-0.1-0.1-0.3-0.2-0.3c-0.1,0-0.3,0.1-0.3,0.2
		c-0.1,0.3,0.1,0.6,0.4,0.7c0,0,0,0,0.1,0C48.2,91.6,48.3,91.5,48.3,91.4z"/>
	<path class="st0" d="M70,69.3C70,69.3,70,69.3,70,69.3c0.2-0.1,0.3-0.2,0.2-0.3l-0.1-0.3c-0.1-0.1-0.2-0.2-0.3-0.1
		c-0.1,0.1-0.2,0.2-0.1,0.3l0.1,0.3C69.8,69.2,69.9,69.3,70,69.3z"/>
	<path class="st0" d="M68.7,72.1c0.2,0,0.3,0.1,0.4,0.2c0,0.1,0.1,0.2,0.2,0.2c0,0,0.1,0,0.1,0c0.1-0.1,0.2-0.2,0.2-0.3
		c-0.1-0.4-0.5-0.6-0.9-0.6c-0.1,0-0.2,0.2-0.2,0.3C68.4,72,68.6,72.1,68.7,72.1z"/>
	<path class="st0" d="M66,76.2L66,76.2C66,76.2,66,76.2,66,76.2c0.2,0,0.3-0.1,0.3-0.2l0-0.7c0-0.1-0.1-0.2-0.2-0.3
		c-0.2,0-0.2,0.1-0.3,0.2l0,0.7C65.7,76.1,65.8,76.2,66,76.2z"/>
	<path class="st0" d="M62.4,78.9l-0.1-0.1c0-0.1-0.2-0.2-0.3-0.1s-0.2,0.2-0.1,0.3l0.1,0.1c0,0.1,0.1,0.2,0.2,0.2c0,0,0.1,0,0.1,0
		C62.4,79.2,62.5,79,62.4,78.9z"/>
	<path class="st0" d="M64.6,67.5C64.6,67.5,64.6,67.4,64.6,67.5l0.2-0.1c0.1-0.1,0.2-0.2,0.1-0.3c-0.1-0.1-0.2-0.2-0.3-0.1L64.5,67
		c-0.1,0.1-0.2,0.2-0.1,0.3C64.4,67.4,64.5,67.5,64.6,67.5z"/>
	<path class="st0" d="M60.2,66C60.2,66,60.2,65.9,60.2,66c-0.1-0.2-0.2-0.3-0.4-0.2l-0.1,0c-0.1,0-0.2,0.1-0.2,0.2c0,0,0,0.1,0,0.1
		c0,0.1,0.1,0.2,0.2,0.2c0,0,0.1,0,0.1,0l0.1,0C60.2,66.2,60.2,66.1,60.2,66z"/>
	<path class="st0" d="M61.8,73.4c0.1,0,0.2-0.1,0.2-0.2l0.1-0.2c0-0.1,0-0.3-0.1-0.3c-0.1-0.1-0.3,0-0.3,0.1l-0.1,0.2
		c0,0.1,0,0.3,0.1,0.3C61.7,73.4,61.8,73.4,61.8,73.4z"/>
	<path class="st0" d="M55.8,75.3C55.8,75.3,55.8,75.3,55.8,75.3l0.5-0.2c0.1-0.1,0.2-0.2,0.1-0.3c0-0.1-0.2-0.2-0.3-0.1l-0.4,0.2
		c-0.1,0.1-0.2,0.2-0.1,0.3C55.6,75.3,55.7,75.3,55.8,75.3z"/>
	<path class="st0" d="M56.5,69.7l0.1-0.2c0-0.1,0-0.3-0.1-0.3c-0.1-0.1-0.3,0-0.3,0.1l-0.1,0.2c0,0.1,0,0.3,0.1,0.3c0,0,0.1,0,0.1,0
		C56.4,69.8,56.5,69.8,56.5,69.7z"/>
	<path class="st0" d="M65,70.2c0,0,0.1,0,0.1,0c0.1-0.1,0.2-0.2,0.1-0.3l0-0.1c-0.1-0.1-0.2-0.2-0.3-0.1c-0.1,0.1-0.2,0.2-0.1,0.3
		l0.1,0.1C64.8,70.1,64.9,70.2,65,70.2z"/>
	<path class="st0" d="M72.9,72.7l-0.1,0.2c-0.1,0.1,0,0.3,0.1,0.3c0,0,0.1,0,0.1,0c0.1,0,0.2-0.1,0.2-0.2l0.1-0.2
		c0.1-0.1,0-0.3-0.1-0.3C73.1,72.5,72.9,72.6,72.9,72.7z"/>
	<path class="st0" d="M70.5,78.2c0.1,0,0.1,0,0.2-0.1l0.5-0.4c0.1-0.1,0.1-0.2,0.1-0.3c-0.1-0.1-0.2-0.1-0.3-0.1l-0.5,0.4
		c-0.1,0.1-0.1,0.2-0.1,0.3C70.3,78.1,70.4,78.2,70.5,78.2z"/>
	<path class="st0" d="M76.4,72.4C76.4,72.4,76.4,72.4,76.4,72.4c0.2-0.1,0.3-0.2,0.2-0.3l-0.1-0.1c-0.1-0.1-0.2-0.2-0.3-0.1
		c-0.1,0.1-0.2,0.2-0.1,0.3l0.1,0.1C76.2,72.3,76.3,72.4,76.4,72.4z"/>
	<path class="st0" d="M75.8,65C75.8,65,75.9,65,75.8,65c0.2-0.1,0.3-0.2,0.2-0.3L76,64.5c-0.1-0.1-0.2-0.2-0.3-0.1
		c-0.1,0.1-0.2,0.2-0.1,0.3l0.1,0.1C75.6,64.9,75.7,65,75.8,65z"/>
	<path class="st0" d="M78.1,68.5L78.1,68.5c0.2,0,0.3-0.1,0.2-0.3l0-0.5c0-0.1-0.1-0.2-0.3-0.2c-0.1,0-0.2,0.1-0.2,0.3l0,0.5
		C77.8,68.4,77.9,68.5,78.1,68.5z"/>
	<path class="st0" d="M79.6,73.9c0.1,0,0.1,0,0.2-0.1c0.1-0.1,0.1-0.2,0-0.3l-0.3-0.4c-0.1-0.1-0.2-0.1-0.3,0
		c-0.1,0.1-0.1,0.2,0,0.3l0.3,0.4C79.5,73.9,79.6,73.9,79.6,73.9z"/>
	<path class="st0" d="M78,76.6C78,76.6,78,76.6,78,76.6c0.2,0,0.3-0.1,0.3-0.2l0.1-0.4c0-0.1-0.1-0.3-0.2-0.3l0,0c0,0,0,0,0,0
		c-0.1,0-0.3,0.1-0.3,0.2l-0.1,0.4C77.8,76.5,77.8,76.6,78,76.6z"/>
	<path class="st0" d="M75.2,78.8C75.2,78.8,75.2,78.8,75.2,78.8c0.2,0,0.3,0,0.3-0.1l0.2-0.4c0.1-0.1,0-0.3-0.1-0.3s-0.3,0-0.3,0.1
		L75,78.5C75,78.6,75,78.8,75.2,78.8z"/>
	<path class="st0" d="M70.9,83.2c0.1,0,0.2-0.1,0.2-0.2l0.2-0.6c0.1-0.1,0-0.3-0.1-0.3c-0.1-0.1-0.3,0-0.3,0.1l-0.2,0.6
		C70.6,83,70.7,83.1,70.9,83.2C70.8,83.2,70.8,83.2,70.9,83.2z"/>
	<path class="st0" d="M65,85.5C65,85.5,65,85.5,65,85.5c0.2,0,0.3-0.1,0.3-0.2c0.1-0.2,0-0.3-0.2-0.4c-0.1-0.1-0.3,0-0.4,0.1
		c-0.1,0.1-0.1,0.2,0,0.3C64.8,85.4,64.9,85.4,65,85.5z"/>
	<path class="st0" d="M56.7,80.4C56.7,80.4,56.8,80.4,56.7,80.4l0.4-0.1c0.1-0.1,0.2-0.2,0.1-0.3c0-0.1-0.2-0.2-0.3-0.1L56.6,80
		c-0.1,0.1-0.2,0.2-0.1,0.3C56.5,80.4,56.6,80.4,56.7,80.4z"/>
	<path class="st0" d="M53.2,81.4C53.3,81.5,53.3,81.5,53.2,81.4c0.2,0,0.3,0,0.3-0.1c0-0.1,0-0.3-0.1-0.3l-0.2-0.1
		c-0.1-0.1-0.3,0-0.3,0.1c0,0.1,0,0.3,0.1,0.3L53.2,81.4z"/>
	<path class="st0" d="M52.7,74.9C52.8,74.9,52.8,74.9,52.7,74.9l0.2-0.1c0.1-0.1,0.2-0.2,0.1-0.3c0-0.1-0.2-0.2-0.3-0.1l-0.1,0.1
		c-0.1,0.1-0.2,0.2-0.1,0.3C52.5,74.9,52.6,74.9,52.7,74.9z"/>
	<path class="st0" d="M78.4,81.2c-0.1,0.1,0,0.3,0.1,0.3l0.2,0.1c0,0,0.1,0,0.1,0c0.1,0,0.2-0.1,0.2-0.2c0.1-0.1,0-0.3-0.1-0.3
		L78.7,81C78.6,81,78.4,81,78.4,81.2z"/>
	<path class="st0" d="M72.8,85.9C72.8,85.9,72.8,85.9,72.8,85.9l0.2-0.1c0.1,0,0.2-0.1,0.2-0.2c0,0,0-0.1,0-0.1
		c-0.1-0.1-0.2-0.2-0.3-0.1l-0.1,0c-0.1,0-0.2,0.1-0.2,0.2c0,0,0,0.1,0,0.1C72.6,85.9,72.7,85.9,72.8,85.9z"/>
	<path class="st0" d="M65.5,88.1c0.1-0.1,0.2-0.2,0.1-0.3c-0.1-0.1-0.2-0.2-0.3-0.1l-0.4,0.2c-0.1,0.1-0.2,0.2-0.1,0.3
		c0,0.1,0.1,0.2,0.2,0.2c0,0,0.1,0,0.1,0L65.5,88.1z"/>
	<path class="st0" d="M50.4,81.6c0.1-0.1,0.2-0.2,0.1-0.3l-0.1-0.1c0-0.1-0.2-0.2-0.3-0.1C50,81,50,81.2,50,81.3l0.1,0.1
		C50.1,81.5,50.2,81.6,50.4,81.6C50.3,81.6,50.4,81.6,50.4,81.6z"/>
	<path class="st0" d="M48.8,75l-0.1,0.2c0,0.1,0,0.3,0.1,0.3c0,0,0.1,0,0.1,0c0.1,0,0.2-0.1,0.2-0.2l0.1-0.2c0-0.1,0-0.3-0.1-0.3
		C49,74.8,48.8,74.8,48.8,75z"/>
	<path class="st0" d="M51.6,70.2c0,0.1,0.1,0.2,0.2,0.2c0,0,0.1,0,0.1,0l0.1-0.1c0.1-0.1,0.2-0.2,0.1-0.3c0-0.1-0.2-0.2-0.3-0.1
		l-0.1,0.1C51.6,69.9,51.5,70,51.6,70.2z"/>
	<path class="st0" d="M47,69.5C47,69.5,47.1,69.5,47,69.5c0.2-0.1,0.3-0.2,0.2-0.3L47.2,69c0-0.1-0.2-0.2-0.3-0.1s-0.2,0.2-0.1,0.3
		l0.1,0.1C46.8,69.4,46.9,69.5,47,69.5z"/>
	<path class="st0" d="M50,65.1l0.1,0.1c0,0.1,0.1,0.2,0.2,0.2c0,0,0.1,0,0.1,0c0.1-0.1,0.2-0.2,0.1-0.3L50.5,65
		c0-0.1-0.2-0.2-0.3-0.1C50,64.9,49.9,65,50,65.1z"/>
	<path class="st0" d="M68.8,64.4c-0.1,0.1-0.2,0.2-0.1,0.3l0.1,0.1c0,0.1,0.1,0.2,0.2,0.2c0,0,0.1,0,0.1,0c0.1-0.1,0.2-0.2,0.1-0.3
		l-0.1-0.1C69.1,64.4,68.9,64.4,68.8,64.4z"/>
	<path class="st0" d="M71.9,65.8C71.9,65.8,71.9,65.8,71.9,65.8c0.2-0.1,0.3-0.2,0.2-0.3L72,65.3c-0.1-0.1-0.2-0.2-0.3-0.1
		c-0.1,0.1-0.2,0.2-0.1,0.3l0.1,0.1C71.7,65.8,71.8,65.8,71.9,65.8z"/>
	<path class="st0" d="M61.5,70C61.6,70,61.6,69.9,61.5,70c0.2-0.1,0.3-0.2,0.2-0.3l-0.1-0.1c0-0.1-0.2-0.2-0.3-0.1s-0.2,0.2-0.1,0.3
		l0.1,0.1C61.3,69.9,61.4,70,61.5,70z"/>
	<path class="st0" d="M59.7,77.3C59.7,77.3,59.8,77.3,59.7,77.3c0.2,0,0.3,0,0.3-0.1c0.1-0.1,0-0.3-0.1-0.3l-0.2-0.1
		c-0.1-0.1-0.3,0-0.3,0.1c0,0.1,0,0.3,0.1,0.3L59.7,77.3z"/>
	<path class="st0" d="M58.8,72.1l0.1-0.1c0.1-0.1,0.2-0.2,0.1-0.3c0-0.1-0.2-0.2-0.3-0.1l-0.1,0.1c-0.1,0.1-0.2,0.2-0.1,0.3
		c0,0.1,0.1,0.2,0.2,0.2C58.7,72.1,58.7,72.1,58.8,72.1z"/>
	<path class="st0" d="M74.7,68.1c-0.1-0.1-0.2-0.2-0.3-0.1L74.3,68c-0.1,0.1-0.2,0.2-0.1,0.3c0,0.1,0.1,0.2,0.2,0.2c0,0,0.1,0,0.1,0
		l0.1-0.1C74.7,68.4,74.8,68.3,74.7,68.1z"/>
	<path class="st0" d="M66.3,81.4C66.3,81.4,66.3,81.5,66.3,81.4c0.1,0.2,0.2,0.4,0.3,0.4c0,0,0,0,0,0c0.1,0,0.2-0.1,0.2-0.2
		c0-0.3-0.2-0.6-0.5-0.6c-0.1,0-0.3,0.1-0.3,0.2C66,81.3,66.1,81.4,66.3,81.4z"/>
	<path class="st0" d="M53.8,68.1C53.8,68.1,53.8,68.1,53.8,68.1c0.2,0,0.3-0.1,0.3-0.2l0.1-0.5c0-0.1,0-0.3-0.2-0.3
		c-0.1,0-0.3,0.1-0.3,0.2l-0.1,0.5C53.6,67.9,53.7,68,53.8,68.1z"/>
	<path class="st0" d="M2.3,48c0.1,0,0.2,0,0.2-0.1l0.3-0.6c0.1-0.1,0-0.3-0.1-0.3c0,0,0,0,0,0h0c-0.1-0.1-0.3,0-0.3,0.1l-0.3,0.7
		c-0.1,0.1,0,0.3,0.1,0.3C2.3,48,2.3,48,2.3,48z"/>
	<path class="st0" d="M0.9,55.8c0-0.1-0.1-0.2-0.2-0.2H0.6c-0.1,0-0.2,0.1-0.2,0.2s0.1,0.2,0.2,0.2h0.1C0.8,56.1,0.9,56,0.9,55.8z"
		/>
	<path class="st0" d="M4.5,58.9L4.5,58.9c0.2,0,0.3-0.1,0.3-0.2s-0.1-0.2-0.2-0.2H4.5c-0.1,0-0.2,0.1-0.2,0.2
		C4.2,58.8,4.4,58.9,4.5,58.9z"/>
	<path class="st0" d="M5.3,51.7c0.1,0,0.1,0,0.2-0.1l0.2-0.2c0.1-0.1,0.1-0.3,0-0.3c-0.1-0.1-0.3-0.1-0.3,0l-0.2,0.1
		c-0.1,0.1-0.1,0.3,0,0.3C5.2,51.7,5.3,51.7,5.3,51.7z"/>
	<path class="st0" d="M9.1,57.1c0.1,0,0.1,0,0.2-0.1l0.1-0.2c0.1-0.1,0.1-0.3,0-0.3c-0.1-0.1-0.3-0.1-0.4,0l-0.2,0.2
		c-0.1,0.1-0.1,0.3,0,0.3C9,57.1,9,57.1,9.1,57.1z"/>
	<path class="st0" d="M1.3,53.5c0.1,0,0.2-0.1,0.2-0.2v-0.2c0-0.1-0.1-0.2-0.2-0.2S1,53,1,53.1v0.2C1,53.4,1.2,53.5,1.3,53.5z"/>
	<path class="st0" d="M0.2,39.6c0.1,0,0.1,0,0.2-0.1l0.4-0.5C1,39,1,38.8,0.9,38.7c-0.1-0.1-0.3-0.1-0.4,0l-0.4,0.5
		c0,0-0.1,0.1-0.1,0.1v0c0,0.1,0,0.1,0.1,0.2C0.1,39.6,0.2,39.6,0.2,39.6z"/>
	<path class="st0" d="M6.8,39.2c0.1,0.1,0.1,0.1,0.2,0.1c0.1,0,0.1,0,0.1,0c0.1-0.1,0.1-0.2,0.1-0.3c0-0.1,0-0.2-0.1-0.3
		c-0.1-0.1-0.3,0-0.4,0C6.7,38.9,6.7,39.1,6.8,39.2z"/>
	<path class="st0" d="M11,42.3c-0.1-0.1-0.3,0-0.4,0c-0.1,0.1-0.1,0.3,0,0.4c0.1,0.1,0.1,0.1,0.2,0.1c0.1,0,0.1,0,0.1,0
		c0.1-0.1,0.1-0.2,0.1-0.3C11.1,42.5,11.1,42.4,11,42.3z"/>
	<path class="st0" d="M12.5,46.9h0.3c0.1,0,0.2-0.1,0.2-0.2s-0.1-0.2-0.2-0.2h-0.3c-0.1,0-0.2,0.1-0.2,0.2
		C12.3,46.8,12.4,46.9,12.5,46.9z"/>
	<path class="st0" d="M16.5,49.9c0,0,0.1,0.1,0.2,0.1c0.1,0,0.1,0,0.2-0.1c0.1-0.1,0.1-0.3,0-0.3l-0.1-0.2c-0.1-0.1-0.3-0.1-0.4,0
		c-0.1,0.1-0.1,0.3,0,0.3L16.5,49.9z"/>
	<path class="st0" d="M14.3,53.5h0.1c0.1,0,0.2-0.1,0.2-0.2S14.6,53,14.5,53h-0.1c-0.1,0-0.2,0.1-0.2,0.2S14.2,53.5,14.3,53.5z"/>
	<path class="st0" d="M11.6,63h0.3c0.1,0,0.2-0.1,0.2-0.2s-0.1-0.2-0.2-0.2h-0.3c-0.1,0-0.2,0.1-0.2,0.2S11.5,63,11.6,63z"/>
	<path class="st0" d="M4.8,66.2c0,0,0.1,0,0.1,0c0.1,0,0.2,0,0.2-0.1c0.1-0.1,0-0.3-0.1-0.3c0,0-0.1-0.1,0-0.1
		c0.1-0.1,0-0.3-0.1-0.3c-0.1-0.1-0.3,0-0.3,0.1C4.4,65.7,4.5,66.1,4.8,66.2z"/>
	<path class="st0" d="M2.9,62.9c0-0.1-0.1-0.2-0.2-0.2H2.5c-0.1,0-0.2,0.1-0.2,0.2s0.1,0.2,0.2,0.2h0.2C2.8,63.1,2.9,63,2.9,62.9z"
		/>
	<path class="st0" d="M31.5,24.5c0,0,0.1,0,0.1,0c0.1,0,0.2-0.2,0.1-0.3l-0.1-0.4c0-0.1-0.2-0.2-0.3-0.1c0,0,0,0,0,0l0,0
		c-0.1,0-0.2,0.2-0.1,0.3l0.2,0.4C31.4,24.4,31.5,24.5,31.5,24.5z"/>
	<path class="st0" d="M29.8,27.8C29.8,27.8,29.8,27.8,29.8,27.8c0.2,0,0.3-0.2,0.2-0.3L29.9,27c0-0.1-0.2-0.2-0.3-0.2
		c-0.1,0-0.2,0.2-0.2,0.3l0.1,0.4C29.5,27.7,29.6,27.8,29.8,27.8z"/>
	<path class="st0" d="M33.8,27.6l0.2,0c0.1,0,0.2-0.2,0.2-0.3c0-0.1-0.2-0.2-0.3-0.2l-0.2,0c-0.1,0-0.2,0.2-0.2,0.3
		C33.5,27.5,33.6,27.6,33.8,27.6C33.7,27.6,33.7,27.6,33.8,27.6z"/>
	<path class="st0" d="M0.2,35.6c0-0.1-0.1-0.2-0.2-0.2v0.5C0.1,35.8,0.2,35.7,0.2,35.6z"/>
	<path class="st0" d="M8.3,36.3c0-0.1-0.1-0.2-0.2-0.2H7.6c-0.1,0-0.2,0.1-0.2,0.2s0.1,0.2,0.2,0.2H8C8.2,36.6,8.3,36.5,8.3,36.3z"
		/>
	<path class="st0" d="M15.5,44.1h0.1c0.1,0,0.2-0.1,0.2-0.2s-0.1-0.2-0.2-0.2h-0.1c-0.1,0-0.2,0.1-0.2,0.2S15.3,44.1,15.5,44.1z"/>
	<path class="st0" d="M19.1,49.1v-0.2c0-0.1-0.1-0.2-0.2-0.2s-0.2,0.1-0.2,0.2v0.2c0,0.1,0.1,0.2,0.2,0.2S19.1,49.2,19.1,49.1z"/>
	<path class="st0" d="M18.2,54.5l0.1-0.2c0.1-0.1,0.1-0.3,0-0.3c-0.1-0.1-0.3-0.1-0.4,0l-0.1,0.2c-0.1,0.1-0.1,0.3,0,0.3
		c0,0,0.1,0.1,0.2,0.1C18.1,54.6,18.2,54.5,18.2,54.5z"/>
	<path class="st0" d="M13.6,58.2c0.1,0,0.2-0.1,0.2-0.2s-0.1-0.2-0.2-0.2h-0.1c-0.1,0-0.2,0.1-0.2,0.2s0.1,0.2,0.2,0.2H13.6z"/>
	<path class="st0" d="M7.4,62v-0.2c0-0.1-0.1-0.2-0.2-0.2s-0.2,0.1-0.2,0.2V62c0,0.1,0.1,0.2,0.2,0.2C7.3,62.2,7.4,62.1,7.4,62z"/>
	<path class="st0" d="M8.8,66.1L8.7,66c-0.1-0.1-0.3-0.1-0.4,0c-0.1,0.1-0.1,0.3,0,0.3l0.1,0.2c0.1,0.1,0.1,0.1,0.2,0.1
		c0.1,0,0.1,0,0.2-0.1C8.9,66.4,8.9,66.2,8.8,66.1z"/>
	<path class="st0" d="M3.4,73c0.1,0,0.2-0.1,0.2-0.2v-0.3c0-0.1-0.1-0.2-0.2-0.2s-0.2,0.1-0.2,0.2v0.3C3.2,72.9,3.3,73,3.4,73z"/>
	<path class="st0" d="M0.4,69.5c0.1,0.1,0.1,0.1,0.2,0.1s0.1,0,0.2-0.1L1,69.2c0.1-0.1,0.1-0.2,0-0.3c-0.1-0.1-0.2-0.1-0.4,0
		l-0.3,0.3C0.3,69.2,0.3,69.4,0.4,69.5z"/>
	<path class="st0" d="M0.7,72.4c0.1,0,0.2,0,0.2-0.1l0.3-0.4c0.1-0.1,0-0.3-0.1-0.3c-0.1-0.1-0.3-0.1-0.4,0.1L0.5,72
		c-0.1,0.1-0.1,0.3,0.1,0.3C0.6,72.4,0.6,72.4,0.7,72.4z"/>
	<path class="st0" d="M5.2,75.5c0.1,0,0.2-0.1,0.2-0.1l0.2-0.3c0.1-0.1,0-0.3-0.1-0.3c-0.1-0.1-0.3,0-0.3,0.1l-0.2,0.3
		c-0.1,0.1,0,0.3,0.1,0.3C5.1,75.5,5.1,75.5,5.2,75.5z"/>
	<path class="st0" d="M9.9,72.3V72c0-0.1-0.1-0.2-0.2-0.2S9.4,71.9,9.4,72v0.3c0,0.1,0.1,0.2,0.2,0.2S9.9,72.4,9.9,72.3z"/>
	<path class="st0" d="M13.9,67.2l0.1-0.3c0.1-0.1,0-0.3-0.1-0.3c-0.1-0.1-0.3,0-0.3,0.1l-0.1,0.3c-0.1,0.1,0,0.3,0.1,0.3
		c0,0,0.1,0,0.1,0C13.8,67.3,13.9,67.2,13.9,67.2z"/>
	<path class="st0" d="M19.6,44.6c0,0,0.1,0,0.1,0c0.1,0,0.2,0,0.2-0.1l0.1-0.3c0.1-0.1,0-0.3-0.1-0.3c-0.1-0.1-0.3,0-0.3,0.1
		l-0.1,0.3C19.4,44.4,19.5,44.5,19.6,44.6z"/>
	<path class="st0" d="M21.1,63.5l0.1-0.6c0-0.1,0-0.3-0.2-0.3c-0.1,0-0.3,0-0.3,0.2l-0.1,0.6c0,0.1,0,0.3,0.2,0.3c0,0,0,0,0.1,0
		C21,63.7,21.1,63.6,21.1,63.5z"/>
	<path class="st0" d="M17.5,60.6c0,0.1,0.1,0.2,0.2,0.2s0.2-0.1,0.2-0.2v-0.2c0-0.1-0.1-0.2-0.2-0.2s-0.2,0.1-0.2,0.2V60.6z"/>
	<path class="st0" d="M20.7,56.6l-0.2,0.2c-0.1,0.1,0,0.3,0.1,0.3c0,0,0.1,0,0.1,0c0.1,0,0.2,0,0.2-0.1l0.2-0.2
		c0.1-0.1,0-0.3-0.1-0.3C20.9,56.5,20.8,56.5,20.7,56.6z"/>
	<path class="st0" d="M0.3,59.4l0.2-0.2c0.1-0.1,0.1-0.3,0-0.3c-0.1-0.1-0.3-0.1-0.3,0L0,59v0.5c0,0,0.1,0,0.1,0
		C0.2,59.5,0.2,59.5,0.3,59.4z"/>
	<path class="st0" d="M4.4,55c0.1,0,0.2-0.1,0.2-0.2v-0.2c0-0.1-0.1-0.2-0.2-0.2s-0.2,0.1-0.2,0.2v0.2C4.2,54.9,4.3,55,4.4,55z"/>
	<path class="st0" d="M8.8,48.8c0.1,0,0.1,0.1,0.2,0.1c0.1,0,0.1,0,0.2-0.1c0.1-0.1,0.1-0.3,0-0.3L9,48.3c-0.1-0.1-0.3-0.1-0.4,0
		c-0.1,0.1-0.1,0.3,0,0.3L8.8,48.8z"/>
	<path class="st0" d="M8.1,53.7c0-0.1-0.1-0.2-0.2-0.2H7.7c-0.1,0-0.2,0.1-0.2,0.2S7.6,54,7.7,54h0.2C8,54,8.1,53.9,8.1,53.7z"/>
	<path class="st0" d="M15.8,63.4c-0.1-0.1-0.3,0-0.3,0.1l-0.1,0.3c-0.1,0.1,0,0.3,0.1,0.3c0,0,0.1,0,0.1,0c0.1,0,0.2-0.1,0.2-0.1
		l0.1-0.3C16,63.6,15.9,63.5,15.8,63.4z"/>
	<path class="st0" d="M67.9,13.9c0.1,0,0.1,0,0.2-0.1c0.1-0.1,0.1-0.3,0-0.4l-0.3-0.3c-0.1-0.1-0.3-0.1-0.3,0s-0.1,0.3,0,0.4
		l0.3,0.3C67.8,13.9,67.9,13.9,67.9,13.9z"/>
	<path class="st0" d="M57.4,25.3c0,0.1,0.1,0.2,0.2,0.2c0,0,0,0,0,0l0.2,0c0.1,0,0.2-0.1,0.2-0.3c0-0.1-0.1-0.2-0.3-0.2l-0.2,0
		C57.5,25.1,57.3,25.2,57.4,25.3z"/>
	<path class="st0" d="M60.7,26.5c0,0,0.1,0,0.1,0c0.1,0,0.2,0,0.2-0.1l0.1-0.1c0.1-0.1,0.1-0.3,0-0.4c-0.1-0.1-0.3-0.1-0.3,0
		l-0.1,0.1c0,0,0,0,0,0C60.5,26.3,60.6,26.4,60.7,26.5z"/>
	<path class="st0" d="M65.5,21.9L65.4,22c-0.1,0.1-0.1,0.3,0,0.4c0.1,0,0.1,0.1,0.2,0.1c0.1,0,0.1,0,0.2-0.1l0.1-0.1
		c0.1-0.1,0.1-0.3,0-0.4C65.7,21.7,65.6,21.8,65.5,21.9z"/>
	<path class="st0" d="M67.3,18.5l0.1-0.1c0.1-0.1,0.1-0.3,0-0.4s-0.3-0.1-0.3,0l-0.1,0.1c-0.1,0.1-0.1,0.3,0,0.4
		c0.1,0,0.1,0.1,0.2,0.1C67.2,18.6,67.3,18.6,67.3,18.5z"/>
	<path class="st0" d="M72.3,17.3c0.1,0,0.1,0,0.2-0.1l0.1-0.1c0.1-0.1,0.1-0.3,0-0.4c-0.1-0.1-0.3-0.1-0.3,0l-0.1,0.1
		c-0.1,0.1-0.1,0.3,0,0.4C72.2,17.2,72.2,17.3,72.3,17.3z"/>
	<path class="st0" d="M71.3,23.8c-0.1,0-0.3,0.1-0.3,0.2l-0.1,0.6c0,0.1,0.1,0.3,0.2,0.3c0,0,0,0,0,0c0.1,0,0.2-0.1,0.2-0.2l0.1-0.6
		C71.6,23.9,71.4,23.8,71.3,23.8z"/>
	<path class="st0" d="M65.7,28.4l0.4-0.2c0.1-0.1,0.2-0.2,0.1-0.3c-0.1-0.1-0.2-0.1-0.3-0.1l-0.4,0.2c-0.1,0.1-0.2,0.2-0.1,0.3
		c0.1,0.1,0.1,0.1,0.2,0.1C65.6,28.4,65.7,28.4,65.7,28.4z"/>
	<path class="st0" d="M70.9,20.7c0-0.1-0.2-0.2-0.3-0.2L70,20.6c-0.1,0-0.2,0.2-0.2,0.3c0,0.1,0.1,0.2,0.2,0.2c0,0,0,0,0.1,0
		l0.6-0.1C70.8,21,70.9,20.8,70.9,20.7z"/>
	<path class="st0" d="M61.8,29.9c-0.1,0-0.3,0-0.3,0.1l-0.2,0.4c0,0.1,0,0.3,0.1,0.3c0,0,0.1,0,0.1,0c0.1,0,0.2-0.1,0.2-0.2l0.2-0.4
		C62,30.1,62,30,61.8,29.9z"/>
	<path class="st0" d="M57.7,31.1L57.7,31.1C57.7,31.1,57.7,31.1,57.7,31.1c0-0.1-0.2-0.2-0.3-0.2L57,31.1c-0.1,0-0.2,0.2-0.2,0.3
		c0,0.1,0.1,0.2,0.2,0.2c0,0,0,0,0.1,0l0.4-0.1C57.7,31.4,57.7,31.2,57.7,31.1z"/>
	<path class="st0" d="M53.8,30.2l0.4-0.1c0.1,0,0.2-0.1,0.2-0.3c0-0.1-0.2-0.2-0.3-0.2l-0.4,0.1c-0.1,0-0.2,0.1-0.2,0.3
		C53.6,30.1,53.7,30.2,53.8,30.2C53.8,30.2,53.8,30.2,53.8,30.2z"/>
	<path class="st0" d="M47.8,39.1c0.1,0,0.1,0,0.2-0.1l0,0c0.1-0.1,0.1-0.2,0-0.3l-0.2-0.5c0-0.1-0.2-0.2-0.3-0.1
		c-0.1,0-0.2,0.1-0.2,0.2c0,0.3,0.1,0.5,0.3,0.7C47.7,39.1,47.8,39.1,47.8,39.1z"/>
	<path class="st0" d="M61.8,34.8l0.3-0.3c0.1-0.1,0.1-0.3,0-0.3s-0.3-0.1-0.3,0l-0.3,0.3c-0.1,0.1-0.1,0.3,0,0.3
		c0,0,0.1,0.1,0.2,0.1C61.7,34.9,61.8,34.8,61.8,34.8z"/>
	<path class="st0" d="M58.4,36.9C58.4,36.9,58.5,36.9,58.4,36.9l0.6-0.2c0.1,0,0.2-0.2,0.2-0.3s-0.2-0.2-0.3-0.2l-0.5,0.2
		c-0.1,0-0.2,0.2-0.2,0.3C58.2,36.8,58.3,36.9,58.4,36.9z"/>
	<path class="st0" d="M53.1,34.6C53.1,34.6,53.1,34.6,53.1,34.6c0.2,0,0.3-0.1,0.2-0.3l0-0.2c0-0.1-0.1-0.2-0.3-0.2
		c-0.1,0-0.2,0.1-0.2,0.3l0,0.2C52.8,34.5,53,34.6,53.1,34.6z"/>
	<path class="st0" d="M63.5,17.6c0.1,0,0.1,0,0.2-0.1l0.1-0.1c0.1-0.1,0.1-0.3,0-0.4s-0.3-0.1-0.3,0l-0.1,0.1
		c-0.1,0.1-0.1,0.3,0,0.4C63.4,17.6,63.5,17.6,63.5,17.6z"/>
	<path class="st0" d="M72.4,14.1c0,0,0.1,0,0.1,0c0.1,0,0.2,0,0.3-0.1c0.1-0.1,0.2-0.2,0.1-0.3c-0.1-0.1-0.2-0.1-0.3,0
		c-0.1-0.1-0.2-0.2-0.3-0.1c-0.1,0.1-0.2,0.2-0.1,0.3C72.2,14,72.3,14.1,72.4,14.1z"/>
	<path class="st0" d="M63.2,24.1c0.1,0,0.2,0,0.2-0.1c0.1-0.1,0.1-0.3,0-0.4l-0.1-0.1c-0.1-0.1-0.3-0.1-0.3,0s-0.1,0.3,0,0.4
		l0.1,0.1C63.1,24.1,63.1,24.1,63.2,24.1z"/>
	<path class="st0" d="M97.2,20c0.1,0,0.2-0.1,0.2-0.2v-0.5c0-0.1-0.1-0.2-0.2-0.2s-0.2,0.1-0.2,0.2v0.5C96.9,19.8,97.1,20,97.2,20z"
		/>
	<path class="st0" d="M98,13.5c0.1,0.1,0.1,0.1,0.2,0.1c0,0,0.1,0,0.1,0c0.1-0.1,0.2-0.2,0.1-0.3l-0.3-0.5c-0.1-0.1-0.2-0.1-0.3-0.1
		c-0.1,0.1-0.2,0.2-0.1,0.3L98,13.5z"/>
	<path class="st0" d="M95.7,5.8c0.1,0.1,0.1,0.1,0.2,0.1c0,0,0.1,0,0.1,0c0.1-0.1,0.2-0.2,0.1-0.3l-0.3-0.5
		c-0.1-0.1-0.2-0.2-0.3-0.1c-0.1,0.1-0.2,0.2-0.1,0.3L95.7,5.8z"/>
	<path class="st0" d="M99.8,7.8l0.2-0.4c0.1-0.1,0-0.3-0.2-0.3c-0.1,0-0.3,0-0.3,0.2l-0.2,0.4c-0.1,0.1,0,0.3,0.2,0.3
		c0,0,0.1,0,0.1,0C99.7,8,99.8,7.9,99.8,7.8z"/>
	<path class="st0" d="M98.4,28.8L98.4,28.8c0.1,0,0.2-0.1,0.2-0.2c0,0,0,0,0,0c0-0.1-0.1-0.2-0.2-0.2L98,28.1c-0.1,0-0.2,0-0.3,0.1
		s-0.1,0.2,0,0.3C97.9,28.7,98.1,28.8,98.4,28.8z"/>
	<path class="st0" d="M96.8,25.8c0.1,0,0.2,0,0.2-0.1c0.1-0.1,0-0.3-0.1-0.3l-0.3-0.1l-0.1,0.2l-0.1,0.2l0.2,0.1
		C96.7,25.8,96.7,25.8,96.8,25.8z"/>
	<path class="st0" d="M97.7,1.1c0.1,0,0.2-0.1,0.2-0.2V0.4c0-0.1-0.1-0.2-0.2-0.2s-0.2,0.1-0.2,0.2v0.4C97.4,1,97.5,1.1,97.7,1.1z"
		/>
	<path class="st0" d="M86.8,88.5c-0.1,0-0.2,0.1-0.2,0.2s0.1,0.2,0.2,0.2H87c0.1,0,0.2-0.1,0.2-0.2s-0.1-0.2-0.2-0.2H86.8z"/>
	<path class="st0" d="M91,89.6c0.1,0,0.2-0.1,0.2-0.1l0.2-0.3c0.1-0.1,0-0.3-0.1-0.3c-0.1-0.1-0.3,0-0.3,0.1l-0.2,0.3
		c-0.1,0.1,0,0.3,0.1,0.3C90.9,89.6,91,89.6,91,89.6z"/>
	<path class="st0" d="M99.4,86.9l0.1-0.2c0.1-0.1,0-0.3-0.1-0.3c-0.1-0.1-0.3,0-0.3,0.1L99,86.6l0.2,0.1L99.4,86.9z"/>
	<path class="st0" d="M95.9,87.5C95.9,87.5,95.9,87.5,95.9,87.5c0.2-0.1,0.3-0.2,0.2-0.3l0-0.1c0-0.1-0.2-0.2-0.3-0.2
		s-0.2,0.2-0.2,0.3l0,0.1C95.7,87.4,95.8,87.5,95.9,87.5z"/>
	<path class="st0" d="M96.8,95.2C96.8,95.2,96.8,95.2,96.8,95.2C97,95.2,97,95,97,94.9l0-0.1c0-0.1-0.2-0.2-0.3-0.2
		c-0.1,0-0.2,0.2-0.2,0.3l0,0.1C96.6,95.2,96.7,95.2,96.8,95.2z"/>
	<path class="st0" d="M93.5,90.8l0,0.5c0,0.1,0.1,0.3,0.2,0.3h0c0.1,0,0.2-0.1,0.2-0.2l0-0.5c0-0.1-0.1-0.3-0.2-0.3
		C93.6,90.6,93.5,90.7,93.5,90.8z"/>
	<path class="st0" d="M94.2,86c0.1-0.1,0.1-0.2,0.1-0.3l-0.3-0.4c-0.1-0.1-0.2-0.1-0.3-0.1c-0.1,0.1-0.1,0.2-0.1,0.3l0.3,0.4
		C93.9,86,93.9,86,94,86C94.1,86,94.1,86,94.2,86z"/>
	<path class="st0" d="M94.4,83.3L94.4,83.3L94.4,83.3C94.5,83.4,94.5,83.4,94.4,83.3c0.2,0,0.3-0.1,0.3-0.2l0.1-0.4
		c0-0.1,0-0.3-0.2-0.3s-0.3,0-0.3,0.2L94.3,83C94.2,83.2,94.3,83.3,94.4,83.3z"/>
	<path class="st0" d="M97.7,80.6c-0.1-0.1-0.3,0-0.3,0.1l-0.2,0.4c-0.1,0.1,0,0.3,0.1,0.3c0,0,0.1,0,0.1,0c0.1,0,0.2-0.1,0.2-0.1
		l0.2-0.4C97.9,80.8,97.8,80.7,97.7,80.6z"/>
	<path class="st0" d="M88.6,86.2C88.6,86.2,88.7,86.2,88.6,86.2c0.2-0.1,0.3-0.2,0.2-0.3l-0.1-0.4c0-0.1-0.2-0.2-0.3-0.2
		s-0.2,0.2-0.2,0.3l0.1,0.4C88.4,86.1,88.5,86.2,88.6,86.2z"/>
	<path class="st0" d="M89.7,80.9c0-0.1,0-0.3-0.2-0.3c-0.1,0-0.3,0-0.3,0.2l-0.2,0.5c0,0.1,0,0.3,0.2,0.3c0,0,0.1,0,0.1,0
		c0.1,0,0.2-0.1,0.2-0.2L89.7,80.9z"/>
	<path class="st0" d="M94.5,78.1c0.1,0,0.2-0.1,0.2-0.1c0.1-0.1,0-0.3-0.1-0.3l-0.2-0.1c-0.1-0.1-0.3,0-0.3,0.1
		c-0.1,0.1,0,0.3,0.1,0.3l0.2,0.1C94.5,78,94.5,78.1,94.5,78.1z"/>
	<path class="st0" d="M97.3,91.4C97.4,91.4,97.4,91.4,97.3,91.4l0.2-0.1c0.1,0,0.2-0.2,0.2-0.3s-0.2-0.2-0.3-0.2l-0.2,0
		c-0.1,0-0.2,0.2-0.2,0.3C97.1,91.4,97.2,91.4,97.3,91.4z"/>
	<path class="st0" d="M96.4,52.6c0.1,0,0.2-0.1,0.2-0.2v-0.3c0-0.1-0.1-0.2-0.2-0.2s-0.2,0.1-0.2,0.2v0.3
		C96.1,52.5,96.2,52.6,96.4,52.6z"/>
	<path class="st0" d="M98.6,50.2c0.1,0,0.2-0.1,0.2-0.2c0-0.1-0.1-0.3-0.2-0.3c-0.2,0-0.3-0.2-0.3-0.3c0-0.1-0.1-0.2-0.2-0.3h0
		c-0.1,0-0.2,0.1-0.2,0.2C97.9,49.8,98.2,50.1,98.6,50.2C98.6,50.2,98.6,50.2,98.6,50.2z"/>
	<path class="st0" d="M96.9,60.8c0-0.1-0.1-0.2-0.2-0.2h-0.4c-0.1,0-0.2,0.1-0.2,0.2s0.1,0.2,0.2,0.2h0.4
		C96.8,61,96.9,60.9,96.9,60.8z"/>
	<path class="st0" d="M95.4,46.7c0.1-0.1,0.1-0.3,0-0.3c-0.1-0.1-0.3-0.1-0.3,0l-0.2,0.2c-0.1,0.1-0.1,0.3,0,0.3
		c0.1,0,0.1,0.1,0.2,0.1c0.1,0,0.1,0,0.2-0.1L95.4,46.7z"/>
	<path class="st0" d="M99.4,43.6c0-0.1-0.2-0.2-0.3-0.2l-0.6,0.2c-0.1,0-0.2,0.2-0.2,0.3c0,0.1,0.1,0.2,0.2,0.2c0,0,0,0,0.1,0
		l0.6-0.2C99.4,43.9,99.5,43.8,99.4,43.6z"/>
	<path class="st0" d="M91.8,46.5c0.1,0,0.2-0.1,0.2-0.2v-0.2c0-0.1-0.1-0.2-0.2-0.2s-0.2,0.1-0.2,0.2v0.2
		C91.6,46.4,91.7,46.5,91.8,46.5z"/>
	<path class="st0" d="M91.1,53.8c-0.1,0-0.2,0.1-0.2,0.2v0.2c0,0.1,0.1,0.2,0.2,0.2s0.2-0.1,0.2-0.2V54
		C91.4,53.9,91.3,53.8,91.1,53.8z"/>
	<path class="st0" d="M92.3,57.7c-0.1,0-0.2,0.1-0.2,0.2v0.2c0,0.1,0.1,0.2,0.2,0.2s0.2-0.1,0.2-0.2v-0.2
		C92.6,57.8,92.4,57.7,92.3,57.7z"/>
	<path class="st0" d="M89.2,62.7c0.1,0,0.2-0.1,0.2-0.2v-0.2c0-0.1-0.1-0.2-0.2-0.2s-0.2,0.1-0.2,0.2v0.2
		C88.9,62.5,89,62.7,89.2,62.7z"/>
	<path class="st0" d="M96.3,38.1C96.3,38.1,96.3,38.1,96.3,38.1c0.1,0,0.2-0.1,0.3-0.2l0-0.5c0-0.1-0.1-0.2-0.2-0.3h0
		c-0.1,0-0.2,0.1-0.2,0.2l0,0.5C96,38,96.1,38.1,96.3,38.1z"/>
	<path class="st0" d="M87.3,54.2L87,53.7c-0.1-0.1-0.2-0.2-0.3-0.1c-0.1,0.1-0.2,0.2-0.1,0.3l0.3,0.5c0.1,0.1,0.1,0.1,0.2,0.1
		c0,0,0.1,0,0.1,0C87.3,54.5,87.4,54.3,87.3,54.2z"/>
	<path class="st0" d="M88.9,49.5c0.1-0.1,0-0.3-0.2-0.3c-0.1,0-0.3,0-0.3,0.2l-0.2,0.5c-0.1,0.1,0,0.3,0.2,0.3c0,0,0.1,0,0.1,0
		c0.1,0,0.2-0.1,0.2-0.2L88.9,49.5z"/>
	<path class="st0" d="M88.1,58.6c0.1,0,0.2,0,0.2-0.1l0.3-0.5c0.1-0.1,0.1-0.3-0.1-0.3c-0.1-0.1-0.3-0.1-0.3,0l-0.3,0.5
		c-0.1,0.1-0.1,0.3,0.1,0.3C88,58.5,88,58.6,88.1,58.6z"/>
	<path class="st0" d="M90.7,44.2l-0.2-0.5c0-0.1-0.2-0.2-0.3-0.2c-0.1,0-0.2,0.2-0.2,0.3l0.2,0.5c0,0.1,0.1,0.2,0.2,0.2
		c0,0,0.1,0,0.1,0C90.7,44.5,90.7,44.3,90.7,44.2z"/>
	<path class="st0" d="M91.5,42.1L91.5,42.1c0.1,0,0.1,0,0.1,0c0.1,0,0.2,0,0.2-0.1l0.2-0.3c0.1-0.1,0-0.3-0.1-0.3
		c-0.1-0.1-0.3,0-0.3,0.1l-0.2,0.3C91.4,41.9,91.4,42,91.5,42.1C91.5,42.1,91.5,42.1,91.5,42.1z"/>
	<path class="st0" d="M95,41.1c0.1,0,0.1,0,0.2-0.1l0.3-0.3c0.1-0.1,0.1-0.3,0-0.3s-0.3-0.1-0.3,0l-0.3,0.3c-0.1,0.1-0.1,0.3,0,0.3
		C94.8,41.1,94.9,41.1,95,41.1z"/>
	<path class="st0" d="M98,65.7c-0.1-0.1-0.3-0.1-0.3,0l-0.1,0.1l0,0c-0.1,0.1-0.1,0.2,0,0.3c0,0,0.1,0.1,0.2,0.1s0.2,0,0.2-0.1
		L98,66C98.1,65.9,98.1,65.8,98,65.7z"/>
	<path class="st0" d="M95.8,67.7c0,0,0.1,0,0.1,0c0.1,0,0.2-0.1,0.2-0.1c0.1-0.1,0-0.3-0.1-0.3l-0.3-0.2c-0.1-0.1-0.3,0-0.3,0.1
		c-0.1,0.1,0,0.3,0.1,0.3L95.8,67.7z"/>
	<path class="st0" d="M93.8,65.1V65c0-0.1-0.1-0.2-0.2-0.2s-0.2,0.1-0.2,0.2v0.2c0,0.1,0.1,0.2,0.2,0.2S93.8,65.2,93.8,65.1z"/>
	<path class="st0" d="M88.3,67.1c0-0.1-0.1-0.2-0.2-0.2h-0.5c-0.1,0-0.2,0.1-0.2,0.2s0.1,0.2,0.2,0.2H88
		C88.2,67.3,88.3,67.2,88.3,67.1z"/>
	<path class="st0" d="M94.1,30.1l0.5,0.2c0,0,0.1,0,0.1,0c0.1,0,0.2,0,0.2-0.1c0.1-0.1,0.1-0.2,0-0.3c-0.2-0.2-0.4-0.3-0.7-0.3
		c-0.2,0-0.2,0.1-0.3,0.2l0,0C94,29.9,94,30,94.1,30.1z"/>
	<path class="st0" d="M90.2,71.8c0.1,0,0.2,0,0.2-0.1c0,0,0,0,0,0c0.1-0.1,0.1-0.2,0-0.3l-0.3-0.5c-0.1-0.1-0.2-0.2-0.3-0.1
		s-0.2,0.1-0.2,0.3c0,0.3,0.2,0.5,0.4,0.7C90.1,71.8,90.2,71.8,90.2,71.8z"/>
	<path class="st0" d="M97.2,32c0.1,0,0.2,0,0.2-0.1c0.1-0.1,0-0.3-0.1-0.3l-0.3-0.2c-0.1-0.1-0.3,0-0.3,0.1s0,0.3,0.1,0.3l0.3,0.2
		C97.2,32,97.2,32,97.2,32z"/>
	<path class="st0" d="M85.2,42.2c-0.1,0-0.2,0.1-0.2,0.2v0.5c0,0.1,0.1,0.2,0.2,0.2s0.2-0.1,0.2-0.2v-0.5
		C85.5,42.3,85.4,42.2,85.2,42.2z"/>
	<path class="st0" d="M88.3,39.2L88,39.6c-0.1,0.1-0.1,0.3,0.1,0.3c0,0,0.1,0,0.1,0c0.1,0,0.2,0,0.2-0.1l0.3-0.5
		c0.1-0.1,0-0.3-0.1-0.3C88.5,39,88.3,39,88.3,39.2z"/>
	<path class="st0" d="M92.8,36.5c-0.1,0.1-0.1,0.3,0,0.3L93,37c0.1,0,0.1,0.1,0.2,0.1c0.1,0,0.1,0,0.2-0.1c0.1-0.1,0.1-0.3,0-0.3
		l-0.2-0.2C93.1,36.4,92.9,36.4,92.8,36.5z"/>
	<path class="st0" d="M100,35.4C100,35.4,100,35.3,100,35.4l-0.1,0c-0.1,0-0.2,0.1-0.2,0.2s0.1,0.2,0.2,0.2h0.1c0,0,0,0,0.1,0V35.4z
		"/>
	<path class="st0" d="M97.2,72.3v0.3c0,0.1,0.1,0.2,0.2,0.2s0.2-0.1,0.2-0.2v-0.3c0-0.1-0.1-0.2-0.2-0.2
		C97.3,72.1,97.2,72.2,97.2,72.3z"/>
	<path class="st0" d="M89,76c0,0,0.1,0,0.1,0c0.3-0.1,0.4-0.4,0.4-0.7c0-0.1-0.1-0.2-0.2-0.2l0,0c-0.1,0-0.2,0.1-0.2,0.2
		c0,0.1-0.1,0.2-0.2,0.2c-0.1,0.1-0.2,0.2-0.1,0.3C88.8,75.9,88.9,76,89,76z"/>
	<path class="st0" d="M95,73.6c0-0.1,0.1-0.3,0.2-0.3c0.1-0.1,0.2-0.2,0.1-0.3c-0.1-0.1-0.2-0.2-0.3-0.1c-0.3,0.2-0.5,0.5-0.4,0.8
		c0,0.1,0.1,0.2,0.2,0.2c0,0,0,0,0,0C94.9,73.9,95,73.8,95,73.6z"/>
	<path class="st0" d="M97.8,75.7c-0.1-0.1-0.3,0-0.3,0.1l-0.2,0.3c-0.1,0.1,0,0.3,0.1,0.3c0,0,0.1,0,0.1,0c0.1,0,0.2-0.1,0.2-0.1
		l0.2-0.3C98,75.9,97.9,75.7,97.8,75.7z"/>
	<path class="st0" d="M81.2,65c0.1,0,0.2-0.1,0.2-0.1l0.2-0.3c0.1-0.1,0-0.3-0.1-0.3c-0.1-0.1-0.3,0-0.3,0.1l-0.2,0.3
		c-0.1,0.1,0,0.3,0.1,0.3C81.1,65,81.1,65,81.2,65z"/>
	<path class="st0" d="M84.4,82.8c-0.1-0.1-0.3,0-0.3,0.1l-0.3,0.6c-0.1,0.1,0,0.3,0.1,0.3c0,0,0.1,0,0.1,0c0.1,0,0.2-0.1,0.2-0.1
		l0.3-0.6C84.5,83,84.5,82.9,84.4,82.8z"/>
	<path class="st0" d="M85.3,78.3c-0.1,0-0.2,0.1-0.2,0.2v0.3c0,0.1,0.1,0.2,0.2,0.2s0.2-0.1,0.2-0.2v-0.3
		C85.5,78.4,85.4,78.3,85.3,78.3z"/>
	<path class="st0" d="M84.7,74l0.3-0.3c0.1-0.1,0.1-0.2,0-0.3c-0.1-0.1-0.2-0.1-0.3,0l-0.3,0.3c-0.1,0.1-0.1,0.2,0,0.3
		c0.1,0.1,0.1,0.1,0.2,0.1C84.6,74.1,84.6,74.1,84.7,74z"/>
	<path class="st0" d="M83,77.6c-0.1-0.1-0.3-0.1-0.3,0.1l-0.3,0.4c-0.1,0.1-0.1,0.3,0.1,0.3c0,0,0.1,0,0.1,0c0.1,0,0.2,0,0.2-0.1
		l0.3-0.4C83.1,77.8,83.1,77.7,83,77.6z"/>
	<path class="st0" d="M76.3,62.1c0.1,0,0.2-0.1,0.2-0.2c0.1-0.1,0-0.3-0.2-0.3l-0.6-0.2c-0.1,0-0.3,0-0.3,0.2s0,0.3,0.2,0.3
		L76.3,62.1C76.3,62.1,76.3,62.1,76.3,62.1z"/>
	<path class="st0" d="M74.2,57.2l-0.4,0.1c-0.1,0-0.2,0.2-0.2,0.3c0,0.1,0.1,0.2,0.2,0.2c0,0,0,0,0.1,0l0.4-0.1
		c0.1,0,0.2-0.2,0.2-0.3C74.5,57.2,74.3,57.2,74.2,57.2z"/>
	<path class="st0" d="M80.6,58.7c0-0.1-0.2-0.2-0.3-0.2l-0.6,0.1c-0.1,0-0.2,0.2-0.2,0.3c0,0.1,0.1,0.2,0.2,0.2c0,0,0,0,0.1,0
		l0.6-0.1C80.5,58.9,80.6,58.8,80.6,58.7z"/>
	<path class="st0" d="M85.8,48.4l0.2,0c0,0,0,0,0,0c0.1,0,0.2-0.1,0.2-0.2c0-0.1-0.1-0.3-0.2-0.3l-0.2,0c-0.1,0-0.3,0.1-0.3,0.2
		C85.6,48.3,85.7,48.4,85.8,48.4z"/>
	<path class="st0" d="M83.5,48C83.6,48,83.6,48,83.5,48c0.2,0,0.3-0.2,0.2-0.3l-0.1-0.3c0-0.1-0.2-0.2-0.3-0.2
		c-0.1,0-0.2,0.2-0.2,0.3l0.1,0.3C83.3,47.9,83.4,48,83.5,48z"/>
	<path class="st0" d="M83.4,60.7c-0.1,0.1-0.1,0.2,0,0.3c0.1,0.1,0.1,0.1,0.2,0.1c0.1,0,0.1,0,0.2-0.1l0.2-0.2
		c0.1-0.1,0.1-0.2,0-0.3c-0.1-0.1-0.2-0.1-0.3,0L83.4,60.7z"/>
	<path class="st0" d="M80.9,52.1c0.1-0.1,0.1-0.2,0-0.3c-0.1-0.1-0.2-0.1-0.3,0l-0.2,0.2c-0.1,0.1-0.1,0.2,0,0.3
		c0.1,0.1,0.1,0.1,0.2,0.1c0.1,0,0.1,0,0.2-0.1L80.9,52.1z"/>
	<path class="st0" d="M83.3,69.2l0.4,0.1c0,0,0,0,0,0c0.1,0,0.2-0.1,0.2-0.2c0-0.1-0.1-0.3-0.2-0.3l-0.4-0.1c-0.1,0-0.3,0.1-0.3,0.2
		C83.1,69.1,83.2,69.2,83.3,69.2z"/>
	<path class="st0" d="M77.8,54.8C77.8,54.8,77.9,54.8,77.8,54.8l0.4-0.1c0.1,0,0.2-0.2,0.2-0.3c0-0.1-0.2-0.2-0.3-0.2l-0.3,0.1
		c-0.1,0-0.2,0.2-0.2,0.3C77.6,54.7,77.7,54.8,77.8,54.8z"/>
	<path class="st0" d="M83.7,54.3c0-0.1-0.1-0.3-0.3-0.2l-0.5,0c-0.1,0-0.2,0.1-0.2,0.3c0,0.1,0.1,0.2,0.2,0.2c0,0,0,0,0,0l0.5,0
		C83.6,54.5,83.8,54.4,83.7,54.3z"/>
	<path class="st0" d="M93.2,70.2c0.1,0,0.2-0.1,0.2-0.2s-0.1-0.2-0.2-0.2h-0.2c-0.1,0-0.2,0.1-0.2,0.2s0.1,0.2,0.2,0.2H93.2z"/>
	<path class="st0" d="M99.9,59.4C99.9,59.5,100,59.5,99.9,59.4L100,59l-0.1,0.1C99.8,59.2,99.8,59.3,99.9,59.4z"/>
	<path class="st0" d="M95.5,56.4v0.2c0,0.1,0.1,0.2,0.2,0.2s0.2-0.1,0.2-0.2v-0.2c0-0.1-0.1-0.2-0.2-0.2S95.5,56.3,95.5,56.4z"/>
	<path class="st0" d="M92.8,62.1C92.8,62.1,92.9,62.1,92.8,62.1c0.2,0,0.2-0.1,0.3-0.2c0.1,0.1,0.3,0,0.3-0.1c0.1-0.1,0-0.3-0.1-0.3
		s-0.3-0.1-0.4,0c-0.1,0.1-0.2,0.2-0.2,0.3C92.6,61.9,92.7,62,92.8,62.1z"/>
	<path class="st0" d="M91.9,51.4H92c0.1,0,0.2-0.1,0.2-0.2s-0.1-0.2-0.2-0.2h-0.2c-0.1,0-0.2,0.1-0.2,0.2S91.7,51.4,91.9,51.4z"/>
	<path class="st0" d="M4.2,42.4c0,0,0.1,0,0.1,0c0.1,0,0.2,0,0.2-0.1c0.1-0.1,0-0.3-0.1-0.3c0,0-0.1-0.1,0-0.1
		c0.1-0.1,0-0.3-0.1-0.3c-0.1-0.1-0.3,0-0.3,0.1C3.8,41.9,3.9,42.3,4.2,42.4z"/>
	<path class="st0" d="M11,59c-0.1-0.1-0.3,0-0.4,0.1l-0.3,0.4c-0.1,0.1-0.1,0.3,0.1,0.3c0,0,0.1,0,0.1,0c0.1,0,0.2,0,0.2-0.1
		l0.3-0.4C11.1,59.3,11.1,59.1,11,59z"/>
	<path class="st0" d="M30.6,46.4C30.7,46.4,30.7,46.4,30.6,46.4c0.2,0,0.3-0.2,0.2-0.3l-0.1-0.3c0-0.1-0.2-0.2-0.3-0.2
		s-0.2,0.2-0.2,0.3l0.1,0.3C30.4,46.3,30.5,46.4,30.6,46.4z"/>
	<path class="st0" d="M32.1,43.5c0.1,0,0.2-0.1,0.2-0.3S32.3,43,32.1,43c-0.2,0-0.3-0.1-0.4-0.3c0-0.1-0.2-0.2-0.3-0.2
		s-0.2,0.2-0.2,0.3C31.4,43.2,31.7,43.5,32.1,43.5C32.1,43.5,32.1,43.5,32.1,43.5z"/>
	<path class="st0" d="M35.1,40.3C35.1,40.3,35.1,40.3,35.1,40.3c0.2,0,0.3-0.1,0.3-0.2l0.1-0.7c0-0.1-0.1-0.3-0.2-0.3c0,0,0,0,0,0
		c-0.1,0-0.3,0.1-0.3,0.2L34.9,40C34.8,40.2,34.9,40.3,35.1,40.3z"/>
	<path class="st0" d="M39.2,36.5c-0.1,0-0.2,0.2-0.2,0.3l0,0.1c0,0.1,0.1,0.2,0.2,0.2c0,0,0,0,0.1,0c0.1,0,0.2-0.2,0.2-0.3l0-0.1
		C39.5,36.6,39.4,36.5,39.2,36.5z"/>
	<path class="st0" d="M36,48.2c0-0.1-0.2-0.2-0.3-0.2l-0.1,0c-0.1,0-0.2,0.2-0.2,0.3c0,0.1,0.1,0.2,0.2,0.2c0,0,0,0,0.1,0l0.1,0
		C36,48.5,36,48.3,36,48.2z"/>
	<path class="st0" d="M32.8,54.5C32.9,54.5,32.9,54.5,32.8,54.5l0.5-0.1c0.1,0,0.2-0.2,0.2-0.3s-0.2-0.2-0.3-0.2L32.8,54
		c-0.1,0-0.2,0.2-0.2,0.3C32.6,54.4,32.7,54.5,32.8,54.5z"/>
	<path class="st0" d="M40.4,50.1c0.1,0,0.2-0.1,0.2-0.2c0,0,0,0,0-0.1c0-0.1-0.2-0.2-0.3-0.2l-0.1,0c-0.1,0-0.2,0.1-0.2,0.2
		c0,0,0,0,0,0.1c0,0.1,0.1,0.2,0.2,0.2C40.2,50.2,40.3,50.2,40.4,50.1L40.4,50.1z"/>
	<path class="st0" d="M39,43c0.1,0,0.2,0,0.2-0.1l0.1-0.2c0.1-0.1,0-0.3-0.1-0.3s-0.3,0-0.3,0.1l-0.1,0.2c-0.1,0.1,0,0.3,0.1,0.3
		C38.9,43,39,43,39,43z"/>
	<path class="st0" d="M44.9,41.7C44.9,41.7,44.9,41.7,44.9,41.7l0.5-0.1c0.1,0,0.2-0.2,0.2-0.3S45.3,41,45.2,41l-0.4,0.1
		c-0.1,0-0.2,0.2-0.2,0.3C44.7,41.6,44.8,41.7,44.9,41.7z"/>
	<path class="st0" d="M44.1,47.2c0.1,0,0.2,0,0.2-0.1l0.1-0.2L44,46.6l-0.1,0.2c-0.1,0.1,0,0.3,0.1,0.3C44,47.2,44.1,47.2,44.1,47.2
		z"/>
	<path class="st0" d="M35.6,45.9C35.7,45.9,35.7,45.9,35.6,45.9c0.2,0,0.3-0.2,0.2-0.3l0-0.2l-0.2,0.1l-0.2,0.1l0,0.1
		C35.4,45.8,35.5,45.9,35.6,45.9z"/>
	<path class="st0" d="M27.7,41.5l-0.1,0.2c-0.1,0.1,0,0.3,0.1,0.3c0,0,0.1,0,0.1,0c0.1,0,0.2,0,0.2-0.1l0.1-0.2
		c0.1-0.1,0-0.3-0.1-0.3C27.9,41.4,27.8,41.4,27.7,41.5z"/>
	<path class="st0" d="M31.2,36.9c-0.1-0.1-0.2-0.2-0.3-0.1l-0.5,0.3c-0.1,0.1-0.2,0.2-0.1,0.3c0,0.1,0.1,0.1,0.2,0.1
		c0,0,0.1,0,0.1,0l0.5-0.3C31.2,37.2,31.2,37,31.2,36.9z"/>
	<path class="st0" d="M24.4,41.9c-0.1,0-0.2,0.2-0.2,0.3l0,0.1c0,0.1,0.1,0.2,0.2,0.2c0,0,0,0,0.1,0c0.1,0,0.2-0.2,0.2-0.3l0-0.1
		C24.7,42,24.6,41.9,24.4,41.9z"/>
	<path class="st0" d="M24.4,50C24.4,50,24.4,50,24.4,50c0.2,0,0.3-0.2,0.2-0.3l0-0.1c0-0.1-0.2-0.2-0.3-0.2s-0.2,0.2-0.2,0.3l0,0.1
		C24.2,49.9,24.3,50,24.4,50z"/>
	<path class="st0" d="M28.6,52.7l0-0.1c0-0.1-0.2-0.2-0.3-0.2s-0.2,0.2-0.2,0.3l0,0.2c0,0.1,0.1,0.2,0.2,0.2c0,0,0,0,0.1,0
		C28.5,53,28.6,52.8,28.6,52.7z"/>
	<path class="st0" d="M26.3,57.8L26.3,57.8c0.1,0.2,0.2,0.3,0.3,0.3c0,0,0,0,0.1,0c0.1,0,0.2-0.2,0.2-0.3l0-0.1l0,0
		c0-0.1-0.2-0.2-0.3-0.2C26.3,57.5,26.2,57.6,26.3,57.8z"/>
	<path class="st0" d="M23.1,61.2C23.1,61.2,23.1,61.2,23.1,61.2c0.2,0,0.3-0.2,0.2-0.3l-0.1-0.4c0-0.1-0.2-0.2-0.3-0.2
		s-0.2,0.2-0.2,0.3l0.1,0.4C22.9,61.2,23,61.2,23.1,61.2z"/>
	<path class="st0" d="M21.5,53c0.1-0.1,0.1-0.3,0-0.3L21,52.3c-0.1-0.1-0.3-0.1-0.4,0c-0.1,0.1-0.1,0.3,0,0.3l0.5,0.4
		c0,0,0.1,0.1,0.2,0.1C21.4,53.1,21.4,53.1,21.5,53z"/>
	<path class="st0" d="M22.4,46.6c0.1,0,0.2-0.1,0.2-0.2l0-0.5c0-0.1-0.1-0.3-0.2-0.3s-0.3,0.1-0.3,0.2l0,0.5
		C22.1,46.5,22.2,46.6,22.4,46.6C22.4,46.6,22.4,46.6,22.4,46.6z"/>
	<path class="st0" d="M24.3,54.4C24.3,54.4,24.3,54.4,24.3,54.4c0.2,0,0.3-0.1,0.3-0.2l0.2-0.6c0-0.1,0-0.3-0.1-0.3
		c-0.1,0-0.3,0-0.3,0.2l-0.2,0.6C24.1,54.2,24.1,54.3,24.3,54.4z"/>
	<path class="st0" d="M22.8,41c0.1-0.1,0.1-0.2,0.1-0.3l-0.3-0.4c-0.1-0.1-0.2-0.1-0.4-0.1c-0.1,0.1-0.1,0.2-0.1,0.3l0.3,0.4
		c0,0.1,0.1,0.1,0.2,0.1C22.7,41.1,22.8,41.1,22.8,41z"/>
	<path class="st0" d="M23.4,38.2l0.1-0.4c0-0.1,0-0.3-0.2-0.3s-0.3,0-0.3,0.2l-0.1,0.4c0,0.1,0,0.3,0.2,0.3h0h0c0,0,0,0,0.1,0
		C23.3,38.4,23.4,38.4,23.4,38.2z"/>
	<path class="st0" d="M26.1,36.5c0.1,0,0.2,0,0.2-0.1l0.2-0.4c0.1-0.1,0-0.3-0.1-0.3c-0.1-0.1-0.3,0-0.3,0.1l-0.2,0.4
		c-0.1,0.1,0,0.3,0.1,0.3C26,36.5,26,36.5,26.1,36.5z"/>
	<path class="st0" d="M40.2,33.2c0.1,0,0.2,0,0.2-0.1l0.2-0.4c0.1-0.1,0-0.3-0.1-0.3c-0.1-0.1-0.3,0-0.3,0.1l-0.2,0.4
		c-0.1,0.1,0,0.3,0.1,0.3C40.1,33.2,40.1,33.2,40.2,33.2z"/>
	<path class="st0" d="M31.2,31.8c-0.1-0.1-0.3,0-0.3,0.1l-0.3,0.6c-0.1,0.1,0,0.3,0.1,0.3c0,0,0.1,0,0.1,0c0.1,0,0.2,0,0.2-0.1
		l0.3-0.6C31.3,32,31.3,31.8,31.2,31.8z"/>
	<path class="st0" d="M37.2,31.7c-0.1,0-0.3,0-0.3,0.1c-0.1,0.1,0,0.3,0.1,0.4c0,0,0.1,0,0.1,0c0.1,0,0.2,0,0.2-0.1
		c0.1-0.1,0.1-0.2,0-0.3C37.4,31.8,37.3,31.7,37.2,31.7z"/>
	<path class="st0" d="M25.2,27.9c0.1,0,0.2,0,0.2-0.1c0.1-0.1,0.1-0.2,0-0.3c0-0.1-0.1-0.2-0.2-0.2c-0.1,0-0.3,0-0.3,0.1
		c-0.1,0.1,0,0.3,0.1,0.4C25.1,27.9,25.1,27.9,25.2,27.9z"/>
	<path class="st0" d="M12.8,39.2c0.1,0,0.2,0,0.2-0.1c0.1-0.1,0.1-0.2,0-0.3c0-0.1-0.1-0.2-0.2-0.2c-0.1,0-0.3,0-0.3,0.2
		c-0.1,0.1,0,0.3,0.1,0.4C12.7,39.2,12.8,39.2,12.8,39.2z"/>
	<path class="st0" d="M44.7,36.4l0.3-0.1c0.1,0,0.2-0.2,0.2-0.3s-0.2-0.2-0.3-0.2l-0.3,0.1c-0.1,0-0.2,0.2-0.2,0.3
		C44.4,36.4,44.5,36.4,44.7,36.4C44.6,36.4,44.6,36.4,44.7,36.4z"/>
	<path class="st0" d="M51.1,37.9c0,0,0.1,0,0.1,0c0.1,0,0.2,0,0.2-0.1c0.1-0.1,0-0.3-0.1-0.3l-0.2-0.1c-0.1-0.1-0.3,0-0.3,0.1
		s0,0.3,0.1,0.3L51.1,37.9z"/>
	<path class="st0" d="M48.2,42.3C48.2,42.3,48.2,42.3,48.2,42.3l0.2,0c0.1,0,0.2-0.2,0.2-0.3s-0.2-0.2-0.3-0.2l-0.1,0
		c-0.1,0-0.2,0.2-0.2,0.3C47.9,42.2,48,42.3,48.2,42.3z"/>
	<path class="st0" d="M48.7,51.7c0-0.1-0.2-0.2-0.3-0.2l-0.3,0.1c-0.1,0-0.2,0.2-0.2,0.3c0,0.1,0.1,0.2,0.2,0.2c0,0,0,0,0.1,0
		l0.3-0.1C48.7,51.9,48.8,51.8,48.7,51.7z"/>
	<path class="st0" d="M42.6,57.1C42.6,57.1,42.6,57.1,42.6,57.1c0.2,0,0.3-0.1,0.3-0.2c0-0.1,0-0.3-0.2-0.3c0,0-0.1-0.1-0.1-0.1
		c0-0.1-0.1-0.3-0.2-0.3c-0.1,0-0.3,0.1-0.3,0.2C42.1,56.7,42.3,57,42.6,57.1z"/>
	<path class="st0" d="M39.5,54.8C39.5,54.8,39.5,54.8,39.5,54.8l0.2,0c0.1,0,0.2-0.2,0.2-0.3s-0.2-0.2-0.3-0.2l-0.1,0
		c-0.1,0-0.2,0.2-0.2,0.3C39.3,54.7,39.4,54.8,39.5,54.8z"/>
	<path class="st0" d="M35.5,58.8c-0.1,0.1,0,0.3,0.1,0.3c0,0,0.1,0,0.1,0c0.1,0,0.2,0,0.2-0.1l0.1-0.2c0.1-0.1,0-0.3-0.1-0.3
		s-0.3,0-0.3,0.1L35.5,58.8z"/>
	<path class="st0" d="M34.5,60.6l-0.3-0.1c-0.1,0-0.3,0.1-0.3,0.2c0,0.1,0.1,0.3,0.2,0.3l0.3,0.1c0,0,0,0,0,0c0.1,0,0.2-0.1,0.2-0.2
		C34.7,60.7,34.6,60.6,34.5,60.6z"/>
	<path class="st0" d="M31.7,59c0-0.1-0.2-0.2-0.3-0.2s-0.2,0.2-0.2,0.3l0,0.1c0,0.1,0.1,0.2,0.2,0.2c0,0,0,0,0.1,0
		c0.1,0,0.2-0.2,0.2-0.3L31.7,59z"/>
	<path class="st0" d="M26.1,62.8c0,0.1,0.1,0.2,0.2,0.2c0,0,0,0,0.1,0l0.4-0.1c0.1,0,0.2-0.2,0.2-0.3c0-0.1-0.2-0.2-0.3-0.2
		l-0.4,0.1C26.1,62.5,26,62.6,26.1,62.8z"/>
	<path class="st0" d="M27.1,66.7c0.1,0,0.2-0.2,0.2-0.3c0-0.1-0.1-0.2-0.2-0.2l-0.5-0.1c-0.1,0-0.2,0.1-0.3,0.2s0,0.2,0.1,0.3
		c0.1,0.1,0.3,0.1,0.5,0.1C26.9,66.7,27,66.7,27.1,66.7z"/>
	<path class="st0" d="M30,66.5C30.1,66.5,30.1,66.5,30,66.5c0.2,0,0.3,0,0.3-0.1c0-0.1,0-0.2-0.1-0.3l-0.4-0.4
		c-0.1-0.1-0.2-0.1-0.3,0c-0.1,0.1-0.1,0.2-0.1,0.3C29.6,66.2,29.8,66.4,30,66.5z"/>
	<path class="st0" d="M23.3,65.2c0.1,0,0.2-0.1,0.2-0.2c0-0.1-0.1-0.3-0.2-0.3L23,64.7c-0.1,0-0.3,0.1-0.3,0.2
		c0,0.1,0.1,0.3,0.2,0.3L23.3,65.2C23.3,65.2,23.3,65.2,23.3,65.2z"/>
	<path class="st0" d="M17.4,41.2c0.1,0,0.2-0.2,0.2-0.3l-0.1-0.4c0-0.1-0.2-0.2-0.3-0.2s-0.2,0.2-0.2,0.3l0.1,0.4
		C17.1,41.2,17.2,41.2,17.4,41.2C17.3,41.2,17.3,41.2,17.4,41.2z"/>
	<path class="st0" d="M17.9,36.7C17.9,36.7,18,36.7,17.9,36.7c0.2,0,0.3-0.1,0.3-0.2l0.2-0.5c0-0.1,0-0.3-0.2-0.3s-0.3,0-0.3,0.2
		l-0.2,0.5C17.7,36.5,17.8,36.6,17.9,36.7z"/>
	<path class="st0" d="M23.1,33.1c0,0,0.1,0,0.1,0c0.1,0,0.2,0,0.2-0.1c0.1-0.1,0-0.3-0.1-0.3l-0.2-0.1c-0.1-0.1-0.3,0-0.3,0.1
		s0,0.3,0.1,0.3L23.1,33.1z"/>
	<path class="st0" d="M28.4,30.8C28.4,30.8,28.4,30.7,28.4,30.8c-0.1-0.2-0.2-0.3-0.3-0.2l-0.1,0c-0.1,0-0.2,0.1-0.2,0.2
		c0,0,0,0,0,0.1c0,0.1,0.1,0.2,0.2,0.2c0,0,0,0,0.1,0l0.1,0C28.4,31,28.4,30.9,28.4,30.8z"/>
	<path class="st0" d="M13.4,33.9l-0.1,0c-0.1,0-0.2,0.2-0.2,0.3c0,0.1,0.1,0.2,0.2,0.2c0,0,0.1,0,0.1,0l0.1,0c0.1,0,0.2-0.2,0.2-0.3
		C13.7,34,13.6,33.9,13.4,33.9z"/>
	<path class="st0" d="M47.6,32C47.7,32,47.7,32,47.6,32c0.2-0.1,0.3-0.2,0.2-0.3l0-0.1c0-0.1-0.2-0.2-0.3-0.2
		c-0.1,0-0.2,0.2-0.2,0.3l0,0.1C47.4,31.9,47.5,32,47.6,32z"/>
	<path class="st0" d="M52.3,42.1l0.1-0.2c0.1-0.1,0-0.3-0.1-0.3s-0.3,0-0.3,0.1l-0.1,0.2c-0.1,0.1,0,0.3,0.1,0.3c0,0,0.1,0,0.1,0
		C52.1,42.2,52.2,42.2,52.3,42.1z"/>
	<path class="st0" d="M48.6,47C48.6,47,48.6,47,48.6,47l0.2,0c0.1,0,0.2-0.2,0.2-0.3s-0.2-0.2-0.3-0.2l-0.1,0
		c-0.1,0-0.2,0.2-0.2,0.3C48.4,46.9,48.5,47,48.6,47z"/>
	<path class="st0" d="M43.7,52.6C43.7,52.6,43.7,52.6,43.7,52.6c0.2,0,0.3-0.2,0.2-0.3l0-0.1c0-0.1-0.2-0.2-0.3-0.2
		s-0.2,0.2-0.2,0.3l0,0.1C43.5,52.5,43.6,52.6,43.7,52.6z"/>
	<path class="st0" d="M46.5,56.2c0.1-0.1,0-0.3-0.1-0.3l-0.2-0.1c-0.1-0.1-0.3,0-0.3,0.1c-0.1,0.1,0,0.3,0.1,0.3l0.2,0.1
		c0,0,0.1,0,0.1,0C46.4,56.4,46.5,56.3,46.5,56.2z"/>
	<path class="st0" d="M44.3,61.5C44.3,61.5,44.3,61.5,44.3,61.5c0.2,0,0.3-0.2,0.2-0.3l-0.1-0.3c0-0.1-0.2-0.2-0.3-0.2
		s-0.2,0.2-0.2,0.3l0.1,0.3C44.1,61.4,44.2,61.5,44.3,61.5z"/>
	<path class="st0" d="M37.5,65.2l-0.1-0.3c0-0.1-0.2-0.2-0.3-0.2s-0.2,0.2-0.2,0.3l0.1,0.3c0,0.1,0.1,0.2,0.2,0.2c0,0,0,0,0.1,0
		C37.5,65.5,37.6,65.3,37.5,65.2z"/>
	<path class="st0" d="M39.4,61.5c0.1,0,0.2,0,0.2-0.1l0.2-0.4c0.1-0.1,0-0.3-0.1-0.3s-0.3,0-0.3,0.1l-0.2,0.4
		c-0.1,0.1,0,0.3,0.1,0.3C39.3,61.5,39.3,61.5,39.4,61.5z"/>
	<path class="st0" d="M30.5,70.1c0-0.1-0.2-0.2-0.3-0.2S30,70.1,30,70.2c0,0.1,0,0.2-0.1,0.3c-0.1,0.1-0.1,0.2,0,0.3
		c0,0.1,0.1,0.1,0.2,0.1c0.1,0,0.1,0,0.2-0.1C30.5,70.6,30.6,70.3,30.5,70.1z"/>
	<path class="st0" d="M34.5,67.8c-0.1-0.1-0.3-0.1-0.3,0c-0.2,0.2-0.3,0.6-0.2,0.9c0,0.1,0.1,0.2,0.2,0.2c0,0,0.1,0,0.1,0
		c0.1-0.1,0.2-0.2,0.1-0.3c0-0.1,0-0.3,0.1-0.4C34.6,68,34.6,67.9,34.5,67.8z"/>
	<path class="st0" d="M38.5,68.1c-0.1,0-0.3,0.1-0.3,0.2l-0.1,0.3c0,0.1,0.1,0.3,0.2,0.3c0,0,0,0,0,0c0.1,0,0.2-0.1,0.2-0.2l0.1-0.3
		C38.8,68.3,38.7,68.1,38.5,68.1z"/>
	<path class="st0" d="M41.3,66.3C41.4,66.3,41.4,66.3,41.3,66.3c0.2,0,0.3-0.1,0.3-0.2l0.2-0.5c0-0.1,0-0.3-0.2-0.3
		c-0.1,0-0.3,0-0.3,0.2L41.2,66C41.1,66.1,41.2,66.2,41.3,66.3z"/>
	<path class="st0" d="M45.5,65.9C45.5,65.9,45.5,65.9,45.5,65.9c0.2,0,0.3-0.1,0.3-0.2l0.1-0.3c0-0.1-0.1-0.3-0.2-0.3
		c-0.1,0-0.3,0.1-0.3,0.2l-0.1,0.3C45.2,65.8,45.3,65.9,45.5,65.9z"/>
	<path class="st0" d="M49.2,61.2c0-0.1-0.2-0.2-0.3-0.2s-0.2,0.2-0.2,0.3l0.1,0.3c0,0.1,0.1,0.2,0.2,0.2c0,0,0,0,0.1,0
		c0.1,0,0.2-0.2,0.2-0.3L49.2,61.2z"/>
	<path class="st0" d="M51.4,55.7C51.4,55.7,51.4,55.7,51.4,55.7c0.2,0,0.3-0.1,0.3-0.2l0.1-0.3c0-0.1-0.1-0.3-0.2-0.3
		c-0.1,0-0.3,0.1-0.3,0.2l-0.1,0.3C51.1,55.5,51.2,55.6,51.4,55.7z"/>
	<path class="st0" d="M56.3,40.5L56.3,40.5c0.2,0,0.2-0.1,0.2-0.3l0-0.6c0-0.1-0.1-0.3-0.3-0.2c-0.1,0-0.2,0.1-0.2,0.3l0,0.6
		C56.1,40.5,56.2,40.5,56.3,40.5z"/>
	<path class="st0" d="M53.5,48.3C53.5,48.3,53.6,48.3,53.5,48.3c0.2,0,0.3-0.2,0.2-0.3l0-0.1c0-0.1-0.2-0.2-0.3-0.2
		s-0.2,0.2-0.2,0.3l0,0.1C53.3,48.3,53.4,48.3,53.5,48.3z"/>
	<path class="st0" d="M56.4,45C56.5,45,56.5,45,56.4,45c0.2,0,0.3-0.2,0.2-0.3l-0.1-0.3c0-0.1-0.2-0.2-0.3-0.2s-0.2,0.2-0.2,0.3
		l0.1,0.3C56.2,44.9,56.3,45,56.4,45z"/>
	<path class="st0" d="M32.4,64.2C32.4,64.2,32.4,64.2,32.4,64.2l0.2-0.1c0.1,0,0.2-0.2,0.2-0.3s-0.2-0.2-0.3-0.2l-0.1,0
		c-0.1,0-0.2,0.2-0.2,0.3C32.2,64.1,32.3,64.2,32.4,64.2z"/>
	<path class="st0" d="M36.4,51.8l0.1-0.2c0.1-0.1,0-0.3-0.1-0.3s-0.3,0-0.3,0.1l-0.1,0.2c-0.1,0.1,0,0.3,0.1,0.3c0,0,0.1,0,0.1,0
		C36.2,52,36.3,51.9,36.4,51.8z"/>
	<path class="st0" d="M31.2,50.6C31.3,50.6,31.3,50.6,31.2,50.6c0.2,0,0.3-0.2,0.2-0.3l0-0.1c0-0.1-0.2-0.2-0.3-0.2
		s-0.2,0.2-0.2,0.3l0,0.1C31,50.5,31.1,50.6,31.2,50.6z"/>
	<path class="st0" d="M28.6,49.1c0-0.1-0.2-0.2-0.3-0.2c-0.1,0-0.2,0.2-0.2,0.3l0,0.1c0,0.1,0.1,0.2,0.2,0.2c0,0,0,0,0.1,0
		c0.1,0,0.2-0.2,0.2-0.3L28.6,49.1z"/>
	<path class="st0" d="M29.9,55.8c-0.1,0.1-0.2,0.2-0.2,0.4s0.1,0.3,0.2,0.3h0c0.1,0,0.2-0.1,0.2-0.2c0.1,0,0.3-0.1,0.3-0.2
		c0-0.1-0.1-0.3-0.2-0.3C30.1,55.7,30,55.7,29.9,55.8z"/>
	<path class="st0" d="M79.9,44.5l0.2,0c0,0,0.1,0,0.1,0c0.1,0,0.2-0.1,0.2-0.2c0-0.1,0-0.3-0.2-0.3l-0.1,0c-0.1,0-0.3,0-0.3,0.2
		C79.7,44.3,79.8,44.5,79.9,44.5z"/>
	<path class="st0" d="M82.7,39.1c-0.1,0-0.3,0-0.3,0.2l-0.1,0.3c0,0.1,0,0.3,0.2,0.3c0,0,0.1,0,0.1,0c0.1,0,0.2-0.1,0.2-0.2l0.1-0.3
		C82.9,39.3,82.8,39.1,82.7,39.1z"/>
	<path class="st0" d="M89.6,36.3c-0.1-0.1-0.2-0.2-0.3-0.1l-0.2,0.1c-0.1,0.1-0.2,0.2-0.1,0.3c0,0.1,0.1,0.1,0.2,0.1
		c0,0,0.1,0,0.1,0l0.2-0.1C89.6,36.5,89.7,36.4,89.6,36.3z"/>
	<path class="st0" d="M86.6,34.6l0.1,0c0,0,0.1,0,0.1,0c0.1,0,0.2-0.1,0.2-0.2c0-0.1,0-0.3-0.2-0.3l-0.1,0c-0.1,0-0.3,0-0.3,0.2
		C86.4,34.4,86.4,34.5,86.6,34.6z"/>
	<path class="st0" d="M76.9,50.3C76.9,50.3,76.9,50.3,76.9,50.3c0.2,0,0.3-0.1,0.3-0.2c0-0.1,0-0.3-0.2-0.3l-0.1,0
		c-0.1,0-0.3,0-0.3,0.2c0,0.1,0,0.3,0.2,0.3L76.9,50.3z"/>
	<path class="st0" d="M56.5,47.8c-0.1,0.1,0,0.3,0.1,0.3l0.2,0.2c0,0,0.1,0,0.1,0c0.1,0,0.2,0,0.2-0.1c0.1-0.1,0-0.3-0.1-0.3
		l-0.2-0.2C56.7,47.6,56.5,47.7,56.5,47.8z"/>
	<path class="st0" d="M62.3,46.8l0.1-0.1c0.1-0.1,0-0.3-0.1-0.3c-0.1-0.1-0.3,0-0.3,0.1l-0.1,0.1c-0.1,0.1,0,0.3,0.1,0.3
		c0,0,0.1,0,0.1,0C62.2,46.9,62.3,46.8,62.3,46.8z"/>
	<path class="st0" d="M63.7,53.2c0.1,0,0.2,0,0.2-0.1l0.3-0.4c0.1-0.1,0.1-0.3-0.1-0.3c-0.1-0.1-0.3,0-0.3,0.1l-0.3,0.4
		c-0.1,0.1,0,0.3,0.1,0.3C63.6,53.2,63.7,53.2,63.7,53.2z"/>
	<path class="st0" d="M67,45.1c0,0,0-0.1,0-0.1c0-0.1,0-0.2-0.1-0.2c-0.1-0.1-0.3,0-0.3,0.1l-0.1,0.1c0,0,0,0.1,0,0.1
		c0,0.1,0,0.2,0.1,0.2c0,0,0.1,0,0.1,0C66.8,45.2,66.9,45.2,67,45.1L67,45.1z"/>
	<path class="st0" d="M61.3,40.5C61.3,40.5,61.3,40.5,61.3,40.5c0.2,0,0.3-0.2,0.2-0.3l0-0.2c0-0.1-0.2-0.2-0.3-0.2
		C61,39.8,61,39.9,61,40l0,0.2C61.1,40.4,61.2,40.5,61.3,40.5z"/>
	<path class="st0" d="M65.3,34.9c-0.1-0.1-0.3,0-0.3,0.1l-0.3,0.4c-0.1,0.1-0.1,0.3,0.1,0.3c0,0,0.1,0,0.1,0c0.1,0,0.2,0,0.2-0.1
		l0.3-0.4C65.5,35.1,65.4,35,65.3,34.9z"/>
	<path class="st0" d="M67.8,40.5C67.8,40.5,67.9,40.5,67.8,40.5c0.2,0,0.3-0.2,0.2-0.3l0-0.2c0-0.1-0.2-0.2-0.3-0.2
		c-0.1,0-0.2,0.2-0.2,0.3l0,0.2C67.6,40.4,67.7,40.5,67.8,40.5z"/>
	<path class="st0" d="M60.3,44.8c0,0,0.1,0,0.1,0c0.1,0,0.2,0,0.2-0.1c0.1-0.1,0-0.3-0.1-0.3l-0.1-0.1c-0.1-0.1-0.3,0-0.3,0.1
		c-0.1,0.1,0,0.3,0.1,0.3L60.3,44.8z"/>
	<path class="st0" d="M55.2,53.6c0,0,0.1,0,0.1,0c0.1,0,0.2,0,0.2-0.1c0.1-0.1,0-0.3-0.1-0.3l-0.1-0.1c-0.1-0.1-0.3,0-0.3,0.1
		c-0.1,0.1,0,0.3,0.1,0.3L55.2,53.6z"/>
	<path class="st0" d="M59.3,54.9c0.1,0,0.2,0,0.2-0.1c0.1-0.1,0-0.3-0.1-0.3l-0.1-0.1c-0.1-0.1-0.3,0-0.3,0.1
		c-0.1,0.1,0,0.3,0.1,0.3l0.1,0.1C59.2,54.9,59.2,54.9,59.3,54.9z"/>
	<path class="st0" d="M60.9,59.9c0,0,0.1,0,0.1,0c0.1,0,0.2,0,0.2-0.1c0.1-0.1,0-0.3-0.1-0.3l-0.1-0.1c-0.1-0.1-0.3,0-0.3,0.1
		c-0.1,0.1,0,0.3,0.1,0.3L60.9,59.9z"/>
	<path class="st0" d="M53.8,59.4c0.1,0,0.2-0.1,0.2-0.2c0-0.1-0.1-0.3-0.2-0.3l-0.6,0c-0.1,0-0.3,0.1-0.3,0.2c0,0.1,0.1,0.3,0.2,0.3
		L53.8,59.4C53.8,59.4,53.8,59.4,53.8,59.4z"/>
	<path class="st0" d="M57.1,58.5C57.1,58.5,57.1,58.5,57.1,58.5c0.2,0,0.3-0.2,0.2-0.3l-0.2-0.6c0-0.1-0.2-0.2-0.3-0.2
		s-0.2,0.2-0.2,0.3l0.2,0.6C56.9,58.5,57,58.5,57.1,58.5z"/>
	<path class="st0" d="M68.1,33.5c-0.1-0.1-0.3,0-0.3,0.1l-0.1,0.1c-0.1,0.1-0.1,0.3,0.1,0.3c0,0,0.1,0,0.1,0c0.1,0,0.2,0,0.2-0.1
		l0.1-0.1C68.2,33.8,68.2,33.6,68.1,33.5z"/>
	<path class="st0" d="M74.4,41c-0.1-0.1-0.3,0-0.3,0.1l-0.2,0.2c-0.1,0.1-0.1,0.3,0.1,0.3c0,0,0.1,0,0.1,0c0.1,0,0.2,0,0.2-0.1
		l0.2-0.2C74.6,41.2,74.5,41.1,74.4,41z"/>
	<path class="st0" d="M72.8,49.1c0.1,0,0.2,0,0.2,0c0.1-0.1,0.2-0.2,0.1-0.3c-0.1-0.1-0.2-0.2-0.3-0.1c0,0-0.1,0-0.1,0
		c-0.1-0.1-0.2-0.2-0.3-0.1c-0.1,0.1-0.2,0.2-0.1,0.3C72.4,49,72.6,49.1,72.8,49.1z"/>
	<path class="st0" d="M68.9,49.2c0,0,0.1,0,0.1,0c0.1,0,0.2,0,0.2-0.1l0.1-0.1c0.1-0.1,0.1-0.3-0.1-0.3c-0.1-0.1-0.3,0-0.3,0.1
		l-0.1,0.1C68.7,49,68.8,49.2,68.9,49.2z"/>
	<path class="st0" d="M68.6,54.6l0,0.2c0,0.1,0.1,0.2,0.2,0.2c0,0,0,0,0.1,0c0.1,0,0.2-0.2,0.2-0.3l0-0.2c0-0.1-0.2-0.2-0.3-0.2
		C68.7,54.3,68.6,54.5,68.6,54.6z"/>
	<path class="st0" d="M69.3,57c-0.1-0.1-0.2-0.2-0.3-0.1L68.7,57c-0.1,0.1-0.2,0.2-0.1,0.3c0.1,0.1,0.1,0.1,0.2,0.1c0,0,0.1,0,0.1,0
		l0.3-0.2C69.3,57.2,69.4,57.1,69.3,57z"/>
	<path class="st0" d="M65.9,57.8c0.1-0.1,0.1-0.3-0.1-0.3l-0.1-0.1c-0.1-0.1-0.3,0-0.3,0.1s-0.1,0.3,0.1,0.3l0.1,0.1
		c0,0,0.1,0,0.1,0C65.8,57.9,65.9,57.9,65.9,57.8z"/>
	<path class="st0" d="M64.4,63.1c-0.1-0.1-0.3,0-0.3,0.1l-0.3,0.4c-0.1,0.1,0,0.3,0.1,0.3c0,0,0.1,0,0.1,0c0.1,0,0.2,0,0.2-0.1
		l0.3-0.4C64.5,63.3,64.5,63.2,64.4,63.1z"/>
	<path class="st0" d="M70.8,30.9c-0.1,0-0.2,0.2-0.2,0.3l0,0.2c0,0.1,0.1,0.2,0.2,0.2c0,0,0,0,0,0c0.1,0,0.2-0.1,0.2-0.3l0-0.2
		C71.1,31,70.9,30.9,70.8,30.9z"/>
	<path class="st0" d="M71.5,37.2c0.1-0.1,0.1-0.3-0.1-0.3c-0.1-0.1-0.3,0-0.3,0.1L71,37.1c-0.1,0.1-0.1,0.3,0.1,0.3c0,0,0.1,0,0.1,0
		c0.1,0,0.2,0,0.2-0.1L71.5,37.2z"/>
	<path class="st0" d="M70.9,44.4c-0.1-0.1-0.3,0-0.3,0.1s-0.1,0.3,0.1,0.3l0.1,0.1c0,0,0.1,0,0.1,0c0.1,0,0.2,0,0.2-0.1
		c0.1-0.1,0.1-0.3-0.1-0.3L70.9,44.4z"/>
	<path class="st0" d="M75.1,46.2C75.1,46.2,75.2,46.2,75.1,46.2l0.3,0c0.1,0,0.2-0.2,0.2-0.3c0-0.1-0.2-0.2-0.3-0.2l-0.2,0
		c-0.1,0-0.2,0.2-0.2,0.3C74.9,46.2,75,46.2,75.1,46.2z"/>
	<path class="st0" d="M73.4,54.3l-0.1-0.4c0-0.1-0.2-0.2-0.3-0.2c-0.1,0-0.2,0.2-0.2,0.3l0.1,0.4c0,0.1,0.1,0.2,0.2,0.2c0,0,0,0,0,0
		C73.3,54.5,73.4,54.4,73.4,54.3z"/>
	<path class="st0" d="M78.9,41.8c-0.1-0.1-0.2-0.2-0.3-0.1c-0.1,0.1-0.2,0.2-0.1,0.3l0.2,0.3l0.2-0.1l0.3-0.2L78.9,41.8z"/>
	<polygon class="st0" points="78.8,42.2 78.8,42.2 78.6,42.3 	"/>
	<path class="st0" d="M79.8,34.4c0.1,0.1,0.1,0.1,0.2,0.1c0.1,0,0.1,0,0.2-0.1c0.1-0.1,0.1-0.2,0-0.3l-0.4-0.5
		c-0.1-0.1-0.2-0.1-0.3,0c-0.1,0.1-0.1,0.2,0,0.3L79.8,34.4z"/>
	<path class="st0" d="M75.7,35.4c0,0,0.1,0,0.1,0c0.1,0,0.2,0,0.2-0.1c0.1-0.1,0.1-0.3-0.1-0.3l-0.1-0.1c-0.1-0.1-0.3,0-0.3,0.1
		s-0.1,0.3,0.1,0.3L75.7,35.4z"/>
	<path class="st0" d="M74.8,30.6l-0.1-0.3c-0.1-0.1-0.2-0.2-0.3-0.1c-0.1,0-0.2,0.2-0.1,0.3l0.1,0.3c0,0.1,0.1,0.2,0.2,0.2
		c0,0,0.1,0,0.1,0C74.8,30.9,74.9,30.7,74.8,30.6z"/>
	<path class="st0" d="M69.4,61c0.1,0,0.2,0,0.2-0.1l0.1-0.1c0.1-0.1,0.1-0.3-0.1-0.3c-0.1-0.1-0.3,0-0.3,0.1l-0.1,0.1
		c-0.1,0.1-0.1,0.3,0.1,0.3C69.3,61,69.4,61,69.4,61z"/>
	<path class="st0" d="M64.7,49.2C64.7,49.2,64.7,49.2,64.7,49.2c0.2,0,0.3-0.2,0.2-0.3l0-0.2c0-0.1-0.2-0.2-0.3-0.2
		c-0.1,0-0.2,0.2-0.2,0.3l0,0.2C64.5,49.1,64.6,49.2,64.7,49.2z"/>
	<path class="st0" d="M60.1,50.8L60,50.7c-0.1-0.1-0.3,0-0.3,0.1c-0.1,0.1,0,0.3,0.1,0.3l0.1,0.1c0,0,0.1,0,0.1,0
		c0.1,0,0.2,0,0.2-0.1C60.3,51,60.3,50.8,60.1,50.8z"/>
	<path class="st0" d="M63,55.9c-0.1-0.1-0.2-0.2-0.3-0.1s-0.2,0.2-0.2,0.3c0,0.1,0,0.3,0.1,0.4c0.1,0.1,0.1,0.1,0.2,0.1
		c0,0,0.1,0,0.1,0c0.1-0.1,0.1-0.2,0-0.3C63,56.1,63,56,63,55.9z"/>
	<path class="st0" d="M63.3,43c0,0,0.1,0,0.1,0c0.1,0,0.2,0,0.2-0.1c0.1-0.1,0-0.3-0.1-0.3l-0.1-0.1c-0.1-0.1-0.3,0-0.3,0.1
		c-0.1,0.1,0,0.3,0.1,0.3L63.3,43z"/>
	<path class="st0" d="M64.5,39.8c0.1,0,0.2,0,0.2-0.1l0.1-0.1c0.1-0.1,0.1-0.3-0.1-0.3c-0.1-0.1-0.3,0-0.3,0.1l-0.1,0.1
		c-0.1,0.1-0.1,0.3,0.1,0.3C64.4,39.8,64.4,39.8,64.5,39.8z"/>
	<path class="st0" d="M77.4,39.1c0.1-0.1,0.2-0.2,0.1-0.3l-0.2-0.3c-0.1-0.1-0.2-0.2-0.3-0.1c-0.1,0.1-0.2,0.2-0.1,0.3l0.2,0.3
		c0.1,0.1,0.1,0.1,0.2,0.1C77.3,39.2,77.4,39.2,77.4,39.1z"/>
	<path class="st0" d="M55.2,50.7c0.1,0,0.2,0,0.2-0.1l0.1-0.1c0.1-0.1,0-0.3-0.1-0.3c-0.1-0.1-0.3,0-0.3,0.1L55,50.3
		c-0.1,0.1,0,0.3,0.1,0.3C55.1,50.7,55.2,50.7,55.2,50.7z"/>
	<path class="st0" d="M71.2,40.5L71,40c-0.1-0.1-0.2-0.2-0.3-0.2s-0.2,0.2-0.2,0.3l0.2,0.5c0,0.1,0.1,0.2,0.2,0.2c0,0,0.1,0,0.1,0
		C71.2,40.8,71.3,40.6,71.2,40.5z"/>
	<path class="st0" d="M79.6,18.9c0-0.1,0-0.3-0.2-0.3c-0.1,0-0.3,0-0.3,0.2L79,19.1c0,0.1,0,0.3,0.2,0.3c0,0,0.1,0,0.1,0
		c0.1,0,0.2-0.1,0.2-0.2L79.6,18.9z"/>
	<path class="st0" d="M75.1,21.9c0,0.1,0,0.3,0.2,0.3l0.1,0c0,0,0.1,0,0.1,0c0.1,0,0.2-0.1,0.2-0.2c0.1-0.1,0-0.3-0.2-0.3l-0.2,0
		C75.2,21.7,75.1,21.8,75.1,21.9z"/>
	<path class="st0" d="M78.2,26.3c0,0.1,0,0.3,0.2,0.3l0.1,0c0,0,0.1,0,0.1,0c0.1,0,0.2-0.1,0.2-0.2c0-0.1,0-0.3-0.2-0.3l-0.1,0
		C78.4,26.1,78.2,26.1,78.2,26.3z"/>
	<path class="st0" d="M79.2,31.3c0.1,0,0.2-0.1,0.2-0.2c0-0.1-0.1-0.3-0.2-0.3l-0.4-0.1c-0.1,0-0.3,0-0.3,0.2c0,0.1,0,0.3,0.2,0.3
		l0.4,0.1L79.2,31.3C79.1,31.3,79.2,31.3,79.2,31.3z"/>
	<path class="st0" d="M71.7,27.8c0-0.1-0.2-0.2-0.3-0.2l-0.6,0.1c-0.1,0-0.2,0.2-0.2,0.3c0,0.1,0.1,0.2,0.2,0.2c0,0,0,0,0.1,0
		l0.6-0.1C71.7,28.1,71.8,28,71.7,27.8z"/>
	<path class="st0" d="M74.5,26.3c0.1-0.1,0.1-0.2,0.1-0.4l-0.3-0.5c-0.1-0.1-0.2-0.1-0.3-0.1s-0.1,0.2-0.1,0.4l0.3,0.5
		c0.1,0.1,0.1,0.1,0.2,0.1C74.4,26.4,74.4,26.3,74.5,26.3z"/>
	<path class="st0" d="M86,5.4c0.1,0,0.2-0.1,0.2-0.2L86.3,5c0-0.1,0-0.3-0.2-0.3c-0.1,0-0.3,0-0.3,0.2l-0.1,0.3
		C85.7,5.2,85.8,5.4,86,5.4C85.9,5.4,86,5.4,86,5.4z"/>
	<path class="st0" d="M86.8,13c0.1,0,0.3-0.1,0.4-0.1c0.1-0.1,0.1-0.2,0-0.4c-0.1-0.1-0.2-0.1-0.3,0c0,0-0.1,0-0.1,0
		c-0.1-0.1-0.2-0.1-0.3,0c-0.1,0.1-0.1,0.2,0,0.4C86.4,12.9,86.6,13,86.8,13z"/>
	<path class="st0" d="M83.1,14.1C83.2,14.2,83.2,14.2,83.1,14.1c0.2,0,0.3-0.1,0.3-0.2l0.1-0.1c0-0.1,0-0.3-0.2-0.3
		c-0.1-0.1-0.3,0-0.3,0.2L83,13.8C82.9,13.9,83,14.1,83.1,14.1z"/>
	<path class="st0" d="M84.4,19.5c0,0.1,0.1,0.1,0.2,0.1c0,0,0.1,0,0.1,0c0.1-0.1,0.2-0.2,0.1-0.3l-0.1-0.2C84.7,19,84.6,19,84.5,19
		c-0.1,0.1-0.2,0.2-0.1,0.3L84.4,19.5z"/>
	<path class="st0" d="M85.5,22l0.2-0.2c0.1-0.1,0.1-0.3,0-0.4c-0.1-0.1-0.3-0.1-0.3,0l-0.2,0.2c-0.1,0.1-0.1,0.2,0,0.4
		c0.1,0,0.1,0.1,0.2,0.1C85.3,22.1,85.4,22.1,85.5,22z"/>
	<path class="st0" d="M82.3,23.3l0.1,0c0,0,0.1,0,0.1,0c0.1,0,0.2-0.1,0.2-0.2c0-0.1,0-0.3-0.2-0.3l-0.1,0c-0.1,0-0.3,0-0.3,0.2
		C82.1,23.1,82.1,23.3,82.3,23.3z"/>
	<path class="st0" d="M82.3,28.9l-0.1,0.4c0,0.1,0,0.3,0.2,0.3c0,0,0.1,0,0.1,0c0.1,0,0.2-0.1,0.2-0.2l0.1-0.4c0-0.1,0-0.3-0.2-0.3
		C82.5,28.6,82.4,28.7,82.3,28.9z"/>
	<path class="st0" d="M86.1,31c0-0.1,0-0.3-0.2-0.3h0c-0.1,0-0.2,0-0.3,0.1l-0.4,0.4c-0.1,0.1-0.1,0.2,0,0.3
		c0.1,0.1,0.1,0.1,0.2,0.1c0,0,0.1,0,0.1,0C85.9,31.4,86.1,31.2,86.1,31z"/>
	<path class="st0" d="M87.8,28.1C87.8,28.1,87.8,28.1,87.8,28.1C87.7,28,87.6,28,87.5,28L87,28.1c-0.1,0-0.2,0.1-0.2,0.2
		c0,0.1,0.1,0.2,0.2,0.2c0.1,0,0.1,0,0.2,0c0.2,0,0.4-0.1,0.5-0.2C87.8,28.4,87.8,28.2,87.8,28.1z"/>
	<path class="st0" d="M82.4,34.6c0.1,0,0.1,0,0.2-0.1l0.2-0.2c0.1-0.1,0.1-0.2,0-0.3s-0.2-0.1-0.3,0l-0.2,0.2
		c-0.1,0.1-0.1,0.2,0,0.3C82.2,34.6,82.3,34.6,82.4,34.6z"/>
	<path class="st0" d="M83.6,9.4l0.2,0.1L83.9,9l-0.1,0c-0.1,0-0.3,0-0.3,0.1C83.4,9.2,83.5,9.4,83.6,9.4z"/>
	<path class="st0" d="M88.3,8.9L88.1,9C88,9.1,88,9.2,88,9.4c0,0.1,0.1,0.1,0.2,0.1c0,0,0.1,0,0.1,0l0.2-0.1
		c0.1-0.1,0.2-0.2,0.1-0.3C88.6,8.9,88.4,8.9,88.3,8.9z"/>
	<path class="st0" d="M92.9,14.4c0.1,0,0.2-0.1,0.2-0.2c0-0.1,0-0.3-0.2-0.3l-0.3-0.1c-0.1,0-0.3,0-0.3,0.2c0,0.1,0,0.3,0.2,0.3
		L92.9,14.4C92.8,14.4,92.8,14.4,92.9,14.4z"/>
	<path class="st0" d="M90.5,22l0.3,0.1c0,0,0.1,0,0.1,0c0.1,0,0.2-0.1,0.2-0.2c0-0.1,0-0.3-0.2-0.3l-0.3-0.1c-0.1,0-0.3,0-0.3,0.2
		C90.3,21.8,90.3,21.9,90.5,22z"/>
	<path class="st0" d="M87.5,16.9c0,0.1,0.1,0.1,0.2,0.1c0,0,0.1,0,0.1,0c0.1-0.1,0.2-0.2,0.1-0.3l-0.2-0.4c-0.1-0.1-0.2-0.2-0.3-0.1
		c-0.1,0.1-0.2,0.2-0.1,0.3L87.5,16.9z"/>
	<path class="st0" d="M79.6,10.5l-0.2-0.4c-0.1-0.1-0.2-0.2-0.3-0.1c-0.1,0.1-0.2,0.2-0.1,0.3l0.2,0.4c0,0.1,0.1,0.1,0.2,0.1
		c0,0,0.1,0,0.1,0C79.6,10.8,79.7,10.6,79.6,10.5z"/>
	<path class="st0" d="M90.9,30.8c0,0.1,0.1,0.2,0.2,0.2c0,0,0,0,0,0c0.1,0,0.2-0.1,0.2-0.3c0-0.3-0.2-0.5-0.5-0.6
		c-0.1,0-0.3,0-0.3,0.2c0,0.1,0,0.3,0.2,0.3C90.8,30.6,90.9,30.7,90.9,30.8z"/>
	<path class="st0" d="M91.9,26C91.9,26,92,26,91.9,26c0.2,0,0.3-0.1,0.3-0.2c0-0.1-0.1-0.3-0.2-0.3c-0.1,0-0.2-0.1-0.3-0.3
		c0-0.1-0.2-0.2-0.3-0.2c-0.1,0-0.2,0.1-0.2,0.3C91.3,25.6,91.6,25.9,91.9,26z"/>
	<path class="st0" d="M94.1,23c0.1,0,0.1,0.1,0.2,0.1c0.1,0,0.1,0,0.2-0.1c0.1-0.1,0.1-0.3,0-0.4l-0.2-0.2c-0.1-0.1-0.3-0.1-0.3,0
		c-0.1,0.1-0.1,0.3,0,0.4L94.1,23z"/>
	<path class="st0" d="M76.4,12.7c0.1-0.1,0.1-0.3,0-0.4l-0.2-0.2c-0.1-0.1-0.3-0.1-0.3,0c-0.1,0.1-0.1,0.3,0,0.4l0.2,0.2
		c0.1,0.1,0.1,0.1,0.2,0.1C76.3,12.8,76.3,12.7,76.4,12.7z"/>
	<path class="st0" d="M91.4,18.8c0.1,0,0.1,0,0.2,0c0.1-0.1,0.1-0.2,0.1-0.4L91.3,18c-0.1-0.1-0.2-0.1-0.3,0s-0.1,0.2-0.1,0.4
		l0.3,0.4C91.3,18.8,91.3,18.8,91.4,18.8z"/>
	<path class="st0" d="M96,15.1l-0.2-0.2c-0.1-0.1-0.2-0.1-0.3,0s-0.1,0.2,0,0.4l0.2,0.2c0.1,0.1,0.1,0.1,0.2,0.1
		c0.1,0,0.1,0,0.2-0.1C96.1,15.4,96.1,15.2,96,15.1z"/>
	<path class="st0" d="M94.1,10.2l0.3,0.1c0,0,0.1,0,0.1,0c0.1,0,0.2-0.1,0.2-0.2c0-0.1,0-0.3-0.2-0.3l-0.3-0.1
		c-0.1-0.1-0.3,0-0.3,0.2C93.9,10,94,10.2,94.1,10.2z"/>
	<path class="st0" d="M44.6,72.3l-0.4-0.2c-0.1-0.1-0.3,0-0.3,0.1c-0.1,0.1,0,0.3,0.1,0.3l0.4,0.2c0,0,0.1,0,0.1,0
		c0.1,0,0.2,0,0.2-0.1C44.8,72.6,44.7,72.4,44.6,72.3z"/>
	<path class="st0" d="M36.4,76.1c0,0.1,0.1,0.2,0.2,0.2c0,0,0,0,0.1,0l0.2-0.1c0.1,0,0.2-0.2,0.2-0.3c0-0.1-0.2-0.2-0.3-0.2
		l-0.2,0.1C36.5,75.8,36.4,75.9,36.4,76.1z"/>
	<path class="st0" d="M42.9,75.8l0.1,0.1c0,0,0.1,0,0.1,0c0.1,0,0.2,0,0.2-0.1c0.1-0.1,0-0.3-0.1-0.3l-0.1-0.1
		c-0.1-0.1-0.3,0-0.3,0.1C42.7,75.6,42.8,75.8,42.9,75.8z"/>
	<path class="st0" d="M45.7,78.7C45.7,78.7,45.8,78.7,45.7,78.7l0.3-0.1c0.1,0,0.2-0.2,0.2-0.3c0-0.1-0.2-0.2-0.3-0.2l-0.2,0.1
		c-0.1,0-0.2,0.2-0.2,0.3C45.5,78.6,45.6,78.7,45.7,78.7z"/>
	<path class="st0" d="M39.9,79.4c0,0,0.1,0,0.1,0c0.1,0,0.2,0,0.2-0.1c0.1-0.1,0-0.3-0.1-0.3L40,78.9c-0.1-0.1-0.3,0-0.3,0.1
		c-0.1,0.1,0,0.3,0.1,0.3L39.9,79.4z"/>
	<path class="st0" d="M41,70.1l0-0.2c0-0.1-0.2-0.2-0.3-0.2s-0.2,0.2-0.2,0.3l0,0.2c0,0.1,0.1,0.2,0.2,0.2c0,0,0,0,0.1,0
		C40.9,70.3,41,70.2,41,70.1z"/>
	<path class="st0" d="M37.4,72.5l-0.1-0.1c-0.1-0.1-0.3,0-0.3,0.1c-0.1,0.1,0,0.3,0.1,0.3l0.1,0.1c0,0,0.1,0,0.1,0
		c0.1,0,0.2,0,0.2-0.1C37.5,72.7,37.5,72.6,37.4,72.5z"/>
	<path class="st0" d="M36.5,79.4C36.5,79.4,36.6,79.4,36.5,79.4l0.6-0.2c0.1-0.1,0.2-0.2,0.1-0.3s-0.2-0.2-0.3-0.1L36.4,79
		c-0.1,0.1-0.2,0.2-0.1,0.3C36.3,79.4,36.4,79.4,36.5,79.4z"/>
	<path class="st0" d="M32.6,89.2c0.1,0,0.2-0.1,0.2-0.1l0.3-0.5c0.1-0.1,0-0.3-0.1-0.3c-0.1-0.1-0.3,0-0.3,0.1l-0.3,0.5
		c-0.1,0.1,0,0.3,0.1,0.3C32.5,89.2,32.6,89.2,32.6,89.2z"/>
	<path class="st0" d="M37.9,83.3c0.1,0,0.2-0.1,0.2-0.1l0.3-0.5c0.1-0.1,0-0.3-0.1-0.3c-0.1-0.1-0.3,0-0.3,0.1l-0.3,0.5
		c-0.1,0.1,0,0.3,0.1,0.3C37.8,83.3,37.9,83.3,37.9,83.3z"/>
	<path class="st0" d="M38.1,87.5C38.1,87.5,38.2,87.5,38.1,87.5l0.5-0.1c0.1,0,0.2-0.2,0.2-0.3c0-0.1-0.2-0.2-0.3-0.2L38.1,87
		c-0.1,0-0.2,0.2-0.2,0.3C37.9,87.4,38,87.5,38.1,87.5z"/>
	<path class="st0" d="M45.8,86.8c0.1,0,0.1,0,0.2-0.1l0.3-0.4c0.1-0.1,0.1-0.3,0-0.3c-0.1-0.1-0.3-0.1-0.3,0l-0.3,0.4
		c-0.1,0.1-0.1,0.3,0,0.3C45.7,86.7,45.7,86.8,45.8,86.8z"/>
	<path class="st0" d="M43,82.2c0,0,0.1,0,0.1,0l0.4-0.2c0.1-0.1,0.2-0.2,0.1-0.3c-0.1-0.1-0.2-0.2-0.3-0.1l-0.4,0.2
		c-0.1,0.1-0.2,0.2-0.1,0.3C42.8,82.2,42.9,82.2,43,82.2z"/>
	<path class="st0" d="M48.1,81.2l-0.5,0c-0.2,0-0.2,0.1-0.3,0.2c0,0.1,0.1,0.2,0.2,0.3l0.5,0h0c0.1,0,0.2-0.1,0.2-0.2
		C48.4,81.3,48.2,81.2,48.1,81.2z"/>
	<path class="st0" d="M33.4,74l-0.3,0.1c-0.1,0-0.2,0.2-0.2,0.3c0,0.1,0.1,0.2,0.2,0.2c0,0,0,0,0.1,0l0.3-0.1c0.1,0,0.2-0.2,0.2-0.3
		C33.7,74.1,33.5,74,33.4,74z"/>
	<path class="st0" d="M27.2,79.3C27.3,79.3,27.3,79.3,27.2,79.3c0.2,0,0.3-0.1,0.3-0.2c0-0.1,0-0.3-0.2-0.3c0,0-0.1-0.1-0.1-0.1
		c0-0.1,0-0.3-0.2-0.3c-0.1,0-0.3,0.1-0.3,0.2C26.8,78.9,27,79.2,27.2,79.3z"/>
	<path class="st0" d="M28.2,84.9c0.1,0,0.2,0,0.2-0.1c0.1-0.1,0-0.3-0.1-0.3l-0.2-0.1c-0.1-0.1-0.3,0-0.3,0.1s0,0.3,0.1,0.3l0.2,0.1
		C28.1,84.9,28.2,84.9,28.2,84.9z"/>
	<path class="st0" d="M33.4,84.4C33.4,84.4,33.5,84.4,33.4,84.4c0.2,0,0.3-0.2,0.2-0.3l-0.1-0.3c0-0.1-0.2-0.2-0.3-0.2
		c-0.1,0-0.2,0.2-0.2,0.3l0.1,0.3C33.2,84.3,33.3,84.4,33.4,84.4z"/>
	<path class="st0" d="M86.7,24.9L86.7,24.9c-0.1,0.2,0,0.4,0.1,0.4c0,0,0.1,0,0.1,0c0.1,0,0.2-0.1,0.2-0.2l0-0.1l0-0.1
		c0-0.1,0-0.2-0.2-0.3C86.9,24.7,86.7,24.8,86.7,24.9z"/>
	<path class="st0" d="M79.2,15.2c0.1-0.1,0.2-0.2,0.1-0.3l-0.1-0.2c-0.1-0.1-0.2-0.2-0.3-0.1c-0.1,0.1-0.2,0.2-0.1,0.3l0.1,0.2
		c0,0.1,0.1,0.1,0.2,0.1C79.1,15.3,79.1,15.3,79.2,15.2z"/>
	<path class="st0" d="M75,18.5C75.1,18.5,75.1,18.5,75,18.5c0.2,0,0.3,0,0.3-0.2c0.1-0.1,0-0.3-0.2-0.3l-0.1,0c-0.1,0-0.3,0-0.3,0.2
		c0,0.1,0,0.3,0.2,0.3L75,18.5z"/>
	<path class="st0" d="M79.2,22.9c0.1,0,0.1,0,0.2-0.1c0.1-0.1,0-0.2-0.1-0.3c0.1-0.1,0.1-0.3,0-0.4c-0.1-0.1-0.3-0.1-0.3,0
		c-0.1,0.1-0.1,0.2-0.1,0.4c0,0.1,0.1,0.3,0.2,0.3C79.1,22.9,79.2,22.9,79.2,22.9z"/>
	<path class="st0" d="M39.1,46.5C39.1,46.5,39.1,46.5,39.1,46.5c0.2,0,0.3-0.2,0.2-0.3l0-0.1c0-0.1-0.2-0.2-0.3-0.2
		s-0.2,0.2-0.2,0.3l0,0.1C38.9,46.4,39,46.5,39.1,46.5z"/>
	<path class="st0" d="M41.6,39.3c0,0,0.1,0,0.1,0c0.1,0,0.2,0,0.2-0.1c0.1-0.1,0-0.3-0.1-0.3l-0.2-0.1l0,0c-0.1-0.1-0.3,0-0.3,0.1
		c-0.1,0.1,0,0.3,0.1,0.3L41.6,39.3z"/>
	<path class="st0" d="M42,44.5C42,44.5,42,44.5,42,44.5l0.2,0c0.1,0,0.2-0.2,0.2-0.3S42.2,44,42,44l-0.1,0c-0.1,0-0.2,0.2-0.2,0.3
		C41.7,44.5,41.8,44.5,42,44.5z"/>
	<path class="st0" d="M52.5,51.9l0.1-0.3c0-0.1-0.1-0.3-0.2-0.3c-0.1,0-0.3,0.1-0.3,0.2L52,51.8c0,0.1,0.1,0.3,0.2,0.3c0,0,0,0,0,0
		C52.4,52.1,52.5,52,52.5,51.9z"/>
	<path class="st0" d="M26,46.5C26,46.5,26,46.5,26,46.5l0.2,0c0.1,0,0.2-0.2,0.2-0.3c0-0.1-0.2-0.2-0.3-0.2l-0.1,0
		c-0.1,0-0.2,0.2-0.2,0.3C25.8,46.4,25.9,46.5,26,46.5z"/>
	<path class="st0" d="M34.9,33.7c-0.1,0.3,0.1,0.6,0.4,0.7c0,0,0,0,0.1,0c0.1,0,0.2-0.1,0.2-0.2c0-0.1,0-0.3-0.2-0.3
		c0,0-0.1-0.1-0.1-0.1c0-0.1-0.1-0.3-0.2-0.3C35.1,33.5,35,33.6,34.9,33.7z"/>
	<path class="st0" d="M46.6,48.5c-0.1,0-0.3,0-0.3,0.2l-0.2,0.5c0,0.1,0,0.3,0.2,0.3c0,0,0,0,0.1,0c0.1,0,0.2-0.1,0.2-0.2l0.2-0.5
		C46.8,48.7,46.7,48.5,46.6,48.5z"/>
</g>
</svg>
